<svg xmlns="http://www.w3.org/2000/svg" width="149" height="149" fill="none" viewBox="0 0 149 149"><path fill="#2aa048" d="M99.306 4.474a74 74 0 0 1 19.904 10.924c-30.332 2.288-50.2 18.97-56.484 27.293 1.396-.694 3.667-.35 4.627-.092-8.977 8.968-4.369 13.702-.942 14.948 5.594-5.502 13.947-6.534 17.424-6.362-7.021-12.265 20.053-27.884 36.333-35.039a73.7 73.7 0 0 1 12.047 12.148C117.264 33.71 105.79 41.46 100.283 46.38c1.358-.817 3.144-.13 3.867.314-2.562 1.526-7.37 5.84-6.103 10.887 1.269 5.049 9.897 1.05 14.052-1.58-.372 2.595.614 3.272 1.154 3.286 6.362-9.938 15.172-17.698 24.106-23.534a74.4 74.4 0 0 1 6.406 13.531c-6.268 9.922-22.661 32.042-38.505 25.528.191 4.529-1.111 14.231-7.846 16.807-.212 3.109 2.129 7.791 13.182 1.652-.076 1.097-.684 3.437-2.494 4.437q-.15.076-.296.147.153-.068.296-.147c9.074-4.551 27.653-19.606 36.392-46.265 4.843 15.081 4.903 31.825-.928 47.863-13.965 38.409-56.422 58.225-94.832 44.26S-9.49 87.144 4.474 48.734 60.897-9.49 99.306 4.474m-8.95 60.534c-7.748-1.771-28.489-.917-49.467 16.668-26.224 21.981-10.366 30.069-8.656 28.911 1.71-1.159 17.539-16.005 31.39-9.277s4.58 21.866.015 23.082c9.016-1.603 27.436-10.096 28.997-31.249l-3.384-4.622c1.477-1.125 4.512-3.882 4.834-5.908s-1.29-2.913-2.136-3.103c1.456-1.649 4.077-5.905 2.916-9.74s-9.162-3.186-13.017-2.382c1.93-.843 6.333-2.5 8.508-2.38M76.163 83.925c-1.14 1.711-2.847 4.417-2.902 7.983-.873-1.237-3.861-3.61-10.66-3.876 3.147-2.016 9.432-4.506 13.562-4.107m-5.58-66.774c-34.375 15.244-43.57 35.31-43.87 43.438.851-1.22 2.77-1.723 3.624-1.823-1.213 8.952 4.004 12.105 6.764 12.563 3.468-9.988 11.607-13.391 15.243-13.845-16.981-5.41 5.083-29.143 18.238-40.333"/></svg>