<svg xmlns="http://www.w3.org/2000/svg" width="35" height="32" fill="none" viewBox="0 0 35 32"><path fill="#2aa048" d="M12.61 23.854a6.42 6.42 0 0 0-7.866-4.542c-5.514 1.477-6.471 8.924-1.549 11.766 4.911 2.836 10.901-1.68 9.416-7.224M34.141 22.305 23.124 3.222a6.38 6.38 0 0 0-3.9-2.993C13.71-1.25 9.157 4.722 11.999 9.645l11.017 19.083a6.42 6.42 0 0 0 8.774 2.35 6.43 6.43 0 0 0 2.351-8.773"/><path fill="#2aa048" d="m14.883 23.679 1.308-2.266-6.144-10.642a8.6 8.6 0 0 1-1.001-2.674l-5.288 9.159c4.863-1.553 10.027 1.386 11.125 6.423"/></svg>