<svg xmlns="http://www.w3.org/2000/svg" width="60" height="34" fill="none" viewBox="0 0 60 34"><g fill="#fffcee" clip-path="url(#a)"><path d="m26.669 11.528 15.212-1.325C46.165 9.3 46.297 3.299 52.327 3.5c3.805.129 4.602 2.341 4.258 5.677-.13 1.25-1.23 5.74-1.683 6.92-.814 2.121-3.037 1.809-5.16 2.018-3.593.353-7.25.393-10.844.759-4.911.498-10.5 2.572-15.194.206-2.006-1.01-6.18-5.095-8.218-4.855-.426.05-1.005.226-1 .733.051 2.356 4.635 4.258 4.896 5.816.124.735-.261 1.912.377 2.403 1.957.411 3.785.05 5.452 1.427.463-.033 1.63-2.387 2.895-2.661 2.099-.454 2.567 1.625 4.296 2.19 2.342-2.299 3.04-4.098 6.496-1.807 1.585-1.525 2.306-3.372 4.963-2.505.626.204 2.63 2.023 2.906 1.82 1.548-4.498 4.014-3.632 6.59-.507 4.887-8.026 6.986.479 6.593 5.425-.18 2.29-.41 3.104-2.789 3.576-7.054 1.398-15.223.897-22.399 1.328-8.678.519-18.102 2.323-26.594 2.524-1.81.043-4.568.076-5.824-1.39-.946-1.11-2.582-7.442-2.316-8.81s2.401-1.53 2.898-2.464c1.297-2.45 1.729-9.293 2.652-12.519.496-1.73 1.264-4.273 2.706-5.417C9.727 2.243 17.942-.193 19.756.013c4.32.494 5.264 8.413 6.913 11.515M16.23 4.332c-3.568.554-4.46 5.417-.3 5.96 6.137.795 5.188-6.719.3-5.96"/><path d="M15.326 8.24c-1.362-1.326 1.075-3.488 2.28-1.847 1.233 1.678-1.184 2.915-2.28 1.847"/></g><defs><clipPath id="a"><path fill="#fff" d="M0 0h60v34H0z"/></clipPath></defs></svg>