<svg xmlns="http://www.w3.org/2000/svg" width="32" height="32" fill="none" viewBox="0 0 32 32"><path fill="#2aa048" d="M15.847 0C7.109 0 0 7.109 0 15.847s7.109 15.846 15.846 15.846 15.847-7.109 15.847-15.846S24.584 0 15.847 0m-1.275 1.234h2.458v2.458h-2.458zm12.342 14.613c0 6.102-4.965 11.067-11.067 11.067S4.78 21.949 4.78 15.846 9.744 4.78 15.847 4.78s11.067 4.964 11.067 11.067M6.383 4.645 8.12 6.383 6.383 8.12 4.645 6.383zm-2.736 12.43H1.188v-2.458h2.459zm2.736 9.974L4.645 25.31l1.738-1.738L8.12 25.31zm10.647 3.41h-2.458v-2.458h2.458zm8.28-3.41-1.738-1.739 1.738-1.738 1.738 1.738zm0-18.928-1.738-1.738 1.738-1.738 1.738 1.738zm2.646 8.955v-2.459h2.458v2.459z"/><path fill="#2aa048" d="M6.828 15.847c0 4.972 4.046 9.018 9.018 9.018s9.019-4.046 9.019-9.018-4.046-9.019-9.019-9.019-9.018 4.046-9.018 9.019m13.33-.765c.426.692.563 1.307.563 2.038 0 1.807-1.275 2.778-2.724 2.778-.99 0-1.552-.467-1.86-.855l.525 1.857h-1.648l.513-1.815c-.317.377-.871.85-1.824.85-1.45 0-2.731-.99-2.731-2.796 0-.732.133-1.365.558-2.057.664-1.08 4.326-4.185 4.326-4.185s3.64 3.106 4.303 4.185"/></svg>