<svg xmlns="http://www.w3.org/2000/svg" width="36" height="32" fill="none" viewBox="0 0 36 32"><path fill="#2aa048" fill-rule="evenodd" d="m14.062 25.34 3.555 3.434a1.037 1.037 0 0 1 0 1.5l-1.466 1.416a1.127 1.127 0 0 1-1.553 0l-4.39-4.24 3.377-1.884zm21.332-13.016c.46.145.712.623.563 1.068a.884.884 0 0 1-1.105.543l-3.193-1.002a.84.84 0 0 1-.563-1.067.884.884 0 0 1 1.105-.544zm-3.616-4.537a.895.895 0 0 1-1.2-.31.833.833 0 0 1 .322-1.16l2.884-1.608a.895.895 0 0 1 1.2.31.833.833 0 0 1-.322 1.159zM26.925.67c.1-.457.566-.75 1.04-.652a.85.85 0 0 1 .675 1.004l-.698 3.173c-.1.457-.566.75-1.04.652a.85.85 0 0 1-.675-1.004zm-9.178.973c-.839.468-1.129 1.514-.645 2.324l9.626 16.107c.484.81 1.567 1.09 2.406.622.838-.468 1.128-1.514.644-2.324l-3.274-5.48.427-.238c1.492-.832 2.008-2.692 1.147-4.133S25.29 6.582 23.8 7.414l-.428.239-3.22-5.386c-.484-.81-1.566-1.09-2.405-.623M1.399 23.403l.767 1.283c1.304 2.183 4.22 2.937 6.478 1.677l3.35-1.868-6.277-10.503-3.35 1.869C.11 17.12-.672 19.937.633 22.119zm5.803-10.305c3.634-2.411 6.432-5.094 8.602-7.91l9.125 15.27c-3.61.407-7.413 1.407-11.391 3.242z" clip-rule="evenodd"/></svg>