<svg xmlns="http://www.w3.org/2000/svg" width="40" height="39" fill="none" viewBox="0 0 40 39"><path fill="#fffcee" d="M4.943 33.272c-.755-.133-1.317-.847-1.208-1.628.329-2.348 6.34-1.247 7.978-1.204.704.018 4.379.125 4.615-.214.637-2.605-.437-2.22-1.943-3.331-5.37-3.962-1.613-11.889 4.224-13.193 9.27-2.07 12.853 7.984 6.233 13.23-1.32 1.046-2.56.711-1.609 3.248 1.911-.142 3.848-.099 5.76-.19 1.33-.064 5.236-.823 6.137-.011.556.498.366 1.44-.017 1.976-.495.69-2 .83-2.828.888-3.296.237-6.944-.026-10.286.21-.543.097-.606.35-.547.876H32.93c.219 0 1.357.617 1.547.858 1.11 1.387-.317 2.46-1.608 2.799-4.64 1.217-15.036.991-20.065.727-1.407-.075-5.02-.377-6.235-.762-1.572-.499-1.31-2.178.07-2.797 1.923-.862 10.28.015 10.86-.62l.015-.86H4.943zM18.55 18.675c-3.018.621-1.782 4.847 2.088 4.053 1.58-.324 1.902-1.882 1.035-3.119-.731-1.042-1.94-1.177-3.121-.932zM15.498.102c1.851-.22 4.81-.048 6.692.182 4.327.532 3.53 5.425 2 8.292-.656 1.23-1.389 2.384-2.974 1.86-2.232-.737.845-4.978.127-6.46-.577-1.193-5.366-.948-6.04-.131-.95 1.149 1.906 4.804.138 6.255-2.18 1.788-3.29-2.414-3.557-3.887-.593-3.27-.087-5.67 3.614-6.113zM4.624 14.015c1.29.963 6.393 1.758 4.487 4.189-.865 1.103-2.329.427-3.454.14-3.451-.882-6.4-1.834-4.985-5.955.788-2.294 3.819-7.804 6.771-5.89 1.307.848 6.11 6.067 4.038 7.514-2.022 1.412-3.915-2.996-4.985-2.808l-1.874 2.806z"/><path fill="#fffcee" d="M31.885 9.288c-.257-.237-.41-.226-.71-.09-1.343.61-3.447 4.425-5.123 2.967-1.596-1.387 2.259-4.803 3.48-5.467 2.488-1.354 4.226-.03 5.786 1.89 2.467 3.028 4.561 7.489-.606 8.977-.965.278-4.322 1.017-4.845-.029-1.344-2.685 3.978-2.602 4.224-3.858.094-.48-1.778-3.992-2.209-4.39zM9.578 22.06c-1.125 1.381-5.596.948-6.178 1.801l.26 1.559c1.134-.114 6.11-.952 6.656-.092.304.481.321 1.654-.171 2.053-.957.774-6.927 1.582-8.166 1.201-2.223-.685-3.09-7.662.173-8.378 1.189-.26 5.717-.89 6.721-.702 1.086.203 1.32 1.803.707 2.556zM30.252 21.415c-.341-.342-.337-1.31 0-1.646.263-.263 4.609-.742 5.314-.716 1.337.05 3.34.363 3.985 1.698.731 1.513.193 7.199-1.854 7.665-1.494.341-5.044-.843-6.517-1.48-.858-.37-1.814-.617-1.602-1.81.53-2.959 5.347.679 6.53-.046.39-.238 1.14-2.746.66-3.075-1.15-.78-5.785.134-6.514-.59z"/></svg>