<svg xmlns="http://www.w3.org/2000/svg" width="42" height="49" fill="none" viewBox="0 0 42 49"><g fill="#fffcee" clip-path="url(#a)"><path d="m23.743 24.423 3.676-1.213c3.348-1.105 7.912 4.294 9.63 6.623 1.328 1.8 2.755 3.41 2.41 5.805-.285 1.973-3.303 4.661-4.805 2.63-1.591-3.293-2.44-7.38-4.387-10.468-.98-1.549-1.336-1.433-3.066-1.168-3.118.478-7.26 2.118-9.849 3.949-3.561 2.517-1.886 3.127-.386 6.223.837 1.728 2.92 5.997 2.958 7.725.045 2.109-5.056 4.058-6.343 1.697-.9-1.653-1.271-6.567-1.428-8.634-.218-2.85-.742-6.077 1.637-8.154 1.495-1.305 3.44-1.95 5.086-2.996l-1.56-3.437c-3.914 1.75-8.242 1.751-11.157-1.748-1.297-1.551-4.975-7.527-5.264-9.338C.57 9.882 4.865 7.05 6.644 9.01c1.632 1.798 2.25 7.191 3.293 9.671 1.099 2.614 1.569 2.486 4.125 2.037 3.843-.674 8.365-2.68 11.047-5.544.145-.663-.934-3.58-1.244-4.43-.71-1.95-2.527-4.957-2.33-6.992s4.617-3.713 5.816-1.636c2.117 3.666 2.46 9.598 1.513 13.673-.735 3.162-3.556 4.46-6.097 6.059l.975 2.573z"/><path d="M22.113 31.667c6.161-3.02 10.997 7.64 3.175 9.069-5.233.955-8.14-6.633-3.175-9.069m.645 2.658c-1.85 1.123-.103 3.972 1.988 3.845 4.722-.285 1.622-6.035-1.988-3.845M13.067 7.61c5.753-3.049 10.445 3.766 6.488 7.45-5.445 5.068-11.687-4.695-6.488-7.45m1.118 2.057c-2.126 1.257-.061 4.453 2.428 3.989 3.995-.744.67-5.819-2.428-3.989"/></g><defs><clipPath id="a"><path fill="#fff" d="M0 9.32 28.237 0l12.927 39.168-28.237 9.32z"/></clipPath></defs></svg>