<svg xmlns="http://www.w3.org/2000/svg" width="32" height="52" fill="none" viewBox="0 0 32 52"><g fill="#fffcee" clip-path="url(#a)"><path d="M8.32 40.735c-.083-.012-.165-.286-.351-.237-.452.62 2.574 5.6.944 7.445-.897 1.017-6.143.953-7.387.32-2.554-1.303.467-6.386.973-8.365-3.207-1.859-2.698-4.256-1.886-7.374 2.053-7.88 6.273-19.99 9.663-27.375 1.272-2.766 2.996-6.454 6.638-4.69 4.323 2.092 9.08 14.44 10.686 19.029 1.245 3.556 3.824 10.404 4.3 13.868.117.849.164 2.073-.05 2.898-.264 1.017-1.728 1.887-1.759 2.462-.075 1.404 2.706 4.57 1.646 6.343-.638 1.07-5.628 1.797-6.725.882-.219-.183-.815-1.36-.815-1.544v-3.778c-.82-.818-2.074-.104-3.058-.116.513 3.51 5.599 8.927-.047 10.698-1.828.572-6.944 1.565-8.192-.185-1.187-1.664.26-7.612.376-9.797l-.254-.482c-1.479-.144-3.275.196-4.705 0zM15.14 9.093c-.692-.005-3.494 7.508-3.885 8.612-1.257 3.549-3.723 10.833-3.294 14.415.11.931.39 1.236 1.248 1.581 2.406.97 12.183.56 14.455-.94 1.356-.897.485-2.887.125-4.25-1.034-3.917-2.837-9.063-4.417-12.806-1.046-2.475-2.157-4.83-4.232-6.612"/><path d="M15.219 20.01c4.375-.134 5.604 1.641 4.634 5.854-1.446 6.291-6.334 6.823-8.367.589-1.262-3.87-.842-6.303 3.733-6.445zm.28 7.263c.765.567 1.81-3.177 1.87-3.68-.02-.996-2.638-.55-3.278-.322z"/></g><defs><clipPath id="a"><path fill="#fff" d="M0 0h32v52H0z"/></clipPath></defs></svg>