<svg xmlns="http://www.w3.org/2000/svg" width="35" height="27" fill="none" viewBox="0 0 35 27"><path fill="#2aa048" fill-rule="evenodd" d="M2.811 1.553 13.33 12.04c2.294 2.282 6.044 2.284 8.34 0L32.19 1.553a.238.238 0 0 0-.032-.365A6.6 6.6 0 0 0 28.372 0H6.628a6.6 6.6 0 0 0-3.785 1.188.238.238 0 0 0-.032.365M0 6.605c0-1.102.274-2.143.757-3.058a.24.24 0 0 1 .382-.058l10.385 10.35c3.29 3.283 8.66 3.285 11.952 0L33.86 3.49a.24.24 0 0 1 .382.058c.483.915.757 1.956.757 3.058v13.79C35 24.04 32.025 27 28.372 27H6.628C2.975 27 0 24.04 0 20.395z" clip-rule="evenodd"/></svg>