<svg xmlns="http://www.w3.org/2000/svg" width="30" height="30" fill="none" viewBox="0 0 30 30"><path fill="#2aa048" fill-rule="evenodd" d="M13.603 19.537c0-.833-.331-1.632-.92-2.22a3.14 3.14 0 0 0-2.22-.92H3.14c-.833 0-1.631.331-2.22.92A3.14 3.14 0 0 0 0 19.537v7.324c0 .833.33 1.631.92 2.22.588.588 1.386.919 2.219.919h7.324c.833 0 1.632-.33 2.22-.92.589-.588.92-1.386.92-2.219zm15.695 0c0-.833-.331-1.632-.92-2.22a3.14 3.14 0 0 0-2.22-.92h-7.324c-.833 0-1.631.331-2.22.92a3.14 3.14 0 0 0-.919 2.22v7.324c0 .833.33 1.631.92 2.22.588.588 1.386.919 2.22.919h7.324c.832 0 1.63-.33 2.219-.92.589-.588.92-1.386.92-2.219zm-4.582-5.449 4.365-4.365a3.14 3.14 0 0 0 0-4.439L24.716.92a3.14 3.14 0 0 0-4.439 0l-4.365 4.365a3.14 3.14 0 0 0 0 4.439l4.365 4.365a3.14 3.14 0 0 0 4.439 0M13.602 3.841c0-.832-.33-1.63-.92-2.219a3.14 3.14 0 0 0-2.219-.92H3.14c-.833 0-1.631.331-2.22.92A3.14 3.14 0 0 0 0 3.842v7.324c0 .833.33 1.631.92 2.22.588.588 1.386.919 2.219.919h7.324c.833 0 1.632-.33 2.22-.92.589-.588.92-1.386.92-2.22z" clip-rule="evenodd"/></svg>