<svg xmlns="http://www.w3.org/2000/svg" width="32" height="28" fill="none" viewBox="0 0 32 28"><path fill="#2aa048" fill-rule="evenodd" d="M7.164 24.5a2.28 2.28 0 0 1 1.979-1.167c.845 0 1.584.47 1.98 1.167h19.734c.63 0 1.143.523 1.143 1.166 0 .645-.512 1.167-1.143 1.167H11.123A2.28 2.28 0 0 1 9.142 28c-.845 0-1.584-.47-1.98-1.167h-6.02c-.63 0-1.143-.522-1.143-1.166S.512 24.5 1.143 24.5zM32 3.5C32 1.567 30.465 0 28.571 0H3.43C1.535 0 0 1.567 0 3.5v14C0 19.433 1.535 21 3.429 21H28.57C30.465 21 32 19.433 32 17.5zm-13.029 7.933c.288-.22.458-.566.458-.933s-.17-.713-.457-.934l-4.572-3.5a1.12 1.12 0 0 0-1.197-.11A1.17 1.17 0 0 0 12.572 7v7c0 .442.244.846.631 1.043.388.198.85.155 1.197-.11z" clip-rule="evenodd"/></svg>