<svg xmlns="http://www.w3.org/2000/svg" width="1196" height="639" fill="none" viewBox="0 0 1196 639"><g fill="#f7c914" opacity=".16"><path d="M145.891 82.886c1.371-.236 2.305-1.449 2.099-2.723s-1.487-2.123-2.858-1.888l-53.957 8.979c-2.984-18-5.499-36.162-7.863-54.438l51.752-6.712c1.888 14.59 3.84 28.888 6.021 42.833L99.926 75.37c-1.749-11.093-3.291-22.3-4.807-33.55l30.869-4.115.634 4.669-25.256 3.42c-1.372.18-2.347 1.435-2.153 2.793.18 1.358 1.449 2.305 2.834 2.11l25.255-3.489.552 4.018-25.24 3.544c-1.371.195-2.333 1.45-2.139 2.794.194 1.357 1.462 2.29 2.847 2.082l25.239-3.628.661 4.6-25.223 3.71c-1.371.194-2.332 1.464-2.125 2.807s1.49 2.263 2.861 2.055l27.7-4.191c1.371-.208 2.333-1.436 2.126-2.738a1717 1717 0 0 1-3.857-27.693c-.18-1.343-1.435-2.291-2.82-2.11L92.026 37.17a2.51 2.51 0 0 0-2.167 2.808c1.716 12.94 3.515 25.824 5.533 38.592a2.4 2.4 0 0 0 1.004 1.605c.536.379 1.22.532 1.87.435l46.098-7.419c1.371-.221 2.306-1.42 2.114-2.709-2.432-15.4-4.582-31.249-6.669-47.502a2.5 2.5 0 0 0-.95-1.648 2.5 2.5 0 0 0-1.857-.491L80.246 28.14a2.52 2.52 0 0 0-2.18 2.808c2.564 19.967 5.308 39.847 8.617 59.563.222 1.357 1.518 2.276 2.903 2.04l56.388-9.694zM2.529 38.134c-1.386.18-2.347 1.45-2.166 2.85.18 1.399 1.436 2.388 2.822 2.208l54.246-7.026c2.38 18.401 4.93 36.882 8.007 55.366l-51.48 8.568c-2.633-15.77-4.846-31.299-6.872-46.553l41.302-5.504c1.549 11.5 3.125 23.012 4.968 34.603l-30.772 4.808-.767-5 25.207-3.836c1.371-.208 2.318-1.518 2.095-2.917-.222-1.413-1.492-2.374-2.863-2.18l-25.223 3.725-.613-4.28 25.224-3.656c1.372-.194 2.332-1.49 2.123-2.904-.208-1.399-1.478-2.373-2.863-2.18L19.664 67.8l-.681-4.932 25.254-3.503c1.372-.194 2.333-1.477 2.152-2.877-.195-1.399-1.464-2.374-2.836-2.194l-27.75 3.776c-1.372.18-2.332 1.49-2.137 2.904a1547 1547 0 0 0 4.373 29.85c.223 1.44 1.535 2.456 2.906 2.234l35.712-5.74c1.371-.222 2.29-1.532 2.082-2.93-2.083-13.212-3.916-26.4-5.663-39.521a2.54 2.54 0 0 0-.964-1.676 2.54 2.54 0 0 0-1.858-.505L3.921 48.762c-1.386.18-2.346 1.477-2.165 2.89 2.24 16.96 4.697 34.275 7.674 51.942a2.75 2.75 0 0 0 1.035 1.757c.55.42 1.235.601 1.899.477l56.388-9.694c1.37-.236 2.275-1.546 2.053-2.93-3.372-20.063-6.147-40.15-8.713-60.187a2.516 2.516 0 0 0-2.822-2.18zM148.032 94.778c1.37-.264 2.277-1.463 2.043-2.708-.219-1.26-1.513-2.068-2.884-1.818L13.896 114.479c-1.37.25-2.26 1.657-1.994 3.138.28 1.494 1.62 2.496 2.99 2.232l133.14-25.058zM153.373 120.217c1.355-.319 2.234-1.545 1.96-2.734-.273-1.189-1.594-1.913-2.949-1.608l-132.2 29.679c-1.356.304-2.174 1.779-1.824 3.287.35 1.507 1.73 2.48 3.085 2.175l131.942-30.799zM133.135 104.325l-.884-4.608c-5.342.995-8.938 5.957-7.894 10.978 1.058 5.008 6.205 8.115 11.543 6.911 5.297-1.175 8.798-6.065 7.785-10.879-1.013-4.828-6.064-8.034-11.434-7.01zc2.629-.525 5.105 1.038 5.611 3.417s-1.211 4.775-3.812 5.327c-2.614.552-5.131-.954-5.652-3.388-.52-2.421 1.238-4.845 3.853-5.356"/><path d="M134.277 109.902c.706-.153 1.179-.802 1.041-1.452s-.827-1.067-1.533-.928c-.705.139-1.179.788-1.04 1.452.138.664.827 1.067 1.532.928M32.499 124.263l-1.022-5.287c-5.328 1.023-8.83 6.511-7.617 12.349 1.227 5.838 6.526 9.608 11.864 8.418 5.297-1.189 8.66-6.729 7.464-12.387-1.182-5.644-6.341-9.389-11.711-8.38zc2.63-.511 5.152 1.314 5.763 4.108.584 2.795-1.057 5.508-3.657 6.06-2.615.552-5.208-1.285-5.806-4.121-.612-2.836 1.098-5.537 3.714-6.048z"/><path d="M33.807 130.738c.706-.153 1.163-.884.995-1.645-.154-.761-.872-1.26-1.578-1.121-.705.139-1.163.884-.995 1.645s.873 1.274 1.578 1.121M66.041 117.622l-.975-5.051c-5.343 1.009-8.862 6.33-7.71 11.892 1.18 5.561 6.419 9.11 11.758 7.92 5.296-1.189 8.705-6.508 7.57-11.889-1.121-5.381-6.248-8.933-11.618-7.923zc2.63-.511 5.137 1.231 5.718 3.873.552 2.656-1.104 5.259-3.719 5.825-2.614.552-5.19-1.174-5.759-3.872-.581-2.697 1.145-5.302 3.76-5.826"/><path d="M67.3 123.794a1.336 1.336 0 0 0 1.01-1.59c-.153-.733-.857-1.206-1.562-1.053-.706.139-1.164.857-1.01 1.59s.857 1.206 1.562 1.053M99.597 110.967l-.93-4.83c-5.342 1.009-8.907 6.151-7.802 11.435 1.12 5.285 6.312 8.613 11.65 7.423 5.297-1.175 8.752-6.287 7.678-11.391-1.06-5.105-6.157-8.491-11.526-7.467zc2.629-.525 5.12 1.134 5.671 3.652.536 2.517-1.151 5.023-3.765 5.576-2.615.552-5.161-1.065-5.699-3.638-.55-2.559 1.191-5.08 3.806-5.591z"/><path d="M100.785 116.849c.705-.153 1.164-.829 1.025-1.521-.138-.691-.842-1.136-1.547-.983-.706.153-1.165.829-1.026 1.521a1.3 1.3 0 0 0 1.548.983M69.718 29.503a2.525 2.525 0 0 0-2.18 2.822c2.565 20.009 5.325 40.027 8.682 59.979a2.514 2.514 0 0 0 2.902 2.067 2.53 2.53 0 0 0 2.068-2.902c-3.326-19.841-6.085-39.79-8.65-59.785a2.535 2.535 0 0 0-2.822-2.18M171.63 178.888c1.295-.512 1.977-1.845 1.538-2.961-.439-1.117-1.852-1.617-3.148-1.118l-51.006 19.769c-1.722-4.175-3.14-8.398-4.696-12.604-1.501-4.221-2.85-8.5-4.268-12.751-2.63-8.588-5.164-17.22-7.338-25.97l50.573-12.871c3.255 12.758 6.96 25.089 11.238 36.937l-39.185 14.144c-1.906-5.046-3.51-10.252-5.238-15.399-1.563-5.22-3.208-10.396-4.605-15.703l30.008-8.293 1.138 4.144-24.504 7.031c-1.34.388-2.147 1.724-1.747 2.98.386 1.257 1.762 1.951 3.101 1.55l24.429-7.294 1.071 3.522-24.37 7.514c-1.325.401-2.104 1.751-1.718 3.007.372 1.257 1.802 1.909 3.127 1.48l24.281-7.777 1.33 4.002-24.192 8.053c-1.325.443-2.062 1.791-1.648 3.033s1.802 1.882 3.126 1.425l26.476-9.154c1.311-.457 2.077-1.75 1.707-2.882-1.301-3.947-2.643-7.88-3.821-11.927-.596-2.016-1.233-4.004-1.816-6.048l-1.692-6.148c-.329-1.174-1.676-1.842-3.03-1.496l-34.962 9.281c-1.34.36-2.147 1.696-1.788 2.981.852 3.039 1.65 6.121 2.558 9.145l2.736 9.073 2.971 8.97c.963 2.996 2.118 5.918 3.164 8.884.22.593.674 1.084 1.263 1.336a2.58 2.58 0 0 0 1.904.032l43.724-16.388c1.296-.484 2.035-1.763 1.652-2.839-4.744-12.936-8.82-26.469-12.337-40.555-.137-.566-.535-1.045-1.096-1.325a2.72 2.72 0 0 0-1.88-.199l-55.574 13.609c-1.354.333-2.175 1.669-1.843 3.009 2.332 9.664 5.133 19.18 8.03 28.652 3.078 9.427 6.222 18.755 9.99 27.974.497 1.268 1.955 1.892 3.25 1.366l53.144-21.201zM23.038 157.701c-1.355.332-2.131 1.834-1.753 3.355s1.785 2.479 3.126 2.132l53.006-13.502c2.294 9.179 4.949 18.308 7.741 27.393 1.507 4.513 2.931 9.055 4.535 13.552 1.645 4.468 3.18 9.008 4.976 13.39l-48.663 18.861c-1.577-3.858-3.035-7.997-4.519-12.065-1.526-4.082-2.871-8.167-4.217-12.266l-2.011-6.142-1.859-6.131-1.844-6.131-1.692-6.12 40.162-11.094c1.533 5.804 3.356 11.561 5.083 17.333 1.92 5.741 3.716 11.512 5.843 17.193L51.656 208.03l-1.866-5.144 24.088-8.37c1.297-.457 1.975-1.957 1.517-3.364-.459-1.394-1.905-2.171-3.23-1.742l-24.178 8.08-1.477-4.457 24.25-7.86c1.326-.429 2.019-1.915 1.56-3.309-.458-1.408-1.85-2.214-3.189-1.798l-24.34 7.583-1.561-5.164 24.414-7.321c1.326-.402 2.061-1.861 1.644-3.27-.417-1.408-1.85-2.241-3.176-1.854L39.19 177.8c-1.34.388-2.06 1.916-1.599 3.421 1.577 5.22 3.097 10.427 4.882 15.629l2.614 7.81 2.822 7.793c.544 1.503 2.047 2.321 3.343 1.823l33.88-12.691c1.295-.484 1.96-1.998 1.46-3.363-1.148-3.242-2.392-6.454-3.458-9.711l-3.223-9.771-2.973-9.818c-.996-3.273-1.84-6.576-2.766-9.85a2.7 2.7 0 0 0-1.199-1.587 2.53 2.53 0 0 0-1.922-.282L25.92 169.187c-1.34.36-2.088 1.89-1.669 3.409 1.272 4.587 2.488 9.147 3.913 13.745 1.37 4.585 2.753 9.183 4.33 13.777l2.291 6.887 2.471 6.883 2.512 6.868 2.604 6.602c.278.703.79 1.29 1.436 1.611.631.321 1.34.362 1.96.113l53.145-21.201c1.296-.512 1.919-1.996 1.393-3.306-3.87-9.466-7.163-19.264-10.343-29.008-3.002-9.804-5.893-19.651-8.3-29.605-.346-1.368-1.724-2.202-3.066-1.884l-55.574 13.609zM175.889 189.125c1.281-.553 1.949-1.872 1.497-2.933s-1.849-1.491-3.13-.952L49.358 237.737c-1.281.54-1.804 2.189-1.177 3.691s2.185 2.262 3.452 1.709zM186.046 210.162c1.223-.664 1.794-1.981 1.288-2.957-.519-.976-1.941-1.24-3.179-.604L63.814 268.856c-1.238.636-1.607 2.352-.813 3.837.78 1.485 2.418 2.147 3.642 1.497l119.403-64.015zM163.284 201.336l-.914-1.94-.846-2.04c-2.493 1.092-4.386 2.991-5.384 5.192-.958 2.131-1.021 4.549.009 6.723 1.029 2.161 2.948 3.651 5.21 4.245 2.249.608 4.952.304 7.358-.925 2.448-1.243 4.146-3.166 5.118-5.297.971-2.145 1.092-4.453.135-6.476s-2.832-3.375-5.108-3.983c-2.236-.664-4.846-.57-7.352.536l.846 2.039.914 1.94c2.423-1.104 5.174-.367 6.131 1.643s-.214 4.602-2.608 5.775c-2.393 1.173-5.131.449-6.131-1.642-.986-2.092.171-4.671 2.594-5.775z"/><path d="M165.546 206.057c.661-.318.966-1.019.705-1.569-.261-.551-1.015-.758-1.676-.453-.66.305-.98 1.005-.705 1.57.276.564 1.016.757 1.663.453zM69.957 243.952l-1.233-2.615-1.107-2.604c-2.493 1.092-4.27 3.239-5.08 5.853-.739 2.626-.497 5.719.88 8.609 1.378 2.904 3.63 5.04 6.124 6.129 2.494 1.09 5.342 1.075 7.748-.154 2.448-1.243 4.002-3.455 4.728-6.068s.527-5.595-.778-8.347-3.499-4.792-5.98-5.882c-2.424-1.091-5.15-1.231-7.642-.126l1.107 2.604 1.233 2.615c2.437-1.105 5.45.225 6.741 2.949 1.29 2.725.41 5.896-1.984 7.083s-5.421-.142-6.755-2.949-.439-5.993 1.984-7.083z"/><path d="M72.99 250.352c.66-.319.893-1.171.544-1.928-.348-.757-1.175-1.116-1.835-.797-.661.305-.894 1.171-.545 1.928.362.756 1.189 1.115 1.835.797M101.069 229.746l-1.13-2.395-1.021-2.41c-2.493 1.091-4.313 3.156-5.18 5.632-.813 2.461-.673 5.334.589 7.99 1.261 2.656 3.397 4.572 5.819 5.51 2.408.938 5.212.813 7.618-.416 2.448-1.243 4.045-3.359 4.858-5.82s.716-5.21-.474-7.728a10.41 10.41 0 0 0-5.689-5.249c-2.352-.953-5.049-1.011-7.54.094l1.02 2.411 1.131 2.395c2.423-1.104 5.362.018 6.537 2.509 1.189 2.491.206 5.469-2.187 6.656-2.394 1.187-5.32.064-6.538-2.509s-.235-5.552 2.188-6.656z"/><path d="M103.842 235.583c.661-.318.922-1.129.59-1.803-.32-.689-1.118-.992-1.778-.687-.661.304-.923 1.115-.603 1.817.333.688 1.131.992 1.778.687zM132.181 215.542l-1.015-2.161-.933-2.218a9.98 9.98 0 0 0-5.282 5.412c-.886 2.296-.847 4.934.299 7.357a9.26 9.26 0 0 0 5.515 4.877c2.335.773 5.081.552 7.488-.677 2.448-1.243 4.102-3.263 4.987-5.559s.904-4.838-.169-7.095c-1.073-2.271-3.049-3.843-5.398-4.616a10.1 10.1 0 0 0-7.44.315l.933 2.218 1.016 2.161c2.423-1.104 5.261-.174 6.334 2.069s-.011 5.029-2.391 6.215c-2.393 1.187-5.232.257-6.334-2.083-1.102-2.325-.033-5.111 2.39-6.215"/><path d="M134.689 220.825c.661-.319.952-1.074.647-1.694-.29-.619-1.073-.867-1.719-.563-.661.305-.952 1.061-.647 1.694s1.073.882 1.719.563M88.828 141.598a2.497 2.497 0 0 0-1.829 3.051c2.377 9.844 5.238 19.58 8.21 29.273 3.15 9.634 6.398 19.266 10.225 28.65.512 1.295 1.983 1.933 3.265 1.421a2.53 2.53 0 0 0 1.421-3.265c-3.797-9.301-6.987-18.795-10.107-28.318-2.928-9.597-5.76-19.223-8.12-28.984-.333-1.341-1.71-2.161-3.052-1.828zM218.398 257.839c1.066-.896 1.343-2.319.618-3.166-.726-.847-2.184-.831-3.264.051l-42.376 34.587c-11.249-13.807-21.405-28.483-30.296-43.892l45.155-26.154c5.975 10.564 12.885 20.595 20.287 30.283l-33.043 25.371c-6.6-8.44-12.556-17.337-18.292-26.35l26.456-16.419 2.221 3.401-21.467 13.75c-1.166.746-1.553 2.226-.851 3.309.703 1.084 2.208 1.332 3.359.559l21.266-14.066 1.907 2.949-21.095 14.312c-1.151.773-1.483 2.266-.74 3.307s2.276 1.247 3.413.446l20.88-14.613 2.358 3.315-20.68 14.915c-1.123.814-1.44 2.32-.697 3.361s2.247 1.234 3.37.392l22.478-16.701c1.095-.828 1.483-2.266.811-3.197l-3.459-4.891c-1.13-1.644-2.37-3.217-3.418-4.919-2.123-3.375-4.384-6.664-6.452-10.068-.575-.989-2.01-1.21-3.205-.506l-31.011 18.621c-1.194.718-1.623 2.213-.947 3.353 6.6 10.537 13.503 20.93 21.282 30.68.385.506.974.814 1.615.871a2.58 2.58 0 0 0 1.822-.55l36.626-28.958c1.094-.869 1.427-2.279.743-3.154-8.17-10.534-15.723-21.497-22.177-33.065-.273-.453-.765-.763-1.364-.862a2.87 2.87 0 0 0-1.855.37l-49.926 27.944c-1.209.677-1.638 2.172-.947 3.353 9.745 17.115 21.015 33.366 33.598 48.549.882 1.039 2.454 1.16 3.52.264l43.818-36.797zM70.122 280.695c-1.209.677-1.508 2.406-.673 3.848.848 1.441 2.513 2.061 3.708 1.357l47.339-27.406a360.4 360.4 0 0 0 32.671 47.303l-40.435 32.993c-11.152-13.795-21.567-28.258-31.009-43.378l35.403-21.973c6.583 10.343 13.426 20.528 20.953 30.186l-24.698 18.954-3.408-4.419 20.437-15.244c1.109-.827 1.271-2.456.413-3.689-.872-1.219-2.476-1.548-3.613-.734l-20.651 14.942-2.801-3.931 20.837-14.696c1.137-.8 1.354-2.444.483-3.663-.858-1.219-2.491-1.576-3.642-.789l-21.037 14.394c-1.1-1.506-2.076-3.098-3.108-4.661l21.238-14.106c1.152-.773 1.438-2.418.622-3.666-.817-1.262-2.423-1.661-3.589-.915l-23.564 15.153c-1.166.745-1.396 2.472-.507 3.844 1.561 2.358 3.04 4.774 4.67 7.089l4.902 6.918c1.657 2.287 3.246 4.631 4.958 6.875l5.176 6.69c.998 1.286 2.685 1.627 3.779.758l28.379-22.431c1.094-.869 1.242-2.497.344-3.66-8.62-10.845-16.338-22.388-23.67-34.133a2.7 2.7 0 0 0-1.581-1.233 2.46 2.46 0 0 0-1.926.247l-40.03 24.038c-1.194.718-1.465 2.46-.617 3.902a430 430 0 0 0 34.896 48.801c.512.615 1.215 1.032 1.94 1.156.725.125 1.416-.042 1.935-.469l43.819-36.796c1.065-.897 1.186-2.497.262-3.589-13.153-15.881-24.966-32.899-35.172-50.839-.719-1.222-2.284-1.663-3.507-.986l-49.926 27.944zM225.403 265.894c1.023-.937 1.245-2.359.492-3.177-.752-.819-2.223-.748-3.261.176l-101.74 89.46c-1.051.924-.989 2.659.133 3.887s2.863 1.471 3.886.534l100.49-90.866zM241.919 282.762c.953-1.005 1.063-2.452.228-3.228-.835-.761-2.29-.579-3.243.412l-94.376 97.218c-.98 1.006-.793 2.725.424 3.854 1.203 1.129 2.955 1.219 3.908.214zM217.338 281.434l-2.911-3.193c-2.006 1.832-3.181 4.203-3.439 6.584-.231 2.352.373 4.785 2.115 6.473 3.431 3.446 9.286 3.079 13.084-.816 3.798-3.91 4.308-9.685 1.119-12.886-1.643-1.579-3.757-2.384-6.088-2.269-2.318.116-4.771 1.082-6.791 2.914zc1.964-1.831 4.713-1.928 6.342-.349 1.588 1.594 1.352 4.419-.541 6.304s-4.752 2.067-6.41.405c-1.686-1.633-1.327-4.544.609-6.36"/><path d="M221.008 285.235c.517-.511.585-1.276.146-1.712s-1.216-.392-1.748.104c-.532.497-.586 1.276-.147 1.712.44.45 1.231.392 1.749-.104M142.595 351.726l-3.877-4.229c-2.006 1.832-2.982 4.435-2.885 7.184.109 2.72 1.196 5.671 3.463 7.891 4.48 4.536 11.213 5.027 15.011 1.118 3.798-3.91 3.43-10.543-.809-14.834-2.168-2.124-4.764-3.434-7.436-3.687-2.659-.266-5.325.482-7.344 2.314l3.876 4.229c1.964-1.831 5.139-1.478 7.278.633 2.113 2.125 2.289 5.386.395 7.272-1.893 1.885-5.177 1.631-7.346-.549-2.196-2.165-2.263-5.525-.326-7.342"/><path d="M147.465 356.786c.517-.511.472-1.399-.109-1.985-.582-.585-1.472-.651-2.004-.154s-.472 1.384.109 1.984c.581.586 1.486.651 2.004.155M167.509 328.297l-3.564-3.888c-2.006 1.832-3.039 4.353-3.07 6.979-.004 2.598.926 5.371 3.023 7.413 4.126 4.169 10.562 4.388 14.36.479 3.798-3.91 3.727-10.257-.171-14.18-1.984-1.934-4.424-3.094-6.996-3.209-2.545-.13-5.14.686-7.16 2.518l3.564 3.888c1.964-1.831 4.997-1.627 6.966.306 1.942 1.948 1.976 5.059.083 6.944s-5.035 1.781-7.034-.235c-2.026-1.988-1.951-5.198-.015-7.015z"/><path d="M171.975 332.93c.518-.51.515-1.358-.024-1.889-.538-.531-1.386-.569-1.918-.059-.532.511-.515 1.344.024 1.889s1.4.57 1.918.059M192.423 304.865l-3.237-3.534a9.96 9.96 0 0 0-3.255 6.775c-.118 2.475.657 5.085 2.569 6.95 3.785 3.815 9.924 3.734 13.722-.176 3.798-3.909 4.011-9.97.467-13.54-1.814-1.756-4.097-2.738-6.542-2.731a10.3 10.3 0 0 0-6.975 2.723l3.237 3.533c1.964-1.831 4.855-1.777 6.654-.021 1.758 1.771 1.664 4.745-.229 6.631-1.893 1.885-4.893 1.917-6.722.092-1.856-1.811-1.639-4.871.298-6.688z"/><path d="M196.496 309.09c.517-.51.543-1.316.061-1.807s-1.302-.474-1.833.037c-.532.51-.557 1.316-.061 1.807s1.315.487 1.833-.037M129.241 247.624c-1.209.677-1.623 2.199-.918 3.421 10.048 17.651 21.676 34.409 34.628 50.044.911 1.065 2.497 1.214 3.563.318a2.514 2.514 0 0 0 .319-3.535 343.5 343.5 0 0 1-34.128-49.331 2.576 2.576 0 0 0-3.464-.931zM288.646 319.397c.755-1.168.574-2.609-.397-3.229-.985-.606-2.353-.245-3.135.924l-30.365 45.502c-14.909-9.927-29.143-20.841-42.452-32.745l34.704-38.963c9.277 8.262 19.169 15.969 29.414 23.281l-23.994 34.054c-2.266-1.497-4.37-3.178-6.554-4.76l-6.515-4.829-6.324-5.056c-2.089-1.695-4.247-3.333-6.256-5.127l20.072-23.807c1.032.91 2.079 1.82 3.179 2.66l-16.181 19.701c-.881 1.073-.782 2.599.235 3.413s2.54.588 3.407-.499l15.941-19.905 2.809 2.251-15.729 20.067c-.853 1.086-.739 2.64.277 3.453 1.003.814 2.567.519 3.392-.581l15.461-20.27 3.355 2.475-15.221 20.446c-.825 1.114-.656 2.639.388 3.424 1.043.771 2.552.49 3.363-.637l16.441-22.679c.811-1.128.712-2.612-.247-3.315-3.299-2.449-6.639-4.855-9.789-7.46-3.191-2.562-6.436-5.067-9.463-7.785-.89-.774-2.344-.537-3.254.509l-23.669 27.352c-.91 1.046-.837 2.6.166 3.469l3.548 3.069 3.671 2.942 7.34 5.869 7.558 5.6 3.779 2.801 3.887 2.659a2.3 2.3 0 0 0 1.813.353 2.62 2.62 0 0 0 1.59-1.074l26.433-38.492c.783-1.141.657-2.611-.301-3.259-11.326-7.901-22.094-16.396-32.222-25.475-.396-.367-.955-.536-1.55-.441-.596.081-1.187.413-1.635.908l-38.626 42.222c-.939 1.019-.893 2.601.098 3.54 14.641 13.239 30.371 25.318 46.896 36.185 1.154.727 2.703.377 3.458-.791l31.19-47.978zM154.169 386.185c-.938 1.019-.723 2.765.494 3.894 1.204 1.143 2.982 1.135 3.892.103l36.375-40.844c14.257 12.747 29.45 24.391 45.33 34.953l-28.961 43.404c-14.431-9.603-28.338-20.148-41.758-31.355l26.844-31.861c2.276 2.025 4.689 3.866 7.06 5.778l7.129 5.692 7.318 5.439c2.453 1.785 4.838 3.668 7.372 5.34l-17.942 25.446-2.253-1.553-2.214-1.622 14.939-20.663c.811-1.128.501-2.761-.683-3.64-1.185-.88-2.82-.694-3.659.42l-15.193 20.473-3.807-2.827 15.404-20.311c.839-1.114.557-2.72-.627-3.599-1.185-.894-2.794-.778-3.661.322l-15.658 20.122-4.306-3.429 15.899-19.932c.867-1.087.626-2.721-.531-3.643s-2.809-.805-3.69.268l-17.753 21.678c-.882 1.073-.584 2.762.672 3.765 4.348 3.469 8.641 6.996 13.137 10.226 4.455 3.287 8.87 6.659 13.446 9.721 1.31.905 3.015.704 3.798-.437l20.48-29.816c.783-1.141.459-2.746-.738-3.57l-4.253-2.916-4.145-3.071-8.291-6.155-8.075-6.452-4.023-3.24-3.916-3.381a2.62 2.62 0 0 0-1.888-.657 2.42 2.42 0 0 0-1.748.84l-30.553 35.31c-.91 1.046-.64 2.777.604 3.85 14.98 12.774 30.675 24.533 46.906 35.268.662.418 1.429.597 2.15.499s1.324-.471 1.688-1.034l31.19-47.978c.755-1.168.404-2.73-.792-3.485-17.172-11.285-33.537-23.865-48.815-37.675-1.033-.965-2.644-.919-3.582.099l-38.626 42.222zM297.985 325.295c.727-1.195.476-2.607-.495-3.241-.971-.619-2.365-.175-3.092 1.007l-71.642 114.991c-.741 1.182-.222 2.838 1.143 3.714s3.095.536 3.808-.631zM319.298 337.277c.642-1.235.294-2.645-.717-3.222-1.026-.563-2.39-.022-3.046 1.2l-63.83 119.503c-.656 1.222-.04 2.849 1.378 3.612 1.405.792 3.105.341 3.747-.88l62.468-120.227zM294.87 342.528l-3.823-2.258c-2.825 4.654-1.653 10.466 2.606 12.992 4.327 2.415 9.969.413 12.526-4.389 2.572-4.816 1.306-10.486-2.768-12.767-4.007-2.379-9.554-.504-12.365 4.15l3.824 2.258c1.357-2.306 4.062-3.207 6.058-2.038 2.009 1.155 2.648 3.906 1.347 6.266-1.287 2.318-4.059 3.332-6.125 2.136-2.053-1.209-2.623-4.059-1.28-6.364z"/><path d="M299.541 345.284c.348-.632.194-1.393-.354-1.729-.549-.323-1.294-.072-1.643.547-.348.618-.208 1.407.34 1.729.549.337 1.294.072 1.656-.561zM243.109 431.119l-4.849-2.862c-2.825 4.654-.753 11.017 4.63 14.174 5.437 3.046 11.963 1.526 14.535-3.276 2.571-4.816.407-10.969-4.763-13.88-5.131-3.01-11.564-1.687-14.389 2.967l4.85 2.863c1.357-2.305 4.512-2.952 7.056-1.46 2.557 1.463 3.617 4.47 2.33 6.816-1.287 2.318-4.495 3.09-7.109 1.586-2.6-1.532-3.62-4.637-2.263-6.942z"/><path d="M249.043 434.598c.348-.632.068-1.46-.621-1.877-.703-.416-1.561-.233-1.923.4-.363.632-.082 1.474.621 1.891.703.416 1.56.232 1.923-.414M260.363 401.59l-4.512-2.661c-2.825 4.655-1.049 10.829 3.955 13.772 5.058 2.844 11.303 1.15 13.861-3.638 2.571-4.816.716-10.808-4.103-13.505-4.751-2.795-10.889-1.297-13.713 3.371zc1.357-2.305 4.357-3.046 6.718-1.648 2.375 1.37 3.295 4.283 1.994 6.628-1.288 2.318-4.355 3.171-6.786 1.775-2.417-1.425-3.283-4.45-1.94-6.741z"/><path d="M265.87 404.813c.349-.632.111-1.433-.536-1.823-.647-.376-1.462-.179-1.825.453-.362.632-.124 1.447.523 1.837s1.476.179 1.838-.467M277.613 372.061l-4.161-2.46c-2.825 4.655-1.358 10.655 3.281 13.382 4.692 2.63 10.628.775 13.2-4.013 2.571-4.816 1.011-10.648-3.429-13.129-4.385-2.58-10.228-.894-13.038 3.76l4.16 2.459c1.358-2.305 4.217-3.126 6.382-1.835 2.192 1.262 2.971 4.094 1.67 6.44-1.287 2.318-4.2 3.251-6.449 1.948-2.235-1.317-2.96-4.247-1.603-6.553z"/><path d="M282.713 375.055c.349-.632.153-1.42-.438-1.769-.604-.349-1.378-.126-1.74.507-.363.632-.166 1.434.438 1.783.605.363 1.392.125 1.74-.507zM199.893 336.196c-.939 1.019-.865 2.629.154 3.581 15.066 13.62 31.205 26.023 48.166 37.16a2.557 2.557 0 0 0 3.514-.75c.755-1.168.432-2.718-.736-3.459-16.75-11.016-32.692-23.257-47.559-36.699a2.474 2.474 0 0 0-3.526.153zM375.718 361.227c.446-1.314-.096-2.707-1.229-3.101-1.119-.394-2.396.34-2.856 1.655l-18.074 51.634c-16.983-5.941-33.623-12.848-49.769-20.708l22.905-46.883c11.571 5.563 23.385 10.746 35.533 15.269L347.613 398.1c-10.191-3.895-20.316-7.986-30.174-12.597l13.023-28.279 3.856 1.785-10.414 23.268c-.558 1.261-.084 2.766 1.135 3.27 1.205.517 2.637-.109 3.195-1.384l10.162-23.374 3.39 1.433-9.965 23.467c-.545 1.275-.001 2.737 1.203 3.241 1.205.504 2.61-.108 3.14-1.396l9.713-23.573a76 76 0 0 0 3.963 1.602l-9.461 23.665c-.516 1.288.054 2.722 1.286 3.197s2.622-.191 3.124-1.493l10.121-26.123c.502-1.302-.012-2.709-1.146-3.145-3.961-1.463-7.815-3.178-11.682-4.81-3.907-1.589-7.694-3.389-11.508-5.161-1.093-.506-2.47.105-3.071 1.353l-15.491 32.69c-.6 1.263-.099 2.725 1.121 3.284 11.389 5.455 23.151 10.111 34.965 14.613.601.21 1.281.169 1.873-.121a2.56 2.56 0 0 0 1.277-1.442l15.921-43.895c.474-1.302-.053-2.68-1.172-3.075a413 413 0 0 1-38.996-16.797c-.505-.254-1.102-.256-1.667-.022a2.78 2.78 0 0 0-1.349 1.305l-25.682 51.133c-.629 1.235-.14 2.739 1.081 3.354 17.748 8.801 36.098 16.41 54.855 22.871 1.287.461 2.69-.248 3.136-1.563l18.342-54.195zM263.161 460.683c-.628 1.248.029 2.833 1.474 3.554 1.431.722 3.089.286 3.704-.963l24.012-49.154c17.101 8.342 34.679 15.618 52.6 21.888l-17.246 49.256c-4.002-1.448-8.029-2.757-11.991-4.332l-11.9-4.625c-3.949-1.588-7.859-3.302-11.796-4.96-1.962-.851-3.936-1.645-5.871-2.537l-5.819-2.69 17.417-37.841c10.924 5.117 22.099 9.632 33.354 13.923l-10.922 29.154-5.026-1.943 9.181-23.784c.502-1.302-.208-2.775-1.566-3.317-1.372-.528-2.888.085-3.404 1.373l-9.433 23.679c-1.443-.568-2.898-1.095-4.327-1.72l9.643-23.599c.53-1.289-.153-2.789-1.498-3.374-1.345-.57-2.889.002-3.42 1.277l-9.895 23.493-4.96-2.11 10.134-23.387c.558-1.275-.097-2.776-1.442-3.347-1.358-.556-2.89-.04-3.462 1.222l-11.41 25.58c-.572 1.275.126 2.845 1.569 3.441 5.001 2.124 9.99 4.289 15.018 6.342 5.054 1.955 10.108 3.952 15.175 5.866 1.469.526 3.054-.117 3.528-1.418l12.34-34.003c.474-1.301-.249-2.759-1.606-3.232-12.766-4.858-25.48-9.898-37.837-15.806a2.66 2.66 0 0 0-1.988-.113 2.5 2.5 0 0 0-1.461 1.279l-19.998 42.198c-.6 1.263.098 2.818 1.556 3.498 17.402 8.141 35.146 15.345 53.189 21.487.727.25 1.505.248 2.167-.015s1.151-.773 1.361-1.402l18.342-54.196c.446-1.315-.278-2.773-1.607-3.233-19.387-6.671-38.367-14.558-56.746-23.667-1.263-.628-2.795-.139-3.424 1.096l-25.682 51.133zM386.526 364.708c.405-1.328-.179-2.706-1.311-3.058-1.132-.367-2.395.423-2.827 1.737l-41.315 129.03c-.418 1.328.458 2.783 1.968 3.267s3.08-.201 3.484-1.528zM410.635 371.396c.334-1.354-.331-2.689-1.49-2.985s-2.378.561-2.727 1.902l-33.784 131.199c-.349 1.341.61 2.753 2.146 3.153 1.536.386 3.049-.38 3.383-1.735zM387.79 382.241c-1.439-.416-2.905-.803-4.331-1.261-1.618 5.241 1.002 10.551 5.822 11.942 4.807 1.432 9.867-1.891 11.235-7.156 1.367-5.278-1.292-10.462-5.862-11.83-4.569-1.326-9.603 1.872-11.195 7.044 1.44.443 2.892.831 4.331 1.261.755-2.557 3.211-4.106 5.488-3.457s3.552 3.277 2.853 5.847-3.154 4.119-5.488 3.443c-2.333-.676-3.608-3.29-2.853-5.847z"/><path d="M393.09 383.763c.194-.698-.154-1.414-.782-1.596-.629-.181-1.287.248-1.496.947-.194.699.153 1.414.782 1.596s1.301-.234 1.496-.947M358.899 480.698c-1.775-.521-3.563-.999-5.324-1.547-1.618 5.241 1.869 10.812 7.765 12.514 5.883 1.745 11.808-1.36 13.176-6.624 1.368-5.279-2.157-10.682-7.803-12.362-5.645-1.624-11.546 1.3-13.138 6.472 1.775.548 3.549 1.04 5.324 1.547.755-2.557 3.63-3.976 6.438-3.185 2.794.806 4.502 3.537 3.803 6.107s-3.574 4.002-6.438 3.184-4.558-3.563-3.804-6.12z"/><path d="M365.422 482.569c.194-.699-.265-1.44-1.033-1.661-.769-.221-1.553.17-1.747.868-.195.699.264 1.44 1.033 1.661s1.552-.17 1.747-.868M368.528 447.876c-1.662-.481-3.338-.934-5.002-1.457-1.618 5.242 1.575 10.735 7.122 12.32 5.52 1.64 11.166-1.529 12.52-6.807 1.367-5.278-1.878-10.603-7.161-12.179-5.295-1.52-10.889 1.495-12.481 6.666 1.663.509 3.339.962 5.002 1.457.755-2.557 3.49-4.029 6.117-3.275 2.627.753 4.181 3.445 3.482 6.029-.699 2.57-3.434 4.041-6.117 3.275s-4.236-3.472-3.482-6.029"/><path d="M374.646 449.629a1.33 1.33 0 0 0-.95-1.634c-.726-.208-1.468.196-1.663.894-.194.699.223 1.427.95 1.634.726.208 1.468-.196 1.663-.894M378.17 415.067c-1.551-.456-3.115-.869-4.667-1.352-1.618 5.241 1.295 10.643 6.465 12.138 5.171 1.536 10.51-1.71 11.877-6.988s-1.585-10.54-6.504-11.998c-4.932-1.43-10.246 1.676-11.838 6.848 1.552.483 3.116.896 4.667 1.352.755-2.558 3.35-4.068 5.795-3.366s3.859 3.354 3.174 5.938c-.699 2.57-3.294 4.08-5.795 3.366-2.501-.715-3.929-3.381-3.174-5.938"/><path d="M383.865 416.703c.195-.699-.195-1.427-.865-1.623-.671-.195-1.385.223-1.58.921-.194.698.182 1.427.866 1.622.671.195 1.385-.222 1.579-.92M293.575 400.164c-.628 1.235-.112 2.753 1.137 3.381 18.169 9.001 36.939 16.796 56.102 23.402 1.315.46 2.747-.221 3.193-1.536s-.25-2.759-1.551-3.22c-18.967-6.54-37.541-14.242-55.5-23.15a2.523 2.523 0 0 0-3.367 1.123zM471.928 382.038c.14-1.378-.718-2.611-1.902-2.727-1.197-.129-2.288.893-2.441 2.271l-6.142 54.356a504 504 0 0 1-53.3-8.955l11.391-50.931c6.352 1.526 12.806 2.634 19.221 3.91 6.467 1.038 12.907 2.188 19.411 2.975l-5.513 41.299-8.135-1.116-8.111-1.325c-5.42-.809-10.777-1.953-16.16-2.971l6.172-30.518 4.239.819-4.822 25.031c-.265 1.367.567 2.67 1.864 2.922s2.543-.648 2.793-2.028l4.572-25.082c1.213.253 2.44.451 3.68.649l-4.362 25.12c-.237 1.366.622 2.654 1.918 2.865 1.297.21 2.542-.732 2.765-2.097l4.125-25.157 4.265.707-3.888 25.193c-.209 1.38.664 2.668 1.974 2.878 1.31.183 2.526-.8 2.721-2.179l4.005-27.725c.195-1.379-.636-2.626-1.848-2.783l-12.627-2.068-12.551-2.418c-1.213-.226-2.404.632-2.696 1.999l-7.52 35.379c-.293 1.353.527 2.726 1.851 2.978 6.233 1.154 12.428 2.531 18.698 3.462l9.393 1.521 9.43 1.271a2.35 2.35 0 0 0 1.796-.508 2.56 2.56 0 0 0 .925-1.671l5.732-46.346c.167-1.379-.664-2.627-1.848-2.797-3.566-.513-7.144-.9-10.698-1.482l-10.648-1.747-10.599-2.053c-3.541-.638-7.018-1.542-10.534-2.291-.558-.128-1.166.023-1.659.38-.507.371-.87.948-1.024 1.59l-13.033 55.716c-.32 1.354.512 2.698 1.838 2.991a507 507 0 0 0 58.708 9.834c1.364.14 2.58-.857 2.719-2.249l5.869-56.92zM384.948 504.559c-.32 1.354.68 2.737 2.215 3.082s3.046-.478 3.339-1.831l11.94-53.388a533 533 0 0 0 56.06 9.414l-5.858 51.85c-4.204-.403-8.37-1.028-12.548-1.57-4.179-.57-8.371-1.098-12.525-1.821l-12.488-2.057-12.439-2.406 8.258-40.839c5.899 1.119 11.772 2.363 17.708 3.259l8.877 1.449 8.916 1.225-4.123 30.866-5.293-.714 3.609-25.243c.195-1.38-.817-2.651-2.265-2.845-1.449-.207-2.779.694-3.001 2.074l-3.86 25.207-4.558-.743 4.056-25.169c.223-1.366-.776-2.679-2.212-2.915-1.435-.235-2.806.681-3.043 2.047l-4.306 25.133c-1.756-.299-3.526-.555-5.269-.895l4.544-25.082c.25-1.367-.721-2.709-2.158-2.986s-2.808.598-3.072 1.965l-5.259 27.513c-.265 1.367.762 2.707 2.282 3.011 10.583 1.956 21.216 3.648 31.884 5.005 1.533.206 2.917-.753 3.097-2.132l4.44-35.901c.167-1.379-.845-2.65-2.28-2.844l-10.126-1.368-10.09-1.633c-6.744-1.019-13.4-2.47-20.093-3.726-.683-.125-1.375-.014-1.951.345a2.46 2.46 0 0 0-1.122 1.578l-9.704 45.675c-.293 1.353.722 2.764 2.27 3.066 18.552 3.84 37.266 6.718 56.075 8.775.752.082 1.512-.114 2.087-.528s.938-1.019 1.008-1.687l5.869-56.92c.139-1.378-.886-2.622-2.278-2.775a521 521 0 0 1-60.562-10.158c-1.382-.306-2.754.541-3.074 1.895l-13.033 55.715zM483.536 383.072c.111-1.391-.802-2.582-2.054-2.682-1.238-.1-2.342.95-2.468 2.341l-11.899 134.96c-.125 1.391 1.024 2.605 2.555 2.727 1.53.122 2.857-.904 2.968-2.296l10.884-135.05zM509.854 384.742c.055-1.39-.898-2.552-2.136-2.611-1.238-.058-2.299 1.033-2.369 2.409l-6.808 135.316c-.07 1.391 1.121 2.576 2.664 2.642 1.543.067 2.828-1.001 2.897-2.391l5.766-135.365zM488.775 399.97l-4.633-.353c-.392 5.426 3.245 10.174 8.586 10.526a9.2 9.2 0 0 0 3.755-.519c1.144-.426 2.173-1.099 3.059-1.937 1.759-1.688 2.919-4.1 3.06-6.812.14-2.725-.73-5.236-2.254-7.109a9 9 0 0 0-2.726-2.28 9 9 0 0 0-3.605-1.025 9.2 9.2 0 0 0-3.698.518 8.5 8.5 0 0 0-3.005 1.893c-1.759 1.661-2.962 4.032-3.172 6.759l4.633.353c.17-2.657 2.366-4.674 4.912-4.502s4.467 2.481 4.283 5.124c-.141 2.67-2.351 4.687-4.911 4.516-2.573-.172-4.495-2.481-4.284-5.138z"/><path d="M494.634 400.383c.041-.724-.486-1.352-1.167-1.394-.696-.042-1.296.498-1.351 1.221s.471 1.352 1.18 1.394c.696.042 1.296-.498 1.351-1.222zM481.603 502.314l-5.398-.406c-.21 2.713.786 5.263 2.589 7.2.894.968 2.008 1.78 3.242 2.366 1.192.588 2.533.95 3.952 1.047a10.7 10.7 0 0 0 4.06-.498 10.6 10.6 0 0 0 3.532-1.918c2.051-1.666 3.378-4.068 3.519-6.793.14-2.726-.911-5.247-2.713-7.142a10.8 10.8 0 0 0-3.199-2.298 10.3 10.3 0 0 0-3.91-1.048c-5.536-.362-10.694 3.631-11.086 9.084l5.398.407c.211-2.658 2.603-4.65 5.357-4.469 2.755.195 4.856 2.501 4.729 5.157-.197 2.671-2.588 4.677-5.357 4.482-2.768-.195-4.884-2.5-4.715-5.171"/><path d="M488.018 502.772c.041-.723-.527-1.351-1.278-1.406s-1.407.501-1.448 1.224c-.055.723.527 1.351 1.278 1.405s1.407-.5 1.448-1.223M483.995 468.204l-5.148-.397c-.462 5.413 3.871 10.217 9.393 10.579a10.18 10.18 0 0 0 7.328-2.424c1.954-1.678 3.225-4.079 3.366-6.805.28-5.465-3.965-10.062-9.405-10.467-5.439-.364-10.263 3.663-10.682 9.103l5.148.398c.197-2.658 2.519-4.663 5.203-4.48s4.731 2.49 4.576 5.146c-.169 2.671-2.505 4.676-5.203 4.494-2.713-.183-4.76-2.503-4.576-5.16z"/><path d="M490.229 468.636a1.343 1.343 0 0 0-1.237-1.407 1.326 1.326 0 0 0-1.42 1.223c-.055.724.513 1.352 1.25 1.406a1.325 1.325 0 0 0 1.421-1.223zM486.384 434.08l-4.897-.375c-.434 5.426 3.564 10.195 8.989 10.559 5.426.406 10.01-3.825 10.291-9.248a10.12 10.12 0 0 0-2.406-7.12c-1.594-1.872-3.911-3.117-6.582-3.314-5.355-.352-9.817 3.696-10.292 9.137l4.897.375c.183-2.657 2.45-4.661 5.065-4.491 2.615.184 4.606 2.492 4.422 5.135-.155 2.671-2.421 4.688-5.064 4.505-2.643-.184-4.62-2.492-4.423-5.149z"/><path d="M492.438 434.502a1.33 1.33 0 0 0-1.209-1.407 1.297 1.297 0 0 0-1.379 1.222 1.32 1.32 0 0 0 1.209 1.407 1.295 1.295 0 0 0 1.379-1.222M400.391 438.613a2.49 2.49 0 0 0 1.893 3.004 519 519 0 0 0 59.935 10.046 2.51 2.51 0 0 0 2.775-2.237c.14-1.378-.858-2.622-2.236-2.761a515 515 0 0 1-59.349-9.946c-1.353-.307-2.698.554-3.018 1.908zM574.983 384.226c-.069-1.388-1.174-2.45-2.436-2.383-1.277.067-2.24 1.225-2.185 2.627l2.63 54.64a742 742 0 0 1-54.498.682l1.351-52.163c13.551.328 27.206.264 40.962-.232l1.468 41.632a739 739 0 0 1-33.345.428l.338-31.138 4.46.036-.103 25.494c-.001 1.389 1.078 2.534 2.411 2.522 1.334.001 2.423-1.132 2.423-2.521l-.077-25.49 3.862-.008.216 25.487c.013 1.389 1.105 2.507 2.452 2.48s2.408-1.159 2.394-2.548l-.396-25.498 4.485-.089.549 25.494c.028 1.389 1.147 2.492 2.48 2.452 1.347-.027 2.394-1.187 2.366-2.576l-.794-28.004c-.027-1.388-1.105-2.492-2.396-2.452-8.9.218-17.762.284-26.586.154-1.265-.031-2.312 1.088-2.34 2.477l-.641 36.173c-.028 1.39 1.051 2.535 2.399 2.564 12.797.176 25.644-.01 38.484-.488a2.4 2.4 0 0 0 1.707-.798 2.55 2.55 0 0 0 .644-1.805l-1.929-46.652c-.055-1.388-1.132-2.478-2.396-2.425-15.199.581-30.283.7-45.212.247a2.16 2.16 0 0 0-1.612.685 2.66 2.66 0 0 0-.715 1.765l-1.904 57.189c-.042 1.39 1.023 2.549 2.399 2.591 19.919.59 39.89.29 59.846-.719a2.513 2.513 0 0 0 2.35-2.658l-3.096-57.131zM510.876 520.364c-.042 1.39 1.163 2.561 2.691 2.6 1.53.053 2.814-1.042 2.841-2.432l1.412-54.678c18.833.458 37.665.222 56.415-.707l2.51 52.128a828 828 0 0 1-48.769.943l.449-41.657a776 776 0 0 0 35.498-.456l1.092 31.123-5.164.173-.744-25.491c-.028-1.388-1.244-2.489-2.674-2.447-1.431.028-2.574 1.19-2.547 2.579l.577 25.494-4.471.089-.438-25.497c-.028-1.388-1.217-2.504-2.647-2.475-1.444.028-2.589 1.162-2.575 2.551l.271 25.486-5.195.034-.104-25.489c0-1.389-1.176-2.519-2.62-2.504s-2.617 1.136-2.617 2.511l-.082 28.007c0 1.39 1.218 2.532 2.718 2.516a777 777 0 0 0 31.188-.621c1.499-.057 2.657-1.219 2.601-2.621l-1.497-36.145c-.056-1.388-1.258-2.461-2.674-2.419-13.451.504-26.922.702-40.429.513a2.58 2.58 0 0 0-1.833.703c-.491.468-.784 1.099-.785 1.766l-.834 46.693c-.028 1.39 1.189 2.546 2.732 2.571 18.328.261 36.518-.143 54.559-1.058a2.9 2.9 0 0 0 1.887-.843c.49-.496.741-1.154.7-1.82l-3.096-57.131c-.069-1.388-1.271-2.447-2.673-2.378-20.331 1.03-40.732 1.339-61.137.731a2.555 2.555 0 0 0-2.633 2.442l-1.903 57.188zM587.099 383.485c-.097-1.387-1.216-2.449-2.492-2.368s-2.239 1.281-2.156 2.669l8.596 135.204c.083 1.387 1.368 2.432 2.866 2.332 1.498-.099 2.641-1.303 2.544-2.69l-9.372-135.161zM614.042 381.184c-.138-1.387-1.298-2.405-2.587-2.269-1.289.137-2.251 1.351-2.127 2.738l12.521 134.903c.125 1.387 1.41 2.403 2.893 2.249 1.47-.141 2.556-1.385 2.431-2.771l-13.117-134.85zM594.928 399.4l-4.744.358c.386 5.424 4.9 9.557 10.1 9.121 5.174-.409 9.078-5.238 8.568-10.659-.484-5.436-5.161-9.413-10.196-9.008-5.075.435-8.858 5.108-8.472 10.546zc-.206-2.649 1.651-4.965 4.148-5.181 2.496-.203 4.717 1.781 4.95 4.43.233 2.663-1.624 4.978-4.161 5.195-2.538.217-4.745-1.781-4.951-4.444z"/><path d="M600.727 398.925c-.056-.721-.664-1.265-1.344-1.21-.679.056-1.194.691-1.124 1.412.056.721.664 1.265 1.343 1.21.68-.056 1.195-.691 1.125-1.412M602.829 501.696l-5.299.398c.372 5.424 5.399 9.519 11.196 9.029 5.825-.463 9.952-5.311 9.469-10.733-.511-5.435-5.397-9.394-11.083-8.934-5.658.488-9.955 5.186-9.568 10.637l5.299-.397c-.206-2.649 1.901-4.983 4.688-5.219s5.244 1.729 5.478 4.392c.233 2.662-1.86 4.996-4.675 5.233s-5.272-1.743-5.478-4.406z"/><path d="M609.293 501.165c-.056-.721-.734-1.263-1.496-1.192-.763.07-1.334.707-1.278 1.428s.72 1.264 1.497 1.193c.763-.057 1.333-.707 1.277-1.429M600.19 467.588l-5.118.38c.371 5.424 5.232 9.537 10.821 9.064 5.617-.445 9.661-5.29 9.164-10.712-.511-5.435-5.313-9.396-10.792-8.954-5.464.47-9.593 5.165-9.207 10.602l5.118-.379c-.205-2.65 1.818-4.982 4.508-5.216 2.691-.22 5.064 1.747 5.298 4.409s-1.776 4.995-4.508 5.23c-2.718.235-5.092-1.76-5.298-4.423z"/><path d="M606.428 467.088a1.315 1.315 0 0 0-1.441-1.194 1.314 1.314 0 0 0-1.221 1.427 1.314 1.314 0 0 0 1.44 1.194 1.315 1.315 0 0 0 1.222-1.427M597.569 433.495l-4.924.362c.371 5.425 5.065 9.54 10.46 9.086 5.396-.427 9.37-5.257 8.873-10.679-.497-5.436-5.244-9.398-10.487-8.988-5.27.452-9.219 5.129-8.846 10.581zc-.206-2.649 1.735-4.966 4.328-5.198 2.593-.218 4.883 1.764 5.131 4.427.233 2.662-1.707 4.993-4.328 5.212s-4.925-1.764-5.117-4.441z"/><path d="M603.583 432.999a1.314 1.314 0 0 0-1.399-1.208c-.708.055-1.237.691-1.181 1.412a1.306 1.306 0 0 0 1.399 1.209c.708-.056 1.237-.692 1.181-1.413M513.123 452.664a2.517 2.517 0 0 0 2.441 2.591c20.238.597 40.486.291 60.692-.736 1.388-.083 2.462-1.271 2.378-2.659a2.513 2.513 0 0 0-2.645-2.378c-20.081 1.025-40.19 1.314-60.289.728a2.517 2.517 0 0 0-2.591 2.441zM682.244 372.672a2.51 2.51 0 0 0-2.834-2.139c-1.372.194-2.291 1.463-2.111 2.834l7.635 54.165c-18.258 2.572-36.449 5.032-54.594 6.991l-5.59-51.886c13.959-1.514 28.203-3.367 42.68-5.35l5.684 41.27-16.875 2.267c-5.599.681-11.21 1.432-16.795 2.071l-3.631-30.92 4.588-.536 3.06 25.305c.166 1.386 1.394 2.362 2.752 2.196 1.359-.166 2.32-1.421 2.139-2.807l-3.157-25.304 3.991-.496 3.227 25.288c.18 1.386 1.422 2.362 2.766 2.196 1.358-.166 2.319-1.449 2.139-2.821l-3.309-25.273 4.655-.62 3.365 25.271c.18 1.372 1.436 2.347 2.793 2.167 1.358-.179 2.305-1.449 2.125-2.82l-3.762-27.765c-.18-1.371-1.422-2.347-2.765-2.167-4.642.62-9.297 1.255-13.87 1.804-4.587.578-9.201 1.17-13.706 1.662-1.303.151-2.237 1.392-2.084 2.764l4.049 35.941c.153 1.386 1.381 2.376 2.739 2.224 12.849-1.465 25.762-3.18 38.715-4.98a2.5 2.5 0 0 0 1.647-.978 2.47 2.47 0 0 0 .477-1.857l-6.449-46.242c-.194-1.371-1.436-2.347-2.793-2.153-16.14 2.238-31.88 4.274-47.323 5.915a2.3 2.3 0 0 0-1.58.893 2.6 2.6 0 0 0-.505 1.844l5.87 56.922a2.506 2.506 0 0 0 2.74 2.252c19.907-2.091 39.788-4.793 59.736-7.621a2.52 2.52 0 0 0 2.138-2.849l-8.032-56.657zM633.669 515.388c.138 1.387 1.45 2.389 2.92 2.234 1.469-.14 2.542-1.398 2.389-2.784l-5.861-54.381c18.617-1.996 37.085-4.503 55.44-7.091l7.28 51.672c-15.044 2.133-30.423 4.189-46.07 6.043l-4.853-41.384c5.822-.658 11.585-1.426 17.378-2.138l17.249-2.316 4.254 30.852-4.891.667-3.433-25.256a2.54 2.54 0 0 0-2.863-2.152 2.53 2.53 0 0 0-2.194 2.836l3.378 25.271-4.239.571-3.323-25.273c-.18-1.371-1.464-2.346-2.849-2.152-1.4.181-2.403 1.437-2.222 2.823l3.254 25.287-4.975.627-3.171-25.303c-.167-1.386-1.45-2.36-2.85-2.18-1.399.181-2.402 1.437-2.235 2.823l3.387 27.813c.167 1.386 1.464 2.361 2.905 2.179 9.992-1.227 19.842-2.548 29.568-3.895a2.55 2.55 0 0 0 2.193-2.849l-4.991-35.825a2.52 2.52 0 0 0-2.849-2.138c-13.106 1.816-26.282 3.565-39.56 5.08a2.63 2.63 0 0 0-1.718.937 2.55 2.55 0 0 0-.546 1.858l5.23 46.406c.153 1.386 1.464 2.36 2.933 2.206 17.547-2.016 34.657-4.357 51.377-6.719a2.55 2.55 0 0 0 1.676-.978 2.56 2.56 0 0 0 .49-1.871l-8.032-56.657a2.517 2.517 0 0 0-2.849-2.138c-19.989 2.829-40.078 5.562-60.303 7.688a2.52 2.52 0 0 0-2.266 2.754l5.871 56.922zM695.207 370.828a2.53 2.53 0 0 0-2.863-2.138 2.51 2.51 0 0 0-2.124 2.848l19.118 134.133c.194 1.372 1.477 2.332 2.863 2.138a2.51 2.51 0 0 0 2.124-2.848l-19.132-134.133zM724.287 366.748c-.181-1.371-1.506-2.345-2.905-2.151s-2.388 1.465-2.194 2.85l18.536 134.215c.194 1.371 1.436 2.346 2.794 2.153 1.344-.18 2.263-1.434 2.083-2.82l-18.287-134.247zM704.612 386.102l-5 .711c.774 5.388 5.78 9.136 11.196 8.376 5.445-.762 9.277-5.756 8.53-11.158-.747-5.403-5.808-9.151-11.294-8.389-5.43.775-9.207 5.768-8.432 11.171zc-.372-2.646 1.469-5.086 4.128-5.472 2.674-.373 5.156 1.467 5.527 4.099.373 2.646-1.51 5.086-4.169 5.459-2.646.372-5.114-1.454-5.486-4.1z"/><path d="M710.733 385.23c-.098-.721-.774-1.221-1.509-1.123a1.326 1.326 0 0 0-1.123 1.495c.098.72.774 1.221 1.495 1.109a1.33 1.33 0 0 0 1.137-1.481M719.027 487.685l-4.959.71c.774 5.389 5.738 9.152 11.099 8.378 5.306-.744 8.999-5.722 8.253-11.111-.747-5.403-5.67-9.167-11.017-8.421-5.375.76-9.11 5.752-8.335 11.154zc-.372-2.646 1.454-5.085 4.086-5.457 2.619-.372 5.031 1.483 5.403 4.129s-1.427 5.071-4.045 5.443c-2.632.372-5.058-1.469-5.43-4.101z"/><path d="M725.076 486.826a1.31 1.31 0 0 0-1.467-1.124 1.31 1.31 0 0 0-1.11 1.481 1.314 1.314 0 0 0 1.481 1.124 1.305 1.305 0 0 0 1.11-1.481zM714.224 453.814l-4.973.711c.774 5.388 5.752 9.151 11.127 8.377 5.361-.746 9.082-5.724 8.336-11.126-.747-5.403-5.712-9.166-11.1-8.406-5.389.774-9.137 5.766-8.363 11.155za4.817 4.817 0 0 1 4.1-5.457c2.632-.372 5.072 1.468 5.444 4.114.373 2.646-1.454 5.086-4.087 5.444-2.632.372-5.072-1.469-5.457-4.101"/><path d="M720.307 452.958a1.31 1.31 0 0 0-1.481-1.123 1.3 1.3 0 0 0-1.109 1.48c.097.721.76 1.222 1.481 1.124a1.293 1.293 0 0 0 1.109-1.481M709.414 419.96l-4.987.711c.774 5.388 5.766 9.137 11.169 8.376 5.403-.76 9.179-5.739 8.433-11.142s-5.767-9.151-11.197-8.39c-5.403.774-9.165 5.767-8.405 11.156za4.85 4.85 0 0 1 4.114-5.472c2.66-.372 5.114 1.468 5.486 4.114s-1.483 5.086-4.129 5.458a4.84 4.84 0 0 1-5.471-4.1"/><path d="M715.52 419.086a1.327 1.327 0 0 0-1.495-1.123 1.326 1.326 0 0 0-1.123 1.495c.097.72.774 1.221 1.495 1.123a1.313 1.313 0 0 0 1.123-1.481zM626.73 447.998a2.52 2.52 0 0 0 2.767 2.251c20.115-2.109 40.135-4.841 60.11-7.67a2.526 2.526 0 0 0 2.138-2.849 2.52 2.52 0 0 0-2.848-2.138c-19.962 2.829-39.926 5.546-59.93 7.639a2.5 2.5 0 0 0-2.237 2.754zM799.945 358.491c-.083-1.374-1.438-2.444-2.936-2.317-1.511.127-2.654 1.344-2.543 2.731l4.211 54.539c-18.767 1.443-37.367 3.592-55.836 6.001l-6.768-51.737c15.422-2.002 31.139-3.842 47.209-5.343l3.785 41.489c-11.73 1.122-23.416 2.369-34.973 3.821l-3.824-30.902 4.975-.627 3.046 25.306c.166 1.372 1.45 2.36 2.864 2.207 1.413-.167 2.431-1.41 2.264-2.796l-2.935-25.321 4.352-.49 2.852 25.337c.153 1.387 1.423 2.375 2.836 2.208 1.414-.167 2.445-1.41 2.292-2.796l-2.741-25.353 5.088-.518 2.603 25.356c.138 1.386 1.409 2.389 2.837 2.249s2.473-1.382 2.334-2.769l-2.708-27.882c-.139-1.387-1.437-2.389-2.907-2.234l-7.652.777-7.568.859-7.554.873-7.469.94c-1.441.182-2.458 1.438-2.277 2.824l4.562 35.889a2.535 2.535 0 0 0 2.85 2.18 1047 1047 0 0 1 39.908-4.337 2.63 2.63 0 0 0 1.76-.883 2.45 2.45 0 0 0 .603-1.831l-3.927-46.529c-.111-1.387-1.437-2.403-2.949-2.275-18.027 1.595-35.573 3.681-52.712 5.939a2.68 2.68 0 0 0-1.731.979 2.52 2.52 0 0 0-.518 1.872l7.561 56.722a2.53 2.53 0 0 0 2.835 2.167c20.077-2.651 40.27-4.997 60.605-6.514 1.401-.125 2.461-1.299 2.364-2.686l-4.012-57.085zM748.479 500.197c.18 1.372 1.408 2.348 2.738 2.169 1.33-.18 2.264-1.435 2.083-2.82l-7.095-54.245c18.207-2.377 36.349-4.461 54.464-5.863l4.023 52.028c-13.581.992-27.552 2.59-41.715 4.303l-5.116-41.351c11.21-1.418 22.342-2.598 33.462-3.667l2.826 31.006-4.52.451-2.45-25.373c-.138-1.387-1.325-2.391-2.67-2.267s-2.321 1.366-2.182 2.752l2.588 25.357-3.909.383-2.7-25.354c-.139-1.386-1.353-2.39-2.712-2.238-1.344.152-2.32 1.394-2.167 2.78l2.824 25.338-4.574.521-2.921-25.322c-.153-1.386-1.381-2.375-2.725-2.224-1.345.152-2.306 1.394-2.14 2.78l3.332 27.814c.167 1.386 1.367 2.376 2.67 2.225a948 948 0 0 1 27.019-2.802c1.276-.109 2.225-1.309 2.1-2.695l-3.052-36.044c-.111-1.387-1.312-2.419-2.657-2.309a992 992 0 0 0-38.536 4.199 2.5 2.5 0 0 0-1.648.949 2.46 2.46 0 0 0-.491 1.858l5.896 46.322c.18 1.386 1.38 2.362 2.697 2.197 15.742-1.966 31.169-3.677 46.15-4.781a2.22 2.22 0 0 0 1.553-.85c.393-.494.575-1.151.533-1.817l-4.012-57.084c-.096-1.374-1.285-2.461-2.658-2.337-19.891 1.48-39.78 3.793-59.69 6.426a2.51 2.51 0 0 0-2.152 2.821l7.561 56.722zM814.431 357.605c-.069-1.401-1.382-2.459-2.922-2.359s-2.711 1.291-2.642 2.678l7.833 135.261c.083 1.388 1.146 2.45 2.395 2.37 1.234-.08 2.183-1.266 2.114-2.64zM847.021 356.833c.014-1.39-1.301-2.544-2.87-2.513-1.583.017-2.852 1.154-2.853 2.543l.836 135.484c.014 1.389.995 2.508 2.189 2.485 1.208-.025 2.145-1.127 2.158-2.53l.54-135.483zM823.016 373.728l-5.483.22c.275 5.44 5.207 9.662 11.038 9.449 5.845-.172 10.592-4.573 10.552-10.045-.025-5.432-5.044-9.846-11.125-9.67-6.039.231-10.726 4.84-10.451 10.28l5.483-.221c-.108-2.665 2.194-4.919 5.123-5.033 2.929-.128 5.39 2.06 5.442 4.712.054 2.694-2.279 4.81-5.152 4.951-2.873.113-5.304-1.965-5.399-4.63z"/><path d="M829.707 373.47c-.015-.722-.679-1.292-1.47-1.262-.791.029-1.418.639-1.39 1.375.015.722.679 1.292 1.47 1.262.791-.029 1.418-.639 1.39-1.375M826.863 476.257l-4.581.174c.275 5.44 4.417 9.706 9.261 9.512 4.818-.137 8.633-4.547 8.608-10.006-.039-5.431-4.128-9.865-9.181-9.709-5.067.199-8.949 4.763-8.688 10.217l4.581-.174c-.108-2.666 1.806-4.898 4.249-5.003 2.456-.118 4.445 2.093 4.498 4.731.053 2.694-1.822 4.801-4.223 4.919-2.401.089-4.429-1.996-4.538-4.661z"/><path d="M832.458 476.035c-.014-.722-.567-1.295-1.233-1.267-.667.013-1.182.634-1.154 1.356.014.722.581 1.294 1.234 1.268.652-.013 1.182-.635 1.153-1.357M825.587 442.082l-4.886.195c.275 5.44 4.68 9.686 9.844 9.486 5.164-.144 9.286-4.561 9.247-10.019-.039-5.431-4.434-9.858-9.834-9.695-5.386.204-9.546 4.788-9.271 10.228l4.886-.195c-.109-2.665 1.93-4.914 4.54-5.008 2.609-.121 4.765 2.086 4.818 4.725.053 2.694-1.975 4.804-4.528 4.924-2.554.107-4.721-1.976-4.83-4.641z"/><path d="M831.542 441.852c-.015-.722-.609-1.294-1.317-1.266-.709.014-1.266.637-1.237 1.359a1.28 1.28 0 0 0 1.317 1.265c.708-.028 1.251-.636 1.237-1.358M824.294 407.906l-5.177.2c.275 5.44 4.943 9.681 10.44 9.461 5.498-.165 9.939-4.574 9.9-10.033-.039-5.431-4.739-9.852-10.473-9.682-5.719.225-10.128 4.814-9.867 10.254zc-.108-2.665 2.056-4.917 4.832-5.028 2.776-.125 5.084 2.066 5.123 4.718.053 2.694-2.127 4.808-4.848 4.931-2.72.11-5.012-1.97-5.107-4.635z"/><path d="M830.623 407.655c-.014-.722-.637-1.293-1.386-1.264a1.357 1.357 0 0 0-1.321 1.373c.015.722.651 1.293 1.387 1.265a1.357 1.357 0 0 0 1.32-1.374M739.537 433.054a2.52 2.52 0 0 0 2.821 2.166c19.966-2.634 39.965-4.963 60.009-6.459 1.373-.125 2.419-1.285 2.322-2.686-.097-1.373-1.313-2.46-2.7-2.336-20.182 1.5-40.279 3.845-60.3 6.494a2.52 2.52 0 0 0-2.166 2.835zM930.768 364.656c.265-1.367-.86-2.734-2.506-3.048-1.644-.287-3.169.591-3.406 1.957l-9.485 53.866c-18.89-3.333-37.972-5.148-57.028-5.713l1.545-52.166c8.646.272 17.324.738 26.035 1.482a471 471 0 0 1 26.19 3.021l-6.014 41.225c-12.093-1.773-24.229-2.921-36.343-3.611l1.715-31.096 5.48.322-1.703 25.442c-.097 1.377 1.038 2.591 2.513 2.714 1.475.11 2.774-.916 2.885-2.308l2.037-25.407c1.572.122 3.158.243 4.745.406l-2.301 25.384c-.125 1.378.969 2.621 2.458 2.758 1.476.137 2.789-.862 2.942-2.254l2.635-25.363 5.499.613-2.955 25.328c-.153 1.378.914 2.635 2.39 2.8 1.476.193 2.819-.765 3-2.144l3.628-27.772c.181-1.379-.97-2.662-2.572-2.88-11.113-1.376-22.203-2.295-33.23-2.839-1.585-.066-2.925 1.003-2.98 2.393l-1.545 36.136c-.056 1.39 1.065 2.562 2.525 2.63 13.725.7 27.476 1.996 41.146 4.113a2.72 2.72 0 0 0 1.963-.442c.562-.386.94-.977 1.051-1.646l7.39-46.115c.222-1.366-.929-2.691-2.574-2.95-19.689-3.025-39.308-4.635-58.724-5.082-.778-.026-1.537.225-2.084.681-.561.455-.881 1.087-.882 1.754l-1.014 57.212c-.028 1.39 1.106 2.548 2.524 2.575 20.541.494 41.098 2.433 61.399 6.155 1.394.264 2.738-.624 3.003-1.977l10.745-56.198zM851.708 492.365c-.028 1.39.898 2.538 2.052 2.571 1.153.032 2.132-1.071 2.173-2.461l1.621-54.682c17.903.533 35.733 2.248 53.27 5.33l-9.049 51.399c-12.003-2.137-24.352-3.488-36.91-4.183l2.298-41.596c10.792.619 21.523 1.627 32.139 3.194l-4.498 30.818c-1.352-.209-2.716-.362-4.068-.558l3.345-25.28c.181-1.379-.706-2.639-1.987-2.808s-2.456.854-2.623 2.219l-2.997 25.315-3.55-.402 2.718-25.351c.153-1.378-.775-2.624-2.055-2.737-1.294-.127-2.441.896-2.566 2.288l-2.384 25.386c-1.378-.126-2.742-.279-4.133-.363l2.078-25.407c.111-1.392-.844-2.595-2.137-2.694-1.294-.1-2.413.937-2.51 2.328l-1.917 27.947c-.097 1.391.788 2.582 1.957 2.683a319 319 0 0 1 24.198 2.741c1.143.172 2.249-.794 2.472-2.174l5.72-35.719c.223-1.365-.663-2.64-1.96-2.85-12.332-1.908-24.816-3.09-37.345-3.73-.64-.029-1.26.22-1.738.66a2.57 2.57 0 0 0-.784 1.752l-2.003 46.647c-.056 1.39.829 2.553 1.983 2.6 13.794.684 27.299 2.193 40.377 4.572.516.101 1.068-.063 1.533-.447.451-.398.786-.974.912-1.63l10.745-56.198c.265-1.366-.609-2.682-1.948-2.934-19.38-3.545-39.102-5.417-58.893-5.884a2.463 2.463 0 0 0-2.507 2.453l-1.014 57.213zM946.212 367.917c.321-1.34-.764-2.791-2.41-3.134-1.646-.356-3.214.453-3.506 1.82l-28.592 132.43c-.293 1.354.344 2.647 1.418 2.875 1.074.215 2.183-.64 2.503-2.008zM979.783 377.308c.433-1.314-.501-2.837-2.095-3.347-1.593-.497-3.219.175-3.637 1.503L933.91 504.859c-.404 1.328.122 2.665 1.184 2.991 1.049.354 2.242-.434 2.675-1.748l42.014-128.807zM950.504 385.878c-1.886-.504-3.77-.939-5.654-1.387-.628 2.652.037 5.347 1.567 7.54 1.545 2.219 3.956 4.005 6.93 4.779 5.922 1.633 11.965-1.169 13.557-6.354.782-2.6.31-5.355-1.208-7.658-1.532-2.29-4.057-4.184-7.185-5.039-3.142-.813-6.262-.5-8.724.729-2.476 1.244-4.295 3.35-4.923 6.002 1.884.449 3.768.884 5.654 1.388.657-2.583 3.642-4.045 6.673-3.244 3.031.828 4.878 3.625 4.137 6.182-.74 2.571-3.727 3.95-6.661 3.148-2.946-.775-4.806-3.489-4.149-6.072z"/><path d="M957.398 387.699c.195-.699-.307-1.467-1.131-1.673-.824-.219-1.635.186-1.816.884-.18.698.321 1.438 1.131 1.658.81.207 1.622-.157 1.816-.869M925.181 485.304c-1.355-.376-2.75-.682-4.118-1.016-.628 2.652-.298 5.257.702 7.335 1 2.092 2.643 3.671 4.779 4.225 2.123.583 4.322.081 6.227-1.235 1.905-1.302 3.531-3.363 4.326-5.976 1.605-5.228-.807-10.556-5.403-11.826-2.304-.593-4.655-.088-6.587 1.285s-3.416 3.554-4.044 6.206c1.382.334 2.764.64 4.119 1.016.657-2.583 2.972-4.213 5.192-3.632 2.207.609 3.37 3.211 2.63 5.768-.741 2.571-3.044 4.145-5.167 3.562-2.122-.555-3.326-3.101-2.669-5.684z"/><path d="M930.179 486.621c.195-.698-.125-1.414-.725-1.555-.601-.155-1.231.288-1.412.987-.18.698.139 1.4.726 1.541.586.141 1.217-.274 1.411-.973M933.622 452.158c-1.536-.414-3.085-.758-4.635-1.13-.627 2.652-.186 5.296.981 7.398 1.182 2.13 3.076 3.787 5.492 4.406 2.402.66 4.867.236 6.953-1.042a10.32 10.32 0 0 0 4.592-5.898c1.618-5.227-1.241-10.699-6.395-12.111-2.584-.671-5.187-.23-7.3 1.09-2.112 1.334-3.709 3.491-4.337 6.143 1.55.372 3.099.716 4.635 1.13.657-2.583 3.195-4.161 5.695-3.503 2.487.687 3.873 3.341 3.132 5.898-.741 2.57-3.267 4.079-5.655 3.418-2.402-.619-3.815-3.23-3.158-5.813z"/><path d="M939.25 453.644c.195-.699-.181-1.428-.851-1.595-.67-.181-1.357.249-1.551.962-.18.698.195 1.413.865 1.58s1.357-.235 1.537-.947M942.063 419.025c-1.704-.466-3.434-.848-5.151-1.259-.628 2.652-.075 5.322 1.274 7.477 1.363 2.181 3.509 3.889 6.204 4.599 5.35 1.477 10.959-1.454 12.551-6.64a9.37 9.37 0 0 0-.929-7.566c-1.336-2.238-3.623-4.054-6.472-4.831-2.863-.748-5.717-.358-8.012.91-2.294 1.282-4.002 3.414-4.63 6.066 1.717.41 3.434.806 5.151 1.258.657-2.583 3.419-4.096 6.184-3.373 2.752.751 4.376 3.483 3.635 6.04-.74 2.57-3.504 4.015-6.158 3.276-2.667-.697-4.318-3.36-3.661-5.943z"/><path d="M948.334 420.679c.194-.698-.252-1.453-.992-1.633-.74-.194-1.496.21-1.69.923-.18.698.265 1.425.991 1.619.74.18 1.482-.196 1.677-.908zM852.92 424.635c-.028 1.39 1.078 2.549 2.454 2.577 20.042.476 40.056 2.37 59.743 5.979a2.493 2.493 0 0 0 2.919-2.003 2.53 2.53 0 0 0-2.018-2.961c-19.994-3.658-40.258-5.575-60.536-6.06a2.5 2.5 0 0 0-2.577 2.454zM1057.86 412.274c.7-1.209.1-2.836-1.33-3.641-1.44-.805-3.15-.479-3.82.743l-26.67 47.762c-16.69-9.322-34.144-17.476-52.224-24.062l17.82-49.046c16.944 6.164 33.304 13.521 48.954 21.683l-19.27 36.933c-10.78-5.731-21.994-10.759-33.381-15.408l11.58-28.903c1.761.659 3.491 1.403 5.211 2.146l-9.826 23.52c-.53 1.289.153 2.803 1.526 3.401 1.374.598 2.946.039 3.504-1.236l10.176-23.374 4.46 1.925-10.47 23.241c-.56 1.261.08 2.777 1.43 3.431 1.34.64 2.92.136 3.52-1.112l10.8-23.095 5.05 2.4-11.13 22.934c-.6 1.249 0 2.793 1.35 3.433 1.36.626 2.91.22 3.55-1.043l12.59-25.02c.61-1.235-.02-2.875-1.51-3.568-10.15-4.924-20.48-9.622-31.137-13.744-1.54-.595-3.182-.02-3.684 1.282l-12.928 33.778c-.488 1.302.208 2.774 1.58 3.302 12.91 5.12 25.599 10.813 37.759 17.378.62.321 1.34.403 2 .21.67-.18 1.21-.622 1.53-1.212l22.18-41.102c.65-1.222 0-2.834-1.46-3.611-17.5-9.292-36-17.565-55.111-24.338-.77-.263-1.589-.261-2.278.003s-1.208.76-1.417 1.39l-18.734 54.064c-.46 1.315.277 2.745 1.62 3.205 19.515 6.821 38.24 15.728 56.16 25.846 1.24.697 2.8.277 3.5-.917l28.53-49.592zM942.432 507.688c-.46 1.315.025 2.667 1.074 3.007s2.27-.42 2.744-1.722l18.675-51.41c16.666 6.073 32.833 13.613 48.415 22.333l-25.434 45.571c-10.858-6.049-21.827-11.346-32.961-15.833l15.484-38.678c9.86 4.041 19.615 8.39 29.093 13.438l-14.398 27.612-3.636-1.9 11.494-22.762c.628-1.235.209-2.741-.941-3.315-1.164-.546-2.598.024-3.198 1.272l-11.171 22.922-3.183-1.507 10.89-23.054c.6-1.263.14-2.726-1.023-3.272-1.164-.547-2.57.023-3.142 1.285l-10.554 23.201c-1.234-.573-2.48-1.062-3.714-1.607l10.218-23.361c.558-1.276.057-2.71-1.12-3.215s-2.567.121-3.097 1.409l-10.85 25.833c-.53 1.288-.127 2.683.924 3.135 1.822.797 3.643 1.539 5.465 2.35l5.413 2.573c3.631 1.637 7.184 3.594 10.763 5.426 1.025.535 2.403-.02 3.059-1.256l17.179-31.834c.65-1.222.25-2.714-.93-3.316-10.996-5.949-22.364-11.029-33.888-15.606a2.28 2.28 0 0 0-1.832.092 2.56 2.56 0 0 0-1.277 1.414l-16.691 43.619c-.502 1.302-.072 2.669.936 3.052 12.166 4.759 24.145 10.535 36.017 17.259.478.268 1.062.298 1.641.078.565-.219 1.084-.674 1.42-1.251l28.534-49.592c.7-1.208.29-2.728-.89-3.385-17.19-9.702-35.048-18.195-53.626-24.688-1.286-.433-2.703.276-3.149 1.591l-18.734 54.064zM1071.05 420.153c.73-1.181.2-2.824-1.2-3.671-1.39-.848-3.11-.563-3.82.632l-69.939 116.041c-.713 1.195-.504 2.635.481 3.241.984.605 2.378.119 3.104-1.062l71.364-115.167zM1098.73 438.564c.8-1.127.44-2.815-.88-3.705-1.31-.905-3.03-.718-3.81.423l-77.39 111.202c-.8 1.141-.64 2.611.33 3.286.99.647 2.41.341 3.22-.801l78.54-110.391zM1069.12 438.402l-4.73-3.045c-2.86 4.614-1.15 10.984 3.83 14.218 2.52 1.603 5.32 2.214 7.94 1.843 2.62-.372 5.01-1.711 6.56-3.951 3.08-4.451 1.59-10.992-3.65-14.375-5.22-3.397-11.79-2.377-14.68 2.251l4.73 3.045c1.44-2.251 4.66-2.746 7.19-1.101 2.55 1.63 3.32 4.796 1.82 7.007s-4.64 2.648-7.13 1.059c-2.48-1.604-3.31-4.727-1.88-6.965z"/><path d="M1074.89 442.135c.4-.606.18-1.462-.51-1.893s-1.56-.303-1.95.303c-.39.605-.17 1.461.51 1.893.67.445 1.55.302 1.95-.303M1013.65 524.706l-3.73-2.413c-2.87 4.614-2.03 10.446 1.88 12.979 3.93 2.52 9.59 1.185 12.7-3.322 1.56-2.24 2.13-4.835 1.81-7.232-.33-2.397-1.57-4.609-3.65-5.929-4.17-2.695-9.86-1.137-12.74 3.504zc1.44-2.252 4.23-3.016 6.24-1.722 2.02 1.28 2.41 4.189.92 6.4-1.49 2.21-4.27 2.905-6.23 1.666-1.95-1.267-2.36-4.107-.92-6.358z"/><path d="M1018.21 527.658c.4-.606.29-1.381-.26-1.731-.53-.351-1.31-.141-1.7.464s-.28 1.381.26 1.731c.53.351 1.29.141 1.7-.464M1032.13 495.928l-4.07-2.628c-2.86 4.614-1.74 10.62 2.54 13.397 4.27 2.749 10.17 1.59 13.29-2.918 1.55-2.24 2.07-4.875 1.63-7.339s-1.82-4.785-4.08-6.212c-4.52-2.925-10.51-1.555-13.39 3.086l4.07 2.628c1.44-2.251 4.37-2.921 6.55-1.506 2.2 1.388 2.72 4.392 1.22 6.603s-4.41 2.824-6.53 1.463c-2.13-1.374-2.68-4.308-1.24-6.56z"/><path d="M1037.1 499.151c.41-.606.25-1.408-.34-1.786-.59-.377-1.39-.194-1.78.411s-.25 1.408.34 1.785 1.38.195 1.78-.41M1050.63 467.164l-4.39-2.844c-2.87 4.614-1.45 10.809 3.18 13.801 2.33 1.481 5 1.998 7.5 1.559a9.79 9.79 0 0 0 6.39-4.073c3.08-4.451 1.83-10.816-3.05-13.969-4.87-3.154-11.15-1.959-14.03 2.668l4.39 2.844c1.44-2.251 4.51-2.826 6.86-1.303 2.36 1.508 3.02 4.593 1.52 6.804-1.49 2.211-4.51 2.729-6.83 1.261-2.3-1.482-3-4.51-1.55-6.762z"/><path d="M1056 470.643c.4-.605.2-1.435-.43-1.839-.63-.418-1.48-.248-1.87.357s-.2 1.435.43 1.839 1.46.249 1.87-.357M964.607 443.693a2.483 2.483 0 0 0 1.536 3.178c18.899 6.598 37.047 15.238 54.497 25.073 1.21.671 2.74.251 3.44-.957.7-1.209.26-2.742-.96-3.426-17.67-9.97-36.087-18.73-55.294-25.447-1.328-.445-2.773.25-3.219 1.565zM1160.26 488.11c.93-1.032.77-2.682-.35-3.674-1.11-.992-2.77-.945-3.69.101l-36.12 41.075c-14.08-12.389-28.6-24.408-43.79-35.733l31.16-41.851c13.44 10.04 26.25 20.44 38.53 30.975l-27.13 31.616c-8.93-7.712-18.15-15.211-27.56-22.539l19.05-24.62a217 217 0 0 1 4.15 3.237l-15.76 20.04c-.85 1.087-.64 2.708.5 3.616 1.13.908 2.76.751 3.62-.336l15.93-19.905 3.54 2.833-16.05 19.81c-.87 1.073-.67 2.68.45 3.617 1.11.922 2.72.793 3.6-.28l16.2-19.688 4.01 3.324-16.34 19.579c-.89 1.074-.71 2.681.41 3.604 1.11.908 2.72.821 3.62-.239l18.09-21.378c.9-1.06.73-2.71-.45-3.673-8.02-6.689-16.15-13.334-24.63-19.791-1.23-.935-2.89-.79-3.73.324l-21.88 28.802c-.84 1.115-.6 2.707.55 3.588 10.76 8.273 21.25 16.816 31.39 25.63a2.6 2.6 0 0 0 1.86.63c.66-.041 1.3-.346 1.75-.855l30.62-35.255c.91-1.046.72-2.696-.42-3.687-13.68-11.8-28-23.462-43.19-34.662a3.14 3.14 0 0 0-2.06-.598c-.71.07-1.33.402-1.74.952l-33.72 46.222c-.83 1.128-.56 2.706.58 3.531 16.53 12.104 32.19 25.212 47.44 38.661 1.04.924 2.65.836 3.58-.196l38.01-42.766zM1024.51 552.103c-.82 1.127-.7 2.611.27 3.314.98.703 2.44.369 3.27-.745l32.66-43.882c14.47 10.784 28.45 22.369 42.14 34.405l-34.47 39.194c-10.44-9.183-20.9-17.921-31.42-26.088l25.48-32.945c8.7 6.773 17.3 13.742 25.73 21.034l-20.27 23.63-3.42-2.932 16.48-19.457c.9-1.06.81-2.642-.22-3.496s-2.59-.685-3.48.388l-16.35 19.566-2.97-2.455 16.24-19.661c.88-1.073.77-2.627-.26-3.481s-2.59-.671-3.45.402l-16.1 19.768-3.45-2.751 15.95-19.891c.86-1.087.72-2.64-.31-3.467s-2.58-.615-3.45.472l-17.34 22.002c-.86 1.087-.76 2.613.22 3.399l5.12 4.08 5.1 4.233c3.4 2.78 6.8 5.713 10.19 8.618.97.842 2.51.658 3.42-.388l23.73-27.311c.91-1.046.81-2.614-.23-3.496-9.71-8.447-19.63-16.515-29.72-24.275a2.4 2.4 0 0 0-1.82-.464 2.52 2.52 0 0 0-1.64.992l-28.25 37.181c-.84 1.114-.74 2.598.23 3.343 11.61 8.896 23.14 18.543 34.69 28.76.47.408 1.08.604 1.72.535a2.66 2.66 0 0 0 1.69-.881l38.02-42.765a2.51 2.51 0 0 0-.2-3.539c-14.99-13.218-30.31-26.027-46.33-37.766-1.11-.811-2.66-.544-3.49.584l-33.72 46.222zM1170.66 497.488c.94-1.033.81-2.67-.29-3.662-1.09-.992-2.74-.959-3.67.073l-90.81 100.537c-.94 1.033-.9 2.574.07 3.444.96.869 2.5.755 3.44-.277l91.28-100.129zM1192.83 518.12c.96-1.005.88-2.629-.17-3.622s-2.69-.974-3.64.031l-92.96 98.565c-.95 1.005-.94 2.575.03 3.486s2.53.839 3.49-.167zM1165.06 514.644l-3.85-3.549c-3.66 4.018-3.31 10.374.81 14.181 4.15 3.807 10.4 3.697 14.16-.268 3.72-3.963 3.49-10.321-.72-14.197-4.19-3.875-10.55-3.749-14.25.284zc1.81-1.967 4.93-2.015 6.97-.139 2.05 1.891 2.21 4.999.38 6.953-1.83 1.953-4.94 2.001-6.96.138-2.03-1.877-2.2-4.985-.39-6.952"/><path d="M1169.74 518.984a1.34 1.34 0 0 0-.1-1.887c-.56-.517-1.4-.5-1.91.038-.49.538-.44 1.384.11 1.887s1.4.5 1.9-.038M1095.49 590.073l-3.55-3.277c-3.67 4.005-3.56 10.143.24 13.665 3.81 3.494 9.94 3.275 13.69-.717 3.74-3.951 3.63-10.172-.25-13.748-3.88-3.59-10-3.246-13.68.8zc1.81-1.967 4.81-2.138 6.7-.383 1.9 1.74 1.94 4.754.14 6.707-1.83 1.939-4.82 2.096-6.71.369-1.86-1.741-1.92-4.726-.13-6.693"/><path d="M1099.83 594.085c.49-.537.48-1.343-.03-1.819s-1.33-.432-1.82.106c-.49.537-.47 1.343.04 1.819s1.33.432 1.81-.106M1118.67 564.927l-3.65-3.373c-3.67 4.005-3.48 10.21.44 13.842 3.92 3.603 10.1 3.41 13.84-.568 3.73-3.95 3.58-10.226-.41-13.897-3.98-3.686-10.18-3.423-13.87.623zc1.81-1.967 4.85-2.097 6.79-.302s2.04 4.835.21 6.789c-1.83 1.939-4.87 2.069-6.79.288-1.93-1.782-2.01-4.822-.22-6.775z"/><path d="M1123.13 569.059c.49-.538.47-1.357-.06-1.846a1.316 1.316 0 0 0-1.85.078c-.49.538-.47 1.357.07 1.846.52.49 1.35.446 1.84-.078M1141.87 539.792l-3.75-3.454c-3.65 4.018-3.39 10.292.63 14.004 4.03 3.713 10.25 3.561 13.99-.417 3.73-3.964 3.54-10.267-.57-14.047-4.09-3.781-10.36-3.586-14.05.446l3.75 3.454c1.81-1.967 4.89-2.056 6.88-.22s2.12 4.917.28 6.871c-1.82 1.939-4.89 2.042-6.87.206-1.98-1.822-2.11-4.904-.3-6.857z"/><path d="M1146.45 544.023c.49-.538.46-1.37-.08-1.874a1.33 1.33 0 0 0-1.88.065 1.34 1.34 0 0 0 .08 1.874c.54.503 1.39.473 1.88-.065M1064.45 497.38a2.49 2.49 0 0 0 .54 3.504c16.2 11.874 31.62 24.764 46.71 38.078 1.03.924 2.63.823 3.55-.224a2.517 2.517 0 0 0-.22-3.551c-15.16-13.382-30.71-26.367-47.07-38.349a2.535 2.535 0 0 0-3.53.542z"/></g></svg>