<svg xmlns="http://www.w3.org/2000/svg" width="1710" height="881" fill="none" viewBox="0 0 1710 881"><g fill="#f7c914" opacity=".16"><path d="M1578.45 676.35c-.76-1.17-.5-2.68.57-3.39 1.08-.72 2.57-.36 3.33.81l30.08 45.68c15.24-10.04 30.27-20.54 45.28-31.22l-30.25-42.53c-11.98 8.53-23.8 16.82-35.51 24.69l23.25 34.57c9.33-6.26 18.6-12.74 27.88-19.28l-17.96-25.44-3.85 2.71 14.65 20.85c.8 1.13.54 2.7-.58 3.48-1.12.79-2.68.5-3.48-.65l-14.6-20.89-3.32 2.32 14.55 20.93c.79 1.13.52 2.69-.6 3.46-1.12.78-2.67.49-3.46-.67l-14.49-20.98-3.82 2.64 14.42 21.03c.79 1.13.51 2.7-.62 3.46-1.12.76-2.67.45-3.45-.7l-15.75-23.17c-.78-1.15-.53-2.69.56-3.42 7.61-5.21 15.23-10.53 22.94-15.99 1.11-.78 2.65-.5 3.46.63l20.91 29.51c.8 1.13.55 2.7-.58 3.5-10.66 7.54-21.33 14.97-32.07 22.17-.55.37-1.22.49-1.86.35-.64-.13-1.22-.53-1.59-1.07l-25.89-38.86c-.77-1.16-.52-2.66.55-3.39 12.95-8.68 26.04-17.88 39.38-27.39.53-.39 1.2-.53 1.85-.43.66.11 1.24.49 1.63 1.03l33.22 46.6c.8 1.14.54 2.69-.58 3.5-16.39 11.69-32.84 23.19-49.55 34.16-1.15.76-2.7.44-3.47-.74l-31.21-47.95zM1708.71 751.1c.81 1.14.53 2.71-.62 3.53-1.15.81-2.73.56-3.53-.57l-31.72-44.57c-15.11 10.76-30.4 21.45-46.05 31.75l28.7 43.59c13.36-8.79 26.25-17.72 38.82-26.6l-24.03-34.04c-9.49 6.68-19.01 13.35-28.76 19.88l17.38 25.84 4.19-2.84-14.32-21.1c-.78-1.14-.46-2.73.72-3.52 1.19-.79 2.76-.52 3.54.62l14.41 21.04 3.56-2.46-14.46-20.99c-.79-1.14-.49-2.72.69-3.53 1.16-.8 2.74-.53 3.54.62l14.53 20.94 4.09-2.85-14.6-20.91c-.79-1.14-.5-2.71.65-3.53 1.16-.81 2.74-.54 3.54.59l16.09 22.92c.8 1.13.49 2.72-.68 3.54-8.12 5.71-16.45 11.41-24.87 17.08-1.21.82-2.85.54-3.61-.61l-20.06-30.1c-.77-1.16-.44-2.72.73-3.52 11.11-7.45 22.03-15.07 32.84-22.7.54-.4 1.23-.54 1.89-.44.65.11 1.25.49 1.63 1.02l27.03 38.12c.81 1.14.51 2.73-.65 3.55-13.96 9.89-28.34 19.85-43.32 29.67-.59.4-1.31.56-1.99.44s-1.28-.5-1.64-1.07l-31.21-47.95c-.76-1.17-.41-2.72.75-3.5 17.01-11.16 33.63-22.78 50.08-34.51 1.13-.81 2.7-.55 3.51.59zM1568.27 682.86c-.73-1.19-.47-2.67.6-3.34 1.07-.7 2.55-.3 3.29.88l72.82 114.25c.75 1.17.32 2.78-.95 3.59-1.28.81-2.93.51-3.66-.67l-72.11-114.7zM1545.98 696.23c-.69-1.21-.38-2.69.68-3.3 1.05-.6 2.48-.13 3.18 1.07l68.07 117.15c.7 1.2.17 2.81-1.17 3.57-1.34.77-2.99.42-3.69-.78l-67.08-117.72zM1571.39 700.28l3.99-2.49c2.9 4.6 1.7 10.61-2.69 13.25-4.4 2.63-10.17.97-12.92-3.77-2.74-4.68-1.53-10.57 2.69-13.1 4.23-2.54 10.02-1.01 12.92 3.62zc-1.4-2.29-4.23-3.04-6.32-1.8-2.08 1.25-2.68 4.13-1.31 6.42s4.18 3.11 6.32 1.84c2.13-1.26 2.72-4.2 1.31-6.46"/><path d="M1566.53 703.23c-.37-.62-.22-1.41.35-1.75s1.35-.12 1.73.49c.37.61.22 1.4-.36 1.75s-1.35.12-1.72-.49M1625.16 787.65l4.57-2.84c2.87 4.6 1.23 10.9-3.88 13.98-5.11 3.06-11.48 1.74-14.24-2.99-2.72-4.69-.95-10.92 4.02-13.89 4.94-2.97 11.2-1.73 14.1 2.9zc-1.41-2.28-4.46-2.89-6.93-1.44-2.45 1.47-3.32 4.52-1.96 6.8 1.37 2.3 4.48 2.95 6.97 1.46 2.5-1.48 3.32-4.57 1.91-6.83z"/><path d="M1619.52 791.09c-.36-.62-.14-1.45.53-1.85s1.52-.22 1.9.4c.38.61.14 1.45-.53 1.85-.67.39-1.53.22-1.9-.4M1607.24 758.53l4.37-2.72c2.89 4.61 1.37 10.81-3.49 13.74-4.88 2.91-11.04 1.48-13.8-3.24-2.73-4.7-1.14-10.81 3.58-13.64 4.71-2.83 10.8-1.48 13.71 3.14zc-1.41-2.28-4.4-2.93-6.73-1.56-2.32 1.4-3.11 4.38-1.75 6.68 1.38 2.3 4.39 3.01 6.76 1.6s3.11-4.45 1.72-6.72"/><path d="M1601.85 761.8c-.36-.62-.16-1.44.48-1.82.65-.39 1.47-.19 1.84.43.38.61.16 1.44-.48 1.82-.64.39-1.47.19-1.84-.43M1589.31 729.39l4.18-2.6c2.89 4.61 1.54 10.72-3.09 13.5-4.63 2.77-10.6 1.22-13.36-3.51-2.74-4.68-1.34-10.69 3.14-13.37 4.46-2.69 10.41-1.25 13.31 3.38zc-1.4-2.28-4.31-2.98-6.53-1.68-2.21 1.32-2.9 4.26-1.53 6.55 1.37 2.3 4.29 3.07 6.54 1.71 2.25-1.33 2.92-4.32 1.52-6.59z"/><path d="M1584.19 732.52c-.36-.62-.18-1.42.42-1.79s1.41-.15 1.77.47c.37.62.19 1.42-.41 1.78-.62.36-1.41.16-1.78-.46M1669.38 695.95c.81 1.14.54 2.69-.59 3.51-16.42 11.72-32.98 23.3-49.9 34.4-1.15.77-2.73.44-3.49-.73a2.53 2.53 0 0 1 .73-3.49c16.81-11.04 33.32-22.58 49.73-34.28 1.13-.8 2.7-.54 3.52.59M1490.52 722.72c-.51-1.29.01-2.7 1.13-3.14 1.11-.43 2.44.26 2.96 1.55l20.16 50.85c4.23-1.57 8.29-3.4 12.44-5.12 4.11-1.76 8.17-3.68 12.25-5.53 8.09-3.91 16.14-7.92 24.04-12.27l-24.93-45.84c-11.57 6.28-23.13 11.94-34.73 16.86l16.25 38.35c5-2.03 9.91-4.39 14.86-6.62 4.89-2.4 9.8-4.71 14.65-7.29l-14.31-27.65-3.82 1.98 11.5 22.75c.62 1.25.19 2.75-1 3.31-1.18.57-2.63.03-3.24-1.22l-11.26-22.88-3.31 1.61 11.05 22.98c.61 1.25.15 2.74-1.04 3.31-1.17.58-2.62-.03-3.21-1.29l-10.79-23.1-3.84 1.74 10.53 23.22c.58 1.28.09 2.73-1.1 3.27-1.2.55-2.61-.04-3.17-1.32l-11.28-25.64c-.56-1.28-.13-2.72.95-3.21 3.78-1.73 7.58-3.42 11.35-5.31 1.88-.93 3.77-1.81 5.67-2.78l5.66-2.93c1.08-.56 2.49-.02 3.15 1.2l16.96 31.96c.64 1.23.21 2.73-.97 3.34-2.81 1.44-5.62 2.95-8.45 4.34l-8.52 4.15-8.6 3.92c-2.85 1.33-5.78 2.47-8.66 3.72-.59.24-1.26.24-1.84-.02a2.55 2.55 0 0 1-1.32-1.38L1499 719.38c-.53-1.28-.09-2.69.96-3.14 12.71-5.31 25.41-11.52 38.13-18.51.51-.29 1.13-.32 1.72-.1s1.11.67 1.42 1.25l27.79 50.01c.67 1.22.25 2.73-.96 3.4-8.67 4.86-17.56 9.27-26.47 13.58-9.01 4.15-17.99 8.18-27.31 11.68-1.27.5-2.72-.14-3.21-1.45l-20.57-53.4zM1607.05 817.33c.67 1.22.1 2.81-1.27 3.56-1.37.76-3.03.38-3.69-.84l-26.12-48.06c-8.29 4.56-16.79 8.81-25.36 12.94-4.33 1.96-8.63 4-13.02 5.88-4.39 1.83-8.77 3.79-13.2 5.45l19.23 48.52c3.9-1.47 7.93-3.21 11.92-4.89 4.04-1.65 7.95-3.44 11.87-5.24l5.87-2.7 5.76-2.8 5.75-2.82 5.64-2.91-19.15-37.01c-5.3 2.82-10.77 5.4-16.17 8.06-5.52 2.49-10.97 5.09-16.59 7.39l12.16 28.68 5.04-2.13-10.23-23.36c-.55-1.26.09-2.78 1.44-3.4 1.33-.61 2.88-.07 3.47 1.19l10.5 23.23 4.28-1.95-10.72-23.13c-.58-1.26.04-2.78 1.37-3.39 1.34-.62 2.88-.15 3.49 1.11l10.97 23.01 4.85-2.36-11.22-22.89c-.6-1.24-.03-2.77 1.28-3.42 1.32-.66 2.91-.17 3.52 1.07l12.61 25.02c.62 1.24-.01 2.81-1.43 3.5-4.9 2.39-9.75 4.81-14.78 7.04l-7.51 3.39-7.63 3.22c-1.47.63-3.09.08-3.61-1.21l-13.71-33.48c-.53-1.28.13-2.79 1.47-3.36 3.16-1.36 6.36-2.63 9.47-4.06l9.36-4.28 9.22-4.49c3.08-1.49 6.08-3.12 9.11-4.66.61-.32 1.33-.39 1.98-.2.66.19 1.19.63 1.51 1.22l21.88 41.25c.65 1.23.04 2.82-1.36 3.54-4.23 2.19-8.4 4.39-12.75 6.47-4.29 2.11-8.6 4.22-13.05 6.19l-6.6 3-6.73 2.86-6.75 2.83-6.61 2.57c-.71.28-1.48.3-2.16.05-.66-.25-1.18-.74-1.41-1.36l-20.57-53.4c-.5-1.3.16-2.76 1.48-3.27 9.57-3.59 19-7.83 28.31-12.12 9.23-4.46 18.42-9.04 27.36-14.04 1.24-.67 2.78-.23 3.46.97l27.79 50.02zM1480.12 726.56c-.47-1.32.04-2.71 1.13-3.09 1.08-.39 2.35.34 2.83 1.65l46.37 127.29c.47 1.31-.38 2.82-1.91 3.38s-3.14-.07-3.6-1.37zM1457.78 733.4c-.34-1.34.23-2.66 1.29-2.95 1.07-.28 2.23.58 2.61 1.92l36.11 130.59c.38 1.34-.63 2.78-2.26 3.2-1.62.44-3.22-.31-3.57-1.65l-34.19-131.1zM1479.72 744.1l2.05-.65 2.07-.76c.89 2.57.79 5.25-.15 7.48-.91 2.15-2.64 3.84-4.94 4.56-2.28.71-4.68.32-6.65-.94-1.98-1.23-3.59-3.42-4.32-6.02-.76-2.64-.5-5.2.4-7.36.92-2.17 2.53-3.83 4.66-4.5 2.14-.67 4.4-.21 6.4 1.04 2 1.19 3.71 3.17 4.6 5.76l-2.07.76-2.05.65c-.83-2.53-3.24-4.04-5.37-3.38-2.12.66-3.23 3.29-2.46 5.84.76 2.55 3.16 4.07 5.37 3.38 2.2-.7 3.31-3.3 2.47-5.83z"/><path d="M1474.72 745.65c-.21-.7.1-1.4.68-1.58s1.24.23 1.47.92c.22.69-.07 1.4-.67 1.58-.61.19-1.25-.23-1.47-.91zM1511.89 841.53l2.76-.88 2.66-.95c.89 2.57.52 5.33-.84 7.7-1.43 2.33-3.86 4.25-6.92 5.21s-6.16.76-8.65-.33c-2.5-1.09-4.42-3.19-5.16-5.79-.75-2.64-.18-5.28 1.24-7.59s3.75-4.19 6.65-5.1c2.91-.92 5.9-.69 8.38.39 2.45 1.03 4.4 2.94 5.29 5.52l-2.66.95-2.76.88c-.85-2.54-3.87-3.85-6.75-2.94-2.87.9-4.6 3.7-3.84 6.27.75 2.56 3.79 3.87 6.75 2.95 2.97-.93 4.7-3.76 3.85-6.27z"/><path d="M1505.13 843.65c-.21-.7.26-1.45 1.05-1.71s1.61.11 1.83.81c.23.69-.25 1.45-1.04 1.71-.81.25-1.63-.12-1.84-.81M1501.17 809.05l2.52-.8 2.46-.89c.9 2.57.62 5.31-.61 7.63-1.25 2.27-3.45 4.12-6.26 5s-5.66.61-8-.53c-2.32-1.13-4.13-3.27-4.87-5.87-.75-2.64-.28-5.25.97-7.52 1.25-2.26 3.33-4.06 5.99-4.9 2.65-.83 5.4-.53 7.72.6 2.3 1.08 4.17 3.02 5.05 5.6l-2.46.89-2.52.8c-.84-2.53-3.66-3.92-6.29-3.09-2.63.82-4.15 3.56-3.39 6.13.75 2.56 3.56 3.94 6.28 3.09 2.72-.86 4.23-3.6 3.4-6.13z"/><path d="M1495 810.98c-.22-.7.2-1.44.92-1.66.72-.23 1.49.15 1.71.84.23.69-.19 1.44-.92 1.68-.73.22-1.5-.16-1.71-.84zM1490.44 776.57l2.28-.72 2.26-.82c.89 2.57.69 5.27-.38 7.55-1.08 2.21-3.05 3.97-5.6 4.78-2.56.81-5.18.47-7.33-.73-2.15-1.19-3.86-3.35-4.59-5.95-.75-2.65-.39-5.23.69-7.44s2.93-3.95 5.32-4.7 4.89-.37 7.05.82c2.15 1.14 3.94 3.1 4.83 5.68l-2.26.82-2.28.72c-.84-2.53-3.45-3.98-5.82-3.24-2.38.74-3.68 3.43-2.94 5.98.76 2.56 3.37 4.01 5.84 3.23 2.45-.77 3.77-3.45 2.93-5.98"/><path d="M1484.86 778.32c-.21-.7.14-1.42.8-1.62.66-.21 1.37.2 1.59.88.22.69-.14 1.42-.81 1.62-.67.21-1.37-.19-1.58-.88M1574.15 758.12c.68 1.22.23 2.75-1 3.42-8.83 4.94-17.92 9.46-27.05 13.87-9.21 4.24-18.48 8.4-27.97 11.97-1.29.5-2.76-.14-3.26-1.43-.5-1.3.15-2.75 1.43-3.26 9.41-3.54 18.54-7.65 27.64-11.83 9.03-4.38 18.02-8.84 26.78-13.74 1.21-.67 2.75-.22 3.42.99zM1400.82 742.07c-.07-1.39.79-2.56 1.9-2.6 1.12-.05 2.1 1.03 2.18 2.43l3.43 54.59c17.77-1.13 35.44-3.66 52.79-7.61l-11.5-50.9c-11.81 2.8-23.87 4.55-36.01 5.7l3.85 41.48c10.68-.89 21.25-2.57 31.76-4.48l-5.94-30.57-4 .68 4.5 25.09c.25 1.37-.57 2.66-1.85 2.88-1.27.22-2.47-.72-2.69-2.09l-4.13-25.16-3.46.61 3.83 25.2c.22 1.37-.65 2.63-1.92 2.79s-2.46-.82-2.64-2.2l-3.48-25.25-4.03.52 3.11 25.31c.17 1.38-.72 2.63-1.99 2.8-1.27.16-2.43-.81-2.58-2.21l-3.02-27.84c-.14-1.36.65-2.63 1.79-2.77l5.94-.78c1.98-.29 3.97-.45 5.93-.84 3.92-.74 7.87-1.31 11.77-2.11 1.12-.25 2.26.65 2.55 2.01l7.42 35.4c.28 1.37-.52 2.7-1.82 2.98-12.21 2.32-24.53 4.32-36.97 5.24-.63.06-1.26-.17-1.73-.6-.48-.43-.79-1.05-.84-1.71l-3.65-46.55c-.1-1.39.7-2.59 1.81-2.68 13.28-1.17 26.46-3.08 39.33-6.21.52-.11 1.08.04 1.56.42.47.38.85.95.99 1.61l13.43 55.61c.32 1.35-.48 2.68-1.82 2.98-19.18 4.48-38.76 7.26-58.45 8.35-1.36.06-2.51-1.02-2.58-2.41l-2.79-57.15zM1484.82 866.38c.33 1.34-.74 2.74-2.36 3.11-1.64.35-3.22-.45-3.52-1.8l-12.07-53.35a360.7 360.7 0 0 1-56.9 8.18l3.28 52.08c17.7-1.19 35.38-3.38 52.89-6.73l-7.94-40.91c-12.06 2.2-24.18 4.11-36.38 5.15l2.88 31 5.56-.51-2.71-25.35c-.15-1.37.94-2.6 2.43-2.81 1.48-.19 2.81.77 2.99 2.15l3.07 25.31 4.79-.62-3.38-25.27c-.19-1.38.87-2.66 2.36-2.85 1.48-.19 2.85.76 3.05 2.14l3.74 25.21c1.85-.21 3.68-.58 5.53-.88l-4.08-25.17c-.22-1.37.79-2.7 2.26-2.95 1.48-.26 2.87.65 3.11 2.01l4.9 27.59c.25 1.36-.86 2.7-2.47 2.98-2.79.46-5.57 1.02-8.38 1.39l-8.4 1.11c-2.81.34-5.61.77-8.42 1.03l-8.42.75c-1.62.15-3.02-.86-3.13-2.25l-2.83-36.06c-.1-1.4.99-2.61 2.45-2.74 13.82-1.05 27.53-3.23 41.13-5.84.69-.15 1.4-.03 1.98.32.58.36.99.93 1.12 1.58l9.58 45.71c.28 1.36-.81 2.74-2.45 3.1-19.67 3.92-39.6 6.43-59.51 7.57-.8.04-1.58-.19-2.17-.64-.58-.45-.93-1.07-.97-1.74l-2.79-57.15c-.06-1.39 1.03-2.57 2.46-2.63 20.59-1.15 41.1-4.05 61.2-8.75 1.38-.3 2.77.54 3.1 1.9l13.43 55.62zM1390.15 742.41c-.01-1.39.88-2.52 2-2.52 1.11-.01 2.06 1.12 2.08 2.51l3.52 135.43c.04 1.4-1.28 2.53-2.94 2.55-1.66.01-3.02-1.11-3.03-2.49l-1.64-135.47zM1366.55 741.76c.09-1.39 1.08-2.45 2.21-2.36s1.99 1.28 1.91 2.65l-7.18 135.31c-.07 1.4-1.46 2.43-3.12 2.3-1.64-.11-2.9-1.34-2.81-2.72zM1384.23 758.88l4.32-.03c.02 2.72-.92 5.19-2.49 7-1.57 1.77-3.76 2.98-6.19 2.85-4.86-.18-8.57-4.72-8.29-10.16.29-5.44 4.18-9.74 8.69-9.58 2.28.14 4.3 1.14 5.8 2.93 1.49 1.78 2.45 4.23 2.48 6.96zc.01-2.68-1.79-4.76-4.05-4.88-2.25-.09-4.16 2.01-4.26 4.68s1.71 4.89 4.06 4.97c2.34.13 4.23-2.11 4.25-4.77"/><path d="M1378.95 758.78c.02-.73.54-1.3 1.16-1.27.61.02 1.11.62 1.11 1.35-.01.73-.54 1.3-1.16 1.27-.63-.02-1.12-.64-1.11-1.35M1383.46 861.49l5.74-.03c.02 2.71-1.23 5.2-3.31 6.99-2.07 1.77-4.97 2.98-8.14 2.83-6.37-.21-11.31-4.81-11.02-10.26.28-5.44 5.4-9.68 11.43-9.48 3.03.14 5.76 1.16 7.76 2.95 2 1.77 3.26 4.23 3.29 6.96l-5.74.03c.01-2.69-2.4-4.78-5.41-4.91-2.99-.11-5.5 1.98-5.6 4.65s2.32 4.91 5.4 5.02c3.08.14 5.59-2.1 5.6-4.75"/><path d="M1376.44 861.35c.03-.72.71-1.29 1.53-1.27.83.03 1.48.64 1.48 1.37-.01.73-.7 1.29-1.53 1.27-.83-.03-1.49-.65-1.48-1.37M1383.72 827.29l5.27-.03c.02 2.72-1.12 5.19-3.03 6.99-1.9 1.77-4.57 2.98-7.49 2.82-5.87-.19-10.4-4.76-10.11-10.2.28-5.45 4.99-9.71 10.52-9.52 2.76.15 5.27 1.15 7.1 2.96 1.83 1.77 2.99 4.23 3.02 6.96l-5.27.03c.01-2.69-2.2-4.77-4.96-4.9-2.75-.11-5.05 1.98-5.15 4.65s2.11 4.91 4.95 5c2.84.14 5.14-2.1 5.16-4.75z"/><path d="M1377.28 827.16c.03-.73.65-1.3 1.41-1.27.75.04 1.36.63 1.34 1.37-.01.74-.63 1.29-1.4 1.27-.76-.03-1.37-.64-1.35-1.37M1383.98 793.09l4.79-.03a9.94 9.94 0 0 1-2.76 6.99c-1.74 1.77-4.18 2.98-6.84 2.84-5.37-.18-9.49-4.74-9.2-10.19.29-5.44 4.59-9.71 9.61-9.54 2.52.14 4.8 1.14 6.45 2.94a10.3 10.3 0 0 1 2.75 6.97l-4.8.03c.01-2.69-1.99-4.77-4.5-4.9-2.5-.09-4.61 2.01-4.71 4.68s1.92 4.89 4.5 4.99c2.59.13 4.69-2.11 4.7-4.76z"/><path d="M1378.11 792.97c.02-.73.6-1.29 1.28-1.27.69.02 1.23.63 1.22 1.37-.01.73-.59 1.3-1.28 1.27-.7-.03-1.25-.63-1.22-1.37M1468.91 800.53c.32 1.35-.51 2.69-1.89 3-19.78 4.63-39.97 7.49-60.24 8.61a2.537 2.537 0 0 1-2.66-2.4c-.07-1.39 1-2.56 2.38-2.63 19.99-1.1 39.88-3.93 59.38-8.49 1.35-.3 2.71.56 3.04 1.9zM1307.92 732.37c.35-1.34 1.53-2.19 2.64-1.9 1.11.31 1.78 1.56 1.45 2.93l-12.74 53.2c17.41 4.19 35.09 7.21 52.87 8.89l5-51.94c-12.37-1.19-24.74-3.21-37.07-5.76l-8.67 40.75c2.63.64 5.3 1.04 7.94 1.57l7.97 1.5 8.01 1.2c2.66.38 5.33.85 8.01 1.11l3.82-30.91c-1.37-.14-2.74-.29-4.11-.52l-3.45 25.26c-.19 1.37-1.38 2.34-2.67 2.14-1.28-.19-2.15-1.46-1.95-2.83l3.77-25.23-3.56-.53-4.03 25.18c-.22 1.36-1.43 2.34-2.72 2.14-1.28-.18-2.12-1.53-1.88-2.88l4.36-25.12-4.09-.78-4.66 25.06c-.25 1.37-1.49 2.28-2.77 2.05-1.28-.24-2.1-1.54-1.82-2.9l5.46-27.48c.28-1.36 1.43-2.29 2.6-2.07 4.04.76 8.08 1.57 12.13 2.11 4.05.6 8.09 1.28 12.14 1.65 1.17.13 1.99 1.36 1.84 2.74l-3.98 35.95c-.15 1.38-1.34 2.38-2.66 2.23l-4.66-.51-4.65-.7-9.3-1.39-9.24-1.74-4.63-.87-4.59-1.04c-.62-.14-1.16-.53-1.49-1.09s-.44-1.25-.29-1.9l10.27-45.55c.3-1.35 1.47-2.26 2.6-1.99 13.49 2.93 27.04 5.06 40.58 6.32.54.04 1.04.34 1.38.84.34.49.5 1.15.44 1.81l-4.72 57.03c-.11 1.38-1.3 2.43-2.66 2.34-19.66-1.75-39.21-5.08-58.42-9.81-1.31-.35-2.11-1.73-1.77-3.08l14-55.48zM1350.32 876.41c-.11 1.38-1.54 2.41-3.19 2.29-1.66-.11-2.86-1.42-2.72-2.79l5.24-54.44c-19.04-1.79-37.91-5.03-56.45-9.5l-12.16 50.75c16.85 4.05 34.04 7.09 51.38 9.32l5.13-41.35c-3.03-.29-6.02-.81-9.03-1.25l-9.03-1.36-8.96-1.67c-2.97-.59-5.98-1.06-8.93-1.78l-6.47 30.45 2.67.6 2.7.52 5-25c.28-1.36 1.69-2.24 3.14-1.97s2.42 1.6 2.17 2.97l-4.69 25.06 4.66.87 4.43-25.1c.25-1.38 1.62-2.26 3.07-1.99 1.46.26 2.47 1.52 2.25 2.9l-4.12 25.17 5.44.82 3.82-25.2c.21-1.38 1.57-2.31 3.03-2.09 1.47.22 2.5 1.51 2.31 2.89l-3.83 27.75c-.19 1.38-1.63 2.31-3.22 2.07-5.5-.83-11.01-1.59-16.43-2.69-5.44-1.03-10.91-1.98-16.27-3.26-1.55-.34-2.57-1.73-2.26-3.08l7.95-35.29c.31-1.35 1.71-2.2 3.12-1.88l5.03 1.14 5.07.95 10.15 1.9 10.22 1.54 5.11.75 5.15.57c.69.07 1.33.42 1.76.94.44.52.65 1.19.57 1.86l-5.14 46.41c-.14 1.37-1.6 2.35-3.23 2.17-19.55-2.31-38.84-5.83-57.75-10.44-.76-.2-1.41-.64-1.83-1.24-.41-.59-.55-1.29-.39-1.94l14-55.49a2.513 2.513 0 0 1 3.1-1.78c19.95 4.92 40.3 8.38 60.81 10.2 1.41.1 2.47 1.31 2.36 2.7l-4.72 57.02zM1297.25 729.53c.38-1.34 1.59-2.12 2.71-1.84 1.12.29 1.74 1.62 1.36 2.96l-35.66 130.7c-.36 1.35-1.93 2.09-3.5 1.69-1.57-.41-2.5-1.91-2.13-3.23zM1273.97 722.04c.47-1.31 1.74-2.01 2.85-1.66 1.11.37 1.64 1.74 1.19 3.05l-44.28 128.04c-.45 1.31-2.06 1.96-3.59 1.44-1.53-.49-2.36-2.04-1.9-3.35l45.74-127.53zM1286.72 743.53l4.26 1.27c-1.5 5.23-6.56 8.32-11.3 6.92-4.72-1.54-7.08-7.03-5.3-12.17 1.79-5.16 6.81-8.09 11.25-6.65 4.47 1.32 6.86 6.67 5.36 11.89l-4.26-1.27c.77-2.56-.4-5.16-2.62-5.83-2.21-.69-4.66.71-5.51 3.27-.83 2.52.31 5.24 2.59 5.95 2.29.68 4.77-.84 5.54-3.39z"/><path d="M1281.53 741.98c.22-.69.89-1.09 1.51-.92.61.18.93.9.71 1.58-.22.67-.89 1.11-1.5.92-.62-.17-.93-.9-.71-1.59zM1256.91 841.71l5.4 1.61c-1.5 5.23-7.57 8.04-13.55 6.24-5.93-1.92-9.25-7.74-7.47-12.89 1.78-5.16 7.77-7.76 13.42-5.94 5.69 1.72 9.09 7.33 7.6 12.57l-5.4-1.61c.77-2.56-.9-5.32-3.72-6.17-2.81-.88-5.74.38-6.58 2.92-.83 2.52.78 5.4 3.66 6.3 2.89.86 5.87-.5 6.63-3.06z"/><path d="M1250.33 839.72c.22-.69 1.02-1.04 1.8-.82.78.23 1.23.99 1.01 1.68-.22.7-1.03 1.06-1.81.83s-1.23-.99-1-1.69M1266.85 808.98l5.02 1.5c-1.5 5.24-7.23 8.13-12.79 6.46-5.53-1.78-8.53-7.51-6.76-12.64 1.79-5.16 7.45-7.87 12.7-6.17 5.28 1.59 8.35 7.11 6.85 12.35zc.77-2.56-.73-5.26-3.36-6.05-2.62-.81-5.38.5-6.22 3.05-.82 2.52.64 5.35 3.31 6.18 2.69.81 5.5-.62 6.27-3.16z"/><path d="M1260.74 807.13c.23-.68.98-1.05 1.7-.84.72.22 1.13.95.91 1.64-.22.7-.98 1.08-1.7.87-.73-.21-1.14-.96-.91-1.67M1276.79 776.26l4.63 1.38c-1.5 5.24-6.89 8.24-12.05 6.69-5.12-1.66-7.79-7.27-6.02-12.41 1.78-5.16 7.12-7.98 11.96-6.41 4.87 1.46 7.6 6.9 6.1 12.12l-4.63-1.38c.77-2.56-.57-5.22-2.99-5.93-2.42-.75-5.03.6-5.86 3.15-.83 2.52.47 5.29 2.95 6.06 2.49.74 5.13-.72 5.9-3.28z"/><path d="M1271.12 774.55c.23-.68.94-1.07 1.6-.88.67.21 1.03.93.81 1.62-.22.7-.94 1.1-1.61.89-.67-.19-1.03-.93-.81-1.62zM1355.92 808.9c-.11 1.38-1.35 2.42-2.74 2.32-20.23-1.8-40.29-5.21-59.99-10.08a2.56 2.56 0 0 1-1.84-3.09c.35-1.34 1.7-2.16 3.04-1.81 19.46 4.8 39.28 8.18 59.24 9.95 1.38.1 2.41 1.3 2.29 2.69zM1218.06 696.93c.66-1.22 2.05-1.77 3.11-1.21 1.05.56 1.38 1.99.73 3.22l-25.6 48.35c15.9 8.42 32.28 15.94 49.02 22.44l18.82-48.67c-11.94-4.7-23.77-9.85-35.35-15.68l-18.68 37.23c9.79 4.82 19.67 9.47 29.75 13.57l11.89-28.77-3.93-1.62-9.99 23.45c-.54 1.27-1.97 1.95-3.17 1.39-1.2-.53-1.71-2-1.15-3.28l10.24-23.34-3.36-1.51-10.44 23.26c-.57 1.26-2.01 1.86-3.2 1.32-1.18-.55-1.69-1.99-1.11-3.26l10.7-23.14c-1.31-.57-2.59-1.18-3.87-1.82l-10.93 23.02c-.6 1.26-2.04 1.81-3.22 1.23-1.19-.58-1.64-2.05-1.03-3.3l12.28-25.18c.62-1.25 2-1.83 3.09-1.3 3.77 1.91 7.64 3.57 11.47 5.3 3.82 1.79 7.71 3.34 11.6 4.94 1.12.46 1.61 1.88 1.1 3.17l-13.45 33.58c-.52 1.3-1.94 1.92-3.17 1.41-11.75-4.65-23.15-10.11-34.49-15.72-.56-.3-.99-.82-1.18-1.46-.19-.63-.12-1.32.19-1.91l21.38-41.51c.63-1.24 2-1.79 3.05-1.23a415 415 0 0 0 38.83 17.19c.52.2.93.63 1.14 1.21s.2 1.26-.04 1.87l-20.05 53.59c-.48 1.3-1.92 1.97-3.2 1.49-18.51-7.04-36.57-15.33-54.05-24.7-1.22-.63-1.65-2.14-.99-3.36l27.29-50.29zM1221.6 847.09c-.49 1.31-2.1 1.9-3.61 1.33-1.5-.56-2.31-2.07-1.81-3.37l19.74-51.02c-17.74-6.87-35.03-14.82-51.81-23.71l-24.41 46.13c3.78 1.95 7.48 4.01 11.33 5.85l11.48 5.59c3.85 1.81 7.76 3.52 11.65 5.28 1.96.86 3.88 1.77 5.85 2.58l5.93 2.44 15.92-38.49c-11.17-4.54-22.08-9.67-32.88-15.01l-13.96 27.83 4.84 2.36 11.21-22.89c.61-1.26 2.17-1.74 3.5-1.11 1.32.65 1.9 2.18 1.3 3.43l-10.96 23.01c1.4.67 2.78 1.38 4.2 2.01l10.76-23.11c.59-1.27 2.15-1.79 3.5-1.2 1.33.6 1.96 2.12 1.38 3.38l-10.51 23.22 4.92 2.21 10.27-23.33c.56-1.28 2.1-1.82 3.44-1.22 1.33.62 1.99 2.1 1.45 3.37l-11.01 25.76c-.54 1.28-2.17 1.84-3.59 1.19-4.95-2.23-9.93-4.42-14.86-6.71-4.86-2.38-9.76-4.73-14.61-7.15-1.39-.72-1.99-2.32-1.36-3.55l16.56-32.16c.63-1.23 2.19-1.69 3.46-1.02 12.24 6.07 24.58 11.97 37.31 17.02.64.26 1.16.75 1.43 1.38.28.62.3 1.31.06 1.94l-17.37 43.35c-.51 1.3-2.13 1.84-3.62 1.23-17.8-7.23-35.14-15.35-51.91-24.41-.68-.37-1.2-.94-1.46-1.6-.26-.67-.22-1.37.1-1.95l27.29-50.29c.66-1.22 2.23-1.68 3.47-1.02 18.07 9.69 36.75 18.25 55.92 25.54 1.32.5 2 1.96 1.53 3.26l-20.06 53.59zM1208.16 691.37c.7-1.2 2.11-1.71 3.14-1.12 1.03.58 1.31 2.04.64 3.26l-66.57 117.99c-.69 1.21-2.35 1.56-3.74.78-1.38-.78-1.94-2.4-1.24-3.59zM1186.87 678.23c.77-1.17 2.2-1.59 3.2-.94 1.01.65 1.21 2.13.46 3.29l-73.28 113.95c-.75 1.17-2.44 1.43-3.77.57s-1.8-2.49-1.03-3.66zM1194.44 702.36c1.28.77 2.56 1.58 3.87 2.32-2.75 4.75-8.42 6.43-12.72 3.84-4.32-2.55-5.32-8.52-2.38-13.1 2.94-4.59 8.55-6.17 12.66-3.74 4.08 2.45 5.15 8.31 2.44 13-1.3-.76-2.58-1.56-3.87-2.32 1.36-2.3.83-5.15-1.19-6.38-2.03-1.23-4.82-.38-6.23 1.88s-.88 5.11 1.2 6.37c2.08 1.25 4.87.41 6.23-1.88z"/><path d="M1189.72 699.5c.38-.61 1.14-.85 1.7-.51.57.34.7 1.11.33 1.74-.38.62-1.14.85-1.71.51-.56-.33-.71-1.11-.32-1.74M1141.85 790.46c1.59.95 3.15 1.94 4.75 2.86-2.74 4.75-9.2 5.97-14.45 2.81-5.28-3.14-7.03-9.59-4.1-14.17 2.94-4.59 9.3-5.68 14.37-2.68 5.03 3.04 6.9 9.35 4.18 14.04-1.6-.93-3.17-1.9-4.75-2.86 1.36-2.29.45-5.36-2.04-6.88-2.49-1.51-5.65-.9-7.06 1.36-1.41 2.25-.51 5.34 2.04 6.88 2.54 1.55 5.71.92 7.07-1.37z"/><path d="M1136.05 786.95c.38-.62 1.23-.79 1.92-.37.68.41.93 1.25.55 1.87s-1.24.78-1.92.37c-.69-.41-.93-1.25-.55-1.87M1159.38 761.09c1.49.89 2.96 1.82 4.47 2.68-2.74 4.75-8.94 6.14-13.88 3.15-4.95-2.94-6.46-9.23-3.51-13.81 2.94-4.59 9.05-5.83 13.8-3.03 4.71 2.86 6.3 9.01 3.59 13.69-1.5-.87-2.97-1.79-4.47-2.68 1.37-2.29.59-5.3-1.75-6.71-2.34-1.42-5.37-.73-6.79 1.54-1.41 2.26-.63 5.27 1.75 6.71 2.39 1.45 5.43.75 6.79-1.54"/><path d="M1153.94 757.8c.38-.62 1.21-.82 1.84-.42.65.39.86 1.21.48 1.83s-1.2.81-1.85.41c-.64-.39-.85-1.21-.47-1.82M1176.9 731.72c1.39.83 2.75 1.7 4.16 2.51-2.74 4.75-8.69 6.28-13.3 3.5-4.64-2.75-5.88-8.87-2.94-13.46s8.81-6 13.22-3.38c4.4 2.64 5.73 8.65 3.02 13.34-1.41-.81-2.77-1.68-4.16-2.51 1.36-2.29.71-5.22-1.47-6.54-2.18-1.31-5.08-.55-6.51 1.71-1.41 2.26-.76 5.19 1.47 6.54 2.22 1.35 5.15.58 6.51-1.71"/><path d="M1171.83 728.66c.38-.62 1.18-.83 1.78-.47s.77 1.16.39 1.78-1.17.84-1.77.47c-.6-.36-.78-1.17-.4-1.78M1245.32 783.65c-.48 1.3-1.94 1.95-3.25 1.46-18.95-7.21-37.43-15.68-55.29-25.25a2.477 2.477 0 0 1-1.05-3.38c.66-1.22 2.2-1.7 3.42-1.05 17.69 9.47 35.96 17.86 54.7 24.98 1.29.48 1.94 1.93 1.46 3.23zM1137.41 640.5c.91-1.04 2.4-1.25 3.29-.46.91.79.9 2.28-.01 3.33l-35.7 41.45a505 505 0 0 0 42.8 33.01l29.62-42.97c-5.44-3.62-10.64-7.6-15.93-11.44-5.16-4.04-10.38-7.98-15.38-12.22l-26.55 32.11 6.35 5.21 6.49 5.05c4.27 3.43 8.75 6.58 13.16 9.84l18.19-25.27-3.48-2.55-15.09 20.55c-.82 1.12-2.34 1.39-3.41.61-1.06-.78-1.25-2.3-.41-3.42l15.29-20.4c-1.01-.72-1.98-1.49-2.97-2.26l-15.47 20.27c-.84 1.1-2.37 1.35-3.4.54-1.04-.81-1.19-2.36-.34-3.45l15.65-20.13-3.42-2.64-15.84 19.97c-.87 1.09-2.41 1.33-3.45.51-1.02-.84-1.13-2.4-.25-3.48l17.62-21.78c.88-1.08 2.36-1.32 3.29-.54l10.1 7.86 10.31 7.57c.99.73 1.17 2.19.36 3.33l-20.84 29.56c-.79 1.14-2.36 1.47-3.44.67-5.09-3.79-10.31-7.4-15.25-11.37l-7.5-5.85-7.34-6.06c-.5-.41-.81-1.01-.85-1.66s.17-1.3.6-1.81l30.1-35.7c.9-1.06 2.38-1.3 3.31-.55 2.8 2.27 5.51 4.63 8.36 6.84l8.51 6.62 8.71 6.38c2.88 2.17 5.9 4.11 8.84 6.17.48.33.78.88.85 1.48.07.62-.1 1.28-.47 1.83l-32.01 47.43c-.78 1.15-2.33 1.46-3.45.68a507 507 0 0 1-47.11-36.38 2.487 2.487 0 0 1-.2-3.52l37.77-42.99zM1106.64 787.57c-.77 1.15-2.47 1.36-3.76.47-1.3-.89-1.72-2.56-.93-3.69L1133 739.3a532 532 0 0 1-45-34.72l-34.06 39.53c3.15 2.81 6.44 5.44 9.68 8.14 3.26 2.68 6.49 5.39 9.85 7.95l9.99 7.76 10.22 7.49 24.35-33.81c-4.83-3.57-9.73-7.03-14.43-10.77l-7.09-5.53-6.96-5.71-19.84 24 4.12 3.4 16.07-19.8c.87-1.08 2.5-1.21 3.62-.28 1.14.93 1.38 2.51.52 3.62l-15.87 19.96 3.64 2.84 15.71-20.08c.85-1.1 2.49-1.26 3.64-.36 1.15.89 1.41 2.52.57 3.62l-15.51 20.24c1.41 1.09 2.8 2.21 4.24 3.26l15.31-20.38c.83-1.11 2.47-1.31 3.65-.45 1.18.87 1.47 2.47.65 3.59l-16.61 22.56c-.82 1.12-2.5 1.28-3.76.37a581 581 0 0 1-25.34-19.99c-1.19-.98-1.43-2.65-.54-3.72l23.32-27.65c.9-1.06 2.52-1.19 3.64-.27l7.88 6.5 8.06 6.3c5.33 4.25 10.91 8.15 16.38 12.2.56.42.95 1 1.08 1.67.13.66-.01 1.35-.4 1.89l-26.91 38.16c-.79 1.14-2.52 1.35-3.79.42-15.42-11-30.25-22.77-44.55-35.17-.57-.5-.94-1.19-1.03-1.89-.08-.7.11-1.38.56-1.89l37.76-42.98c.92-1.04 2.53-1.14 3.59-.22a521 521 0 0 0 48.61 37.52c1.16.81 1.47 2.39.69 3.55l-32.01 47.42zM1128.76 632.68c.95-1.02 2.44-1.16 3.36-.31.92.84.9 2.36-.04 3.4l-90.91 100.45c-.94 1.04-2.61 1.02-3.74-.02s-1.28-2.71-.33-3.74l91.67-99.77zM1109.65 614.51c.98-.98 2.48-1.07 3.37-.2.88.86.8 2.38-.16 3.37l-94.64 96.96c-.97.99-2.65.93-3.75-.16-1.09-1.09-1.18-2.76-.21-3.75l95.38-96.23zM1112.8 640.32l3.41 3.16c-3.71 3.98-9.67 4.54-13.55.86a9.3 9.3 0 0 1-2.18-3.11 9 9 0 0 1-.65-3.56c.04-2.44 1.02-4.93 2.91-6.87 1.91-1.96 4.34-3.03 6.75-3.18 1.22-.08 2.38.06 3.53.45 1.16.41 2.26 1.06 3.2 1.95s1.65 1.93 2.13 3.06c.47 1.11.68 2.28.65 3.49-.02 2.42-.94 4.92-2.8 6.92l-3.41-3.16c1.84-1.93 1.82-4.91-.03-6.66-1.86-1.75-4.86-1.59-6.67.34-1.86 1.92-1.84 4.91.02 6.67 1.88 1.77 4.88 1.61 6.68-.35z"/><path d="M1108.52 636.31c.5-.52 1.32-.57 1.82-.09s.51 1.29.02 1.82c-.5.53-1.31.57-1.83.08-.5-.48-.51-1.29-.02-1.82zM1042.6 715.14l3.97 3.68c-1.85 2-4.4 3-7.04 3-1.32 0-2.67-.27-3.94-.77-1.24-.48-2.42-1.21-3.45-2.19-1.04-.97-1.84-2.1-2.4-3.32-.58-1.23-.92-2.58-.99-3.89-.17-2.64.69-5.24 2.59-7.2 1.9-1.95 4.47-2.9 7.08-2.86 1.3.01 2.62.29 3.86.78 1.23.47 2.4 1.19 3.43 2.16 4.03 3.81 4.6 10.31.87 14.3l-3.97-3.68c1.81-1.96 1.64-5.07-.36-6.97-2.02-1.88-5.14-1.86-7 .04-1.82 1.96-1.67 5.08.35 6.98 2.03 1.89 5.16 1.88 7-.06"/><path d="M1037.91 710.75c.5-.53 1.35-.54 1.9-.02.55.51.59 1.37.08 1.89-.49.53-1.35.53-1.9.02s-.59-1.37-.08-1.89M1066 690.2l3.79 3.51c-3.66 4.02-10.13 4.1-14.15.3a10.22 10.22 0 0 1-3.2-7.02c-.09-2.58.8-5.14 2.71-7.1 3.82-3.92 10.07-3.93 14.07-.21 3.96 3.74 4.28 10.02.58 14.02l-3.79-3.51c1.81-1.95 1.71-5.01-.25-6.86-1.96-1.84-5.04-1.78-6.89.14-1.84 1.94-1.72 5.02.24 6.88 1.98 1.86 5.07 1.79 6.9-.16z"/><path d="M1061.45 685.92c.5-.52 1.34-.54 1.87-.04.54.5.56 1.34.07 1.87-.5.53-1.34.54-1.89.04-.54-.51-.56-1.34-.06-1.88zM1089.41 665.26l3.6 3.34c-3.68 4-9.9 4.31-13.85.58-3.99-3.7-4-9.94-.21-13.83 1.9-1.96 4.39-2.99 6.85-3.08 2.46-.1 4.95.75 6.91 2.58 3.9 3.69 3.96 9.71.29 13.76l-3.6-3.34c1.82-1.94 1.75-4.96-.15-6.77-1.91-1.79-4.96-1.68-6.77.25-1.86 1.93-1.8 4.96.13 6.77 1.94 1.82 4.97 1.7 6.79-.25z"/><path d="M1084.98 661.11c.51-.53 1.33-.56 1.86-.07.52.48.54 1.32.04 1.84-.5.53-1.33.55-1.86.07-.52-.49-.54-1.32-.04-1.84M1144.52 731.42c-.77 1.16-2.33 1.45-3.49.66a522 522 0 0 1-48.1-37.14 2.51 2.51 0 0 1-.24-3.56c.91-1.04 2.5-1.15 3.54-.24a514 514 0 0 0 47.63 36.78c1.15.79 1.43 2.36.65 3.51zM1065.77 566.38c1.06-.89 2.59-.8 3.4.17.82.99.62 2.48-.44 3.39l-41.87 35.21a742 742 0 0 0 36.54 40.44l37.34-36.44a683 683 0 0 1-27.67-30.21l-31.53 27.22c7.28 8.43 14.72 16.68 22.34 24.75l22.62-21.41-3.06-3.25-18.63 17.4c-1.02.95-2.59.93-3.49-.05-.91-.98-.82-2.55.2-3.49l18.75-17.27-2.62-2.84-18.84 17.17c-1.03.93-2.59.89-3.49-.12-.89-1.01-.78-2.55.25-3.49l18.97-17.03-2.98-3.36-19.08 16.93c-1.03.92-2.6.85-3.48-.16-.9-1-.76-2.56.28-3.48l21.08-18.45c1.04-.92 2.58-.88 3.43.09 5.89 6.68 11.86 13.22 17.96 19.61.88.9.77 2.43-.23 3.4l-26.1 25.05c-1 .97-2.58.95-3.51-.01-8.83-9.27-17.42-18.82-25.8-28.57-.43-.49-.63-1.15-.57-1.79.05-.65.38-1.27.88-1.7l35.54-30.29c1.05-.9 2.58-.85 3.4.11 9.91 11.54 20.07 22.69 30.55 33.33.42.43.63 1.02.59 1.65-.03.63-.33 1.26-.81 1.72l-40.65 40.27c-1 .97-2.57.98-3.54 0-13.97-14.21-27.32-29.07-40.14-44.39-.87-1.07-.72-2.65.35-3.53l44.02-36.56zM1009.47 705.93c-.99.98-2.67.89-3.74-.2-1.08-1.09-1.15-2.78-.15-3.74l39.15-38.2a767 767 0 0 1-37.82-41.86l-39.939 33.58c10.397 12.37 21.2 24.53 32.452 36.42l30.247-28.64a788 788 0 0 1-23.79-26.35l-23.568 20.35 3.384 3.91 19.204-16.78c1.03-.92 2.67-.78 3.61.3.95 1.07.88 2.69-.16 3.62l-19.092 16.9 2.974 3.34 18.998-17c1.04-.93 2.66-.81 3.61.25.97 1.08.91 2.69-.12 3.63l-18.877 17.12 3.51 3.83 18.767-17.24c1.02-.95 2.64-.85 3.61.22.98 1.07.95 2.69-.06 3.62l-20.49 19.1c-1.02.94-2.677.82-3.687-.29a770 770 0 0 1-20.741-23.3c-.977-1.14-.911-2.78.155-3.69l27.533-23.46c1.05-.91 2.66-.75 3.59.31 8.77 10.21 17.78 20.23 27.1 30.01.47.49.74 1.15.73 1.82-.01.68-.28 1.33-.76 1.78l-33.69 32.34c-1 .97-2.677.86-3.737-.25-12.65-13.27-24.716-26.89-36.306-40.75a2.87 2.87 0 0 1-.663-1.95c.03-.7.342-1.33.859-1.75l44.007-36.56c1.07-.89 2.66-.73 3.56.35 13.07 15.61 26.7 30.79 41.02 45.34.98 1 .98 2.61 0 3.59l-40.66 40.27zM1058.08 556.99c1.08-.87 2.62-.77 3.43.22.8.99.58 2.52-.5 3.4l-105.017 85.58c-1.074.88-2.713.65-3.659-.52s-.839-2.82.244-3.69L1058.1 557zM1041.45 535.67c1.11-.85 2.65-.69 3.42.35.78 1.04.54 2.57-.56 3.42l-107.466 82.5c-1.102.85-2.72.6-3.615-.59-.896-1.18-.722-2.82.38-3.67l107.831-82.03zM1041.08 562.07l2.96 3.72c-4.24 3.4-10.34 2.9-13.55-1.21-3.22-4.07-2.33-10.22 1.99-13.53 4.32-3.34 10.42-2.61 13.54 1.36 3.13 4.02 2.27 9.97-1.98 13.38zc2.08-1.65 2.52-4.59.98-6.57-1.55-1.97-4.51-2.25-6.61-.62-2.11 1.64-2.55 4.58-.99 6.59 1.57 2 4.54 2.27 6.63.61z"/><path d="M1037.49 557.49c.56-.45 1.38-.37 1.8.16.42.54.3 1.35-.27 1.79-.57.45-1.38.37-1.8-.17-.43-.53-.31-1.34.27-1.78M960.672 625.79l3.31 4.16c-4.232 3.41-10.653 2.51-14.233-2.08-3.619-4.58-2.867-10.91 1.439-14.24 4.335-3.32 10.559-2.42 14.086 2.06 3.487 4.48 2.96 10.83-1.302 14.25l-3.309-4.16c2.083-1.65 2.363-4.78.642-6.98-1.721-2.21-4.832-2.68-6.944-1.04s-2.402 4.76-.662 6.99c1.74 2.22 4.862 2.68 6.955 1.02z"/><path d="M956.668 620.69c.568-.45 1.426-.32 1.892.29.467.6.388 1.46-.18 1.9-.567.45-1.416.34-1.891-.28-.477-.6-.388-1.46.179-1.91M987.486 604.55l3.2 4.01c-4.232 3.41-10.551 2.64-14.003-1.78-3.491-4.42-2.684-10.68 1.631-14 4.334-3.32 10.502-2.49 13.901 1.83 3.368 4.33 2.729 10.55-1.519 13.96l-3.2-4.01c2.083-1.65 2.419-4.72.762-6.85-1.667-2.13-4.723-2.53-6.835-.89s-2.457 4.69-.773 6.86c1.675 2.15 4.753 2.54 6.846.88z"/><path d="M983.613 599.63a1.31 1.31 0 0 1 1.855.25c.459.58.37 1.42-.216 1.86a1.31 1.31 0 0 1-1.855-.24 1.32 1.32 0 0 1 .216-1.87M1014.27 583.3l3.08 3.86c-4.23 3.41-10.44 2.77-13.77-1.5-3.35-4.25-2.51-10.45 1.8-13.77 4.33-3.33 10.46-2.54 13.72 1.59 3.25 4.17 2.51 10.25-1.75 13.68zc2.09-1.65 2.47-4.65.88-6.71-1.61-2.05-4.62-2.38-6.74-.75-2.11 1.64-2.5 4.64-.88 6.71 1.62 2.08 4.64 2.42 6.73.74z"/><path d="M1010.55 578.55c.57-.45 1.4-.35 1.84.21.44.55.33 1.37-.24 1.82-.56.45-1.38.37-1.83-.2-.44-.56-.34-1.38.23-1.83M1057.6 658.28c-.99.97-2.58.96-3.56-.03-14.19-14.44-27.73-29.51-40.7-45.03a2.52 2.52 0 0 1 .33-3.55 2.51 2.51 0 0 1 3.54.33c12.9 15.42 26.35 30.37 40.44 44.72.98.99.96 2.58-.03 3.56zM1001.35 479.849c1.13-.79 2.7-.512 3.49.626s.49 2.675-.64 3.475l-44.922 31.21c10.521 15.14 21.08 30.16 31.975 44.8l41.857-31.16c-8.38-11.27-16.7-22.979-25.08-34.947l-34.136 23.877 9.806 13.92c3.305 4.57 6.568 9.2 9.894 13.73l25.146-18.35-2.72-3.73-20.646 14.95c-1.13.82-2.677.58-3.478-.53-.801-1.1-.534-2.66.605-3.47l20.699-14.88-2.34-3.268-20.743 14.818c-1.139.81-2.698.56-3.49-.54-.802-1.1-.513-2.68.615-3.48l20.788-14.75-2.71-3.836-20.823 14.706c-1.129.8-2.698.54-3.488-.58-.791-1.11-.504-2.67.625-3.47l22.916-16.111c1.13-.8 2.69-.552 3.47.556 2.7 3.826 5.4 7.672 8.11 11.4 2.69 3.755 5.39 7.545 8.09 11.185.78 1.06.5 2.59-.61 3.41l-29.116 21.45c-1.12.83-2.679.6-3.49-.5-7.658-10.42-15.175-21.06-22.658-31.78a2.5 2.5 0 0 1-.403-1.874 2.48 2.48 0 0 1 1.038-1.612l38.299-26.695c1.14-.79 2.7-.542 3.48.585 9.33 13.361 18.53 26.291 27.82 38.736.38.5.53 1.13.42 1.76-.1.64-.47 1.23-1.01 1.63l-45.741 34.38a2.505 2.505 0 0 1-3.513-.48c-11.995-16.03-23.525-32.45-35.007-49.002a2.52 2.52 0 0 1 .637-3.505l47.014-32.613zM929.669 612.47c-1.112.85-2.738.56-3.624-.62-.896-1.17-.702-2.81.419-3.64l43.875-32.66c-11.188-15.02-21.9-30.27-32.476-45.49l-42.852 29.78c8.66 12.48 17.603 25.16 26.877 37.9l33.657-24.57c-3.474-4.71-6.829-9.46-10.243-14.2l-10.023-14.23-25.524 17.85 2.834 4.04 20.862-14.64a2.55 2.55 0 0 1 3.524.63c.818 1.15.55 2.73-.589 3.54l-20.835 14.7 2.463 3.5 20.797-14.74c1.129-.8 2.716-.52 3.515.63.819 1.14.579 2.73-.56 3.54l-20.762 14.8 2.921 4.08 20.717-14.87c1.129-.82 2.717-.54 3.535.61s.579 2.74-.551 3.55l-22.704 16.42c-1.13.82-2.728.53-3.574-.65-5.89-8.16-11.616-16.29-17.237-24.34a2.545 2.545 0 0 1 .599-3.54l29.673-20.69a2.517 2.517 0 0 1 3.504.64c7.574 10.85 15.247 21.7 23.16 32.47.401.56.568 1.23.479 1.9a2.54 2.54 0 0 1-.992 1.66l-37.596 27.7c-1.121.83-2.726.53-3.612-.65-10.446-14.24-20.355-28.38-29.987-42.25a2.57 2.57 0 0 1-.422-1.9 2.56 2.56 0 0 1 1.039-1.63l47.021-32.61a2.52 2.52 0 0 1 3.505.64c11.51 16.58 23.158 33.18 35.344 49.46.841 1.11.63 2.69-.481 3.53l-45.747 34.38zM993.894 469.087a2.526 2.526 0 0 1 3.51.647 2.505 2.505 0 0 1-.641 3.494L885.371 550.36c-1.138.79-2.715.5-3.514-.64a2.516 2.516 0 0 1 .646-3.5l111.401-77.123zM977.122 444.983c1.128-.8 2.743-.49 3.551.669.809 1.158.549 2.747-.599 3.546L869.021 526.81c-1.138.79-2.698.55-3.478-.58-.782-1.11-.487-2.64.652-3.45l110.908-77.818zM976.295 472.568l2.877 4.151c-4.478 3.095-10.63 1.97-13.753-2.521-3.142-4.511-2.083-10.716 2.388-13.84s10.66-1.958 13.829 2.584c3.122 4.51 2.026 10.674-2.464 13.777zc2.194-1.525 2.733-4.534 1.209-6.747-1.544-2.215-4.58-2.785-6.763-1.269-2.194 1.525-2.705 4.565-1.171 6.769 1.525 2.194 4.542 2.763 6.736 1.238z"/><path d="M972.775 467.485c.595-.418 1.422-.261 1.849.344a1.326 1.326 0 0 1-.332 1.84 1.306 1.306 0 0 1-1.83-.343 1.33 1.33 0 0 1 .313-1.841M891.98 531.03l2.85 4.12c-4.479 3.1-10.614 2.01-13.69-2.45-3.059-4.39-1.918-10.49 2.542-13.6 4.471-3.126 10.578-2.07 13.665 2.36 3.096 4.46 1.972 10.59-2.517 13.69za4.82 4.82 0 0 0 1.226-6.71c-1.506-2.17-4.507-2.68-6.701-1.15-2.194 1.52-2.75 4.49-1.243 6.66a4.8 4.8 0 0 0 6.699 1.2z"/><path d="M888.5 526.01a1.31 1.31 0 0 1 1.821.31c.418.6.252 1.41-.332 1.82-.595.42-1.413.27-1.831-.32-.418-.6-.263-1.4.332-1.82zM920.091 511.536l2.859 4.13c-4.479 3.094-10.623 2.004-13.708-2.469-3.096-4.44-1.974-10.552 2.497-13.677s10.606-2.039 13.71 2.43c3.095 4.479 1.98 10.622-2.499 13.716za4.82 4.82 0 0 0 1.217-6.718c-1.516-2.183-4.524-2.722-6.718-1.197s-2.742 4.523-1.216 6.698c1.516 2.183 4.525 2.722 6.717 1.217"/><path d="M916.585 506.491a1.31 1.31 0 0 1 1.83.323 1.3 1.3 0 0 1-.332 1.82 1.31 1.31 0 0 1-1.83-.323 1.293 1.293 0 0 1 .332-1.82M948.196 492.056l2.868 4.141c-4.479 3.095-10.622 1.98-13.736-2.5s-2.028-10.634 2.443-13.759 10.632-1.989 13.764 2.512c3.104 4.49 1.998 10.643-2.471 13.747za4.85 4.85 0 0 0 1.218-6.737c-1.535-2.204-4.552-2.753-6.746-1.228s-2.724 4.544-1.199 6.738a4.84 4.84 0 0 0 6.727 1.227"/><path d="M944.686 486.983a1.326 1.326 0 0 1 1.84.333 1.326 1.326 0 0 1-.333 1.84 1.326 1.326 0 0 1-1.84-.333 1.313 1.313 0 0 1 .323-1.831zM983.821 571.77a2.525 2.525 0 0 1-3.533-.5c-12.123-16.19-23.724-32.74-35.224-49.31a2.53 2.53 0 0 1 .636-3.51 2.52 2.52 0 0 1 3.505.64c11.491 16.57 23.066 33.06 35.125 49.15a2.506 2.506 0 0 1-.499 3.52zM931.762 383.87c1.064-.873 2.77-.606 3.695.579.934 1.195.817 2.861-.275 3.722l-42.87 33.976c11.695 14.747 22.76 29.852 33.544 45.038l42.552-30.197c-9.012-12.673-18.343-25.453-28.164-38.262l-33.007 25.42c7.148 9.367 14.176 18.787 20.964 28.252l25.268-18.196-2.92-4.076-20.634 14.964c-1.119.81-2.717.54-3.566-.601-.838-1.15-.618-2.741.512-3.561l20.57-15.056-2.598-3.525-20.525 15.127c-1.121.83-2.709.571-3.548-.58-.838-1.15-.627-2.751.494-3.581l20.461-15.22-3.077-4.084-20.37 15.323c-1.111.84-2.71.59-3.578-.552-.868-1.143-.666-2.754.445-3.595l22.295-16.962c1.111-.841 2.728-.57 3.614.613l4.63 6.142 4.513 6.136 4.493 6.134 4.387 6.118c.846 1.181.615 2.781-.524 3.59L929.115 458a2.534 2.534 0 0 1-3.535-.609 1048 1048 0 0 0-23.941-32.223 2.63 2.63 0 0 1-.549-1.891 2.45 2.45 0 0 1 .934-1.687l36.801-28.741c1.093-.861 2.739-.579 3.673.617 11.081 14.308 21.475 28.597 31.467 42.704.39.564.566 1.263.458 1.935a2.52 2.52 0 0 1-1.021 1.653l-46.748 33.002a2.527 2.527 0 0 1-3.516-.607c-11.701-16.529-23.703-32.937-36.411-48.885-.86-1.112-.719-2.688.365-3.56l44.602-35.852zM862.786 517.93c-1.129.8-2.679.56-3.451-.54-.773-1.093-.487-2.631.652-3.44l44.615-31.661c-10.63-14.971-21.432-29.696-32.714-43.938l-40.9 32.408c8.501 10.637 16.824 21.971 25.193 33.525l33.811-24.35c-6.578-9.187-13.278-18.155-20.051-27.038l-24.666 18.999 2.741 3.622 20.278-15.447c1.111-.84 2.655-.652 3.478.419s.575 2.63-.536 3.471l-20.36 15.333 2.376 3.129 20.434-15.251c1.111-.84 2.673-.631 3.484.469.803 1.089.555 2.649-.566 3.479l-20.507 15.148 2.726 3.71 20.561-15.067c1.121-.83 2.681-.601 3.484.488.802 1.09.545 2.639-.585 3.459l-22.668 16.458c-1.13.82-2.672.612-3.447-.446a949 949 0 0 0-16.307-21.725c-.787-1.01-.552-2.521.55-3.372l28.515-22.257c1.093-.862 2.666-.682 3.499.38a992 992 0 0 1 23.11 31.122 2.5 2.5 0 0 1 .423 1.854 2.45 2.45 0 0 1-1.029 1.623l-37.987 27.157c-1.139.809-2.671.592-3.445-.486-9.256-12.884-18.486-25.364-27.857-37.103a2.23 2.23 0 0 1-.432-1.718c.096-.624.454-1.203.97-1.625l44.603-35.853c1.073-.862 2.679-.73 3.52.362 12.433 15.597 24.253 31.759 35.853 48.154a2.51 2.51 0 0 1-.607 3.496l-46.748 33.002zM922.566 372.641c1.076-.901 2.744-.657 3.717.541s.895 2.866-.17 3.758l-104.547 86.179c-1.074.882-2.575.824-3.365-.146-.78-.961-.555-2.463.5-3.346zM900.984 348.209c1.009-.955 2.75-.775 3.794.398 1.063 1.173 1.091 2.877.073 3.821l-99.955 91.463c-1.028.934-2.516.975-3.311.083-.803-.902-.631-2.338.389-3.302l99.02-92.472zM904.904 377.301l3.565 4.171c-4.178 3.496-10.627 2.747-14.433-1.675-3.846-4.404-3.844-10.877.197-14.568 4.001-3.673 10.651-2.991 14.655 1.59 3.934 4.587 3.739 11.157-.439 14.652l-3.565-4.172c2.029-1.731 2.118-4.953.211-7.179-1.896-2.235-5.174-2.553-7.155-.789-2.013 1.791-1.979 4.941-.13 7.144 1.87 2.184 5.046 2.556 7.065.814z"/><path d="M900.547 372.218c.539-.481 1.409-.381 1.925.22.516.6.494 1.475-.065 1.954-.54.48-1.409.38-1.925-.22-.516-.601-.494-1.475.065-1.954M827.077 444.159l2.985 3.479c-4.177 3.495-10.121 3.356-13.271-.329-3.173-3.628-2.531-9.424 1.49-13.116 4.011-3.662 10.042-3.675 13.362.138 3.298 3.851 2.588 9.801-1.591 13.316l-2.985-3.479c2.029-1.732 2.366-4.653.782-6.516-1.583-1.883-4.556-1.839-6.527-.085-2.013 1.792-2.284 4.6-.739 6.44 1.567 1.823 4.475 1.894 6.504.162z"/><path d="M823.437 439.903c.54-.48 1.335-.463 1.768.044.444.498.338 1.299-.211 1.768-.539.481-1.344.454-1.768-.043-.434-.488-.338-1.299.211-1.769M853.014 421.869l3.178 3.717c-4.178 3.495-10.286 3.15-13.649-.774-3.404-3.887-2.965-9.912 1.066-13.593 4.01-3.662 10.244-3.447 13.795.625 3.51 4.09 2.975 10.257-1.203 13.752l-3.178-3.716c2.029-1.732 2.293-4.756.589-6.734-1.685-1.997-4.769-2.078-6.74-.323-2.013 1.791-2.183 4.713-.535 6.668 1.657 1.946 4.658 2.12 6.686.389z"/><path d="M849.137 417.345c.539-.481 1.363-.433 1.823.106.471.529.394 1.36-.155 1.83-.54.48-1.364.432-1.825-.106s-.383-1.35.157-1.83M878.964 399.591l3.372 3.934c-4.178 3.495-10.462 2.953-14.036-1.229-3.615-4.145-3.399-10.399.632-14.08 4.01-3.663 10.448-3.22 14.22 1.102 3.722 4.348 3.352 10.701-.816 14.207zc2.029-1.732 2.21-4.85.405-6.961-1.795-2.122-4.971-2.326-6.943-.552-2.013 1.792-2.081 4.828-.323 6.907 1.769 2.071 4.852 2.338 6.872.596z"/><path d="M874.847 394.778c.54-.48 1.382-.412 1.87.158a1.36 1.36 0 0 1-.111 1.902c-.539.48-1.39.401-1.869-.158a1.357 1.357 0 0 1 .11-1.902M918.118 478.858a2.523 2.523 0 0 1-3.507-.598c-11.637-16.436-23.519-32.69-36.043-48.411-.842-1.091-.703-2.647.391-3.528 1.073-.863 2.698-.709 3.549.393 12.617 15.824 24.553 32.16 36.216 48.647a2.517 2.517 0 0 1-.606 3.516zM838.329 292.091c.823-1.122 2.59-1.226 3.939-.233 1.328 1.012 1.721 2.727.879 3.829l-33.068 43.566c15.282 11.592 29.582 24.356 42.948 37.952l37.218-36.587c-6.076-6.157-12.316-12.206-18.781-18.091a470 470 0 0 0-20.016-17.159l-26.154 32.429c9.52 7.666 18.609 15.789 27.348 24.206l21.646-22.391-3.96-3.801-17.507 18.539c-.944 1.008-2.606 1-3.699.001-1.083-1.007-1.213-2.657-.268-3.685l17.254-18.76c-1.158-1.071-2.324-2.152-3.522-3.206l-17.058 18.94c-.926 1.028-2.581 1.07-3.693.07-1.104-.989-1.264-2.631-.346-3.689l16.815-19.17-4.187-3.618-16.572 19.381c-.907 1.049-2.554 1.121-3.678.15-1.145-.952-1.355-2.587-.466-3.657l17.907-21.536c.888-1.07 2.611-1.098 3.86-.071 8.562 7.217 16.773 14.728 24.666 22.447 1.126 1.118 1.253 2.827.271 3.813l-25.458 25.692c-.982.985-2.604.96-3.646-.065-9.841-9.593-20.137-18.799-30.98-27.388a2.73 2.73 0 0 1-1.011-1.741 2.5 2.5 0 0 1 .494-1.89l28.806-36.761c.851-1.092 2.605-1.147 3.913-.117 15.6 12.388 30.115 25.686 43.638 39.625.548.553.88 1.281.917 1.991.047.721-.199 1.386-.687 1.839l-41.281 39.627c-1 .965-2.621.92-3.604-.102-14.323-14.733-29.716-28.495-46.242-40.858-1.141-.843-1.403-2.433-.591-3.546l33.923-46.075zM798.376 436.88c-1.001.965-2.473 1.067-3.281.243-.807-.825-.663-2.292.328-3.267l39.012-38.352c-12.558-12.771-25.933-24.685-40.112-35.455l-31.556 41.569c9.725 7.354 19.109 15.494 28.153 24.234l28.953-29.955c-7.789-7.496-15.822-14.682-24.186-21.406l-19.55 24.245c1.072.849 2.112 1.746 3.174 2.604l16.271-19.634c.889-1.07 2.416-1.276 3.411-.451.994.825 1.042 2.382.154 3.433l-16.533 19.402 2.707 2.332 16.749-19.223c.908-1.049 2.452-1.215 3.405-.353.973.863 1.002 2.399.066 3.437l-17.002 19.002c1.028.925 2.068 1.822 3.074 2.785l17.226-18.791c.946-1.028 2.477-1.145 3.429-.264.953.882.953 2.407-.002 3.424l-19.198 20.399c-.955 1.016-2.43 1.177-3.299.388a318 318 0 0 0-18.456-15.888c-.903-.722-.945-2.19-.084-3.291l22.314-28.471c.85-1.092 2.388-1.307 3.423-.5 9.78 7.75 19.132 16.105 28.116 24.862.456.449.696 1.073.697 1.722a2.57 2.57 0 0 1-.752 1.767l-32.858 33.17c-.982.986-2.436 1.128-3.254.313-9.877-9.654-20.162-18.536-30.795-26.512-.425-.31-.68-.827-.714-1.429a2.9 2.9 0 0 1 .575-1.776l33.923-46.075c.823-1.123 2.382-1.377 3.476-.566 15.772 11.808 30.548 25.003 44.341 39.204a2.46 2.46 0 0 1-.095 3.506l-41.28 39.626zM825.441 282.978c.766-1.146 2.568-1.336 3.938-.361 1.38.965 1.852 2.665 1.047 3.809l-77.714 110.975c-.794 1.135-2.177 1.546-3.075.913-.887-.641-1.013-2.036-.227-3.2zM795.737 264.734c.67-1.21 2.422-1.561 3.879-.738 1.447.831 2.06 2.48 1.369 3.69l-67.64 117.385c-.699 1.198-2.038 1.721-2.999 1.163-.973-.529-1.205-1.939-.535-3.149l65.936-118.36zM809.35 292.037c1.651 1.041 3.249 2.127 4.859 3.204-1.518 2.263-3.948 3.608-6.596 3.975-2.678.376-5.626-.179-8.216-1.835-5.222-3.235-7.274-9.572-4.552-14.264 1.376-2.34 3.718-3.866 6.44-4.318 2.721-.432 5.825.132 8.578 1.847 2.732 1.752 4.624 4.253 5.395 6.894.77 2.662.462 5.428-1.057 7.691-1.61-1.077-3.209-2.164-4.861-3.204 1.449-2.238.493-5.422-2.154-7.1-2.668-1.661-5.977-1.115-7.349 1.166-1.383 2.291-.363 5.419 2.219 7.025 2.571 1.635 5.825 1.155 7.273-1.082z"/><path d="M803.328 288.217c.38-.618 1.284-.772 1.995-.307.721.455.976 1.325.586 1.932-.389.607-1.272.743-1.984.298-.701-.454-.988-1.297-.597-1.923M753.624 378.184c1.196.738 2.369 1.554 3.543 2.331-1.518 2.263-3.653 3.791-5.857 4.47-2.214.687-4.489.555-6.348-.635-1.87-1.161-2.996-3.116-3.325-5.407-.34-2.283.067-4.876 1.443-7.235 2.744-4.73 8.292-6.582 12.347-4.074 2.001 1.287 3.229 3.356 3.535 5.705s-.286 4.922-1.805 7.185c-1.184-.787-2.347-1.593-3.544-2.331 1.448-2.238 1.071-5.044-.865-6.278-1.946-1.205-4.646-.289-6.018 1.992-1.382 2.29-.972 5.049.898 6.21 1.85 1.18 4.535.333 5.983-1.904z"/><path d="M749.261 375.413c.38-.618 1.122-.87 1.634-.525.521.335.623 1.099.234 1.706s-1.121.849-1.623.515-.626-1.079-.245-1.696M772.201 349.466c1.348.845 2.653 1.747 3.979 2.631-1.519 2.263-3.759 3.736-6.094 4.309-2.366.581-4.869.317-6.964-1.035-2.118-1.313-3.481-3.409-3.962-5.808a10.32 10.32 0 0 1 1.206-7.377c2.735-4.74 8.693-6.361 13.231-3.539 2.248 1.439 3.694 3.648 4.161 6.095.458 2.456-.04 5.093-1.559 7.356-1.326-.883-2.631-1.786-3.978-2.631 1.448-2.238.881-5.173-1.301-6.559-2.194-1.357-5.083-.571-6.455 1.71-1.382 2.291-.773 5.169 1.336 6.472 2.086 1.342 4.962.604 6.41-1.634z"/><path d="M767.287 346.346c.38-.617 1.17-.837 1.748-.459.589.369.739 1.165.349 1.791-.39.607-1.169.818-1.748.44-.578-.378-.749-1.155-.349-1.772M790.769 320.756c1.501.933 2.957 1.943 4.425 2.923-1.519 2.263-3.853 3.672-6.35 4.147-2.526.482-5.237.069-7.59-1.425-4.72-2.921-6.381-9.028-3.659-13.72a9.37 9.37 0 0 1 6.182-4.461c2.55-.54 5.436-.097 7.942 1.465 2.495 1.591 4.148 3.95 4.777 6.495.619 2.555.216 5.256-1.303 7.519-1.467-.981-2.925-1.97-4.424-2.923 1.449-2.238.681-5.293-1.729-6.83-2.421-1.508-5.529-.842-6.901 1.439-1.382 2.29-.563 5.299 1.783 6.744 2.324 1.483 5.399.884 6.847-1.353z"/><path d="M785.296 317.28c.38-.617 1.237-.803 1.871-.383.645.412.863 1.241.472 1.867-.389.607-1.225.775-1.861.374-.635-.42-.864-1.221-.473-1.847zM847.237 389.962c-1 .965-2.602.94-3.558-.05-13.97-14.378-28.961-27.773-44.988-39.762a2.49 2.49 0 0 1-.514-3.502 2.53 2.53 0 0 1 3.543-.532c16.271 12.18 31.449 25.743 45.586 40.289a2.5 2.5 0 0 1-.049 3.558zM717.022 231.219c.412-1.334 2.015-1.998 3.579-1.494s2.492 1.985 2.051 3.307l-16.915 52.021c18.181 5.907 36.027 13.172 53.145 21.958l23.868-46.403c-16.038-8.242-32.551-15.242-49.176-21.176l-13.998 39.235c11.533 4.015 22.842 8.824 33.991 14.017l13.332-28.138c-1.682-.845-3.399-1.604-5.115-2.363l-10.576 23.192c-.585 1.265-2.161 1.793-3.532 1.192-1.372-.601-2.031-2.135-1.475-3.411l10.231-23.35-4.441-1.96-9.933 23.475c-.546 1.267-2.093 1.827-3.488 1.283-1.384-.553-2.085-2.049-1.577-3.338l9.598-23.623-5.192-2.072-9.261 23.75c-.507 1.289-2.048 1.898-3.432 1.345-1.384-.572-2.138-1.983-1.648-3.313l9.799-26.237c.488-1.29 2.12-1.943 3.638-1.323 10.514 4.103 20.982 8.489 31.247 13.503 1.482.726 2.176 2.32 1.563 3.573l-15.993 32.44c-.623 1.243-2.177 1.733-3.497 1.085-12.529-5.991-25.326-11.428-38.407-15.887a2.72 2.72 0 0 1-1.516-1.328 2.48 2.48 0 0 1-.153-1.947l15.083-44.199c.45-1.311 2.08-1.925 3.642-1.382 18.706 6.518 37.348 14.469 55.305 23.884.716.386 1.271.989 1.546 1.674s.263 1.402-.057 1.984l-26.928 50.485c-.652 1.231-2.202 1.663-3.452.99-18.266-9.68-37.524-17.361-57.13-23.636-1.352-.433-2.105-1.864-1.703-3.188l16.988-54.634zM725.478 380.742c-.652 1.231-1.973 1.793-2.936 1.255s-1.234-1.95-.601-3.183l25.021-48.638c-15.781-8.099-32.3-14.834-49.285-20.337l-16.146 49.627c11.817 3.855 23.157 8.301 34.015 13.418l17.85-37.643c-9.665-4.487-19.485-8.688-29.629-12.21l-10.47 29.327 3.865 1.376 8.885-23.9c.479-1.3 1.869-2.016 3.072-1.563 1.192.483 1.748 1.922 1.24 3.21l-9.223 23.773 3.269 1.311 9.511-23.657c.518-1.298 1.904-1.955 3.096-1.473 1.192.483 1.729 1.901 1.192 3.178l-9.847 23.51c1.259.516 2.465 1.098 3.703 1.632l10.193-23.372c.556-1.276 1.949-1.883 3.119-1.363 1.17.521 1.656 1.966 1.071 3.23l-11.576 25.515c-.585 1.264-1.883 1.917-2.928 1.453-1.823-.795-3.604-1.626-5.438-2.412l-5.566-2.222c-3.668-1.551-7.519-2.828-11.295-4.208-1.089-.388-1.619-1.776-1.158-3.097l11.68-34.235c.45-1.312 1.82-2.029 3.062-1.573 11.837 4.023 23.29 8.909 34.479 14.252.564.279.997.786 1.178 1.407.19.611.131 1.296-.17 1.898l-20.654 41.888c-.614 1.253-1.909 1.867-2.875 1.387-11.759-5.691-24.138-10.552-37.138-14.692-.522-.168-.941-.576-1.173-1.15-.223-.564-.242-1.254-.047-1.892l16.988-54.634c.412-1.333 1.802-2.069 3.086-1.65 18.804 6.022 37.168 13.346 54.556 22.561 1.192.65 1.635 2.171.974 3.392l-26.929 50.485zM702.281 226.9c.373-1.336 1.94-2.061 3.507-1.616 1.568.446 2.527 1.898 2.134 3.233l-37.591 130.17c-.393 1.334-1.592 2.16-2.705 1.849-1.113-.31-1.704-1.663-1.331-2.999L702.28 226.92zM669.965 219.11c.285-1.351 1.763-2.239 3.315-1.873 1.554.346 2.585 1.734 2.281 3.083l-28.982 132.343c-.295 1.36-1.479 2.246-2.635 1.991-1.144-.283-1.888-1.536-1.602-2.906l27.604-132.639zM690.204 240.718l5.447 1.398c-1.436 5.239-7.271 8.313-13.03 6.857-2.888-.758-5.241-2.4-6.748-4.573-1.506-2.173-2.149-4.837-1.562-7.499 1.173-5.283 6.985-8.634 13.024-7.093 6.041 1.522 9.764 7.041 8.327 12.299l-5.448-1.399c.672-2.587-1.149-5.28-4.077-6.021-2.927-.761-5.773.825-6.376 3.426s1.211 5.206 4.07 5.953c2.86.727 5.712-.79 6.383-3.358z"/><path d="M683.547 239.023c.169-.708.95-1.125 1.735-.912.784.213 1.283.94 1.105 1.638s-.96 1.115-1.735.913c-.786-.194-1.274-.93-1.105-1.639M664.594 340.064l4.304 1.096c-1.436 5.239-6.284 8.587-10.801 7.439-4.517-1.168-7.381-6.223-6.194-11.575.587-2.661 2.102-4.846 4.081-6.236s4.444-1.984 6.827-1.354c4.809 1.224 7.534 6.458 6.087 11.726zc.672-2.588-.665-5.154-2.981-5.751-2.306-.607-4.707 1.084-5.32 3.675-.603 2.601.776 5.111 3.014 5.703 2.258.574 4.616-1.059 5.288-3.647z"/><path d="M659.332 338.727c.169-.709.815-1.153 1.444-.989.621.155.993.865.815 1.563s-.824 1.142-1.445.988-.983-.854-.814-1.562M673.144 306.949l4.693 1.197c-1.436 5.239-6.605 8.5-11.549 7.248-4.924-1.27-8.078-6.382-6.892-11.733.588-2.662 2.169-4.833 4.274-6.186s4.746-1.918 7.333-1.226c5.215 1.326 8.279 6.649 6.832 11.917l-4.691-1.198c.672-2.587-.831-5.193-3.351-5.831-2.509-.668-5.065.994-5.669 3.595s.921 5.15 3.364 5.783c2.452.625 4.984-.959 5.656-3.547z"/><path d="M667.402 305.492c.17-.709.864-1.14 1.542-.963s1.089.889.911 1.587-.863 1.141-1.541.963c-.679-.177-1.081-.879-.912-1.587M681.673 273.83l5.07 1.288c-1.436 5.239-6.943 8.411-12.284 7.048-2.674-.706-4.863-2.309-6.244-4.446a9.8 9.8 0 0 1-1.357-7.457c1.173-5.283 6.693-8.691 12.325-7.252 5.623 1.429 9.016 6.85 7.579 12.108l-5.07-1.288c.672-2.588-.994-5.233-3.709-5.922-2.713-.708-5.423.905-6.027 3.506s1.067 5.168 3.721 5.873c2.647.676 5.343-.87 6.015-3.457z"/><path d="M675.474 272.258c.169-.709.912-1.128 1.638-.938.738.181 1.187.915 1.009 1.613s-.912 1.127-1.639.938-1.177-.905-1.008-1.613M757.353 320.983a2.483 2.483 0 0 1-3.375 1.033c-17.684-9.38-36.356-16.82-55.43-22.937a2.547 2.547 0 0 1-1.635-3.174 2.49 2.49 0 0 1 3.163-1.626c19.326 6.19 38.267 13.744 56.247 23.27 1.23.671 1.702 2.204 1.04 3.425zM591.799 207.641c.129-1.38 1.447-2.385 2.934-2.24 1.487.146 2.575 1.39 2.436 2.778l-5.584 54.412c18.659 1.911 37.344 4.394 55.973 7.838l9.524-51.3c-16.498-3.035-32.831-5.361-48.906-7.211l-4.757 41.386c11.729 1.311 23.496 2.979 35.268 4.903l5.11-30.711a201 201 0 0 0-5.194-.843l-3.992 25.178c-.217 1.365-1.551 2.311-2.994 2.089-1.434-.211-2.421-1.508-2.213-2.883l3.777-25.211-4.486-.674-3.623 25.239c-.197 1.366-1.51 2.313-2.956 2.131-1.435-.192-2.433-1.46-2.245-2.836l3.436-25.26-5.164-.684-3.261 25.29c-.179 1.386-1.484 2.343-2.919 2.152-1.425-.201-2.455-1.442-2.287-2.819l3.388-27.801c.169-1.377 1.496-2.372 2.999-2.167 10.36 1.34 20.762 2.791 31.261 4.621 1.519.266 2.544 1.584 2.297 2.957l-6.262 35.622c-.247 1.373-1.578 2.279-3.001 2.039-13.384-2.273-26.781-4.164-40.136-5.609a2.62 2.62 0 0 1-1.726-.937 2.54 2.54 0 0 1-.56-1.862l5.05-46.425c.149-1.379 1.485-2.363 2.99-2.197 17.954 2.017 36.24 4.596 54.776 8.123a3.14 3.14 0 0 1 1.844 1.11c.429.566.606 1.246.479 1.917l-10.987 56.154c-.267 1.371-1.607 2.248-2.988 1.971-20.107-3.894-40.37-6.479-60.596-8.521-1.388-.139-2.418-1.38-2.289-2.759l5.534-56.953zM637.116 350.716c-.267 1.372-1.441 2.287-2.618 2.052-1.177-.236-1.927-1.539-1.671-2.901l9.993-53.782c-17.743-3.284-35.745-5.668-53.875-7.529l-5.33 51.918c13.837 1.424 27.352 3.154 40.496 5.325l6.845-41.087c-10.875-1.774-21.832-3.345-32.916-4.58l-3.559 30.929 4.476.516 3.075-25.31c.169-1.377 1.388-2.389 2.716-2.213s2.258 1.43 2.079 2.816l-3.241 25.291 3.817.507 3.388-25.272c.188-1.376 1.405-2.348 2.733-2.173 1.328.176 2.248 1.439 2.05 2.805l-3.563 25.243 4.36.657 3.757-25.212c.208-1.375 1.444-2.326 2.751-2.132s2.206 1.476 1.999 2.851l-4.354 27.675c-.217 1.365-1.404 2.329-2.643 2.149l-6.475-.987-6.571-.864c-4.352-.607-8.809-1.102-13.245-1.616-1.281-.143-2.192-1.396-2.043-2.775l3.911-35.965c.149-1.378 1.367-2.37 2.716-2.213 12.797 1.384 25.462 3.182 38.009 5.309a2.4 2.4 0 0 1 1.574 1.016c.371.543.509 1.22.392 1.882l-8.075 45.994c-.247 1.372-1.403 2.309-2.611 2.101-14.416-2.471-29.327-4.371-44.673-5.903a2.24 2.24 0 0 1-1.562-.897 2.66 2.66 0 0 1-.503-1.84l5.535-56.952a2.504 2.504 0 0 1 2.728-2.262c19.883 2.012 39.696 4.551 59.191 8.321 1.352.265 2.21 1.584 1.944 2.956l-10.987 56.153zM577.852 206.386c.12-1.39 1.409-2.407 2.886-2.272 1.469.124 2.567 1.359 2.438 2.739l-12.035 134.941c-.121 1.39-1.272 2.415-2.573 2.29-1.292-.115-2.255-1.322-2.135-2.712l11.42-135.006zM547.655 204.149c.081-1.392 1.331-2.431 2.772-2.337s2.541 1.308 2.451 2.69l-9.128 135.179c-.09 1.382-1.253 2.436-2.576 2.349-1.332-.097-2.335-1.287-2.255-2.679zM569.076 222.156l5.219.412c-.462 5.413-5.361 9.476-10.953 9.043-5.611-.454-9.777-5.113-9.43-10.573.384-5.417 5.2-9.574 10.909-9.114 5.69.439 9.919 5.19 9.474 10.644zc.214-2.663-1.876-4.988-4.637-5.208-2.781-.221-5.169 1.775-5.354 4.45-.194 2.665 1.885 4.979 4.627 5.198 2.752.209 5.15-1.777 5.364-4.44"/><path d="M562.708 221.67c.062-.724.713-1.267 1.457-1.204.755.054 1.318.687 1.265 1.422-.061.724-.713 1.267-1.457 1.204s-1.317-.687-1.265-1.422M561.022 324.453l4.818.378c-.442 5.415-5.019 9.507-10.19 9.108-5.15-.418-9.158-5.068-8.772-10.525.355-5.429 4.993-9.577 10.251-9.163 5.269.405 9.176 5.128 8.711 10.58zc.214-2.664-1.698-4.978-4.273-5.177-2.566-.208-4.808 1.806-5.011 4.46-.184 2.655 1.738 4.961 4.284 5.168 2.547.187 4.777-1.798 5-4.451"/><path d="M555.128 323.993c.061-.725.662-1.26 1.358-1.21.695.05 1.22.681 1.158 1.405-.061.725-.663 1.26-1.359 1.21-.695-.05-1.219-.681-1.157-1.405M563.714 290.356l4.956.386c-.443 5.415-5.127 9.491-10.455 9.083-5.307-.427-9.364-5.09-8.988-10.538.364-5.419 5.071-9.572 10.477-9.139 5.406.412 9.43 5.142 8.966 10.594zc.214-2.663-1.756-4.982-4.391-5.184s-4.934 1.789-5.119 4.464c-.184 2.655 1.786 4.973 4.401 5.175s4.906-1.801 5.118-4.445z"/><path d="M557.653 289.894c.062-.724.674-1.269 1.399-1.207.715.051 1.248.692 1.197 1.407-.062.725-.674 1.269-1.399 1.208-.715-.052-1.248-.693-1.197-1.408M566.385 256.256l5.082.403c-.462 5.414-5.244 9.484-10.699 9.059-5.464-.436-9.58-5.102-9.204-10.55.374-5.428 5.13-9.569 10.693-9.128 5.552.431 9.674 5.167 9.22 10.61l-5.082-.403c.214-2.664-1.815-4.985-4.509-5.191-2.702-.216-5.052 1.782-5.237 4.457-.184 2.655 1.826 4.975 4.52 5.181 2.683.215 5.032-1.783 5.235-4.437z"/><path d="M560.173 255.776a1.335 1.335 0 0 1 1.429-1.216 1.32 1.32 0 0 1 1.226 1.42 1.334 1.334 0 0 1-1.429 1.215 1.32 1.32 0 0 1-1.226-1.419M650.118 284.231a2.5 2.5 0 0 1-2.937 1.984c-19.72-3.813-39.66-6.369-59.68-8.389a2.51 2.51 0 0 1-2.25-2.757 2.51 2.51 0 0 1 2.758-2.25c20.118 2.025 40.213 4.61 60.117 8.463a2.54 2.54 0 0 1 2.003 2.959zM475.781 200.029c.081-1.393 1.244-2.446 2.597-2.368s2.376 1.27 2.295 2.662l-3.195 54.61 55.402 3.102 3.117-52.086-45.126-2.525-2.339 41.595 34.399 1.902 1.768-31.083-4.883-.283-1.42 25.455a2.524 2.524 0 0 1-2.667 2.374 2.523 2.523 0 0 1-2.383-2.657l1.401-25.457-4.187-.234-1.391 25.448a2.523 2.523 0 0 1-2.666 2.373 2.506 2.506 0 0 1-2.364-2.656l1.381-25.458-4.805-.259-1.401 25.456a2.52 2.52 0 0 1-2.647 2.375 2.507 2.507 0 0 1-2.364-2.656l1.538-27.977a2.506 2.506 0 0 1 2.647-2.375l29.045 1.61c1.412.082 2.484 1.266 2.403 2.658l-2.099 36.12a2.523 2.523 0 0 1-2.667 2.373l-39.41-2.183a2.513 2.513 0 0 1-2.364-2.656l2.661-46.623c.081-1.392 1.255-2.455 2.627-2.375l50.205 2.82a2.58 2.58 0 0 1 1.78.851c.452.509.69 1.152.641 1.828l-3.536 57.108a2.535 2.535 0 0 1-2.675 2.363l-60.421-3.414a2.53 2.53 0 0 1-2.364-2.656l3.458-57.113zM532.948 338.974c-.081 1.392-1.244 2.446-2.597 2.368-1.343-.088-2.366-1.279-2.295-2.662l3.273-54.605-55.372-3.111-3.049 52.1 44.999 2.508 2.359-41.594-34.36-1.9-1.739 31.094 4.873.274 1.402-25.457a2.52 2.52 0 0 1 2.666-2.373 2.506 2.506 0 0 1 2.374 2.646l-1.401 25.457 4.178.223 1.381-25.458a2.507 2.507 0 0 1 2.656-2.364 2.507 2.507 0 0 1 2.364 2.656l-1.381 25.458 4.795.269 1.401-25.457a2.506 2.506 0 0 1 2.646-2.374 2.506 2.506 0 0 1 2.364 2.656l-1.557 27.976a2.52 2.52 0 0 1-2.637 2.385l-28.958-1.595c-1.412-.082-2.484-1.266-2.403-2.658l2.06-36.122a2.523 2.523 0 0 1 2.666-2.374l39.391 2.182a2.513 2.513 0 0 1 2.364 2.656l-2.709 46.61c-.081 1.393-1.244 2.446-2.617 2.367l-50.049-2.792a2.58 2.58 0 0 1-1.78-.851 2.5 2.5 0 0 1-.652-1.818l3.458-57.113c.081-1.393 1.283-2.444 2.666-2.374l60.401 3.413a2.52 2.52 0 0 1 2.354 2.666l-3.536 57.108zM463.068 199.222c.09-1.382 1.253-2.436 2.587-2.358 1.342.087 2.346 1.277 2.265 2.669l-8.638 135.208c-.09 1.382-1.322 2.441-2.763 2.348-1.441-.094-2.531-1.298-2.441-2.68zM435.623 197.155c.12-1.39 1.272-2.415 2.583-2.3 1.303.105 2.266 1.312 2.145 2.702l-11.243 135.017c-.12 1.39-1.399 2.417-2.868 2.293-1.468-.125-2.558-1.349-2.438-2.739l11.811-134.964zM455.075 215.166l4.87.332c-.375 5.448-4.971 9.558-10.251 9.163-5.3-.377-9.185-5.138-8.722-10.571.453-5.424 4.959-9.471 10.191-9.108 5.181.39 9.137 5.086 8.782 10.516zc.184-2.656-1.726-4.97-4.293-5.159-2.557-.178-4.799 1.816-5.013 4.48-.203 2.654 1.709 4.969 4.295 5.158 2.587.19 4.818-1.815 5.002-4.47z"/><path d="M449.164 214.724c.062-.724.674-1.269 1.369-1.219.696.05 1.22.681 1.168 1.396-.061.724-.654 1.27-1.369 1.219s-1.22-.681-1.168-1.396M447.85 317.51l5.173.359c-.356 5.449-5.208 9.545-10.889 9.116-5.653-.397-9.939-5.191-9.485-10.635.453-5.423 5.379-9.436 10.945-9.053 5.593.413 9.805 5.124 9.44 10.563l-5.174-.36c.184-2.655-1.884-4.979-4.617-5.187-2.743-.199-5.141 1.787-5.345 4.461-.204 2.654 1.865 4.978 4.617 5.187 2.763.2 5.16-1.786 5.345-4.461z"/><path d="M441.501 317.041c.062-.725.714-1.267 1.449-1.215.754.054 1.317.687 1.256 1.411-.062.725-.713 1.267-1.448 1.215-.755-.054-1.319-.687-1.257-1.411M450.263 283.395l5.076.354c-.356 5.449-5.13 9.549-10.674 9.129-5.535-.391-9.684-5.177-9.24-10.611.453-5.424 5.242-9.444 10.69-9.069 5.455.406 9.579 5.122 9.224 10.551zc.184-2.655-1.835-4.986-4.519-5.181s-5.023 1.793-5.237 4.457 1.816 4.985 4.52 5.181c2.703.197 5.042-1.792 5.227-4.467z"/><path d="M444.055 282.937a1.335 1.335 0 0 1 1.429-1.216 1.334 1.334 0 0 1 1.237 1.41 1.336 1.336 0 0 1-2.666-.194M452.674 249.272l4.968.338c-.366 5.439-5.051 9.554-10.458 9.141-5.418-.383-9.429-5.162-8.976-10.585s5.095-9.463 10.434-9.084c5.319.398 9.364 5.109 9 10.528zc.184-2.655-1.787-4.973-4.412-5.165s-4.916 1.809-5.119 4.464c-.204 2.654 1.767 4.972 4.411 5.165 2.645.193 4.936-1.808 5.12-4.464"/><path d="M446.609 248.83c.062-.725.674-1.27 1.389-1.218a1.3 1.3 0 0 1 1.197 1.407c-.062.725-.674 1.269-1.389 1.218a1.3 1.3 0 0 1-1.197-1.407M537.142 271.367c-.09 1.382-1.283 2.444-2.656 2.364l-60.401-3.413a2.507 2.507 0 0 1-2.364-2.656 2.52 2.52 0 0 1 2.656-2.364l60.421 3.415a2.52 2.52 0 0 1 2.364 2.655zM371.152 188.645c.256-1.363 1.442-2.287 2.648-2.06 1.207.228 1.987 1.523 1.74 2.895l-9.642 53.842c17.786 3.227 35.793 5.514 53.938 7.306l5.134-51.929c-13.87-1.377-27.417-3.06-40.624-5.175l-6.621 41.13c2.707.472 5.448.877 8.19 1.263l8.216 1.166c5.509.674 11.003 1.437 16.558 1.996l3.432-30.947-4.487-.487-2.957 25.317c-.16 1.388-1.368 2.371-2.706 2.204s-2.268-1.42-2.1-2.798l3.124-25.297-3.829-.479-3.27 25.28c-.179 1.386-1.396 2.358-2.734 2.192-1.329-.156-2.248-1.439-2.06-2.815l3.447-25.27-4.38-.638-3.631 25.229c-.189 1.376-1.435 2.337-2.752 2.152s-2.227-1.458-2.019-2.833l4.207-27.694c.208-1.375 1.395-2.339 2.644-2.168 4.321.635 8.662 1.271 13.079 1.784l6.603.816 6.676.733c1.281.143 2.212 1.378 2.063 2.756l-3.773 35.973c-.149 1.379-1.359 2.381-2.708 2.243-12.809-1.354-25.49-3.026-38.069-5.125a2.46 2.46 0 0 1-1.584-1.007 2.53 2.53 0 0 1-.403-1.873l7.812-46.038c.227-1.374 1.404-2.329 2.612-2.121 14.508 2.408 29.434 4.24 44.832 5.725a2.25 2.25 0 0 1 1.571.888c.394.505.581 1.175.514 1.831l-5.329 56.974a2.504 2.504 0 0 1-2.72 2.272c-19.918-1.906-39.694-4.403-59.266-8.05-1.342-.255-2.23-1.565-1.974-2.928l10.539-56.239zM417.27 331.512c-.13 1.379-1.438 2.395-2.925 2.25s-2.577-1.37-2.437-2.759l5.378-54.433c-18.653-1.842-37.364-4.209-55.968-7.583l-9.193 51.359c16.386 2.93 32.752 5.19 48.793 6.959l4.591-41.405c-5.857-.607-11.743-1.411-17.623-2.127l-8.82-1.26c-2.937-.417-5.883-.844-8.825-1.349l-4.954 30.739c1.734.278 3.467.595 5.194.843l3.856-25.206c.208-1.375 1.541-2.32 2.975-2.109s2.432 1.499 2.234 2.865l-3.661 25.237 4.478.644 3.495-25.257c.188-1.376 1.503-2.323 2.947-2.121 1.426.182 2.434 1.44 2.255 2.827l-3.309 25.277 5.147.644 3.143-25.297c.169-1.377 1.475-2.354 2.901-2.173s2.454 1.442 2.295 2.829l-3.271 27.828c-.159 1.387-1.503 2.342-2.998 2.167-5.185-.666-10.336-1.25-15.562-2.046l-7.814-1.133c-2.614-.388-5.234-.846-7.846-1.273-1.51-.255-2.545-1.564-2.308-2.928l6.057-35.663c.227-1.374 1.569-2.29 2.982-2.06 13.378 2.224 26.782 3.997 40.128 5.412.675.069 1.295.41 1.737.927.431.527.629 1.188.571 1.853l-4.865 46.446c-.149 1.379-1.475 2.374-2.981 2.208-17.891-1.926-36.278-4.451-54.606-7.828a2.94 2.94 0 0 1-1.815-1.099c-.429-.566-.607-1.245-.481-1.897l10.541-56.239c.256-1.362 1.587-2.269 2.969-2.011 20.107 3.746 40.38 6.302 60.611 8.245a2.525 2.525 0 0 1 2.292 2.74l-5.329 56.975zM359.751 186.368c.296-1.36 1.489-2.254 2.664-1.999 1.186.246 1.916 1.567 1.651 2.919l-26.757 132.816c-.276 1.362-1.742 2.201-3.277 1.876s-2.548-1.693-2.253-3.053zM335.314 180.511c.364-1.346 1.593-2.18 2.736-1.877 1.143.302 1.792 1.658 1.439 2.995L305.5 312.776c-.343 1.347-1.883 2.104-3.423 1.69s-2.49-1.837-2.127-3.184l35.365-130.79zM350.044 201.112l4.47.949c-.568 2.662-2.073 4.857-4.073 6.266-1.991 1.418-4.465 2.003-6.889 1.389-4.879-1.178-7.743-6.401-6.384-11.684 1.369-5.272 6.239-8.658 10.886-7.532 2.317.577 4.204 2.133 5.403 4.19 1.178 2.075 1.635 4.699 1.067 7.361l-4.47-.948c.574-2.593-.843-5.125-3.141-5.702-2.299-.556-4.697 1.095-5.33 3.685-.632 2.589.763 5.159 3.121 5.72 2.356.579 4.756-1.091 5.341-3.713z"/><path d="M344.639 199.844c.169-.708.815-1.152 1.455-.997s1.014.846.854 1.564c-.169.709-.815 1.153-1.455.998s-1.023-.856-.854-1.565M327.569 301.223l5.381 1.159c-.568 2.662-2.277 4.816-4.587 6.147-2.312 1.351-5.231 1.831-8.209 1.097-5.948-1.418-9.664-6.868-8.295-12.14s7.091-8.432 12.806-7.067c2.861.708 5.205 2.359 6.714 4.493 1.498 2.143 2.16 4.808 1.592 7.471l-5.383-1.159c.583-2.583-1.242-5.217-4.065-5.903s-5.627.863-6.27 3.462c-.632 2.59 1.18 5.253 4.062 5.942 2.88.709 5.688-.879 6.263-3.492z"/><path d="M320.987 299.679c.169-.709.931-1.127 1.707-.944.777.183 1.276.911 1.107 1.619s-.932 1.126-1.708.943-1.275-.91-1.106-1.618M335.055 267.855l5.072 1.081c-.568 2.663-2.209 4.83-4.413 6.197-2.204 1.368-4.979 1.885-7.772 1.191-5.598-1.338-9.024-6.712-7.665-11.994 1.36-5.283 6.801-8.508 12.166-7.222 2.677.667 4.875 2.28 6.267 4.388 1.392 2.127 1.976 4.768 1.408 7.43l-5.072-1.082c.574-2.593-1.105-5.189-3.753-5.845-2.648-.636-5.318.94-5.961 3.539-.632 2.59 1.044 5.226 3.752 5.865 2.706.659 5.378-.956 5.953-3.569z"/><path d="M328.875 266.405c.169-.709.903-1.138 1.62-.959.728.17 1.188.895 1.019 1.604-.169.708-.883 1.139-1.62.958-.737-.18-1.188-.895-1.019-1.603M342.548 234.489l4.772 1.016a9.9 9.9 0 0 1-4.238 6.226c-2.108 1.393-4.727 1.939-7.326 1.296-5.249-1.259-8.384-6.557-7.025-11.84 1.369-5.272 6.53-8.582 11.526-7.377 2.502.618 4.545 2.203 5.83 4.294a10.06 10.06 0 0 1 1.233 7.401zc.574-2.593-.969-5.162-3.442-5.768-2.484-.597-5.007 1.018-5.64 3.607s.899 5.188 3.441 5.788c2.531.629 5.066-1.014 5.652-3.636z"/><path d="M336.75 233.118c.169-.708.854-1.15 1.542-.982.68.157 1.091.87.941 1.579-.169.709-.854 1.151-1.542.983s-1.11-.871-.941-1.58M423.577 264.068a2.51 2.51 0 0 1-2.748 2.261c-20.124-1.928-40.232-4.464-60.144-8.179-1.371-.267-2.279-1.579-2.023-2.941a2.52 2.52 0 0 1 2.931-2.014c19.747 3.676 39.698 6.203 59.715 8.115a2.51 2.51 0 0 1 2.26 2.748zM278.908 160.221c.585-1.264 1.89-1.887 2.904-1.395s1.408 1.853.841 3.138l-22.447 49.88c16.299 7.303 33.139 13.437 50.373 18.531l14.813-50.039c-12.321-3.648-24.277-7.806-35.774-12.596l-16.039 38.448c5.022 1.964 9.984 4.092 15.095 5.865 2.554.906 5.064 1.888 7.631 2.746l7.722 2.554 9.544-29.637-4.006-1.325-8.085 24.173c-.441 1.322-1.801 2.05-3.037 1.644-1.235-.407-1.872-1.811-1.422-3.123l8.366-24.088-3.391-1.24-8.607 24.005c-.469 1.311-1.837 2.009-3.051 1.564-1.213-.444-1.821-1.857-1.332-3.166l8.895-23.89c-1.309-.489-2.642-.921-3.908-1.467l-9.184 23.775c-.498 1.299-1.884 1.956-3.086 1.483-1.212-.484-1.758-1.912-1.24-3.21l10.424-25.995c.518-1.298 1.827-1.979 2.923-1.542 3.754 1.586 7.712 2.878 11.553 4.331 3.883 1.397 7.875 2.622 11.801 3.962 1.15.352 1.76 1.706 1.348 3.04l-10.686 34.558c-.412 1.333-1.774 2.1-3.05 1.711-12.006-3.836-23.795-8.161-35.337-13.023a2.37 2.37 0 0 1-1.259-1.352c-.23-.613-.2-1.31.061-1.915l18.547-42.856c.556-1.276 1.844-1.939 2.88-1.486 12.538 5.333 25.61 9.93 39.195 13.848.541.169.99.569 1.241 1.145.252.575.292 1.246.107 1.894l-15.643 55.037c-.373 1.336-1.747 2.112-3.052 1.712-19.018-5.552-37.662-12.293-55.631-20.489-1.225-.583-1.758-2.08-1.164-3.334l24.176-51.865zM293.182 309.47c-.372 1.336-1.929 2.052-3.476 1.589-1.538-.454-2.466-1.915-2.074-3.249l15.533-52.447c-18.23-5.398-36.207-11.932-53.666-19.765l-21.419 47.589c16.018 7.237 32.354 13.43 48.744 18.662l12.763-39.661-8.62-2.852c-2.876-.954-5.714-2.054-8.556-3.075-5.727-2.005-11.336-4.377-16.99-6.615l-11.98 28.738 5.114 2.048 9.52-23.647c.528-1.287 2.059-1.887 3.443-1.334 1.376.542 2.085 2.049 1.586 3.348l-9.223 23.773a99 99 0 0 0 4.427 1.693l8.973-23.865c.498-1.299 2.01-1.939 3.407-1.435 1.387.513 2.129 1.973 1.659 3.284l-8.693 23.97 5.145 1.873 8.403-24.066c.459-1.301 1.955-1.982 3.364-1.526 1.4.465 2.182 1.908 1.741 3.23l-8.922 26.554c-.441 1.322-2.013 1.978-3.518 1.478-5.21-1.759-10.389-3.733-15.573-5.608-5.151-2.09-10.33-4.044-15.445-6.259-1.478-.637-2.222-2.205-1.676-3.472l14.364-33.203c.556-1.276 2.084-1.837 3.418-1.257 12.693 5.361 25.621 10.087 38.689 14.26a2.63 2.63 0 0 1 1.551 1.242 2.43 2.43 0 0 1 .203 1.92L281.6 306.003c-.412 1.334-1.989 2.029-3.525 1.556-18.404-5.802-36.779-12.743-54.764-21-.718-.346-1.296-.911-1.602-1.568-.315-.668-.323-1.386-.042-1.99l24.176-51.865c.585-1.265 2.112-1.786 3.395-1.18 18.735 8.556 38.13 15.557 57.825 21.305 1.353.414 2.138 1.817 1.766 3.153l-15.645 55.037zM269.256 155.498c.633-1.232 1.946-1.824 2.949-1.304.983.52 1.303 1.945.69 3.179l-59.931 121.512c-.614 1.253-2.31 1.666-3.79.901-1.472-.754-2.165-2.369-1.531-3.621l61.594-120.668zM248.795 144.02c.728-1.188 2.095-1.679 3.055-1.102.96.578 1.152 2.005.444 3.194l-69.467 116.315c-.708 1.188-2.446 1.471-3.882.61-1.426-.85-1.989-2.506-1.261-3.693l71.102-115.335zM256.342 167.35l3.84 1.974c-2.465 4.835-8.034 7.059-12.232 4.64-2.106-1.175-3.474-3.192-3.95-5.502-.443-2.357-.016-4.969 1.37-7.318 1.386-2.35 3.439-3.991 5.619-4.76 2.201-.806 4.532-.799 6.504.31 3.893 2.243 5.187 7.748 2.689 12.63zc1.249-2.358.674-5.155-1.279-6.243-1.963-1.098-4.628-.102-5.953 2.212s-.75 5.111 1.28 6.242 4.704.146 5.952-2.211"/><path d="M251.747 164.782c.351-.629 1.076-.902 1.619-.605s.706 1.064.344 1.702c-.342.64-1.076.902-1.619.605-.553-.308-.706-1.064-.344-1.702M207.927 257.808l5.1 2.637c-2.474 4.824-9.133 6.493-14.704 3.327-2.792-1.55-4.77-3.918-5.683-6.489-.891-2.61-.729-5.394.666-7.733 1.386-2.35 3.715-3.827 6.323-4.345 2.64-.565 5.579-.187 8.237 1.296 5.256 3.001 7.648 9.072 5.161 13.944zc1.249-2.358.139-5.442-2.49-6.914-2.621-1.46-5.838-.772-7.163 1.542s-.217 5.417 2.49 6.913c2.697 1.504 5.905.805 7.173-1.551z"/><path d="M201.779 254.391c.352-.629 1.228-.814 1.953-.418.724.396 1.029 1.24.677 1.889-.342.639-1.219.824-1.953.417-.733-.406-1.029-1.24-.677-1.888M224.071 227.649l4.68 2.417c-2.474 4.824-8.769 6.672-13.883 3.767-2.554-1.427-4.331-3.675-5.102-6.15-.739-2.522-.492-5.252.894-7.601s3.629-3.882 6.094-4.476c2.497-.642 5.236-.384 7.666.967 4.808 2.749 6.827 8.631 4.341 13.503l-4.68-2.416c1.248-2.358.32-5.343-2.081-6.683s-5.428-.542-6.763 1.761c-1.324 2.314-.387 5.31 2.09 6.693 2.478 1.384 5.505.586 6.754-1.771z"/><path d="M218.442 224.519c.352-.629 1.181-.847 1.838-.484.667.373.925 1.185.563 1.823-.342.64-1.171.857-1.838.484s-.925-1.185-.563-1.823M240.204 197.498l4.26 2.195c-2.474 4.824-8.407 6.87-13.052 4.199-2.335-1.306-3.913-3.434-4.521-5.831-.596-2.444-.254-5.11 1.132-7.459 1.386-2.35 3.534-3.927 5.856-4.618 2.345-.73 4.884-.592 7.076.637 4.341 2.496 6.007 8.19 3.509 13.072zc1.249-2.358.502-5.244-1.68-6.463s-5.028-.322-6.353 1.992-.568 5.21 1.681 6.462c2.258 1.263 5.104.366 6.352-1.991"/><path d="M235.09 194.655c.351-.629 1.133-.878 1.733-.538s.81 1.119.458 1.768c-.353.648-1.124.888-1.734.538-.6-.34-.81-1.119-.457-1.768M311.7 244.311a2.484 2.484 0 0 1-3.119 1.698c-19.463-5.676-38.599-12.593-57.075-21.026-1.264-.604-1.816-2.102-1.231-3.367a2.5 2.5 0 0 1 3.327-1.213c18.227 8.32 37.122 15.153 56.382 20.769a2.565 2.565 0 0 1 1.716 3.139M201.989 108.42c.945-1.027 2.381-1.189 3.252-.44.861.758.816 2.211-.111 3.259l-36.467 40.772c13.366 11.904 27.42 22.972 42.325 32.761l28.759-43.542c-10.242-6.764-20.09-14.193-29.642-22.313l-26.952 31.763c8.198 7.038 16.773 13.537 25.511 19.761l17.91-25.481a76 76 0 0 1-3.344-2.378l-14.935 20.656c-.813 1.133-2.305 1.42-3.353.661-1.038-.769-1.205-2.293-.373-3.406l15.218-20.463-2.858-2.104-15.454 20.282c-.841 1.102-2.341 1.359-3.367.562-1.016-.807-1.144-2.329-.283-3.43l15.716-20.07-3.255-2.551-15.97 19.869c-.86 1.081-2.419 1.335-3.404.5-.995-.825-1.091-2.375-.203-3.445l17.823-21.61c.888-1.07 2.33-1.33 3.241-.579 6.354 5.092 12.775 10.049 19.437 14.588.955.656 1.096 2.13.311 3.274l-20.389 29.882c-.785 1.145-2.299 1.47-3.387.728C197.494 168.818 187.6 161.15 178.06 153a2.36 2.36 0 0 1-.788-1.679c-.031-.66.203-1.296.636-1.812l30.656-35.227c.907-1.049 2.357-1.279 3.207-.512 10.439 8.949 21.212 17.062 32.455 24.366.445.291.741.79.814 1.395.073.604-.103 1.263-.46 1.822l-30.858 48.182c-.747 1.166-2.283 1.529-3.43.784-16.585-10.674-32.103-22.968-46.819-36.18-1.031-.886-1.055-2.5-.12-3.518l38.645-42.19zM171.492 255.42c-.746 1.167-2.481 1.391-3.884.483-1.394-.898-1.906-2.58-1.141-3.726l30.14-45.645c-16.013-10.533-31.093-22.398-45.339-35.08l-34.784 38.902c12.913 11.562 26.647 22.562 41.098 32.718l23.958-34.081c-9.957-7.072-19.68-14.464-28.9-22.379l-20.15 23.738 4.221 3.531 16.252-19.636c.889-1.069 2.528-1.171 3.673-.219 1.134.961 1.365 2.578.505 3.66l-16.008 19.846 3.743 2.952 15.783-20.017c.87-1.09 2.511-1.231 3.678-.317s1.435 2.553.584 3.664l-15.52 20.229c1.438 1.156 2.95 2.228 4.431 3.327l15.255-20.422c.832-1.112 2.475-1.292 3.683-.415 1.198.886 1.507 2.508.694 3.641l-16.449 22.674c-.813 1.133-2.533 1.269-3.835.308-9.08-6.588-17.691-13.65-26.178-20.804-1.198-1.053-1.433-2.759-.507-3.807l23.75-27.276c.907-1.049 2.535-1.122 3.619-.154 10.459 8.951 21.378 17.416 32.745 25.298a2.7 2.7 0 0 1 1.122 1.678c.138.677.02 1.359-.366 1.907l-26.325 38.568c-.785 1.145-2.526 1.319-3.888.374-16.352-11.31-31.804-23.698-46.235-36.755-.589-.517-.972-1.218-1.038-1.94-.086-.723.131-1.399.583-1.894l38.645-42.19c.945-1.027 2.52-1.053 3.588-.126 15.297 13.718 31.49 26.563 48.834 37.733 1.185.768 1.546 2.343.809 3.52l-30.858 48.181zM193.912 100.769c.972-.996 2.436-1.127 3.274-.311s.764 2.258-.19 3.275l-93.389 98.151c-.944 1.007-2.701.934-3.855-.195-1.144-1.119-1.29-2.849-.316-3.845l94.487-97.104zM176.595 82.862c1.028-.934 2.516-.975 3.34-.091.814.893.649 2.379-.37 3.323L80.37 178.369c-1.019.944-2.71.777-3.784-.387s-1.103-2.868-.074-3.802l100.074-91.328zM177.943 108.126l3.182 3.137c-1.913 1.944-4.346 3.013-6.744 3.139-2.419.145-4.802-.653-6.516-2.474-3.48-3.596-3.067-9.524.948-13.265 3.972-3.685 9.878-3.922 13.173-.513 1.64 1.738 2.374 4.004 2.237 6.357-.147 2.362-1.174 4.801-3.088 6.746l-3.182-3.136c1.88-1.878 2.066-4.74.445-6.457-1.643-1.7-4.532-1.582-6.459.264-1.928 1.845-2.136 4.745-.456 6.486 1.669 1.75 4.58 1.594 6.47-.293z"/><path d="M174.108 104.193c.521-.501 1.31-.533 1.756-.075.455.469.389 1.253-.122 1.764-.512.511-1.301.544-1.756.075s-.399-1.263.122-1.764M105.26 180.534l3.982 3.93c-1.913 1.945-4.513 2.846-7.2 2.69-2.696-.147-5.48-1.332-7.585-3.549-4.288-4.421-4.494-11.024-.48-14.745 3.963-3.695 10.499-3.266 14.601.967 4.062 4.249 4.503 10.719.674 14.647l-3.982-3.93c1.88-1.878 1.722-5.084-.29-7.198-2.033-2.096-5.237-2.311-7.164-.466-1.928 1.846-1.82 5.079.249 7.216 2.049 2.155 5.304 2.344 7.205.448z"/><path d="M100.488 175.671c.521-.501 1.403-.449 1.951.124.547.572.584 1.45.072 1.961-.511.512-1.394.46-1.95-.123s-.594-1.461-.073-1.962M129.478 156.393l3.722 3.659c-1.913 1.945-4.457 2.889-7.051 2.837a10.23 10.23 0 0 1-7.232-3.195c-4.009-4.148-4.021-10.533-.008-14.255 3.963-3.695 10.286-3.485 14.129.477 1.9 2.009 2.904 4.537 2.953 7.078.039 2.55-.867 5.104-2.781 7.049l-3.722-3.659c1.88-1.878 1.843-4.969-.049-6.949-1.893-1.959-4.995-2.061-6.932-.226-1.927 1.846-1.922 4.965.018 6.976 1.928 2.021 5.062 2.095 6.963.199z"/><path d="M125.033 151.838c.521-.501 1.365-.472 1.895.061.519.542.529 1.388-.002 1.898-.512.512-1.356.482-1.895-.061-.52-.541-.53-1.388.002-1.898M153.715 132.254l3.452 3.398c-1.913 1.945-4.402 2.951-6.893 2.993-2.502.052-5.025-.882-6.869-2.829-3.749-3.877-3.549-10.024.465-13.765 3.972-3.684 10.092-3.702 13.646-.023 1.771 1.864 2.634 4.275 2.591 6.712a10.16 10.16 0 0 1-2.939 6.893l-3.452-3.398c1.88-1.878 1.945-4.855.193-6.698-1.763-1.834-4.764-1.822-6.691.024-1.928 1.845-2.024 4.85-.224 6.726 1.798 1.895 4.821 1.844 6.722-.052z"/><path d="M149.577 128.021c.521-.501 1.337-.502 1.82-.002.482.5.454 1.325-.058 1.836a1.27 1.27 0 0 1-1.82.003c-.492-.511-.454-1.325.058-1.837M208.025 198.384c-.747 1.166-2.311 1.498-3.486.741-17.089-10.988-33.047-23.652-48.148-37.191-1.058-.917-1.101-2.553-.166-3.571.945-1.027 2.502-1.074 3.551-.167 14.923 13.381 30.666 25.865 47.516 36.712 1.167.746 1.49 2.3.743 3.466zM135.949 32.745c1.12-.83 2.644-.643 3.41.385.767 1.028.472 2.556-.638 3.376L94.836 69.154c10.857 14.62 22.18 28.825 34.09 42.414l39.254-34.382c-8.745-9.992-17.272-20.512-25.628-31.445l-33.108 25.286c6.775 8.844 13.667 17.547 20.813 25.95l23.775-20.102-2.844-3.363-19.601 16.313c-1.065.892-2.633.8-3.477-.252-.845-1.032-.656-2.595.428-3.467l19.728-16.148-2.424-2.974-19.83 16.034c-1.084.87-2.641.75-3.476-.291-.845-1.033-.646-2.585.447-3.447l19.939-15.89-2.766-3.524-20.04 15.755c-1.093.862-2.648.702-3.472-.35-.824-1.05-.606-2.602.496-3.453l22.139-17.158c1.102-.851 2.629-.723 3.416.287l4.103 5.236 4.158 5.13c2.751 3.447 5.569 6.759 8.386 10.09.81.952.614 2.466-.453 3.377l-27.43 23.58c-1.056.903-2.614.803-3.489-.222-8.301-9.681-16.246-19.734-24.033-29.966a2.45 2.45 0 0 1-.464-1.837 2.5 2.5 0 0 1 .991-1.644l37.277-28.123c1.111-.841 2.637-.693 3.405.316 9.201 12.133 18.609 23.748 28.264 34.678.388.435.55 1.035.474 1.66a2.7 2.7 0 0 1-.894 1.67l-42.706 38.087c-1.037.924-2.616.842-3.511-.184-13.161-14.912-25.594-30.51-37.458-46.594-.821-1.11-.563-2.68.547-3.5l46.093-33.907zM71.88 169.039c-1.037.923-2.718.727-3.75-.455-1.044-1.172-1.025-2.863.022-3.776l41.141-36.044C96.83 114.533 85.085 99.792 73.889 84.729L32.02 115.88c9.63 12.906 19.704 25.749 30.399 38.412l31.824-26.896c-7.726-9.076-15.075-18.377-22.272-27.757l-24.749 18.905c1.032 1.368 2.065 2.737 3.146 4.098l20.16-15.601c1.102-.851 2.712-.629 3.6.514.878 1.134.716 2.747-.377 3.609l-20.06 15.734 2.767 3.526 19.977-15.848c1.093-.861 2.683-.641 3.592.484.908 1.125.765 2.74-.319 3.612L59.86 134.666l3.296 4.058 19.738-16.138c1.074-.882 2.685-.68 3.604.436.909 1.125.785 2.741-.28 3.634l-21.561 17.89c-1.074.882-2.734.667-3.679-.519-6.66-8.129-13.168-16.319-19.387-24.58-.905-1.184-.731-2.826.38-3.667l28.88-21.783c1.112-.841 2.702-.601 3.56.53 8.143 10.716 16.52 21.296 25.336 31.597.442.517.667 1.209.628 1.876a2.57 2.57 0 0 1-.86 1.75l-35.423 30.435c-1.056.902-2.716.688-3.719-.502-12.064-14.159-23.318-28.537-33.999-42.98a2.84 2.84 0 0 1-.534-1.978c.08-.684.43-1.294.964-1.696l46.093-33.906a2.51 2.51 0 0 1 3.529.559c12.072 16.383 24.799 32.352 38.339 47.689.933 1.048.849 2.666-.189 3.589L71.87 169.048zM128.761 22.833c1.139-.81 2.662-.603 3.407.444.755 1.057.451 2.574-.679 3.394L21.664 106c-1.13.82-2.744.49-3.609-.711s-.651-2.842.488-3.651l110.208-78.797zM113.19.455c1.147-.78 2.687-.533 3.421.562.743 1.086.409 2.61-.739 3.39L4.039 80.897c-1.147.78-2.75.44-3.566-.768s-.554-2.816.604-3.605zM111.461 26.895l2.782 3.9c-4.423 3.157-10.512 2.31-13.505-2.034-2.995-4.326-1.802-10.316 2.707-13.4 4.487-3.063 10.522-2.132 13.473 2.102 2.93 4.253 1.77 10.157-2.675 13.332zc2.174-1.526 2.767-4.472 1.324-6.553-1.452-2.092-4.406-2.55-6.6-1.024s-2.787 4.452-1.316 6.564c1.462 2.102 4.415 2.579 6.601 1.023z"/><path d="M108.093 22.066c.595-.417 1.394-.292 1.794.282.399.574.235 1.37-.36 1.789s-1.394.293-1.794-.281c-.399-.574-.235-1.372.36-1.79M27.596 85.986l3.065 4.3c-4.415 3.166-10.796 1.93-14.044-2.784-3.267-4.716-2.3-11.024 2.217-14.097 4.477-3.074 10.74-1.825 13.953 2.809 3.194 4.632 2.317 10.916-2.137 14.08l-3.065-4.3c2.165-1.536 2.66-4.636 1.07-6.902-1.58-2.276-4.642-2.897-6.836-1.371s-2.678 4.615-1.08 6.912 4.651 2.907 6.836 1.37z"/><path d="M23.914 80.723c.595-.418 1.432-.251 1.858.374s.298 1.463-.297 1.88c-.594.419-1.43.252-1.857-.372-.426-.625-.298-1.464.296-1.882M55.543 66.292l2.965 4.166c-4.415 3.167-10.705 2.053-13.861-2.537-3.187-4.583-2.128-10.788 2.38-13.871 4.487-3.064 10.668-1.927 13.8 2.573 3.102 4.509 2.125 10.66-2.32 13.835zc2.165-1.537 2.696-4.576 1.152-6.79s-4.57-2.775-6.754-1.26c-2.194 1.527-2.714 4.556-1.163 6.8 1.553 2.226 4.57 2.794 6.765 1.25"/><path d="M51.976 61.174c.595-.418 1.422-.262 1.849.343a1.327 1.327 0 0 1-.324 1.85c-.595.419-1.422.262-1.85-.343a1.326 1.326 0 0 1 .325-1.85M83.508 46.589l2.875 4.024c-4.424 3.156-10.605 2.187-13.69-2.282-3.095-4.46-1.974-10.552 2.545-13.644 4.487-3.064 10.595-2.031 13.627 2.337 3.01 4.385 1.953 10.403-2.492 13.578L83.5 46.579c2.174-1.527 2.742-4.524 1.243-6.667-1.488-2.152-4.489-2.661-6.672-1.145-2.194 1.525-2.751 4.513-1.234 6.677 1.506 2.173 4.496 2.69 6.682 1.136z"/><path d="M80.046 41.615a1.31 1.31 0 0 1 1.822.312 1.313 1.313 0 0 1-.332 1.82 1.31 1.31 0 0 1-1.822-.312 1.313 1.313 0 0 1 .332-1.82M122.43 123.951a2.496 2.496 0 0 1-3.548-.226c-13.411-15.192-26.037-31.026-38.036-47.307-.83-1.12-.581-2.7.54-3.53a2.49 2.49 0 0 1 3.51.539c11.935 16.188 24.469 31.919 37.76 46.976.923 1.037.811 2.625-.217 3.558z"/></g></svg>