<svg xmlns="http://www.w3.org/2000/svg" width="374" height="232" fill="none" viewBox="0 0 374 232"><g fill="#f7c914" opacity=".16"><path d="M371.394 195.952c.491-.351 1.228-.171 1.608.394.387.567.3 1.301-.194 1.647l-48.344 33.429c-.497.341-1.139.271-1.428-.159-.292-.435-.134-1.043.361-1.397l48.002-33.917zM332.667 230.799c.26-.174.601-.12.758.123.161.24.068.578-.195.748-.26.174-.605.115-.758-.123-.157-.235-.068-.578.195-.748M347.767 168.145c.42-.434 1.186-.375 1.707.132.511.513.579 1.273.153 1.697l-16.778 16.779c5.887 5.882 11.282 12.21 16.226 18.84l18.15-13.535a211 211 0 0 0-7.007-8.881 205 205 0 0 0-7.593-8.554l-13.15 12.399c3.64 3.856 7.069 7.882 10.329 12.014l10.622-8.35-1.479-1.867-8.615 6.938c-.465.378-1.179.277-1.59-.217-.406-.496-.365-1.214.102-1.599l8.52-7.048c-.435-.529-.873-1.062-1.326-1.585l-8.446 7.136c-.458.388-1.172.308-1.591-.187-.416-.49-.389-1.205.068-1.606l8.355-7.25-1.586-1.801-8.264 7.354c-.451.398-1.163.332-1.589-.152-.436-.476-.43-1.191.015-1.599l8.964-8.202c.445-.408 1.187-.318 1.663.196a197 197 0 0 1 9.281 11.1c.418.547.372 1.289-.109 1.655l-12.454 9.544c-.48.366-1.175.259-1.563-.242-3.665-4.703-7.548-9.266-11.703-13.595a1.18 1.18 0 0 1-.332-.808 1.08 1.08 0 0 1 .323-.783l14.545-14.105c.43-.419 1.187-.34 1.688.18 5.977 6.242 11.432 12.812 16.424 19.599.203.27.303.603.277.91a.98.98 0 0 1-.403.75l-20.075 14.602a1.11 1.11 0 0 1-1.543-.255c-5.289-7.176-11.095-13.997-17.471-20.283-.441-.43-.46-1.128-.045-1.559l17.292-17.807zM322.074 228.025c-.487.356-1.126.313-1.424-.089s-.151-1.024.333-1.385l19.025-14.187c-4.646-6.229-9.694-12.137-15.154-17.6l-16.01 16.009c3.747 3.733 7.302 7.784 10.674 12.073l14.207-11.171c-2.906-3.68-5.936-7.241-9.135-10.623l-9.83 9.269c.411.429.805.875 1.211 1.307l8.149-7.482c.445-.407 1.114-.406 1.493.007s.307 1.085-.136 1.485l-8.248 7.366 1.026 1.161 8.331-7.276c.451-.398 1.125-.378 1.484.049.367.428.289 1.09-.174 1.481l-8.426 7.166c.387.459.781.905 1.157 1.378l8.51-7.063c.467-.385 1.132-.346 1.49.089.357.435.267 1.091-.203 1.471l-9.452 7.638c-.47.381-1.114.363-1.441-.027a138 138 0 0 0-6.997-7.915c-.346-.363-.278-.997.157-1.42l11.267-10.923c.429-.42 1.103-.422 1.5-.014 3.748 3.907 7.276 8.048 10.622 12.341.169.22.235.502.198.781a1.11 1.11 0 0 1-.427.715l-16.075 12.323c-.48.366-1.114.341-1.417-.057-3.677-4.731-7.575-9.153-11.676-13.208-.164-.158-.244-.395-.223-.656.03-.259.151-.521.352-.729l17.292-17.807a1.077 1.077 0 0 1 1.528-.038c6.083 6.003 11.658 12.544 16.75 19.459.35.477.243 1.151-.247 1.501l-20.075 14.603zM342.766 163.47c.396-.448 1.182-.424 1.713.076.536.496.639 1.255.226 1.699l-39.934 43.124c-.408.441-1.026.537-1.375.212-.343-.328-.315-.935.091-1.389zM331.071 153.88c.359-.481 1.133-.528 1.711-.089.573.443.739 1.187.371 1.666l-35.981 46.473c-.371.474-.977.619-1.357.323-.387-.284-.404-.904-.045-1.385l35.306-46.991zM335.314 166.416c.649.544 1.272 1.105 1.901 1.663-.786.883-1.909 1.318-3.069 1.32a5.28 5.28 0 0 1-3.423-1.272c-2.055-1.698-2.564-4.542-1.117-6.399.729-.924 1.825-1.443 3.021-1.477 1.195-.025 2.497.4 3.579 1.299 1.071.914 1.736 2.1 1.912 3.281.175 1.189-.121 2.36-.906 3.243-.629-.558-1.252-1.119-1.901-1.663.754-.877.531-2.301-.508-3.179-1.049-.87-2.503-.83-3.227.069-.729.903-.475 2.308.54 3.15 1.009.854 2.436.84 3.19-.037z"/><path d="M332.951 164.419c.199-.243.597-.255.875-.014.284.238.342.627.139.865s-.591.244-.871.011c-.275-.236-.348-.615-.143-.862M306.293 200.163c.471.387.927.807 1.386 1.21-.786.883-1.794 1.415-2.781 1.577-.992.165-1.962-.026-2.691-.647-.735-.609-1.104-1.515-1.111-2.52a4.85 4.85 0 0 1 1.046-3.024c1.458-1.872 3.952-2.341 5.547-1.024.784.67 1.19 1.632 1.183 2.66-.006 1.027-.412 2.098-1.198 2.981-.463-.408-.915-.822-1.386-1.21.754-.877.757-2.105-.002-2.749-.766-.633-1.98-.398-2.704.502-.729.903-.715 2.113.02 2.722.726.616 1.93.41 2.684-.467z"/><path d="M304.581 198.715c.199-.243.533-.308.733-.129.204.174.204.509.001.747s-.532.299-.729.126c-.196-.174-.205-.501-.005-.744M315.969 188.913c.529.443 1.037.907 1.555 1.365a4.5 4.5 0 0 1-2.873 1.493c-1.051.111-2.111-.15-2.932-.854-.833-.689-1.296-1.67-1.361-2.73a4.47 4.47 0 0 1 .952-3.099c1.455-1.877 4.111-2.223 5.895-.743a4.03 4.03 0 0 1 1.43 2.865 4.3 4.3 0 0 1-1.103 3.07c-.518-.458-1.026-.923-1.555-1.366.754-.876.683-2.171-.173-2.895-.863-.712-2.151-.545-2.875.355-.729.903-.636 2.176.193 2.861.818.699 2.097.551 2.852-.326z"/><path d="M314.04 187.283c.2-.243.552-.291.778-.094.232.193.25.544.045.79-.203.238-.551.282-.777.086a.55.55 0 0 1-.046-.782M325.639 177.666c.589.49 1.156 1.009 1.729 1.517a4.26 4.26 0 0 1-2.973 1.408 4.52 4.52 0 0 1-3.179-1.059c-1.856-1.533-2.211-4.256-.765-6.112a4.07 4.07 0 0 1 2.919-1.554c1.128-.082 2.343.279 3.328 1.098.978.83 1.55 1.941 1.671 3.072a4.08 4.08 0 0 1-1.003 3.155c-.573-.507-1.141-1.019-1.729-1.516.754-.877.604-2.235-.341-3.037-.952-.791-2.327-.688-3.051.212-.729.903-.554 2.244.369 3.003.912.774 2.269.698 3.023-.178z"/><path d="M323.491 175.85a.58.58 0 0 1 .827-.054c.253.214.298.584.093.83a.587.587 0 0 1-.822.051c-.248-.218-.299-.576-.094-.822zM345.835 210.734a1.095 1.095 0 0 1-1.526-.23c-5.158-7.002-10.813-13.642-16.996-19.738a1.08 1.08 0 0 1-.015-1.536 1.1 1.1 0 0 1 1.554-.02c6.277 6.193 12.002 12.916 17.222 20 .365.488.257 1.17-.23 1.526zM299.212 134.842c.256-.549.984-.74 1.626-.431.643.308.955.999.687 1.542l-10.332 21.363c7.467 3.609 14.71 7.782 21.55 12.566l12.99-18.54c-6.408-4.486-13.094-8.467-19.89-11.996l-8.326 16.04c4.721 2.404 9.298 5.137 13.785 8.025l7.386-11.309a50 50 0 0 0-2.059-1.317l-5.911 9.346c-.326.509-1.034.643-1.588.304-.555-.339-.747-1.037-.433-1.553l5.771-9.433-1.793-1.104-5.651 9.505c-.309.512-1.007.662-1.575.346-.562-.319-.775-1.003-.481-1.527l5.515-9.589-2.109-1.196-5.378 9.663c-.294.524-.992.695-1.555.376-.561-.327-.802-.978-.513-1.521l5.756-10.7c.286-.526 1.025-.711 1.642-.355 4.277 2.383 8.518 4.884 12.635 7.643.594.399.799 1.125.461 1.628l-8.783 13.001c-.341.498-1.037.617-1.567.261-5.032-3.313-10.213-6.402-15.572-9.089a1.18 1.18 0 0 1-.574-.66c-.101-.28-.08-.584.049-.846l9.084-18.109c.271-.537 1.007-.705 1.647-.38 7.656 3.903 15.201 8.417 22.365 13.521.285.208.488.5.566.81s.03.618-.141.85l-14.546 20.114c-.352.49-1.044.585-1.542.222-7.281-5.236-15.106-9.67-23.163-13.521a1.12 1.12 0 0 1-.545-1.471l10.517-22.482zM294.045 199.606c-.353.49-.954.654-1.336.367s-.415-.912-.071-1.404l13.617-19.433c-6.306-4.409-13.01-8.276-19.986-11.641l-9.861 20.38c4.853 2.352 9.465 4.93 13.831 7.769l9.887-15.129c-3.89-2.498-7.863-4.881-12.016-6.992l-6.226 11.989 1.58.819 5.226-9.75c.282-.53.921-.756 1.412-.49.484.277.638.928.344 1.452l-5.363 9.675 1.327.756 5.481-9.608c.299-.528.933-.728 1.417-.451.484.278.631.919.325 1.436l-5.615 9.525c.51.296.994.617 1.495.92l5.756-9.446c.315-.516.949-.695 1.421-.402s.597.942.271 1.451l-6.478 10.285c-.326.509-.922.713-1.344.452-.736-.448-1.453-.911-2.195-1.356l-2.262-1.283c-1.485-.882-3.065-1.658-4.607-2.473-.445-.231-.591-.859-.315-1.4l7.035-14.026c.271-.538.902-.765 1.409-.496 4.851 2.425 9.485 5.2 13.98 8.155a1 1 0 0 1 .424.673 1.1 1.1 0 0 1-.185.806l-11.343 16.789c-.337.502-.93.689-1.317.427-4.719-3.138-9.753-5.956-15.098-8.501a.83.83 0 0 1-.436-.563 1.27 1.27 0 0 1 .091-.816l10.517-22.482c.256-.549.897-.784 1.424-.528 7.727 3.695 15.189 7.924 22.121 12.908.474.349.575 1.029.219 1.515l-14.546 20.114zM293.129 132.118c.239-.552.955-.772 1.602-.488.648.283.974.964.727 1.515L271.64 186.88c-.247.551-.811.835-1.271.636-.461-.199-.635-.815-.396-1.367l23.154-54.023zM279.697 126.867c.202-.564.889-.858 1.535-.61.648.241 1.009.898.799 1.46l-20.246 55.176c-.207.567-.767.878-1.249.701-.476-.189-.721-.771-.518-1.344l19.67-55.384zM287.124 137.346l2.259.922c-.925 2.167-3.614 3.145-6.004 2.18-1.196-.496-2.111-1.34-2.631-2.363s-.639-2.205-.23-3.315c.815-2.202 3.511-3.3 6.016-2.282 2.506 1.01 3.781 3.601 2.854 5.776l-2.259-.922c.441-1.072-.183-2.337-1.398-2.828-1.213-.499-2.53.015-2.942 1.098-.413 1.082.214 2.309 1.399 2.798 1.187.481 2.502-.003 2.941-1.068z"/><path d="M284.361 136.226c.115-.295.475-.428.8-.29.324.137.496.479.378.769-.117.289-.478.423-.799.29-.327-.129-.493-.475-.379-.769M270.268 178.538l1.786.725c-.926 2.167-3.206 3.321-5.08 2.561-1.873-.767-2.806-3.109-1.981-5.339.409-1.11 1.188-1.959 2.121-2.44.932-.481 2.027-.592 3.014-.181 1.995.81 2.858 3.22 1.926 5.399zc.442-1.072.018-2.254-.942-2.647-.956-.396-2.087.189-2.503 1.266-.412 1.083.032 2.243.96 2.629.937.38 2.046-.184 2.487-1.256z"/><path d="M268.086 177.654c.115-.294.418-.447.679-.34.258.103.376.43.259.72-.118.289-.422.442-.68.34-.257-.103-.372-.425-.258-.72M275.893 164.809l1.946.79c-.925 2.168-3.338 3.265-5.389 2.436-2.042-.836-3.097-3.219-2.273-5.449a4.27 4.27 0 0 1 2.202-2.407c.984-.457 2.152-.545 3.223-.095 2.164.877 3.168 3.345 2.236 5.524l-1.946-.791c.441-1.073-.051-2.281-1.097-2.704-1.039-.434-2.236.13-2.648 1.212-.413 1.083.092 2.267 1.105 2.684 1.017.412 2.199-.119 2.64-1.192z"/><path d="M273.512 163.845a.55.55 0 0 1 .72-.324.565.565 0 0 1 .298.736c-.118.29-.438.44-.719.324a.566.566 0 0 1-.299-.736M281.51 151.076l2.104.852c-.926 2.167-3.479 3.206-5.695 2.306-1.107-.461-1.954-1.279-2.422-2.278a4.26 4.26 0 0 1-.144-3.285c.815-2.202 3.388-3.342 5.724-2.392 2.333.945 3.472 3.475 2.545 5.651l-2.103-.853c.441-1.072-.12-2.307-1.246-2.763-1.124-.464-2.384.07-2.797 1.152-.413 1.083.154 2.284 1.254 2.744 1.098.445 2.348-.06 2.789-1.133z"/><path d="M278.937 150.035a.573.573 0 0 1 .759-.306.58.58 0 0 1 .339.752.58.58 0 0 1-.76.307.59.59 0 0 1-.338-.753M311.263 175.797a1.077 1.077 0 0 1-1.511.245c-7.049-5.072-14.636-9.369-22.474-13.12a1.106 1.106 0 0 1-.516-1.461 1.08 1.08 0 0 1 1.455-.513c7.942 3.798 15.638 8.16 22.806 13.312a1.1 1.1 0 0 1 .245 1.533zM246.777 117.338c.137-.585.763-.94 1.393-.79.631.15 1.025.749.883 1.337l-5.602 23.058c7.908 1.92 15.792 4.087 23.596 6.664l7.113-21.489c-6.912-2.276-13.795-4.237-20.596-5.978l-4.48 17.508a305 305 0 0 1 14.87 4.183l4.004-12.899a88 88 0 0 0-2.183-.668l-3.198 10.587c-.173.574-.802.902-1.41.721-.603-.175-.951-.79-.781-1.369l3.107-10.613-1.888-.554-3.042 10.635c-.166.575-.786.905-1.397.741-.605-.167-.96-.77-.798-1.351l2.964-10.654-2.18-.598-2.89 10.678c-.158.585-.775.92-1.381.753-.6-.171-.97-.764-.816-1.346l3.092-11.75c.153-.582.782-.932 1.416-.755 4.374 1.186 8.759 2.422 13.164 3.826.637.204 1 .831.813 1.406l-4.787 14.942c-.187.576-.813.887-1.41.7a291 291 0 0 0-16.921-4.773 1.14 1.14 0 0 1-.687-.504 1.1 1.1 0 0 1-.131-.834l4.903-19.656c.145-.584.777-.929 1.415-.769 7.598 1.924 15.305 4.109 23.065 6.715.312.11.57.321.727.586.151.269.187.571.093.852l-8.028 23.489a1.09 1.09 0 0 1-1.399.671c-8.414-2.857-16.971-5.16-25.544-7.228a1.11 1.11 0 0 1-.821-1.321l5.73-24.153zM257.835 181.5c-.196.574-.755.898-1.246.728-.492-.171-.738-.775-.548-1.346l7.461-22.527c-7.433-2.456-15.03-4.54-22.713-6.407l-5.347 22.001c5.864 1.426 11.571 2.965 17.092 4.672l5.361-17.257c-4.57-1.402-9.187-2.722-13.878-3.905l-3.35 13.084 1.893.485 2.811-10.698c.154-.582.737-.945 1.298-.791.56.154.886.747.728 1.333l-2.882 10.679 1.611.443 2.943-10.663c.162-.58.743-.927 1.303-.773s.881.751.716 1.326l-3.017 10.64 1.835.539 3.099-10.615c.17-.579.758-.915 1.308-.755s.861.765.691 1.343l-3.5 11.639c-.174.574-.741.919-1.263.768l-2.724-.805-2.774-.758c-1.835-.517-3.721-.992-5.598-1.474-.542-.137-.859-.729-.714-1.313l3.797-15.228a1.07 1.07 0 0 1 1.298-.791 277 277 0 0 1 16.024 4.518c.266.083.489.275.617.53s.147.554.058.832l-6.178 19.293c-.187.576-.739.91-1.246.749-6.051-1.91-12.348-3.604-18.854-5.166a.97.97 0 0 1-.618-.477 1.16 1.16 0 0 1-.108-.82l5.731-24.154c.137-.585.72-.948 1.306-.811 8.427 2.035 16.793 4.292 24.951 7.06.565.194.856.811.661 1.385l-8.027 23.489zM240.857 115.978c.133-.591.747-.952 1.374-.807.624.14 1.023.735.887 1.321l-13.115 57.29c-.134.591-.689.963-1.241.833-.548-.125-.891-.701-.758-1.291l12.854-57.355zM228.01 113.239c.117-.594.716-.967 1.329-.842.614.125 1.015.712.895 1.301l-11.879 57.564c-.12.588-.682.973-1.245.858-.567-.12-.928-.691-.812-1.284zM236.157 122.239l2.219.484c-.517 2.3-2.862 3.758-5.24 3.243-2.385-.526-3.901-2.774-3.431-5.1.484-2.306 2.798-3.809 5.225-3.275 2.42.523 3.958 2.814 3.446 5.132zc.248-1.132-.512-2.254-1.686-2.511-1.183-.259-2.327.459-2.564 1.597-.24 1.134.517 2.251 1.683 2.507 1.171.252 2.318-.461 2.567-1.593"/><path d="M233.449 121.656a.58.58 0 0 1 .697-.432.58.58 0 0 1 .46.685.58.58 0 0 1-.697.432.587.587 0 0 1-.46-.685M226.676 165.733l2.049.446c-.509 2.302-2.717 3.791-4.916 3.315-2.189-.482-3.638-2.717-3.151-5.04.472-2.312 2.71-3.822 4.946-3.335 2.24.484 3.642 2.744 3.121 5.06zc.249-1.132-.436-2.239-1.532-2.476-1.09-.241-2.172.493-2.416 1.622-.235 1.13.455 2.234 1.537 2.473 1.084.231 2.159-.492 2.411-1.619"/><path d="M224.169 165.189a.56.56 0 0 1 .655-.44.554.554 0 0 1 .415.672.56.56 0 0 1-.655.44.556.556 0 0 1-.415-.672M229.839 151.237l2.108.457c-.509 2.301-2.762 3.778-5.028 3.289-2.256-.496-3.726-2.739-3.244-5.058.476-2.308 2.744-3.816 5.042-3.312a4.23 4.23 0 0 1 3.23 5.081za2.08 2.08 0 0 0-1.582-2.487 2.073 2.073 0 0 0-2.463 1.617c-.235 1.131.475 2.243 1.587 2.483s2.215-.485 2.462-1.608z"/><path d="M227.259 150.681a.563.563 0 0 1 .672-.436.57.57 0 0 1-.241 1.112.57.57 0 0 1-.431-.676M232.994 136.738l2.161.472a4.323 4.323 0 0 1-5.131 3.264c-2.323-.509-3.818-2.757-3.336-5.076.481-2.311 2.769-3.811 5.133-3.294 2.362.512 3.855 2.79 3.339 5.103l-2.161-.473c.249-1.132-.486-2.249-1.632-2.496a2.095 2.095 0 0 0-2.513 1.607 2.117 2.117 0 0 0 1.637 2.493 2.104 2.104 0 0 0 2.512-1.599z"/><path d="M230.351 136.165a.58.58 0 0 1 .686-.438.572.572 0 1 1-.242 1.12.57.57 0 0 1-.444-.682M267.336 153.689a1.085 1.085 0 0 1-1.38.68c-8.251-2.799-16.671-5.071-25.157-7.118a1.09 1.09 0 0 1-.805-1.317 1.09 1.09 0 0 1 1.318-.805c8.528 2.054 17.013 4.348 25.341 7.175a1.1 1.1 0 0 1 .686 1.39zM197.358 107.238a1.077 1.077 0 0 1 1.255-.865c.577.114.947.686.83 1.279l-4.587 23.284 23.63 4.594 4.405-22.203-19.247-3.741-3.454 17.74 14.674 2.842 2.589-13.256-2.082-.409-2.109 10.857c-.117.594-.692.98-1.286.863a1.095 1.095 0 0 1-.868-1.282l2.101-10.859-1.786-.347-2.096 10.856a1.094 1.094 0 0 1-2.145-.418l2.092-10.86-2.05-.395-2.1 10.859a1.093 1.093 0 0 1-1.278.865 1.087 1.087 0 0 1-.859-1.28l2.307-11.935a1.09 1.09 0 0 1 1.277-.865l12.39 2.402c.602.118.993.69.876 1.284l-3.028 15.401c-.117.593-.692.98-1.286.863l-16.81-3.258a1.09 1.09 0 0 1-.86-1.281l3.888-19.882a1.084 1.084 0 0 1 1.269-.866l21.412 4.167c.293.057.55.225.715.47s.229.536.168.824l-4.881 24.337a1.1 1.1 0 0 1-1.289.858l-25.768-5.023a1.1 1.1 0 0 1-.86-1.281l4.848-24.344zM213.752 170.322a1.077 1.077 0 0 1-1.256.865c-.572-.117-.941-.689-.829-1.279l4.62-23.277-23.616-4.596-4.377 22.213 19.194 3.727 3.461-17.739-14.656-2.839-2.578 13.263 2.079.404 2.1-10.859a1.094 1.094 0 0 1 1.286-.863c.594.116.982.683.865 1.277l-2.101 10.859 1.783.342 2.092-10.861a1.09 1.09 0 0 1 1.281-.86c.593.117.976.687.859 1.281l-2.092 10.861 2.045.398 2.101-10.86a1.087 1.087 0 0 1 1.277-.864c.59.111.977.687.86 1.28l-2.316 11.933a1.094 1.094 0 0 1-1.274.87l-12.352-2.39a1.096 1.096 0 0 1-.877-1.284l3.012-15.404c.117-.594.692-.98 1.285-.863l16.803 3.256a1.093 1.093 0 0 1 .859 1.28l-3.908 19.874a1.08 1.08 0 0 1-1.263.864l-21.348-4.146a1.116 1.116 0 0 1-.888-1.29l4.848-24.344a1.1 1.1 0 0 1 1.285-.864l25.76 5.022c.589.12.972.691.855 1.284l-4.881 24.338zM191.941 106.143c.12-.589.682-.973 1.25-.862.572.117.933.688.817 1.281l-11.67 57.605c-.12.589-.712.972-1.326.847s-1.012-.707-.892-1.296zM180.268 103.639c.133-.59.689-.963 1.245-.836.554.122.897.697.763 1.288l-12.778 57.369c-.134.59-.744.957-1.368.817s-1.02-.731-.887-1.321l13.02-57.313zM187.569 112.525l2.074.43c-.482 2.319-2.7 3.815-4.946 3.335-2.256-.474-3.645-2.749-3.126-5.057.514-2.304 2.688-3.779 4.916-3.315 2.204.473 3.628 2.724 3.156 5.037zc.236-1.13-.45-2.237-1.542-2.47-1.088-.227-2.169.499-2.418 1.631-.243 1.129.442 2.236 1.543 2.47s2.177-.497 2.412-1.627z"/><path d="M185.052 111.988a.57.57 0 0 1 .66-.444.56.56 0 0 1 .42.669.56.56 0 0 1-.66.443.555.555 0 0 1-.42-.668M178.441 156.088l2.202.46c-.474 2.321-2.8 3.795-5.217 3.277-2.406-.504-3.966-2.817-3.45-5.129.514-2.305 2.867-3.74 5.236-3.248 2.38.507 3.913 2.78 3.436 5.096l-2.202-.459c.235-1.13-.517-2.251-1.68-2.501-1.167-.247-2.314.465-2.559 1.602-.244 1.129.508 2.25 1.679 2.502 1.175.248 2.323-.464 2.56-1.603z"/><path d="M175.739 155.513a.587.587 0 0 1 .694-.437.575.575 0 0 1 .456.681.585.585 0 0 1-.693.436.573.573 0 0 1-.457-.68M181.484 141.568l2.161.451c-.474 2.321-2.767 3.802-5.125 3.295-2.356-.494-3.857-2.795-3.347-5.104.514-2.305 2.809-3.751 5.128-3.269 2.321.495 3.816 2.765 3.344 5.078za2.116 2.116 0 0 0-1.637-2.493 2.117 2.117 0 0 0-2.513 1.607c-.249 1.132.487 2.25 1.637 2.493 1.151.244 2.273-.473 2.51-1.612z"/><path d="M178.843 141.005a.58.58 0 0 1 .685-.438c.313.066.51.369.449.678a.579.579 0 0 1-1.134-.24M184.529 127.043l2.115.438c-.477 2.316-2.733 3.809-5.032 3.313-2.306-.484-3.749-2.773-3.235-5.078.514-2.304 2.746-3.767 5.019-3.29 2.263.484 3.724 2.747 3.248 5.055zc.235-1.13-.475-2.243-1.592-2.48s-2.22.489-2.463 1.618a2.08 2.08 0 0 0 1.592 2.479 2.08 2.08 0 0 0 2.463-1.617"/><path d="M181.946 126.496a.57.57 0 0 1 .669-.442.565.565 0 0 1 .432.676.57.57 0 0 1-.669.441.564.564 0 0 1-.432-.675M219.533 141.511c-.12.589-.695.975-1.281.86l-25.76-5.022a1.087 1.087 0 0 1-.859-1.281 1.09 1.09 0 0 1 1.28-.859l25.769 5.023c.593.117.974.695.859 1.281zM153.059 96.187c.19-.57.754-.898 1.259-.729s.765.771.578 1.347l-7.313 22.573c7.454 2.435 15.059 4.477 22.752 6.315l5.263-22.017c-5.88-1.408-11.604-2.929-17.155-4.615l-5.267 17.288c1.136.362 2.29.698 3.446 1.025l3.462.985c2.329.614 4.645 1.265 7 1.832l3.296-13.099-1.9-.473-2.761 10.707c-.15.587-.727.938-1.292.788s-.892-.744-.738-1.326l2.831-10.69-1.617-.43-2.893 10.672c-.159.586-.739.932-1.305.782-.562-.146-.881-.751-.719-1.332l2.968-10.658-1.845-.532-3.045 10.63c-.162.581-.754.92-1.31.763-.555-.157-.871-.757-.701-1.336l3.438-11.656c.171-.579.738-.923 1.265-.776 1.82.527 3.648 1.056 5.516 1.536l2.79.74 2.826.708c.542.137.87.722.725 1.306l-3.739 15.239a1.08 1.08 0 0 1-1.296.805 278 278 0 0 1-16.061-4.443 1.065 1.065 0 0 1-.684-1.355l6.067-19.328c.178-.577.741-.918 1.247-.758 6.094 1.89 12.402 3.555 18.932 5.099a.98.98 0 0 1 .624.475c.139.24.18.539.113.816l-5.644 24.175a1.086 1.086 0 0 1-1.303.816c-8.449-1.991-16.801-4.228-24.999-6.947a1.086 1.086 0 0 1-.676-1.375l7.84-23.552zM164.472 160.307c-.137.585-.759.945-1.39.795s-1.027-.741-.885-1.329l5.515-23.08c-7.909-1.889-15.812-4.008-23.609-6.553l-6.974 21.534c6.871 2.223 13.772 4.158 20.562 5.862l4.41-17.526c-2.482-.605-4.964-1.297-7.449-1.951l-3.717-1.061a133 133 0 0 1-3.713-1.099l-3.939 12.921c.729.221 1.455.459 2.183.668l3.141-10.607c.17-.579.799-.907 1.403-.732s.956.788.791 1.363l-3.059 10.632 1.887.54 2.989-10.65c.162-.58.782-.91 1.391-.738.602.162.962.762.803 1.348l-2.91 10.669 2.175.58 2.839-10.688c.154-.582.773-.925 1.375-.763s.97.764.82 1.351l-3.044 11.768c-.15.587-.784.918-1.416.755-2.189-.591-4.369-1.146-6.568-1.795l-3.292-.947c-1.101-.321-2.2-.672-3.297-1.009-.634-.199-1.002-.822-.82-1.394l4.702-14.972c.179-.577.809-.892 1.403-.71a298 298 0 0 0 16.929 4.688c.286.069.532.252.692.501.154.251.2.547.136.83l-4.824 19.676c-.145.584-.774.933-1.411.773-7.577-1.88-15.331-4.048-23.01-6.578a1.27 1.27 0 0 1-.715-.579 1.03 1.03 0 0 1-.095-.844l7.84-23.551c.19-.571.816-.882 1.395-.69 8.421 2.794 16.985 5.085 25.566 7.111.594.139.96.728.823 1.313l-5.643 24.174zM148.293 94.538c.207-.567.773-.88 1.263-.703.495.176.731.787.537 1.352l-19.317 55.511c-.199.569-.878.843-1.519.613s-.995-.877-.788-1.444zM138.135 90.582c.235-.557.812-.843 1.286-.646.474.198.673.82.442 1.372l-22.327 54.368c-.227.559-.933.793-1.571.525-.637-.269-.962-.936-.727-1.494l22.898-54.133zM143.253 100.303l1.865.671a4.43 4.43 0 0 1-2.119 2.454c-.939.492-2.037.598-3.042.192-2.028-.794-2.952-3.208-2.057-5.398.899-2.186 3.191-3.354 5.122-2.597.962.385 1.682 1.164 2.076 2.12.384.96.426 2.115.025 3.226l-1.865-.671c.399-1.08-.061-2.252-1.015-2.635-.955-.375-2.083.194-2.507 1.27-.425 1.075.024 2.262 1.004 2.642.979.387 2.109-.189 2.515-1.282z"/><path d="M141.003 99.44c.114-.294.418-.447.684-.343.266.105.386.423.275.723-.115.294-.418.447-.684.343s-.39-.428-.275-.723M127.7 142.009l2.245.815c-.4 1.111-1.262 1.936-2.333 2.372-1.073.445-2.357.479-3.593-.012-2.473-.959-3.75-3.52-2.851-5.706.899-2.185 3.544-3.206 5.92-2.283 1.188.472 2.098 1.32 2.621 2.326.518 1.009.646 2.194.245 3.305l-2.246-.815c.403-1.076-.226-2.316-1.399-2.777-1.173-.46-2.47.04-2.899 1.119-.424 1.076.198 2.328 1.396 2.793 1.196.474 2.497-.043 2.897-1.132z"/><path d="M124.962 140.958c.114-.295.466-.429.789-.305s.496.466.381.761c-.114.294-.466.429-.789.305-.323-.125-.496-.467-.381-.761M132.881 128.108l2.116.763c-.4 1.111-1.233 1.946-2.261 2.404a4.37 4.37 0 0 1-3.411.054c-2.327-.904-3.483-3.416-2.588-5.606s3.424-3.257 5.654-2.388a4.57 4.57 0 0 1 2.435 2.255c.473.996.569 2.165.168 3.276l-2.116-.763c.399-1.081-.17-2.296-1.269-2.734-1.101-.429-2.341.092-2.771 1.171-.424 1.076.142 2.307 1.268 2.741 1.124.443 2.367-.094 2.768-1.183z"/><path d="M130.311 127.121a.575.575 0 0 1 .752-.317.585.585 0 0 1 .344.749.57.57 0 0 1-.753.317.583.583 0 0 1-.343-.749M138.066 114.208l1.991.717a4.3 4.3 0 0 1-2.188 2.427 4 4 0 0 1-3.225.126c-2.182-.85-3.218-3.312-2.322-5.502.898-2.186 3.311-3.305 5.388-2.493a4.13 4.13 0 0 1 2.253 2.189c.429.975.5 2.139.094 3.253zc.399-1.081-.113-2.275-1.14-2.682-1.033-.402-2.212.143-2.637 1.219s.081 2.282 1.139 2.69c1.051.419 2.237-.138 2.643-1.23z"/><path d="M135.653 113.277a.56.56 0 0 1 .721-.331c.283.108.418.438.312.734a.56.56 0 0 1-.721.332.566.566 0 0 1-.312-.735M171.152 131.69a1.09 1.09 0 0 1-1.314.81c-8.536-2.013-17.029-4.287-25.369-7.055a1.1 1.1 0 0 1-.696-1.383 1.09 1.09 0 0 1 1.378-.693c8.271 2.742 16.697 5.002 25.188 7.002.585.137.952.725.81 1.314zM115.084 78.542c.326-.51.924-.7 1.331-.429s.495.88.176 1.398L104.008 99.63c6.576 4.098 13.452 7.725 20.56 10.929l9.311-20.635c-5.081-2.293-9.975-4.784-14.635-7.52l-9.155 15.582c2.042 1.14 4.05 2.346 6.142 3.409 1.045.54 2.066 1.11 3.119 1.629l3.168 1.552 5.846-12.176-1.643-.805-4.898 9.914c-.267.542-.895.775-1.402.527-.507-.247-.698-.888-.427-1.425l5.013-9.86-1.385-.734-5.112 9.811c-.279.536-.908.755-1.403.493-.496-.263-.673-.905-.386-1.439l5.229-9.745c-.534-.287-1.081-.55-1.594-.86l-5.346 9.678c-.291.53-.925.73-1.414.455-.492-.279-.643-.925-.344-1.452l6.01-10.56c.299-.527.902-.743 1.347-.49 1.521.902 3.146 1.691 4.711 2.541 1.587.83 3.231 1.591 4.839 2.398.474.22.656.836.401 1.385l-6.627 14.225c-.256.549-.886.798-1.412.556a183 183 0 0 1-14.422-7.677 1.03 1.03 0 0 1-.461-.656 1.12 1.12 0 0 1 .139-.819l10.494-17.328c.314-.516.906-.725 1.325-.469 5.075 3.03 10.423 5.775 16.031 8.258a.88.88 0 0 1 .467.565 1.22 1.22 0 0 1-.066.821l-9.963 22.735a1.06 1.06 0 0 1-1.412.556c-7.848-3.506-15.464-7.5-22.705-12.081a1.087 1.087 0 0 1-.304-1.5l13.443-20.87zM112.434 143.53c-.239.552-.95.768-1.588.478-.634-.285-.947-.968-.7-1.518l9.763-21.628c-7.517-3.393-14.86-7.26-21.903-11.654l-12.007 19.194a197 197 0 0 0 19.852 10.89l7.82-16.296-3.537-1.733c-1.18-.58-2.335-1.219-3.497-1.825-2.343-1.199-4.613-2.549-6.912-3.843l-6.841 11.646 2.078 1.182 5.484-9.604c.302-.522.995-.69 1.558-.371.559.314.775 1.004.484 1.533l-5.363 9.675c.596.347 1.2.674 1.803.988l5.261-9.73c.291-.529.979-.715 1.55-.416.565.303.798.974.519 1.509l-5.147 9.791 2.101 1.108 5.028-9.849c.274-.532.957-.737 1.536-.458.574.282.825.948.558 1.491l-5.397 10.888c-.268.542-.982.732-1.6.428-2.136-1.063-4.245-2.216-6.363-3.327-2.091-1.201-4.202-2.346-6.27-3.599-.598-.361-.826-1.079-.517-1.591l8.129-13.425c.314-.516 1.004-.667 1.543-.34a198 198 0 0 0 15.789 8.407c.275.128.488.347.594.625.106.277.099.579-.026.837l-8.557 18.365c-.255.549-.973.755-1.606.461-7.568-3.576-15.058-7.641-22.302-12.249a1.47 1.47 0 0 1-.596-.768 1.01 1.01 0 0 1 .099-.858l13.444-20.869c.326-.509 1.012-.643 1.528-.307 7.549 4.78 15.473 8.93 23.6 12.56.557.257.812.907.573 1.459l-9.963 22.735zM111.213 75.943c.344-.492.944-.669 1.344-.387.392.282.446.913.11 1.407l-32.911 48.7c-.338.502-1.091.58-1.683.164-.587-.411-.79-1.145-.444-1.646l33.575-48.239zM103.095 69.806c.383-.468.999-.598 1.378-.294.378.305.377.93.002 1.4l-36.703 45.904c-.375.469-1.138.488-1.704.033-.563-.449-.708-1.194-.325-1.661l37.349-45.387zM104.967 80.277l1.534 1.075c-1.344 1.933-3.869 2.561-5.531 1.275-.836-.629-1.305-1.577-1.374-2.598-.051-1.039.286-2.136 1.02-3.065s1.713-1.513 2.695-1.715c.994-.217 1.995-.076 2.777.516 1.542 1.193 1.773 3.636.413 5.587zc.675-.939.592-2.176-.183-2.758-.779-.587-1.983-.316-2.689.6-.705.917-.623 2.153.183 2.76.806.604 2.013.338 2.689-.602"/><path d="M103.141 78.903c.188-.25.515-.324.731-.164s.241.498.048.751c-.185.255-.516.325-.732.165-.219-.165-.24-.499-.047-.752M78.833 116.307l2.036 1.434c-1.347 1.928-4.307 2.254-6.515.564-1.11-.83-1.82-1.964-2.06-3.123-.23-1.174.003-2.361.74-3.284.734-.929 1.822-1.427 2.974-1.496a5.14 5.14 0 0 1 3.464 1.042c2.082 1.599 2.753 4.349 1.397 6.297zc.675-.939.38-2.33-.664-3.118-1.04-.782-2.464-.675-3.17.241-.705.917-.411 2.316.664 3.118 1.07.806 2.49.694 3.175-.244z"/><path d="M76.39 114.477c.189-.25.576-.278.865-.065.288.213.37.594.18.852-.185.255-.573.283-.864.065s-.37-.594-.18-.852M87.546 104.295l1.87 1.314c-1.348 1.928-4.163 2.352-6.19.803-1.013-.764-1.645-1.835-1.83-2.944-.17-1.127.097-2.286.83-3.215a4.2 4.2 0 0 1 2.884-1.565 4.5 4.5 0 0 1 3.238.867c1.904 1.465 2.426 4.112 1.07 6.059L87.55 104.3c.676-.939.452-2.277-.5-2.994-.954-.718-2.302-.553-3.011.359-.706.916-.479 2.259.504 2.999.984.741 2.332.576 3.007-.364z"/><path d="M85.31 102.618a.59.59 0 0 1 .818-.099c.265.199.328.564.135.817-.185.254-.554.299-.819.099s-.327-.564-.134-.817M96.253 92.285l1.702 1.195c-1.348 1.928-4.018 2.458-5.857 1.036a4.04 4.04 0 0 1-1.6-2.772 4.33 4.33 0 0 1 .925-3.139 4.42 4.42 0 0 1 2.79-1.64c1.05-.176 2.133.033 3.002.69 1.72 1.328 2.1 3.873.74 5.825zc.675-.939.524-2.224-.342-2.876s-2.142-.434-2.847.482-.551 2.206.342 2.877c.896.675 2.172.457 2.847-.483"/><path d="M94.224 90.763c.188-.25.539-.31.777-.13a.564.564 0 0 1 .093.787c-.19.258-.536.316-.777.13a.564.564 0 0 1-.093-.787M124.23 116.614a1.08 1.08 0 0 1-1.441.546c-8.031-3.585-15.849-7.684-23.294-12.396a1.11 1.11 0 0 1-.331-1.52 1.084 1.084 0 0 1 1.502-.325c7.344 4.648 15.063 8.698 23.011 12.245.545.25.791.898.553 1.45M85.07 51.75c.467-.386 1.093-.37 1.424.002.325.377.22.998-.24 1.394L68.181 68.524c5.044 5.903 10.433 11.487 16.263 16.572l14.924-17.022A133 133 0 0 1 87.94 56.74L74.487 68.805c3.11 3.507 6.412 6.805 9.802 9.995l9.197-9.898c-.439-.395-.877-.798-1.297-1.219l-7.635 8c-.416.438-1.075.474-1.48.086-.4-.392-.383-1.057.04-1.486l7.745-7.9-1.105-1.072-7.835 7.808c-.427.424-1.087.446-1.48.043-.39-.407-.355-1.068.08-1.49l7.936-7.702-1.25-1.288-8.033 7.6c-.433.414-1.118.431-1.492.015-.379-.414-.33-1.086.115-1.493l8.933-8.239c.445-.408 1.08-.435 1.427-.058 2.431 2.562 4.9 5.071 7.495 7.413.372.34.346.98-.059 1.426L85.07 80.99c-.404.445-1.074.496-1.498.113a162 162 0 0 1-11.41-11.6 1.02 1.02 0 0 1-.24-.769c.026-.286.164-.545.38-.74l15.25-13.338c.451-.397 1.088-.41 1.409-.03 3.96 4.46 8.113 8.581 12.515 12.382a.83.83 0 0 1 .268.647 1.23 1.23 0 0 1-.305.756l-16.1 18.893c-.389.457-1.07.523-1.52.135-6.5-5.564-12.446-11.76-17.993-18.306-.391-.44-.306-1.137.155-1.519l19.093-15.859zM63.311 113.137c-.39.457-1.148.451-1.698-.021-.546-.468-.667-1.221-.271-1.669l15.64-17.845C70.72 88.133 64.938 82.146 59.56 75.856L42.32 90.53a194 194 0 0 0 15.739 16.482l12.303-13.239c-3.863-3.625-7.607-7.375-11.104-11.319L49.2 91.47l1.606 1.766 8.142-7.483c.444-.408 1.155-.355 1.59.122.432.48.436 1.188.003 1.602l-8.049 7.588 1.435 1.49 7.962-7.675c.438-.418 1.152-.38 1.6.08.447.462.466 1.182.035 1.61l-7.861 7.78c.55.582 1.136 1.131 1.708 1.691l7.759-7.879c.423-.43 1.14-.41 1.607.038.463.451.5 1.166.084 1.606l-8.404 8.777c-.416.439-1.163.396-1.666-.093-3.516-3.366-6.8-6.909-10.028-10.483-.453-.523-.453-1.27.007-1.666l11.813-10.325c.451-.398 1.155-.333 1.565.147a177 177 0 0 0 12.584 12.8c.225.204.365.488.384.787s-.072.585-.27.798l-13.584 15.028c-.405.445-1.164.418-1.693-.068-6.363-5.824-12.275-12.058-17.709-18.519a1.3 1.3 0 0 1-.332-.895c.005-.316.138-.594.362-.78l19.093-15.859c.466-.386 1.145-.305 1.55.157 5.767 6.796 11.97 13.27 18.768 19.092.464.4.526 1.098.14 1.56l-16.098 18.893zM82.05 47.986c.476-.37 1.113-.34 1.425.06s.196 1.014-.274 1.395l-45.916 36.69c-.465.377-1.216.243-1.645-.31-.427-.549-.387-1.3.09-1.672l46.326-36.175zM75.66 39.27c.497-.34 1.14-.27 1.442.158.297.431.138 1.06-.355 1.406L28.68 74.657c-.493.345-1.21.174-1.604-.39-.393-.563-.305-1.297.192-1.638l48.388-33.364zM74.754 50.208l1.183 1.536c-.936.723-2.045 1.04-3.083.952-1.048-.08-2.026-.563-2.655-1.447-1.284-1.75-.758-4.274 1.188-5.645 1.924-1.35 4.477-1.105 5.692.554.603.844.785 1.861.588 2.864-.203 1.007-.788 1.995-1.725 2.718l-1.183-1.535c.919-.697 1.167-1.916.571-2.749-.606-.827-1.854-.947-2.791-.267s-1.197 1.914-.578 2.761c.614.85 1.875.955 2.798.255z"/><path d="M73.337 48.292c.253-.184.594-.152.758.071.168.23.094.562-.156.751-.25.19-.59.158-.759-.07-.168-.229-.097-.567.157-.752M39.25 77.052l1.481 1.923c-.937.724-2.108.958-3.253.733a4.94 4.94 0 0 1-3.051-1.972c-1.583-2.152-1.283-5.003.661-6.366 1.92-1.355 4.705-.786 6.22 1.275 1.495 2.066 1.303 4.872-.574 6.335l-1.48-1.923c.919-.697 1.04-2.084.3-3.11-.751-1.022-2.116-1.303-3.053-.623s-1.08 2.076-.317 3.116c.754 1.047 2.142 1.32 3.07.617z"/><path d="M37.487 74.681c.254-.184.63-.11.831.168.202.278.166.658-.084.848s-.626.115-.83-.168c-.206-.284-.17-.663.083-.848M51.082 68.101l1.385 1.792a4.13 4.13 0 0 1-3.198.804 4.44 4.44 0 0 1-2.92-1.798c-1.479-2.019-1.109-4.764.836-6.128 1.92-1.354 4.626-.892 6.044 1.037a4.6 4.6 0 0 1 .853 3.216 4.24 4.24 0 0 1-1.61 2.866l-1.385-1.792c.919-.697 1.085-2.027.388-2.989-.698-.954-2.026-1.18-2.966-.505-.937.68-1.118 2.02-.403 3 .71.981 2.053 1.197 2.981.494z"/><path d="M49.44 65.882a.587.587 0 0 1 .811.138.58.58 0 0 1-.113.816c-.25.19-.61.127-.81-.138a.58.58 0 0 1 .112-.816M62.92 59.153l1.284 1.664a4.3 4.3 0 0 1-3.139.88 3.97 3.97 0 0 1-2.786-1.62c-1.383-1.887-.935-4.517 1.01-5.889 1.925-1.35 4.556-.997 5.867.793.652.906.88 1.993.719 3.038a4.4 4.4 0 0 1-1.67 2.79l-1.283-1.664c.919-.697 1.122-1.973.477-2.868-.65-.892-1.94-1.063-2.877-.383s-1.155 1.965-.492 2.877c.661.921 1.964 1.077 2.892.374z"/><path d="M61.391 57.09a.56.56 0 0 1 .783.106.57.57 0 0 1-.133.786.55.55 0 0 1-.782-.106.57.57 0 0 1 .132-.786M82.37 90.772a1.093 1.093 0 0 1-1.542.114c-6.698-5.729-12.812-12.11-18.505-18.819-.401-.457-.323-1.162.138-1.545a1.1 1.1 0 0 1 1.537.137c5.626 6.63 11.657 12.922 18.262 18.576.457.39.504 1.076.115 1.534zM61.142 15.337c.53-.29 1.175-.12 1.444.367s.052 1.126-.474 1.413L41.33 28.567c3.806 6.923 7.837 13.694 12.156 20.236L72.38 36.335c-3.17-4.809-6.217-9.832-9.165-15.023l-15.718 8.92c2.392 4.2 4.842 8.346 7.418 12.378l11.402-7.24-1.024-1.614-9.385 5.858c-.51.321-1.179.19-1.48-.313-.302-.493-.129-1.154.388-1.465l9.43-5.779-.867-1.42-9.466 5.723c-.518.311-1.18.168-1.477-.329-.303-.494-.126-1.15.395-1.455l9.505-5.656-.981-1.678-9.541 5.592c-.52.306-1.18.146-1.472-.354s-.107-1.155.416-1.455l10.526-6.072c.523-.3 1.172-.156 1.451.324l1.456 2.492 1.485 2.45c.98 1.643 1.995 3.232 3.01 4.83.292.457.119 1.096-.393 1.425l-13.178 8.52c-.507.326-1.17.191-1.486-.3-2.998-4.65-5.821-9.439-8.566-14.294a1.06 1.06 0 0 1-.091-.817c.08-.28.269-.508.522-.649l17.677-9.893c.527-.296 1.175-.143 1.445.336 3.24 5.756 6.601 11.302 10.107 16.568.141.21.176.478.106.742a1.17 1.17 0 0 1-.482.665L53.75 51.21c-.5.336-1.174.207-1.498-.286-4.78-7.184-9.205-14.619-13.358-22.23a1.09 1.09 0 0 1 .442-1.473l21.806-11.86zM25.585 70.147c-.5.336-1.211.152-1.586-.416-.38-.565-.271-1.29.232-1.622l19.804-13.07c-4.519-6.85-8.7-13.878-12.625-21.01L11.581 44.952c3.379 6.114 6.953 12.227 10.805 18.3l15.26-9.688c-2.786-4.356-5.397-8.786-7.938-13.24l-11.75 6.668c.363.65.726 1.298 1.11 1.947l9.584-5.519c.523-.3 1.203-.11 1.517.432.31.54.146 1.223-.375 1.53l-9.547 5.582.981 1.677 9.52-5.635c.52-.306 1.19-.118 1.515.42.324.536.167 1.222-.35 1.533l-9.472 5.706 1.178 1.938 9.433-5.775c.514-.315 1.195-.134 1.524.4.324.537.176 1.224-.334 1.545l-10.32 6.421c-.514.315-1.215.126-1.55-.44-2.385-3.886-4.7-7.789-6.887-11.706-.32-.562-.148-1.257.38-1.553l13.694-7.663a1.104 1.104 0 0 1 1.5.438c2.868 5.084 5.846 10.125 9.029 15.071.16.248.215.56.16.843-.061.288-.228.537-.473.702L22.76 65.883c-.507.326-1.208.136-1.57-.435-4.351-6.795-8.342-13.637-12.083-20.473a1.24 1.24 0 0 1-.113-.882c.074-.29.26-.53.514-.672l21.807-11.86a1.09 1.09 0 0 1 1.483.447c4.225 7.752 8.755 15.365 13.672 22.754.34.505.208 1.195-.292 1.531L25.58 70.15zM58.638 10.654c.537-.28 1.18-.102 1.438.392.263.5.042 1.133-.492 1.42L7.712 40.097c-.534.286-1.208.05-1.51-.518-.3-.568-.112-1.26.425-1.54l52.006-27.382zM53.26.12c.539-.268 1.186-.072 1.437.442.256.511.022 1.147-.517 1.414L1.612 28.27c-.54.267-1.209.027-1.488-.54-.28-.568-.072-1.243.472-1.514zM50.96 11.382l.966 1.84c-2.087 1.096-4.654.374-5.685-1.67-1.033-2.035-.167-4.54 1.952-5.599C50.302 4.9 52.84 5.655 53.86 7.65c1.01 2 .163 4.47-1.934 5.573zc1.025-.528 1.454-1.76.956-2.739-.501-.984-1.744-1.355-2.777-.828-1.033.526-1.46 1.75-.952 2.743.505.99 1.746 1.368 2.777.83z"/><path d="M49.798 9.108a.554.554 0 0 1 .754.227c.138.27.02.603-.26.748a.555.555 0 0 1-.754-.227.56.56 0 0 1 .26-.748M11.438 31.844l1.064 2.028c-2.084 1.102-4.754.195-5.872-2.023-1.127-2.219-.34-4.873 1.782-5.928 2.106-1.058 4.724-.152 5.832 2.028 1.1 2.18.354 4.83-1.747 5.927l-1.064-2.029c1.02-.533 1.416-1.836.866-2.904-.545-1.07-1.825-1.518-2.857-.992-1.033.527-1.423 1.827-.872 2.908.552 1.081 1.828 1.523 2.858.991z"/><path d="M10.166 29.365a.58.58 0 0 1 .777.27c.146.294.042.647-.239.791a.577.577 0 0 1-.776-.27.59.59 0 0 1 .238-.79M24.61 25.024l1.028 1.965c-2.083 1.101-4.722.253-5.808-1.906-1.1-2.157-.28-4.762 1.84-5.822 2.108-1.053 4.698-.2 5.78 1.918 1.067 2.121.285 4.707-1.812 5.81za2.126 2.126 0 0 0 .895-2.85c-.533-1.043-1.801-1.462-2.829-.939-1.033.526-1.434 1.798-.9 2.854.537 1.048 1.8 1.47 2.834.935"/><path d="M23.375 22.614a.577.577 0 0 1 .775.256.576.576 0 0 1-.248.777.58.58 0 0 1-.775-.257.576.576 0 0 1 .248-.776M37.788 18.201l1 1.9c-2.088 1.095-4.687.315-5.75-1.787a4.23 4.23 0 0 1 1.896-5.715c2.11-1.053 4.674-.249 5.72 1.806 1.036 2.062.227 4.587-1.87 5.69l-1-1.899c1.025-.528 1.446-1.782.928-2.792-.513-1.012-1.773-1.408-2.8-.885-1.033.527-1.449 1.778-.924 2.797a2.06 2.06 0 0 0 2.805.882z"/><path d="M36.594 15.86a.567.567 0 0 1 .765.241.57.57 0 0 1-.25.763.567.567 0 0 1-.765-.24.57.57 0 0 1 .25-.764M49.965 53.743c-.5.336-1.178.203-1.512-.306-4.87-7.319-9.365-14.868-13.564-22.57a1.096 1.096 0 0 1 .44-1.487 1.08 1.08 0 0 1 1.476.438c4.178 7.661 8.64 15.16 13.465 22.413a1.1 1.1 0 0 1-.302 1.517z"/></g></svg>