<svg xmlns="http://www.w3.org/2000/svg" width="168" height="168" fill="none" viewBox="0 0 168 168"><path fill="#fffcee" d="M131.019 48.246C111.5 22.051 74.441 16.639 48.246 36.157 22.051 55.677 16.64 92.736 36.158 118.93s56.577 31.607 82.772 12.089l.348.467c-26.453 19.711-63.877 14.245-83.588-12.208S21.445 55.401 47.898 35.69s63.877-14.245 83.588 12.208 14.246 63.877-12.208 83.588l-.348-.467c26.195-19.519 31.608-56.578 12.089-82.773"/><path fill="#fffcee" d="M52.209 63.705q2.314 1.183 2.974 3.853.636 2.662-.554 6.238t-3.295 5.327q-2.097 1.726-4.643 1.318a25 25 0 0 1-1.796-.417 61 61 0 0 1-2.408-.75 54 54 0 0 1-2.26-.803 22 22 0 0 1-1.618-.72q-2.423-1.245-3.106-3.922t.5-6.23q1.19-3.578 3.341-5.312Q41.472 60.545 44.08 61q.636.107 1.719.417a37 37 0 0 1 2.322.695q1.324.44 2.392.874 1.077.41 1.696.719m-3.642 7.378-6.085-2.025q-.627-.21-.835.418-.21.627.418.836l6.085 2.025q.627.209.835-.419.21-.627-.418-.835M54.41 93.778l1.978 6.995-18.135 5.129-2.338-8.267 6.149-3.443-.06-.212-6.568 1.96-1.978-6.995 18.135-5.13 2.158 7.632-7.846 4.635.06.212zM57.602 102.457l5.137 5.75-14.014 12.601-5.155-5.733zM61.164 119.17a10 10 0 0 0 2.114 2.123q1.206.925 3.048 1.849.15.088.307.154a2 2 0 0 0 .262.135q.475.198.634-.187.094-.226-.117-.42a6 6 0 0 0-.676-.413 58 58 0 0 1-1.741-1.041 12.4 12.4 0 0 1-1.72-1.218 6 6 0 0 1-1.317-1.553 4.1 4.1 0 0 1-.578-1.99q-.068-1.114.514-2.516.648-1.559 1.812-2.321 1.155-.74 2.661-.857 1.475-.104 3.17.283 1.672.375 3.345 1.07a30 30 0 0 1 3.771 1.831q1.805 1.015 3.124 1.987l-3.936 7.694q-.361-.6-.896-1.353-.546-.729-1.638-1.608-1.095-.878-3.044-1.926a1 1 0 0 0-.194-.107l-.203-.084q-.249-.103-.39-.083-.164.012-.258.238-.102.25.095.41.175.153.6.408 1.164.642 2.281 1.398a9 9 0 0 1 1.874 1.679q.779.933 1.004 2.113.202 1.171-.417 2.663-.882 2.124-2.393 2.955-1.542.844-3.486.673-1.951-.148-4.077-1.031a23.5 23.5 0 0 1-3.59-1.887 33 33 0 0 1-3.476-2.477zM80.81 115.634l7.744-1.71.724 2.146 3.394-.749-.246-2.252 7.743-1.709-.669 19.448-9.894 2.184zm12.884 9.312-.243-2.353-1.817.401.77 2.237zM112.604 111.274l-5.721 5.617-2.502-2.269q-1.957-1.776-1.453-4.556.49-2.761 3.35-5.916 1.66-1.832 3.432-2.802t3.47-.984q1.715.002 3.187 1.04.539.389 1.369 1.076.85.703 1.81 1.575a53 53 0 0 1 1.726 1.631q.765.76 1.205 1.258 1.194 1.38 1.346 3.071.17 1.707-.623 3.565-.774 1.875-2.435 3.706-1.875 2.067-3.73 3.094-1.872 1.044-3.555 1.005-1.665-.023-2.988-1.223l-1.65-1.496 4.741-6.504 1.469 1.331q.49.444.933-.045.444-.49-.045-.934l-4.406-3.995q-.49-.444-.934.046-.444.489.046.933zM133.876 87.732l-7.242.623-.405-4.706-11.535.993-.699-8.12 11.535-.994-.407-4.73 7.242-.624zM112.732 70.075l-3.942-6.626 16.166-9.687 3.963 6.613zM112.451 52.997a10 10 0 0 0-1.664-2.49q-1.005-1.14-2.634-2.403a2.4 2.4 0 0 0-.272-.21 2 2 0 0 0-.231-.184q-.427-.285-.658.061-.136.203.034.435.203.224.584.536.726.63 1.507 1.357.795.706 1.453 1.527t.991 1.779q.354.97.184 2.063-.15 1.107-.991 2.37-.936 1.406-2.226 1.928-1.276.503-2.777.326-1.465-.183-3.055-.889a20.4 20.4 0 0 1-3.075-1.696 30 30 0 0 1-3.347-2.525q-1.575-1.344-2.682-2.552l5.349-6.79q.237.66.618 1.5.393.822 1.296 1.895.904 1.072 2.614 2.477.089.088.17.142l.183.123q.225.15.367.156.163.02.299-.184.149-.224-.014-.42a5 5 0 0 0-.509-.516A30 30 0 0 1 101.996 49a9 9 0 0 1-1.514-2.01 4.6 4.6 0 0 1-.578-2.267q.027-1.188.923-2.532 1.276-1.915 2.919-2.437 1.677-.531 3.55.013 1.888.522 3.802 1.798a23.5 23.5 0 0 1 3.157 2.545 33 33 0 0 1 2.933 3.102zM91.51 52.463l-7.628-1.126 2.694-18.653 7.63 1.102zM78.615 52.788l-9.885 3.24L59 39.382l7.769-2.545L71.6 48.44l.21-.068-2.996-12.206 7.769-2.546z"/></svg>