<svg xmlns="http://www.w3.org/2000/svg" width="34" height="23" fill="none" viewBox="0 0 34 23"><path fill="#f8d12e" d="M0 15.334v4.49C0 21.686 1.479 23 3.286 23h27.38c1.808 0 3.286-1.314 3.286-3.176v-4.49z"/><path fill="#333" d="M30.667 0H3.285C1.479 0 0 1.314 0 3.176v4.49h33.952v-4.49C33.952 1.314 32.474 0 30.667 0"/><path fill="#db2727" d="M33.952 7.667H0v7.666h33.952z"/><path fill="#dbb30f" d="M30.557 23c1.807 0 3.395-1.314 3.395-3.176v-4.49H21.576z"/><path fill="#202121" d="M30.666 0H3.286l9.09 7.667h21.576v-4.49C33.952 1.313 32.474 0 30.666 0"/><path fill="#c10e0e" d="M21.63 15.333h12.322V7.667h-21.63z"/><path fill="#000" d="M30.666 0H3.286L28.64 7.667h5.312v-4.49C33.952 1.313 32.474 0 30.666 0"/><path fill="#a00808" d="M33.952 9.2V7.667h-5.585z"/><path fill="#d89f12" d="M33.952 19.77c0 2.025-1.478 3.23-3.285 3.23H3.285A3.26 3.26 0 0 1 0 19.714"/></svg>