<svg xmlns="http://www.w3.org/2000/svg" width="34" height="23" fill="none" viewBox="0 0 34 23"><path fill="#db2727" d="M0 15.334v4.49C0 21.686 1.479 23 3.286 23h27.38c1.808 0 3.286-1.314 3.286-3.176v-4.49zM30.667 0H3.286C1.479 0 0 1.314 0 3.176v4.49h33.952v-4.49C33.952 1.314 32.474 0 30.667 0"/><path fill="#e4efee" d="M33.952 7.667H0v7.666h33.952z"/><path fill="#c61010" d="M30.557 23c1.808 0 3.396-1.314 3.396-3.176v-4.49H21.576zM30.667 0H3.286l9.09 7.667h21.576v-4.49C33.952 1.313 32.474 0 30.667 0"/><path fill="#cfe5e2" d="M21.631 15.333h12.322V7.667H12.32z"/><path fill="#af0202" d="M30.667 0H3.286L28.64 7.667h5.312v-4.49C33.952 1.313 32.474 0 30.667 0"/><path fill="#bad3cf" d="M33.952 9.2V7.667h-5.585z"/><path fill="#af0202" d="M33.952 19.77c0 1.97-1.478 3.23-3.285 3.23H3.286A3.26 3.26 0 0 1 0 19.714"/></svg>