<svg xmlns="http://www.w3.org/2000/svg" width="34" height="23" fill="none" viewBox="0 0 34 23"><path fill="#db2727" d="M33.952 19.824c0 1.862-1.478 3.176-3.285 3.176H3.286C1.479 23 0 21.686 0 19.824V3.176C0 1.314 1.479 0 3.286 0h27.38c1.808 0 3.286 1.314 3.286 3.176z"/><path fill="#c41616" d="M3.286 0h27.38c1.808 0 3.286 1.314 3.286 3.176v16.648c0 1.862-1.588 3.176-3.395 3.176"/><path fill="#ad0505" d="M3.286 0h27.38c1.808 0 3.286 1.314 3.286 3.176V9.31M33.952 19.77c0 1.97-1.478 3.23-3.285 3.23H3.286A3.26 3.26 0 0 1 0 19.714"/><path fill="#fff" d="M24.643 8.762h-4.929V3.833h-5.476v4.93H9.31v5.475h4.928v4.929h5.476v-4.929h4.929z"/><path fill="#cedddd" d="M19.714 3.834h-5.476v4.928h-.602l6.68 5.476h4.327V8.762h-4.929z"/></svg>