<svg xmlns="http://www.w3.org/2000/svg" width="34" height="23" fill="none" viewBox="0 0 34 23"><path fill="#d32027" d="M10.952 0H3.286C1.479 0 0 1.314 0 3.176v16.648C0 21.686 1.479 23 3.286 23h7.666zM30.667 0H23v23h7.667c1.807 0 3.285-1.314 3.285-3.176V3.176C33.952 1.314 32.474 0 30.667 0"/><path fill="#bc1723" d="M30.667 0H23v16.483L30.557 23c1.807 0 3.395-1.314 3.395-3.176V3.176C33.952 1.314 32.474 0 30.667 0M10.952 0H3.286l7.666 6.517z"/><path fill="#aa0e21" d="M23 23h7.667c1.807 0 3.285-1.095 3.285-3.286H23zM0 19.714C0 21.904 1.479 23 3.286 23h7.666v-3.286zM30.667 0H23v5.805L33.952 9.2V3.176C33.952 1.314 32.474 0 30.667 0M10.952 0H3.286l7.666 2.245z"/><path fill="#fff" d="M24.095 0H9.857v23h14.238z"/><path fill="#e9f3f4" d="M24.095 16.483V0H9.857v6.517z"/><path fill="#d3e9ea" d="M24.095 19.714H9.857V23h14.238zM24.095 5.805V0H9.857v2.245z"/><path fill="#d32027" d="M22.069 11.61c-.164-.165-.548-.165-.602-.438-.11-.712.219-1.096.438-1.588-1.04.219-1.862.657-1.862-.548-.603.712-1.26 1.479-1.479 1.314-.383-.219.384-2.08.438-3.066-.383.164-1.04.547-1.04.547s-.438-1.26-.986-1.862c-.547.603-.986 1.862-.986 1.862s-.712-.383-1.04-.547c.055.985.821 2.847.438 3.066-.274.11-.876-.602-1.479-1.314 0 1.15-.82.767-1.861.548.219.492.547.876.438 1.588-.055.273-.438.273-.603.438 1.205 1.205 3.286 2.08 2.3 3.066l2.684-.273c.11.876-.22 2.026.054 2.573h.22c.273-.547-.055-1.697.054-2.573l2.683.273c-1.095-1.04.986-1.861 2.191-3.066"/><path fill="#aa0e21" d="M22.07 11.61c-.165-.165-.549-.165-.603-.438-.11-.712.219-1.096.438-1.588-1.04.219-1.862.657-1.862-.548-.602.712-1.26 1.479-1.479 1.314-.383-.219.384-2.08.438-3.066-.383.164-1.04.547-1.04.547s-.438-1.26-.986-1.862v11.007h.11c.274-.547-.055-1.697.055-2.573l2.683.273c-1.04-1.04 1.04-1.861 2.245-3.066"/></svg>