<svg xmlns="http://www.w3.org/2000/svg" width="34" height="23" fill="none" viewBox="0 0 34 23"><path fill="#fff" d="M23 0H10.952v23H23z"/><path fill="#e97e24" d="M10.952 0H3.286C1.479 0 0 1.314 0 3.176v16.648C0 21.686 1.479 23 3.286 23h7.666z"/><path fill="#14b36f" d="M30.667 0H23v23h7.667c1.807 0 3.285-1.314 3.285-3.176V3.176C33.952 1.314 32.474 0 30.667 0"/><path fill="#089957" d="M30.667 0H23v16.483L30.557 23c1.807 0 3.395-1.314 3.395-3.176V3.176C33.952 1.314 32.474 0 30.667 0"/><path fill="#e9f3f4" d="M23 16.483V0H10.952v6.517z"/><path fill="#e26b13" d="M10.952 0H3.286l7.666 6.517z"/><path fill="#038242" d="M23 23h7.667c1.807 0 3.285-1.095 3.285-3.286H23z"/><path fill="#d3e9ea" d="M23 19.714H10.952V23H23z"/><path fill="#d15400" d="M0 19.714C0 21.904 1.479 23 3.286 23h7.666v-3.286z"/><path fill="#038242" d="M30.667 0H23v5.805L33.952 9.2V3.176C33.952 1.314 32.474 0 30.667 0"/><path fill="#d3e9ea" d="M23 5.805V0H10.952v2.245z"/><path fill="#d15400" d="M10.952 0H3.286l7.666 2.245z"/></svg>