<svg xmlns="http://www.w3.org/2000/svg" width="35" height="23" fill="none" viewBox="0 0 35 23"><path fill="#162b74" d="M0 3a3 3 0 0 1 3-3h29a3 3 0 0 1 3 3v17a3 3 0 0 1-3 3H3a3 3 0 0 1-3-3z"/><mask id="a" width="35" height="23" x="0" y="0" maskUnits="userSpaceOnUse" style="mask-type:alpha"><path fill="#162b74" d="M0 3a3 3 0 0 1 3-3h29a3 3 0 0 1 3 3v17a3 3 0 0 1-3 3H3a3 3 0 0 1-3-3z"/></mask><g mask="url(#a)"><path fill="#fff" d="M17.25.001h-2.074l-6.55 4.368L2.071.001H0v1.383L6.551 5.75 0 10.118V11.5h2.072l6.553-4.368 6.551 4.368h2.074v-1.382l-6.553-4.367 6.553-4.367z"/><path fill="#cb152b" d="M0 .001v.691l8.625 5.75v-.691zM17.25 10.81 8.625 5.06v.691l8.625 5.75z"/><path fill="#cb152b" d="M0 11.5h1.036l7.59-5.058v-.691zM16.214.001l-7.589 5.06v.69l8.623-5.75z"/><path fill="#cb152b" d="M17.25 4.744H9.344V.001H7.906v4.743H0v2.013h7.906V11.5h1.438V6.757h7.906z"/><path fill="#fff" d="M7.33.001v4.168H0v.575h7.906V.001zM0 7.332h7.33V11.5h.576V6.757H0zM17.25 6.757H9.344V11.5h.575V7.332h7.331zM17.25 4.169H9.919V0h-.575v4.743h7.906z"/><path fill="#cb152b" d="M32.133 8.155q-.002-.01-.014-.011h-.72l-.223-.686c-.004-.012-.023-.012-.028 0l-.223.686h-.721a.02.02 0 0 0-.014.01q-.003.01.006.016l.582.424-.222.687q-.003.009.004.015.009.008.018 0l.584-.423.583.424.01.003.008-.004a.03.03 0 0 0 .005-.015l-.223-.687.584-.424q.007-.007.004-.015"/><path fill="#fff" d="M32.723 7.962q-.003-.01-.013-.01h-1.173l-.36-1.115c-.004-.012-.024-.012-.028 0l-.363 1.114h-1.172q-.01.001-.014.011-.003.009.006.016l.947.69-.363 1.115q-.002.009.006.016.004.003.008.002.005 0 .01-.002l.95-.69.948.69.008.002q.014-.001.016-.014l-.004-.01-.36-1.11.949-.689q.004-.006.002-.016m-.594.208-.584.424.223.687a.02.02 0 0 1-.006.015q-.004.004-.008.003l-.01-.003-.582-.423-.584.423q-.009.006-.018 0-.007-.007-.004-.015l.222-.687-.582-.424q-.01-.006-.007-.016.006-.009.014-.01h.721l.224-.686c.004-.012.024-.012.028 0l.222.685h.721q.012.002.013.011a.02.02 0 0 1-.003.016"/><path fill="#cb152b" d="m26.563 4.658-.27.826q0 .009.006.016a.02.02 0 0 0 .018 0l.701-.51.704.51q.003.002.008.002.004 0 .008-.002.009-.007.006-.016l-.27-.826.703-.51q.008-.007.006-.016-.004-.01-.014-.011h-.87l-.267-.825c-.003-.012-.023-.012-.027 0l-.268.825h-.867q-.012.001-.014.01-.003.01.004.017z"/><path fill="#fff" d="M28.773 3.94q-.004-.01-.014-.01H27.44l-.408-1.254c-.003-.011-.023-.011-.028 0l-.408 1.253H25.28q-.012.001-.014.011t.004.016l1.068.776-.408 1.254q-.003.009.006.016c.004.004.012.004.016 0l1.067-.775 1.068.775.008.003h.002q.013-.002.014-.015l-.004-.009-.406-1.25 1.068-.775a.03.03 0 0 0 .005-.016m-.596.208-.703.51.27.826q.002.009-.007.016l-.008.003-.008-.003-.703-.51-.701.51a.02.02 0 0 1-.018 0 .02.02 0 0 1-.006-.016l.27-.826-.704-.51q-.007-.006-.004-.016.003-.009.014-.01h.868l.267-.825c.004-.012.024-.012.028 0l.267.825h.87q.01.001.014.01.002.009-.006.016"/><path fill="#cb152b" d="m22.24 9.468-.27-.824c-.003-.012-.023-.012-.027 0l-.268.824h-.867q-.01.001-.014.01-.003.01.006.016l.701.51-.267.827a.02.02 0 0 0 .004.016.02.02 0 0 0 .018 0l.701-.51.703.51.008.002q.005 0 .008-.002.009-.006.006-.016l-.267-.826.7-.51q.01-.007.007-.016-.004-.01-.014-.011z"/><path fill="#fff" d="M23.712 9.287q-.004-.009-.014-.01H22.38l-.408-1.254c-.004-.012-.024-.012-.028 0l-.406 1.254h-1.32q-.01.001-.013.01t.004.016l1.068.776-.408 1.254q-.002.009.006.016a.02.02 0 0 0 .018 0l1.065-.776 1.068.776.008.003h.002q.013-.002.014-.015 0-.005-.002-.009l-.408-1.25 1.067-.775q.009-.006.006-.016m-.596.208-.701.51.267.826q.003.01-.006.016-.003.003-.008.003l-.008-.003-.703-.51-.701.51a.02.02 0 0 1-.018 0q-.007-.007-.004-.016l.267-.826-.701-.51q-.009-.007-.006-.016.004-.01.014-.011h.867l.268-.824c.003-.012.023-.012.028 0l.269.824h.868q.01.001.014.01.003.01-.006.017"/><path fill="#cb152b" d="M27.313 17.003 27 16.04c-.003-.012-.023-.012-.027 0l-.313.963h-1.014q-.01.001-.014.011-.003.01.006.016l.82.597-.315.964q0 .009.006.016a.02.02 0 0 0 .018 0l.82-.596.82.596.01.003.008-.003a.03.03 0 0 0 .006-.016l-.315-.964.822-.597q.006-.007.004-.016-.003-.01-.014-.01z"/><path fill="#fff" d="M28.932 16.822q-.002-.01-.014-.01h-1.464L27 15.418c-.004-.012-.023-.012-.028 0l-.451 1.392h-1.466a.02.02 0 0 0-.014.011q-.003.009.006.016l1.185.862-.454 1.393q-.002.009.006.016.009.006.018 0l1.185-.862 1.186.862q.003.003.008.003c.008 0 .016-.007.016-.015l-.004-.009-.452-1.388 1.187-.862q.007-.007.004-.016m-.594.208-.823.597.315.964a.02.02 0 0 1-.006.016q-.004.004-.008.003l-.01-.003-.82-.596-.82.596q-.009.006-.018 0a.03.03 0 0 1-.006-.016l.315-.964-.82-.597a.013.013 0 0 1-.006-.016q.004-.01.014-.01h1.014l.313-.964c.004-.012.024-.012.028 0l.313.963h1.014q.012.001.014.011.003.01-.004.016"/></g><path fill="#000" d="M31.557 23c1.807 0 3.395-1.314 3.395-3.176v-4.49H22.576zM31.667 0H4.286l9.09 7.667h21.576v-4.49C34.952 1.313 33.474 0 31.667 0M22.631 15.333h12.322V7.667H13.322z" opacity=".14"/><path fill="#000" d="M31.667 0H4.286L29.64 7.667h5.312v-4.49C34.952 1.313 33.474 0 31.667 0" opacity=".14"/><path fill="#000" d="M34.952 9.2V7.667h-5.585z" style="mix-blend-mode:difference"/><path fill="#12235d" d="M35 20.05c0 1.8-1.524 2.95-3.387 2.95H3.387C1.524 23 0 21.7 0 20"/></svg>