<svg xmlns="http://www.w3.org/2000/svg" width="1518" height="1312" fill="none" viewBox="0 0 1518 1312"><path d="M0 0h1518v1312H0z"/><mask id="b" width="1518" height="1265" x="0" y="0" maskUnits="userSpaceOnUse" style="mask-type:alpha"><path fill="url(#a)" d="M0 0h1518v1265H0z"/></mask><g fill="#fffcee" mask="url(#b)" opacity=".11"><path d="M205.255 1097.61c-1.823-125.586 75.226-196.612 113.979-216.427-211.545 8.535-61.548-345.978 39.893-524.301C37.251 666.586 16.051 927.924 45.685 1019.88c4.56-17.07 23.936-30.482 33.054-35.055 22.796 104.865 93.842 118.885 126.516 112.785M476.525 824.791c40.12-84.133 129.176-129.552 168.688-141.745C511.174 569.65 778.568 263.909 929.02 125.213 576.142 270.31 412.697 551.462 375.084 673.901c12.766-13.412 39.512-18.798 51.29-19.814-63.828 136.563 6.839 170.703 50.151 170.704M829.859 696.764c34.649 51.211 114.738-28.45 150.452-74.682 6.382 30.482 20.139 34.038 26.219 32.005C1077.65 337.066 1343.14 97.27 1467 17c-356.53 120.711-586.991 414.057-657.657 545.64 11.853-14.631 34.573-14.225 44.451-12.193-22.416 27.435-58.585 95.106-23.935 146.317M1317.69 356.943v-.061zc.76 9.904-80.39 513.548-337.379 502.904 20.519 49.788 45.359 163.383-19.377 219.473 10.258 35.57 55.396 78.34 153.876-35.05 3.6 12.54 6.32 41.13-9.82 59.64-.92.97-1.82 1.92-2.72 2.85.96-.92 1.86-1.87 2.72-2.85 89.54-94.75 253.3-371.624 212.7-746.967M773.947 810.919c-24.77 7.483-67.2 43.857-85.319 61.108 39.772-24.626 126.449-64.353 154.983-26.255 28.535 38.1 16.542 96.26 6.98 120.578 10.223-1.312 31.824 2.047 36.447 25.975 4.623 23.925-18.066 67.015-29.989 85.575l56.55 37.86c68.427 242.49-102.753 412.08-196.896 466.57 46.03-32.09 88.079-238.74-93.862-257.63-181.942-18.89-298.398 211.11-312.778 230.98-14.382 19.87-224.254-6.06-20.718-357.9 162.829-281.468 390.914-375.186 484.602-386.861m-81.609 268.801c-47.726 12.31-107.79 65.61-134.732 100.89 76.977-24.63 119.978-10.26 134.732 0-13.856-40.02-5.774-77.16 0-100.89"/></g><defs><linearGradient id="a" x1="759" x2="759" y1="0" y2="743.978" gradientUnits="userSpaceOnUse"><stop stop-color="#cf8300"/><stop offset="1" stop-color="#f7c914"/></linearGradient></defs></svg>