<svg xmlns="http://www.w3.org/2000/svg" width="173" height="64" fill="none" viewBox="0 0 173 64"><path fill="#aed141" d="M107.484 44.13c-.074-5.129 3.072-8.03 4.655-8.839-8.639.349-2.514-14.129 1.629-21.411-13.145 12.648-14.01 23.32-12.8 27.075.186-.697.977-1.244 1.349-1.431.931 4.282 3.833 4.855 5.167 4.606M118.562 32.988c1.638-3.435 5.275-5.29 6.889-5.788-5.474-4.63 5.446-17.117 11.59-22.78-14.411 5.925-21.086 17.406-22.622 22.406.522-.547 1.614-.767 2.095-.809-2.607 5.577.279 6.971 2.048 6.971M132.991 27.76c1.415 2.092 4.686-1.162 6.144-3.05.261 1.245.823 1.39 1.071 1.307C143.11 13.071 153.952 3.278 159.01 0c-14.559 4.93-23.971 16.91-26.857 22.283.484-.598 1.412-.581 1.816-.498-.916 1.12-2.393 3.884-.978 5.975M152.913 13.88c.046.311-3.258 20.976-13.778 20.54.838 2.033 1.853 6.672-.791 8.963.419 1.452 2.262 3.2 6.284-1.432.147.513.258 1.68-.401 2.436 3.657-3.87 10.345-15.178 8.686-30.507M130.703 32.422c-1.012.305-2.745 1.79-3.485 2.495 1.624-1.005 5.164-2.628 6.329-1.072s.676 3.931.285 4.924c.418-.053 1.3.084 1.489 1.061s-.738 2.737-1.225 3.495l2.31 1.546c2.794 9.902-4.197 16.828-8.041 19.053 1.88-1.31 3.597-9.75-3.833-10.52-7.43-.772-12.186 8.62-12.773 9.432-.588.811-9.158-.247-.846-14.616 6.649-11.494 15.964-15.321 19.79-15.798m-3.335 10.977c-1.949.503-4.402 2.68-5.503 4.12 3.144-1.006 4.9-.419 5.503 0-.566-1.634-.236-3.15 0-4.12"/><path fill="#fbfffc" d="M91.93 57.078h7.687a.5.5 0 0 1 .366.154.5.5 0 0 1 .154.366v2.717a.5.5 0 0 1-.154.366.5.5 0 0 1-.366.154H87.44a.5.5 0 0 1-.366-.154.5.5 0 0 1-.154-.366V47.868a.5.5 0 0 1 .154-.366.5.5 0 0 1 .366-.154h11.984a.5.5 0 0 1 .366.154.5.5 0 0 1 .155.366v2.717a.5.5 0 0 1-.154.366.5.5 0 0 1-.367.154H91.93v1.214h6.435a.5.5 0 0 1 .366.154.5.5 0 0 1 .154.366v2.505a.5.5 0 0 1-.154.366.5.5 0 0 1-.366.154H91.93zM75.94 56.885h6.57a.5.5 0 0 1 .366.154.5.5 0 0 1 .154.367v2.909a.5.5 0 0 1-.154.366.5.5 0 0 1-.366.154H71.258a.5.5 0 0 1-.366-.154.5.5 0 0 1-.154-.366V47.868a.5.5 0 0 1 .154-.366.5.5 0 0 1 .366-.154h4.162a.5.5 0 0 1 .366.154.5.5 0 0 1 .154.366zM60.435 52.706h5.587a.5.5 0 0 1 .366.154.5.5 0 0 1 .155.366v2.042q0 2.929-2.004 4.355-1.985 1.406-5.26 1.406t-5.28-1.406q-1.983-1.426-1.984-4.393v-2.274q0-1.483.559-2.62a4.8 4.8 0 0 1 1.6-1.83q2.003-1.35 5.105-1.35 1.54 0 2.813.367 1.29.346 2.042.886.77.52 1.31 1.137.945 1.08.944 1.907a.42.42 0 0 1-.134.309.4.4 0 0 1-.29.115H61.61q-.385 0-.559-.212-.597-.75-1.637-.751-1.021 0-1.619.404-.578.405-.578 1.04v3.276q0 .771.578 1.214.579.424 1.619.424 1.06 0 1.618-.405.579-.423.598-.982h-1.195a.5.5 0 0 1-.366-.154.5.5 0 0 1-.154-.367v-2.138a.5.5 0 0 1 .154-.366.5.5 0 0 1 .366-.154M44.393 47.348h3.583a.5.5 0 0 1 .367.154.5.5 0 0 1 .154.366v12.447a.5.5 0 0 1-.154.366.5.5 0 0 1-.367.154h-3.102q-.462 0-.77-.405l-4.2-5.356v5.24a.5.5 0 0 1-.155.367.5.5 0 0 1-.366.154H35.8a.5.5 0 0 1-.366-.154.5.5 0 0 1-.155-.366V47.868a.5.5 0 0 1 .155-.366.5.5 0 0 1 .366-.154h3.12q.465 0 .752.385l4.2 5.8v-5.665a.5.5 0 0 1 .155-.366.5.5 0 0 1 .366-.154M29.923 59.621q-1.887 1.407-5.125 1.407-3.236 0-5.144-1.407-1.888-1.406-1.888-4.393v-7.36a.5.5 0 0 1 .154-.366.5.5 0 0 1 .366-.154h4.027a.5.5 0 0 1 .366.154.5.5 0 0 1 .154.366v7.669q0 .789.52 1.213.54.424 1.445.424.907 0 1.426-.424.54-.423.54-1.213v-7.669a.5.5 0 0 1 .154-.366.5.5 0 0 1 .366-.154h4.027a.5.5 0 0 1 .366.154.5.5 0 0 1 .154.366v7.36q0 2.987-1.908 4.393M14.277 47.868v7.36q0 2.929-1.927 4.374-1.927 1.426-5.144 1.426-1.753 0-3.18-.443-1.425-.463-2.273-1.195Q0 57.867 0 56.115q0-.174.116-.29a.42.42 0 0 1 .308-.134h4.354q.347 0 .482.424.365 1.156 1.85 1.156.905 0 1.425-.424.54-.424.54-1.214v-4.335H2.042a.5.5 0 0 1-.366-.154.5.5 0 0 1-.154-.366v-2.91a.5.5 0 0 1 .154-.366.5.5 0 0 1 .366-.154h11.715a.5.5 0 0 1 .366.154.5.5 0 0 1 .154.366"/><path fill="#aed141" d="M160.226 47.356h12.254a.5.5 0 0 1 .366.154.5.5 0 0 1 .154.366v2.928a.5.5 0 0 1-.154.366.5.5 0 0 1-.366.154h-7.572v1.234h6.32q.212 0 .366.154a.5.5 0 0 1 .154.366v2.91a.5.5 0 0 1-.154.365.5.5 0 0 1-.366.154h-6.32v3.815a.5.5 0 0 1-.154.366.5.5 0 0 1-.366.154h-4.162a.5.5 0 0 1-.366-.154.5.5 0 0 1-.154-.366V47.876a.5.5 0 0 1 .154-.366.5.5 0 0 1 .366-.154M143.083 47.356h12.254a.5.5 0 0 1 .366.154.5.5 0 0 1 .154.366v2.928a.5.5 0 0 1-.154.366.5.5 0 0 1-.366.154h-7.572v1.234h6.32q.211 0 .366.154a.5.5 0 0 1 .154.366v2.91a.5.5 0 0 1-.154.365.5.5 0 0 1-.366.154h-6.32v3.815a.5.5 0 0 1-.154.366.5.5 0 0 1-.366.154h-4.162a.5.5 0 0 1-.366-.154.5.5 0 0 1-.154-.366V47.876a.5.5 0 0 1 .154-.366.5.5 0 0 1 .366-.154"/></svg>