<svg xmlns="http://www.w3.org/2000/svg" width="231" height="86" fill="none" viewBox="0 0 231 86"><path fill="#fffcee" d="M143.519 58.922c-.099-6.848 4.102-10.72 6.215-11.801-11.535.465-3.356-18.865 2.175-28.588-17.551 16.887-18.707 31.136-17.091 36.15.249-.93 1.305-1.662 1.803-1.91 1.243 5.717 5.117 6.481 6.898 6.149M158.311 44.046c2.187-4.587 7.043-7.064 9.198-7.729-7.309-6.183 7.271-22.854 15.475-30.417-19.242 7.912-28.154 23.242-30.205 29.919.696-.732 2.155-1.026 2.797-1.08-3.48 7.445.373 9.307 2.735 9.307M177.577 37.065c1.889 2.793 6.256-1.551 8.203-4.072.348 1.662 1.098 1.856 1.43 1.745C191.088 17.452 205.564 4.377 212.318 0c-19.44 6.582-32.007 22.577-35.86 29.752.646-.798 1.885-.776 2.424-.665-1.223 1.496-3.195 5.186-1.305 7.978M204.176 18.533c.062.415-4.35 28.006-18.396 27.425 1.119 2.714 2.474 8.908-1.056 11.967.559 1.939 3.02 4.271 8.39-1.912.197.684.345 2.243-.536 3.253 4.883-5.167 13.813-20.266 11.598-40.733M174.515 43.29c-1.35.408-3.664 2.39-4.652 3.332 2.169-1.343 6.895-3.51 8.451-1.432s.902 5.249.381 6.575c.557-.072 1.735.111 1.987 1.416s-.985 3.654-1.635 4.666l3.083 2.064c3.731 13.222-5.603 22.47-10.736 25.44 2.51-1.749 4.803-13.017-5.118-14.047s-16.27 11.51-17.055 12.594c-.784 1.084-12.227-.33-1.129-19.514 8.878-15.348 21.315-20.458 26.423-21.094m-4.452 14.656c-2.603.672-5.878 3.578-7.347 5.502 4.197-1.343 6.542-.56 7.347 0-.756-2.183-.315-4.208 0-5.502M122.752 76.21h10.265q.282.001.488.206.206.206.206.49v3.626a.67.67 0 0 1-.206.49.67.67 0 0 1-.488.205h-16.259a.67.67 0 0 1-.489-.206.67.67 0 0 1-.206-.489V63.914q0-.284.206-.489a.67.67 0 0 1 .489-.206h16.001q.283 0 .489.206t.206.489v3.627a.67.67 0 0 1-.206.489.67.67 0 0 1-.489.206h-10.007v1.62h8.592q.284 0 .489.206.206.205.206.489v3.344a.67.67 0 0 1-.206.489.67.67 0 0 1-.489.206h-8.592zM101.398 75.953h8.772q.284 0 .489.206t.206.489v3.884a.67.67 0 0 1-.206.49.67.67 0 0 1-.489.205H95.147a.67.67 0 0 1-.49-.206.67.67 0 0 1-.205-.489V63.914q0-.284.206-.489a.67.67 0 0 1 .489-.206h5.556q.284 0 .489.206t.206.489zM80.695 70.372h7.46q.284 0 .489.206t.206.489v2.727q0 3.91-2.676 5.814-2.65 1.878-7.023 1.878t-7.049-1.878q-2.65-1.905-2.65-5.866v-3.035q.001-1.98.746-3.499a6.4 6.4 0 0 1 2.136-2.444q2.675-1.8 6.817-1.8 2.058 0 3.756.488 1.724.463 2.727 1.183 1.029.696 1.75 1.518 1.26 1.44 1.26 2.547 0 .231-.18.412a.52.52 0 0 1-.386.154h-5.814q-.515 0-.746-.283-.797-1.003-2.187-1.003-1.364 0-2.16.54-.774.54-.773 1.39v4.373q0 1.029.772 1.62.772.566 2.161.566 1.415 0 2.161-.54.771-.566.797-1.312h-1.594a.67.67 0 0 1-.49-.206.67.67 0 0 1-.205-.489v-2.855q0-.284.206-.489a.67.67 0 0 1 .489-.206M59.276 63.22h4.785q.283 0 .49.205.204.206.205.489v16.618a.67.67 0 0 1-.206.49.67.67 0 0 1-.489.205H59.92q-.617 0-1.028-.54l-5.609-7.152v6.997a.67.67 0 0 1-.205.49.67.67 0 0 1-.49.205h-4.784a.67.67 0 0 1-.489-.206.67.67 0 0 1-.206-.489V63.914q0-.284.206-.489a.67.67 0 0 1 .489-.206h4.167q.618 0 1.004.515l5.608 7.743v-7.563q0-.284.206-.489a.67.67 0 0 1 .488-.206M39.955 79.606q-2.522 1.878-6.843 1.878-4.322 0-6.87-1.878-2.52-1.878-2.52-5.865v-9.827q0-.284.205-.489a.67.67 0 0 1 .49-.206h5.376q.284 0 .489.206t.206.489v10.239q0 1.054.694 1.62.72.566 1.93.566t1.903-.566q.72-.566.72-1.62v-10.24q.001-.282.206-.488a.67.67 0 0 1 .49-.206h5.376q.282 0 .488.206t.206.489v9.827q0 3.987-2.546 5.865M19.063 63.914v9.827q0 3.91-2.573 5.84-2.572 1.903-6.869 1.903-2.34 0-4.244-.591-1.904-.618-3.036-1.595Q.001 77.265 0 74.924q0-.231.154-.386.18-.18.412-.18H6.38q.463 0 .643.566.49 1.544 2.47 1.544 1.209 0 1.903-.566.72-.566.72-1.62v-5.79h-9.39a.67.67 0 0 1-.488-.205.67.67 0 0 1-.206-.489v-3.884q0-.284.206-.489a.67.67 0 0 1 .489-.206h15.641q.283 0 .489.206t.206.489M213.936 63.229h16.361q.283 0 .489.205.206.206.206.49v3.91a.67.67 0 0 1-.206.488.67.67 0 0 1-.489.206h-10.11v1.646h8.438q.283 0 .489.206.205.206.205.489v3.885a.67.67 0 0 1-.205.488.67.67 0 0 1-.489.206h-8.438v5.094a.67.67 0 0 1-.206.488.67.67 0 0 1-.489.206h-5.556a.67.67 0 0 1-.489-.206.67.67 0 0 1-.206-.488V63.923q0-.284.206-.489a.67.67 0 0 1 .489-.206M191.042 63.229h16.362q.284 0 .489.205.206.206.206.49v3.91a.67.67 0 0 1-.206.488.67.67 0 0 1-.489.206h-10.11v1.646h8.438a.67.67 0 0 1 .489.206q.205.206.205.489v3.885a.67.67 0 0 1-.205.488.67.67 0 0 1-.489.206h-8.438v5.094a.67.67 0 0 1-.206.488.67.67 0 0 1-.489.206h-5.557a.67.67 0 0 1-.488-.206.67.67 0 0 1-.206-.488V63.923q0-.284.206-.489a.67.67 0 0 1 .488-.206"/></svg>