<svg xmlns="http://www.w3.org/2000/svg" width="21" height="21" fill="none" viewBox="0 0 21 21"><path fill="#fffcee" d="M20.815 10.407C20.815 4.66 16.155 0 10.407 0S0 4.66 0 10.407c0 5.748 4.66 10.408 10.407 10.408 5.748 0 10.408-4.66 10.408-10.408"/><path fill="#bb2040" d="M15.087 6.217H5.725a.98.98 0 0 0-.808.427l4.68 3.319a1.4 1.4 0 0 0 1.617 0l4.68-3.319a.98.98 0 0 0-.807-.427"/><path fill="#bb2040" d="M11.618 10.534a2.1 2.1 0 0 1-2.427 0L4.744 7.38v6.236a.98.98 0 0 0 .98.98h9.362a.98.98 0 0 0 .98-.98V7.38z"/></svg>