<svg xmlns="http://www.w3.org/2000/svg" width="134" height="92" fill="none" viewBox="0 0 134 92"><path fill="#fffcee" d="M0 0h134v92H0z"/><mask id="a" width="134" height="92" x="0" y="0" maskUnits="userSpaceOnUse" style="mask-type:alpha"><path fill="#fffcee" d="M0 0h134v92H0z"/></mask><g mask="url(#a)"><path fill="#eee7cc" d="M57.447 21.738c-.234-.768-.775-.549-.085-1.675 1.189.23 1.77 1.012 2.586 1.801 1.242.369 5.278-3.433 6.193-4.49.591-.683 3.2-4.345 3.242-5.007.157-2.576-.217-4.903.934-7.446.123-.27.6-.373.82-.817.187-.368.663-2.923.479-3.055-.247.188-.832 1.353-1.216.652L72.317.555l-.37 2.52.55-.032c-.143-1.011 1.44-1.533 2.136-2.227.957-.954.531-1.852 1.543-2.437 1.225-.706.597.072 1.037.354.134.087.5-.125.666-.045.542.265 1.073.888 1.824.718 1.191-1.072 2.214-1.65 3.162-2.992.098-.137-.005-1.271.678-.159l1.679-1.29c.423.51.733.573 1.41.446l-.095.561c.9-.115 2.063.533 2.915.41.807-.119 1.186-1.14 1.513-1.156s.635 1.056 1.41.426c-.145-.517-.485-.866.285-.933-.08.837.228.974.95 1.27l-.44.413 1.415.002.055 1.115.745-.794.967.53c.517-.872 2.06-1.6 1.976-2.544l.575.394c.358-.27 1.421-.876 1.511-.038.03.28-2 1.089-1.309 2.236l1.777-.674c.534-1.067-.916.565-.671-.362.081-.305 1.206-1.825 1.455-2.373.194-.427.039-1.018.376-1.434 1.092-.13.153 1.949 1.477.686l-.544 1.008c.969-.566 2.007.584 2.642.577.636-.007 3.02-1.147 2.295-2.06l.754.621c.316.214-.014-1.175.619-.75.519.348-.32 1.62-.526 2l1.156.075.127 1.373c.434-.508 1.525-.782 1.865-1.057.674-.549 1.892-2.54 2.756-3.117.576-.383 2.017-.137 2.365-1.324l-.379 1.103c.76.406 1.409-.319 2.118-.498l-.493-.697 1.814-.546-.801 1.086 1.531.396-.236-.783.858.025-.712-.491c.38-1.123.993-.12 1.751.176l-.711.35.368.45-.718.373.787.75-1.099 1.041c-.155-.676.49-1.125-.335-1.594-1.338 1.15-.676.759-.647 1.42.048 1.121-1.063.725-1.096.797-.037.093.324.565.094.856-.272.34-1.44.578-1.48 1.122l.931.287.166.514-.997 1.868.25 1.328-.619-.662c-.454.987-.256 1.73-.462 2.676 1.245-.27.489.7-.292.952l.496.696c-1.169-.218-.613.64-1.394.992l1.085.799c-.687.138-1.154.44-1.36 1.123-.029.46 1.07.08.685 1.344l1.559-.463-.839.961 1.073-.184-.205 1.193 1.48-.724c.017.273-2.394 2.379-1.936 1.283l-.506.013.208 1.636c.494-.387.759-.07.75-.796l.545.406.102-.595c.143.513.536.256.796.744.367.692-.59-.012-.415.732-.962.164-1.041 1.58-.79 2.488l1.14.342-.176-1.51 1.709-.935-.671-.073-.339-.465 1.065-1.17-1.374.133 2.699-1.383-.107.594 2.601-.777.103.813c.727-.663.819-2.601 1.975-1.444l-.272.368.348-.105c.337.27-.912 1.944-1.014 1.998-.628.336-1.445.137-1.794.324-.31.167-.354.781-.638.94-.37.205-1.283-.362-1.797.011l.313 1.042-.781.23-.368-.734-1.084.61c1.463.84 1.083 3.4-.439 1.83-.268.786-1.416 1.228-1.228 2.061l-.559.027-.01-.984c-1.608.977-2.191 1.272-1.295 3.222l-1.61-.647.809.757-1.019 1.849-.696-.919c-.098 1.325-.008 1.181 1.059 1.657l-1.218.653-.438-.996-1.457 1.294c1.667 1.59-1.569 2.068-1.726 2.554l.086 1.304.494-.12-.804 1.086 1.077-.18c-.412.516-.806.702-.428 1.405l-.577-.036-.559-.47-.457.844.672.358c-.07.512-2.557 2-3.15 2.232-.634.248-1.956.292-2.124.393-.336.203-.184 1.436-1.146 1.44l1.27.462-.963.57c-.469.18-.574-.695-.852-.835-.05-.025-.6.379-1.11.258-.51-.122-.619-.577-.672-.595-.273-.096-.99 1.375-1.944.804-.066-.04.066-.647-.413-.675l-.827.53.106-.588-1.12.02-.436-.998-1.174.374.468-1.27c-.83.698-2.379.64-3.082 1.271-.973.874-.414 3.11-2.69.745l-.803 1.089c-.921.379.153-.97-.753-.627-.807.305-1.886.8-2.7 1.164-.393.175-.901.832-1.21.843-.23.01-.883-.958-1.733-.436l-.174-.662-1.35.273c-.608-.14.083-1.264-.646-.803-.565.357-.63 1.309-.958 1.603-1.347 1.213-2.782.996-3.736 1.481-.123.063-.633 1.9-1.313 2.4-1.263-1.38-.374.557-.494.715l-.853-.03c.04.312.12.812-.025 1.08-.36.664-1.196.16-.499 1.354l-1.114.613.543.928c-.943.457-.818 1.598-1.263 2.293-.152.239-2.674 2.203-3.016 1.302.985-.645.893-2.403 1.216-3.484-.847.567-1.469-.332-1.554-.343-.243-.034-.674.906-.795.061.75-.821.472-1.613.654-2.479.153-.734.902-1.787.263-2.47-.157 1.194-1.101 1.419-1.962 1.998.773 1.267-.686 2.157-1.216 3.475-.487 1.21-.906 3.113-1.474 4.324-.885 1.885-1.38 1.118-2.634 1.734-.625.307-.58 1.246-1.46 1.292l.467-1.268-1.1.606-.357-.737c-.925.046-.103.666-.446.996-.595.576-1.286.1-1.445.259-.324.316-.198 1.414-.935 1.582l.67.073.331.468-1.133.916c.083.454.654.044.95.454.256.35.283.966.451 1.386l-.65-1.219-1.298 1.8-.334-.611.596-.874c-1.502.191-2.155 2.27-2.515 3.543-.16.567-.166 2.142-.288 2.34s-2.975.74-1.404 2.73c-.582.572-1.275.37-1.934.582s-1.332 1.225-1.52.188l-1.4 2.4.078-1.152c-.27-.097-1.356 1.156-1.534 1.468-.292.51.303 1.45-1.172 1.382-.437-.02-.574-.446-.654-.41-.854.364-1.747 2.03-2.649 2.058l.868-1.817-.774.02c.152.448-.913 1.176-1.151 1.12-.089-.021-.055-1.576-1.172-.52l-2.8 3.938c-1.784 1.413-7.2 8.34-7.361 10.18-.024.28.374.593.33.722-.045.133-1.052.583-1.078 1.07l.596.098c-.178 1.236-1.168 1.976-1.807 2.962-.241.368-.803 1.092-.842 1.16-.153.273.076 1.222.117 1.604l-.928-.288c.293.966-.723 1.065-1.045 1.457-.22.267-.185.637-.438.9-.494.514-1.113.936-1.638 1.414-.175-.843-.186-1.786.83-1.953l-1.003-1.983-1.076-.215 2.116-.484c.759-.852.115-2.766.267-3.022.027-.045.447.09.598-.208.52-1.022-.26-1.852-.878-.603l-.367-2.152c-1.036.176-.372 1.515-1.243 1.486l-.289-.46c-.357.555-.683 3.025-1.585 2.738l-.535-1.239c-1.739.43-.659 2.56-2.244 2.359l.235.78.96-.57c.663 1.036-.135 1.6-.073 2.567l1.077-.18-.469.29.147.516.812-.102-.362 1.463 1.324.792c-.407 1.758-1.791 3.442-3.161 4.568-1.453 1.194-4.518 2.785-5.636 4.202-.428.54-1.248 3.204-1.889 4.21-1.347 2.109-3.69 3.707-5.254 5.884-1.327 1.848-3.083 4.012-4.269 5.76-1.113 1.642-2.143 5.013-3.287 6.505-.212.276-2.136 1.964-2.345 2.013l-.428-.461c-.238.556-2.45 2.231-1.844 2.822l.811-.102-1.888 3.119.595.102c-.034.772-1.134.922-1.297 1.164-.076.113-.607 2.373-.59 2.572.045.477.572 1.268.588 1.924.012.503-.318 2.929-.51 3.384-.59 1.385-1.485 1.133-2.14 1.897-.484.565-.18 1.216-.292 1.465-.028.06-.412-.02-.489.102-.15.233-.1.589-.264.76-.928.968-1.939 1.49-3.135 2.066l.024-.852c-.383-.171-1.62 1.975-1.246 2.492 1.314.03.676 1.03-.334.256a99 99 0 0 1-1.287 3.109c-.924 2.12-.632 2.035-1.113 4.082-.617 2.623-2.228 5.803-3.051 8.599-.047.156.073 1.081-.487.708-.238-.161.376-5.156.486-5.722.248-1.268.99-2.724 1.233-4.126.133-.749-.052-2.266.065-2.585s.615-.395.716-.587c.489-.929 1.974-6.206 2.162-7.277.097-.562-.426-1.944-.074-2.977.156-.46 1.036-.768 1.248-1.563s-.823.424-.675-.358c.051-.253.728-.352.252-1.067l.41.44.743-.255c-.166-1.304.994-2.158 1.62-3.166.177-.282-.002-.708.103-.912.195-.379 1.147-.958 1.637-.864l-.313-1.04-1.06 1.17c-.192-.49-.294-2.429.213-2.564 1.058.642 1.033-.051 1.63-.44.19-.125.625.022.642-.006.075-.13.02-2.268.242-2.973.135-.428.796-1.123.947-1.557.23-.673-.034-2.249.771-2.777 1.291-.845.935-1.435 1.713-2.608.178-.266.611-.155.627-.188.113-.284-.044-3.47.045-4.22.475-4 3.97-10.029 5.63-13.737.981-2.195 2.36-7.437 4.123-8.871.205-.167.649-.011.758-.138.06-.072.288-1.362.5-1.814.483-1.024 2.401-4.994 2.999-5.57.224-.216.44-.311.74-.365l.372.744c2.568-1.255 3.354-3.994 4.839-6.107.323-.46 1.227-1.093 1.26-1.173.105-.253-.212-.931-.1-1.416.168-.71 2.06-2.652 2.41-3.341.171-.338.39-1.798.758-2.521 1.423-2.772 2.828-3.83 4.946-5.715 2.51-2.231 1.29-4.373 2.08-6.513 1.276-3.456 5.382-5.772 6.976-8.66.345-.626.206-1.304.514-1.683.345-.427 1.147-.606 1.664-1.065.828-.736 1.108-2.207 1.671-2.804.423-.45.945-.477 1.317-.816.51-.462 1.212-2.434 1.748-3.196.621-.884 1.263-1.259 1.94-2.001.883 1.206 1.486.876 2.847.594l.393.71c1.346-.113 3.259-2.378 4.033-3.498 1.82-2.631 4.013-7.852 5.399-10.822.244-.525-.265-1.267.928-1.56l-.076-.253c-.88.307-.933-.913-1.288-1.452l.485-.29.28.476.476-1.705-.81.108-.311-1.037 1.3.156.244-1.723.964-.358c-.364-.869.151-.834.758-1.323.151.088-.397 1.837-.479 2.205-.042.189-.333.316-.343.375-.083.516.86 1.377-.499 1.5l.544.93c-1.178.496-.142 1.797-1.4 1.876l.577.957c.897-.834 1.712-.932 1.268-2.363l-.736.363c1.454-1.435 2.216-2.367 2.946-4.296.409-1.081.052-2.802 1.805-2.516l-1.095 1.174.306.903.517-1.568.994.974-.396.542-.285-.478c-.14.3-.274.578-.491.836-.651.768-.753.025-.317 1.66 1.879.205 1.216-1.347 1.483-1.807.124-.21.725-.21.986-.34.135.448-.884.633-.465 1.272l2.138-1.355c-.478-.987-1.089-.208-1.673.084zm51.729 3.403c-.644-.404-1.024 2.939-.774 3.062l.73-.41.046-2.653z" opacity=".87"/></g><mask id="b" width="134" height="93" x="0" y="0" maskUnits="userSpaceOnUse" style="mask-type:alpha"><rect width="134" height="92" y=".001" fill="#fffcee" rx="4.63"/></mask><g fill="#282b29" mask="url(#b)" style="mix-blend-mode:luminosity"><path d="M51.775 125.304c-.143-.194-3.815 1.98-4.352 2.014-.373.025-1.558-.572-2.058-.752-.258-.093-.539.089-.446-.353l7.023-3.565.438-5.008-17.444-.809c-.877.032-.59 3.009-1.407 2.825-.224-.05-3.029-2.625-3.436-3.018-4.69-4.521-8.384-10.284-10.782-16.337l4.838 6.047-.803-8.57.198-1.71 2.222 9.072.302-.197c1.178-6.251 3.331-12.217 4.936-18.351-.288-.065-.496.068-.748.16-1.02.366-6.456 2.495-6.926 2.953-.869.847-.177 2.841-.192 3.942-.574.105-.328-.143-.451-.444-.28-.681-.476-1.415-.738-2.099-.07-.185.095-.379-.309-.268-1.117.31-3.13 3.353-3.98 4.29-.18.197-.183.43-.567.338-.808-1.996-.046-2.517 1.204-3.936 1.956-2.222 3.226-3.158 5.918-4.366 1.992-.893 5.485-1.776 7.138-2.742.962-.56 1.014-1.623 2.942-2.502 2.385-1.087 5.273-1.948 7.793-2.692l1.821-2.413c-1.474-.388-3.77-1.944-4.23-3.43-.21-.676.998.18 1.205-.196-2.201-2.097-1.988-4.757-.195-7.053 1.296-1.66 4.18-2.825 3.234-5.465-5.353-3.91-7.894-10.023-6.666-16.618-4.75-.926-15.697-3.706-17.982-8.334-2.254-4.567 3.257-6.692 6.586-8.005 4.7-1.853 9.708-2.966 14.37-4.885.651-1.473.426-4.102 1.46-5.296.216-.25.607-.352.815-.596.56-.66 2.744-10.806 3.278-12.651.422-1.458.928-3.797 1.98-4.876 1.474-1.512 8.927-5.583 10.97-5.764 2.445-.218 4.221 1.024 6.443 1.214 3.176.27 5.777-1.509 8.657-1.194 2.052.224 9.947 4.486 11.21 6.128 1.68 2.18 1.743 5.768 2.925 8.162 1.385-2.105 3.516-4.101 5.942-4.831.687 2.589.697 5.33-.194 7.86.069.086 1.809-.606 2.115-.606h2.924c-.284 2.642-2.397 4.96-4.432 6.554l3.42 2.016c-1.408 1.645-3.464 2.54-5.642 2.32-.131 1.834 1.248 2.015 2.63 2.513 4.28 1.545 15.205 4.182 18.018 7.186 3.637 3.89-1.47 7.538-4.709 9.163-3.881 1.95-8.273 2.984-12.489 3.944.075 2.048.26 3.847-.044 5.904-.583 3.928-2.333 6.686-5.112 9.406-.615.601-1.603.936-1.73 1.901-.325 2.448 2.248 3.334 3.543 4.949 1.984 2.474 1.71 4.93-.305 7.259l1.41-.303c-.956 1.708-2.42 2.934-4.236 3.634.012.419 1.635 2.19 2.034 2.401 2.37 1.262 7.142 1.942 9.253 3.652.544.441.643 1.16 1.274 1.548 1.714 1.063 5.441 1.946 7.542 2.944 2.937 1.394 4.738 3.454 6.819 5.888l-.305 2.214c-.736-.613-3.718-4.495-4.337-4.636-.718-.161-.8 2.581-1.506 2.821v-3.73L107.63 88.9l-2.414 3.948 1.384-4.342-4.61-1.907c1.581 6.192 3.87 12.2 4.842 18.548l2.621-9.071-.605 10.281 4.633-6.049c-2.867 7.57-7.849 14.365-14.215 19.353-.536-.036-.308-2.776-1.206-2.821l-17.042.809c.151 1.036.004 4.5.607 5.142l6.652 3.129c.087.46-.028.321-.256.446-.244.135-2.305.933-2.434.921-.6-.056-3.157-1.984-4.164-1.974v3.428l-1.61.403-.204-12.905 14.177-.844c.736-.222 2.375-4.572 2.83-5.453l-3.397-15.28.502 8.874-9.763-5.038-1.712 1.127 1.303 3.109c-4.067 3.303-8.354 6.4-11.907 10.277-.593.648-2.992 3.277-3.218 3.843-.32.797.367 2.057.48 2.934.286 2.23.216 4.491.224 6.735l5.641-4.839c.164.179-1.663 2.542-1.911 2.825-.948 1.08-2.121 1.919-3.113 2.949l2.605 3.096c-1.75-.206-7.237.81-8.465-.103-.316-.236-.417-.643-.708-.902l-.31.997-1.202.01c-.052-.621.077-1.315.006-1.922-.119-1.012-2.456-3.271-3.226-4.234a177 177 0 0 1-4.543-5.943l-.302 10.687-1.815-.504v-3.327zM53.388 8.958C57.6 7.284 60.334 3.034 58.83-1.523l-.704 3.831c-.879 2.706-2.732 4.732-4.738 6.652zm25.204 0c-1.838-1.948-3.796-3.954-4.58-6.608l-.66-3.671c-1.535 4.423 1.145 8.64 5.24 10.279m6.25 3.027c.227-1.503 1.144-1.958-.134-3.192-.272-.263-2.621-1.882-2.785-1.85-1.286 2.936-.417 8.227 3.321 8.671.168-.157-.484-1.58-.691-1.827-.583-.694-2.347-1.107-2.232-2.002l1.714.804-1.005-3.022 1.811 2.42zm2.624 4.032c2.5-2.198 3.755-5.934 4.634-9.071l-1.815 3.425-1.004-1.812c-.165 1.099.411 2.185.157 3.284-.268 1.164-2.066 2.716-1.972 4.174M50.765 8.758c-1.484.523-3.56 1.98-2.114 3.628l1.107-1.611-.802 2.216 1.411-.502c-.808 1.135-2.314 1.088-2.218 2.92 3.027-.571 3.424-4.14 2.618-6.653zm35.69 6.654c.427-1.702.719-4.002-.803-5.242-.4 1.859-.6 3.244.352 4.986.13.234-.008.339.45.256m-39.316-.201c1.035-1.132 1.145-2.61.803-4.033-1.234.837-1.103 2.726-.803 4.033m34.274-.605c-.197-1.992-1.931-2.492-3.625-2.823.083 1.555 1.123 3.075 2.82 3.022-.23-.637-1.465-1.07-1.31-1.81l2.117 1.61zm-26.412-2.62c-1.665-.096-3.307.648-3.627 2.418l1.915-1.208-1.109 1.611c1.799-.242 2.279-1.23 2.821-2.82m40.327.807c-1.516.559-3.069 1.446-4.42 2.333-.195.129-1.978 1.168-1.629 1.494 2.267-.607 4.323-2.293 6.047-3.827zm-48.997 3.023c-.053-1.073-.573-2.039-1.61-2.418-.084 1.022.593 2.131 1.61 2.418m23.996.405c.144-.823-.22-2.045-1.115-2.214-.625-.12-4.202-.117-4.829 0-1.27.238-1.417 2.688-.808 2.817.608.129.53-1.293.8-1.615.377-.45 3.795-.1 4.614-.172.47.155.316.789.33 1.184h1.01zm-10.686 1.212c1.633-.416 3.829-.037 2.494-2.408-4.85.299-9.695.762-14.431 1.863-1.523.353-5.202.793-5.003 2.759.575-.043.74-.571 1.297-.819s2.587-.73 3.242-.792c.216-.02.754-.144.702.197-1.067.31-2.414.662-2.821 1.815l5.644-.803c0 .305-.605.373-.853.456-2.033.674-4.366.988-6.203 2.065 1.68.09 3.493-.58 5.2-.849 4.308-.676 8.683-.982 13.046-1.067l.48-.316-.264-1.51-2.532-.59zm11.72.832-.189 1.13.293.423c1.45.107 2.96.103 4.403.234 1.444.131 5.803.988 6.753.296 1.184-.863.66-3.323-.335-3.891-.574-.329-3.555-.698-4.428-.815-2.226-.298-4.48-.486-6.726-.431.014 1.78.228 2.61 2.218 2.421-.182.64-1.768.357-1.988.631zm-3.63-1.268c.207-1.042-1.811-.974-2.146-.578-1.093 1.82 1.45 3.595 2.25 1.403l2.49.01v-.805zm21.691 1.496c-.357-.42-5.742-2.062-5.99-1.869l.635 1.377c3.339.192 5.398.347 5.418 4.267h.599c.058-.966-.019-3.015-.664-3.775zm-25.36-.246-.792-.012c-.117.8.02 2.309.948 2.581.456.133 4.448.14 4.994.037.716-.136 1.45-1.398 1.019-2.019-.682-.982-.93.871-1.247.984-1.302.464-5.432.823-4.921-1.57m23.402 1.803c.615-.524-3.083-1.972-3.224-1.813.147 1.15-.084 1.847-.605 2.82l3.83.606-.033-.978-1.18-.534 1.212-.103zm6.856-1.208-3.022-.201c-.15.586.524.504.909.61l2.113-.407zm-40.126 4.84c-2.921 1.088-5.567 2.774-8.214 4.401l-1.464-.171 1.208-1.309c-.968-.123-2.115 1.178-3.17 1.268-.391.035-.76-.171-1.155-.167-5.12.05-10.639-.048-15.542 1.615-1.156.391-2.624 1.014-3.521 1.82 2.621-1.046 5.357-1.689 8.168-2.011 12.637-1.45 25.255 1.712 37.898 1.401 11.16-.274 22.577-2.734 33.679-1.4a38 38 0 0 1 8.372 2.01c-2.587-1.828-6.281-2.588-9.404-2.993-13.222-1.712-27.056 2.262-40.7 1.38-3.939-.253-7.856-.981-11.798-1.207-.279-.238 1.484-1.617 1.718-1.809 1.272-1.032 2.808-1.691 3.925-2.827zm27.826 3.625c-.814-1.006-2.242-1.57-3.428-2.012.2.697 2.07 1.155 1.087 1.79-.306.2-.867.073-.885.424l3.224-.202zm-40.123 6.05.6-2.82c-.417.186-.586.752-.776 1.137-1.272 2.591-2.563 5.495-3.05 8.338l1.576-3.158c1.34-2.496 4.005-3.825 5.678-6.017-.108-.155-.671-.241-.814-.191-.323.115-2.121 2.036-2.611 2.413-.202.156-.257.392-.605.3zm47.783 1.614c-.278-1.052-1.528-3.579-2.32-4.23-.456-.375-1.249-.297-.902.294.736 1.256 2.23 2.853 3.222 3.936m-40.93-4.232c-1.456-.335-2.312 1.589-3.226 2.518-.728.74-1.849 1.357-2.418 2.319 1.218.405 6.227-4.313 5.644-4.835zm41.505.032-.772.064 4.432 8.774c-.41-3.22-2.105-6.066-3.66-8.836zm-38.48.17c-.377-.416-1.912 2.125-2.014 2.417.306.296 2.304-2.097 2.014-2.418m36.093 4.028c-.81-.992-2.005-1.75-2.934-2.61-.774-.717-.837-1.75-2.309-1.419-.445.331 4.42 4.249 5.243 4.029m-26.011-3.02-8.124-.61c-1.666 2.21-3.785 3.8-6.154 5.183-.887 4.514-1.277 9.174.867 13.376 1.686 3.309 4.214 6.144 4.938 9.983.038.59-.228.167-.365-.038-1.526-2.273-2.861-4.702-4.47-6.922-.37.058-.218 1.036-.196 1.306.163 2.09.706 5.914 1.458 7.818 1.117 2.83 3.73 5.103 5.999 7.004-.408-1.52-1.117-3.022-1.358-4.589-.034-.217-.235-.885.148-.855 1.395 4.128 4.155 9.75 8.997 10.463.728.107 1.492-.12 2.206.172.526-.093.223-2.138.292-2.674.036-.276.14-.623.403-.3l.29 2.635c6.29 1.248 9.266-5.454 11.508-10.094l-1.414 5.442c2.706-2.754 5.55-4.863 6.495-8.83.597-2.504.776-5.343 1.067-7.904l-3.51 5.055c-.484.777-.88 1.71-1.356 2.477-.127.203-.419.62-.369.036.442-1.422.815-2.851 1.436-4.212 1.54-3.376 4.53-6.265 4.82-10.102.245-3.3-.082-6.904-.66-10.145-1.351-.6-2.716-1.552-3.793-2.56-.534-.502-1.016-1.58-1.712-1.716-3.563.344-7.105.514-10.68.6-.392.01-.783.212-1.212.216-1.115.012-2.567-.488-3.79-.177-.467.137-1.513 1.829-1.957 2.276-.165.166-2.079 1.882-1.81 1.013.122-.396 2.197-3.176 2.012-3.33zm-19.76 10.583c-.142.861.102 2.02 0 2.924-.305.028-.325-.494-.388-.722-.425-1.552-.956-5.678 1.7-4.523l1.712 1.614c.197-2.729-3.009-5.709-4.245-1.926-1.028 3.15.63 7.348 2.194 10.128.68 1.206 1.825 3.49 3.466 2.986-.353-.859-.12-2.095-.518-2.91-.5-1.026-1.964-1.354-2.26-3.183-.258-1.59.927-2.9.722-3.73-.065-.26-1.26-1.91-1.49-1.96-.402-.042-.85 1.024-.894 1.302m48.392 3.126v-2.924c0-.18-.494-1.466-.71-1.512-2.77 1.524-.589 3.544-.952 5.7-.314 1.873-1.846 2.36-2.22 3.222-.16.375-.506 2.823-.35 2.974 1.175.125 1.937-.96 2.502-1.83 1.865-2.876 4.277-8.647 2.684-11.925-1.442-2.97-4.386.238-3.977 2.466 2.68-3.509 3.955-1.95 3.626 1.913l-.603 1.918zM39.677 48.48v3.73c0 1.184 1.931 4.34 2.742 5.323.07.085.381.589.486.32l-1.418-3.018zm53.433 2.923c.099-.925-.07-1.982 0-2.923-.286-.047-.294.356-.345.56-.75 3.07-1.272 5.995-2.883 8.814.375-.059.754-.736.972-1.045 1.117-1.58 2.046-3.452 2.254-5.408zm-43.956 13.41c-.059-1.162-1.505-1.215-2.426-1.707-.293-.155-1.644-1.304-1.807-1.115-.153 1.962 2.583 2.884 4.233 2.821m38.714-2.822c-.805.315-1.323.992-2.142 1.386-.86.413-2.058.252-2.09 1.435 1.697-.064 4.272-.748 4.232-2.82m-44.36 5.646c-2.402.206-2.438 3.777-.05 4.186 2.717.468 4.215-2.452 4.082-4.793l-1.413 2.716c-2.158 2.694-4.76.69-3.398-1.381.28-.427.656-.375.78-.728zm45.773.198c3.059 1.847-.173 4.982-2.617 1.911l-1.416-2.716c-.14 2.069 1.408 4.972 3.72 4.845s2.944-3.153.908-4.133c-.188-.09-.63-.292-.595.09zm-36.496 4.64c-.08 1.483.105 3.06-.004 4.534-.103 1.395-1.012 3.833-.99 4.82.028 1.253 2.583 7.589 3.371 8.732 1.458 2.113 7.507 3.718 10.026 3.888 3.815.256 11.213-1.11 13.179-4.761.69-1.28 2.792-6.402 2.83-7.656.03-1.029-.832-3.49-.987-4.823-.303-2.571-.176-5.176-.206-7.761-3.88 3.77-7.94 10.993-14.034 11.07-1.839.024-3.773-.718-5.523-1.188l2.418 10.08c-1.004-1.39-1.86-3.184-2.591-4.767-1.648-3.565-2.154-6.247-4.765-9.35a29 29 0 0 0-2.722-2.82zm12.296 41.133c-2.985-6.892-6.97-13.29-10.387-19.958-2.41-4.704-6.204-11.662-5.544-17.048.235-1.928 2.504-3.222 1.921-5.136-.867.94-1.875 1.767-2.716 2.728-1.034 1.182-4.615 5.469-5.057 6.638-.661 1.76-.992 4.936-1.2 6.866-.44 4.113-.441 8.281-.806 12.398.312.347 2.16-1.637 2.423-1.909 1.779-1.841 3.23-4.019 5.126-5.763 1.829-1.064 4.571 2.892 5.563 4.152l-2.339 5.134c2.555 1.82 5.1 3.784 7.376 5.944 1.99 1.887 3.637 4.083 5.642 5.95zm26.618-13.51c-.436-5.268-.401-10.757-1.264-15.973-.162-.97-.428-2.575-.793-3.442-.462-1.095-5.886-7.59-6.92-8.404-.177-.14-.966-.769-1.103-.61-.258 1.42 1.034 2.164 1.587 3.352 1.94 4.176-1.148 11.156-3.029 15.068-2.938 6.11-6.486 12.03-9.42 18.204-.746 1.569-2.571 4.88-2.958 6.317-.11.406-.283 1.168.31 1.119 3.354-5.571 7.87-10.09 13.012-14.013l-2.523-4.95c.837-1.26 3.36-4.572 4.939-4.545 1.058.016 3.298 3.272 4.125 4.153.907.968 2.442 2.664 3.432 3.424.202.155.256.391.605.3m-29.24-3.222-4.835-2.018c-.171 1.625 2.922 2.06 4.158 2.194.222.024.728.181.68-.176zm8.07.196c.925.048 4.095-.542 4.615-1.127.105-.12.515-.976.422-1.09l-5.039 2.217zm-8.874 20.972V112.5c-2.829-3.107-6.245-5.64-9.632-8.132-.24-.107-.422-.01-.641.069-1.117.399-3.222 2.405-4.338 3.131-.195.127-.342.25-.598.208-.341-.055-3.18-5.471-3.745-5.773-.685-.367-2.518 1.611-3.428 1.524l.601-8.466c-.308-.049-.238.377-.296.604-1.266 4.963-2.234 10.024-3.466 14.994.379.782 1.002 4.501 1.681 4.733l3.698.034c.09-1.133.087-2.412.202-3.529.03-.288.095-1.212.4-1.31l.794 4.954c2.849.27 5.722.52 8.577.699.27.017.877.123.71-.306l-.911-1.317 5.141-3.623 5.251 7.053zM30.543 95.5c-.466.067-.886.54-1.053.966-.347.881-1.605 6.12-1.663 7.011-.039.599.165 1.145.754 1.367.786.294 2.526.619 3.432.802 1.175.24 3.31 1.103 3.827-.209.55-1.402 1.165-4.404 1.481-5.979.234-1.163.813-2.19-.62-2.734-.563-.214-5.783-1.278-6.158-1.224m71.6.01c-.647.014-5.988 1.11-6.32 1.353-.15.111-.366.434-.414.613-.131.486 1.335 6.793 1.627 7.672.113.339.175.692.506.904.698.345 4.807-.607 5.775-.883.839-.24 1.93-.363 1.849-1.484-.073-1.005-1.284-6.314-1.672-7.213-.26-.607-.657-.974-1.351-.96zM50.16 101.31c.367-1.28 1.214-2.183-.597-2.736-.569-.173-.861-.079-1.192.418zm17.544-.804c-2.595.093-5.176-.331-7.66-1.01.125 1.486 1.292 1.49 2.545 1.586 1.377.107 3.014-.036 4.393-.193.196-.022.758-.089.722-.383m29.639 11.289c-.519-.08-.315.047-.422.285-.15.328-1.107 3.03-.988 3.143h2.016zm-61.5 1.412c-.53-.059-.318.008-.405.296-.078.264-.468 1.654-.399 1.72h1.21zm31.66 11.695c-.11-1.96.03-4.182-.767-5.987-.742-1.677-2.52-3.654-3.867-4.902l.24 6.11c.465.919 1.49 1.466 2.08 2.153s1.112 1.664 1.749 2.285c.175.173.167.444.566.339z"/><path d="M83.635 37.389c-1.78-.55-2.946-1.254-4.922-.988-.796.107-5.025 1.883-5.466 2.397-.12.14-.21.36.008.412 2.468-.597 5.266-.767 7.565.494.708.389 1.234 1.068 2.008 1.32l-.123.414c-1.062.467-1.544 1.242-2.7 1.697-1.036.408-2.105.601-3.222.504l2.688-1.038 1.141-1.375-1.812-.809c.185 1.698-.855 2.607-2.525 2.424-2.294-.25-1.31-3.9-3.504-.478l.583.672c-2.716.195-.817-1.811 0-2.922-.708-.387-2.452 2.282-2.392 2.595 1.41 1.11 3.253 2.083 5.013 2.55.052.343-.484.218-.7.198-.66-.062-1.252-.387-1.917-.401l1.41 1.812c-2.32-.812-4.01-3.06-5.344-5.038-.464.633-.516 1.4-.7 2.129-.084.337.204.589-.407.49-.21-2.164.26-4.39 2.02-5.746-.393-.759-1.149-1.355-1.01-2.317.337.153.39.421.851.373.938-.097 3.137-1.07 4.305-1.365s3.254-.875 4.41-.829c1.58.063 3.804 1.583 4.748 2.827zM63.062 36.585c.218.926-.492 1.327-.772 2.081.595.905 1.367 1.692 1.681 2.758.206.698.621 2.476-.098 2.823-.04-.641-.258-1.61-.559-2.163-.127-.232.008-.341-.447-.257-.871 2.138-2.92 4.156-4.948 5.239-.621.016-.131-.21.04-.365.185-.17 1.534-1.397 1.274-1.647a35 35 0 0 1-2.569.558c-.389.067-.242-.006-.254-.357.783.028 5.158-2.12 5.192-2.518-.47-.942-1.314-2.45-2.367-2.424l1.385 2.049c.053.54-.661.508-.986.472.466-.823-.87-1.378-1.312-2.015l-.916 1.499c-1.155.895-2.87.643-3.504-.708-.181-.39-.002-.904-.415-1.192l-1.218.799-.07.47.6.624 2.803 1.327c-1.224.075-2.581-.312-3.672-.863-.365-.183-1.706-1.026-1.966-1.26-.183-.165-.272-.206-.207-.492.732-.208 1.236-.883 1.875-1.252 2.448-1.41 5.038-1.109 7.698-.565.244-.018 0-.217-.095-.308-.893-.849-4.333-2.351-5.57-2.494-1.872-.216-3.324.272-4.916 1.187-.321-.32 1.68-1.814 1.95-1.98 2.695-1.659 4.38-.95 7.205-.221 1.224.316 3.267 1.23 4.305 1.363.36.046.54-.029.849-.17zM70.734 50.699c1.907 1.514 3.312 3.819 4.23 6.048l-2.817-3.226c-.411 1.84-1.952 1.41-3.133 1.799-1.002.33-1.547 1.323-2.817 1.325s-1.686-1.063-2.468-1.26c-.46-.117-.923.02-1.35-.061-1.088-.204-1.561-.885-2.03-1.799l-2.72 3.222c.938-2.264 2.398-4.532 4.134-6.248l-.215 2.835c.272.395 1.623.07 2.187.232.67.191 1.414 1.457 2.494 1.51 1.216.06 1.704-1.222 2.478-1.464 1.152-.359 2.43.74 2.45-.996.008-.702-.425-1.238-.421-1.92zM74.127 61.813l.129.38-.204.402-5.248-.61c-1.962.812-3.668-.023-5.438-.009-1.643.012-3.426.674-5.138.418.009-.988.865-.595 1.31-.787 1.25-.542 3.126-1.98 4.43-2.05.954-.05 1.505.403 2.23.43.65.021 1.078-.34 1.628-.402 2.103-.238 4.208 2.19 6.303 2.23zM71.734 63.807l-2.42 2.319c-.08.316 1.645 1.238 2.04 1.59.192.17.513 0 .377.525-3.663-1.357-7.48-1.295-11.086.2l2.41-2.136c.1-.466-2.084-1.498-2.005-2.298 3.468 1.417 7.296 1.474 10.684-.2M55.399 47.68l-.73 1.824c-1.754-.254-3.664-.645-5.095-1.748-1.01-.778-1.577-1.379-1.023-2.704 2.093 1.559 4.263 2.29 6.85 2.628zM76.978 47.676c2.633-.252 4.984-.938 7.053-2.621.552 1.327-.012 1.925-1.023 2.704-1.407 1.082-3.208 1.451-4.934 1.651zM78.818 52.09l-.425-1.589c1.76-.25 3.494-.722 5.038-1.615.292 2.7-2.573 3.037-4.613 3.204M54.193 50.5c.018 2.199-1.296 1.689-2.867 1.15-1.544-.53-2.044-1.119-2.375-2.764 1.688.7 3.385 1.466 5.242 1.613M53.797 55.94c.11-2.872 1.437-4.915 3.423-6.854z"/><path d="M68.92 50.902c.282-.044.391.569.393.73.033 1.423-1.893 2.849-3.266 2.657-.744-.102-2.518-1.203-2.733-1.917-.126-.417-.152-1.655.358-1.873-.26 1.444.424 2.673 1.851 3.089 1.665.483 3.803-.833 3.395-2.686zM63.68 37.39c.276-.932.542-1.92.909-2.819.135-.332.387-1.05.7-1.212-.035 1.375-.664 3.005-1.61 4.03M69.921 48.283l-.097.397c-.617-.197-1.102-.693-1.667-.953-.421-.194-1.09-.111-1.258-.452 1.425-.711 1.893.547 3.02 1.01zM67.303 57.959c.514.725-1.69 1.523-2.213.3-.194-.454.24-.232.413-.214.625.067 1.167.302 1.802-.087zM66.9 93.243c.961-.996 1.766-2.067 2.504-3.24.903-1.434 1.49-3.112 2.534-4.42l-2.44 6.934c-.477.585-1.865.62-2.599.726M75.169 83.565l.567-1.952 2.05-3.691c-.252 2.1-1.083 4.167-2.617 5.643M88.676 87.902c0-.105.21-.256.13-.707-.255-1.452-2.233-4.404-2.553-6.146-.075-.41.066-.383.296-.095 2.936 3.716 2.845 8.44 3.141 12.989.018.266.15 1.26-.207 1.319l-3.025-6.354.097-.298c.776.552 1.1 1.458 1.657 2.163.13.164-.008.37.462.256v-3.125zM44.319 91.028c.471.12.336-.111.461-.256.519-.603.934-1.597 1.759-1.86l-3.227 6.35c.275-2.375-.048-5.019.664-7.3.066-.213.05-.608.343-.562v3.63zM46.534 83.364l-.611-1.905c-.141-.367.222-2.942.512-2.936.446 1.627.184 3.192.099 4.841M56.154 17.279c.825.826-.484 2.135-1.308 1.308-.776-.776.532-2.084 1.308-1.308M80.16 18.79c-1.004.98-2.477-1.017-.961-1.48.885-.272 1.487.965.961 1.48"/></g></svg>