<svg xmlns="http://www.w3.org/2000/svg" width="320" height="46" fill="none" viewBox="0 0 320 46"><g fill="#fffcee" opacity=".5"><path d="M34.167 27.718a1.065 1.065 0 0 1-1.065-1.064V1.064C33.102.478 33.58 0 34.167 0h24.198a1.064 1.064 0 0 1 1.065 1.065v21.138c0 .588-.477 1.065-1.065 1.065H38.617a1.065 1.065 0 0 1-1.064-1.065V5.515c0-.588.476-1.065 1.064-1.065h15.298c.588 0 1.064.477 1.064 1.065v12.238c0 .588-.476 1.065-1.064 1.065H42.069a1.065 1.065 0 1 1 0-2.13H52.85v-2.042H42.068a1.065 1.065 0 0 1 0-2.13H52.85v-1.764H42.068a1.065 1.065 0 0 1 0-2.13H52.85V6.58H39.681v14.559h17.62V2.129H35.23v23.46h23.134a1.065 1.065 0 1 1 0 2.13zM25.263 0c.588 0 1.064.477 1.064 1.065v25.589c0 .588-.476 1.065-1.064 1.065H1.065A1.064 1.064 0 0 1 0 26.654V5.515c0-.588.477-1.064 1.065-1.064h19.748a1.065 1.065 0 0 1 1.064 1.064v16.689c0 .588-.476 1.064-1.064 1.064H5.515a1.065 1.065 0 0 1-1.065-1.064V9.966c0-.588.477-1.065 1.065-1.065H17.36a1.065 1.065 0 1 1 0 2.13H6.58v2.042h10.782a1.065 1.065 0 1 1 0 2.13H6.58v1.764h10.782a1.065 1.065 0 0 1 0 2.13H6.58v2.042h13.17V6.58H2.128v19.01H24.2V2.13H1.064a1.065 1.065 0 1 1 0-2.129zM1.07 33.28a1.065 1.065 0 0 1 0-2.128h57.297a1.065 1.065 0 0 1 0 2.129zM1.07 45.52a1.065 1.065 0 0 1 0-2.13h57.297a1.065 1.065 0 0 1 0 2.13zM49.372 38.337a2.043 2.043 0 1 0 2.043-2.043v-2.129a4.172 4.172 0 1 1 0 8.344 4.172 4.172 0 0 1 0-8.344v2.13a2.043 2.043 0 0 0-2.043 2.042"/><path d="M50.855 38.337a.557.557 0 1 1 1.114 0 .557.557 0 0 1-1.114 0M5.98 38.337a2.043 2.043 0 1 0 2.043-2.043v-2.129a4.172 4.172 0 1 1 0 8.344 4.172 4.172 0 0 1 0-8.344v2.13a2.043 2.043 0 0 0-2.043 2.042"/><path d="M7.46 38.337a.557.557 0 1 1 1.114 0 .557.557 0 0 1-1.113 0M20.441 38.337a2.043 2.043 0 1 0 2.043-2.043v-2.129a4.172 4.172 0 1 1 0 8.344 4.172 4.172 0 0 1 0-8.344v2.13a2.043 2.043 0 0 0-2.043 2.042"/><path d="M21.928 38.337a.557.557 0 1 1 1.113 0 .557.557 0 0 1-1.113 0M34.906 38.337a2.043 2.043 0 1 0 2.043-2.043v-2.13a4.172 4.172 0 1 1 0 8.345 4.172 4.172 0 0 1 0-8.345v2.13a2.043 2.043 0 0 0-2.043 2.043"/><path d="M36.393 38.337a.557.557 0 1 1 1.114 0 .557.557 0 0 1-1.114 0M30.775 1.065v25.589a1.065 1.065 0 0 1-2.129 0V1.064a1.065 1.065 0 1 1 2.13 0M164.456 27.91a1.065 1.065 0 0 1-1.065-1.065V1.256c0-.588.477-1.064 1.065-1.064h24.198a1.066 1.066 0 0 1 1.065 1.064v21.139c0 .588-.477 1.064-1.065 1.064h-19.748a1.067 1.067 0 0 1-1.064-1.064V5.706c0-.588.476-1.064 1.064-1.064h15.298c.588 0 1.064.476 1.064 1.064v12.239c0 .587-.476 1.064-1.064 1.064h-11.846a1.065 1.065 0 1 1 0-2.129h10.781v-2.043h-10.781a1.065 1.065 0 1 1 0-2.13h10.781v-1.764h-10.781a1.065 1.065 0 1 1 0-2.129h10.781V6.771h-13.168v14.56h17.619V2.32h-22.07v23.46h23.134a1.065 1.065 0 1 1 0 2.129zM155.55.19c.588 0 1.065.478 1.065 1.065v25.59c0 .587-.477 1.064-1.065 1.064h-24.198a1.064 1.064 0 0 1-1.065-1.064V5.704c0-.587.477-1.064 1.065-1.064H151.1a1.06 1.06 0 0 1 1.064 1.065v16.688c0 .588-.476 1.065-1.064 1.065h-15.298a1.065 1.065 0 0 1-1.065-1.065V10.156c0-.588.477-1.064 1.065-1.064h11.846a1.065 1.065 0 1 1 0 2.129h-10.782v2.043h10.782a1.065 1.065 0 1 1 0 2.129h-10.782v1.764h10.782a1.065 1.065 0 1 1 0 2.13h-10.782v2.043h13.169V6.77h-17.619v19.01h22.07V2.32h-23.134a1.065 1.065 0 1 1 0-2.13zM131.357 33.472a1.065 1.065 0 0 1 0-2.13h57.297a1.065 1.065 0 1 1 0 2.13zM131.357 45.71a1.065 1.065 0 1 1 0-2.129h57.297a1.065 1.065 0 1 1 0 2.13zM179.656 38.527a2.043 2.043 0 1 0 2.043-2.043v-2.13a4.172 4.172 0 1 1 0 8.345 4.172 4.172 0 0 1 0-8.344v2.13a2.043 2.043 0 0 0-2.043 2.042"/><path d="M181.141 38.528a.556.556 0 1 1 1.113 0 .556.556 0 0 1-1.113 0M136.259 38.527a2.043 2.043 0 1 0 2.043-2.043v-2.13a4.172 4.172 0 1 1 .001 8.346 4.172 4.172 0 0 1-.001-8.345v2.13a2.043 2.043 0 0 0-2.043 2.042"/><path d="M137.746 38.528a.557.557 0 1 1 1.113 0 .557.557 0 0 1-1.113 0M150.726 38.527a2.043 2.043 0 1 0 2.043-2.043v-2.13a4.172 4.172 0 1 1 0 8.345 4.172 4.172 0 0 1 0-8.344v2.13a2.043 2.043 0 0 0-2.043 2.042"/><path d="M152.212 38.528a.557.557 0 1 1 1.113 0 .557.557 0 0 1-1.113 0M165.195 38.527a2.043 2.043 0 1 0 2.043-2.043v-2.13a4.172 4.172 0 1 1 0 8.345 4.172 4.172 0 0 1 0-8.344v2.13a2.043 2.043 0 0 0-2.043 2.042"/><path d="M166.679 38.528a.556.556 0 1 1 1.113 0 .556.556 0 0 1-1.113 0M161.062 1.256v25.59a1.064 1.064 0 1 1-2.129 0V1.255a1.065 1.065 0 0 1 2.129 0M294.737 27.91a1.065 1.065 0 0 1-1.065-1.065V1.256c0-.588.477-1.064 1.065-1.064h24.198A1.065 1.065 0 0 1 320 1.256v21.139c0 .588-.477 1.064-1.065 1.064h-19.748a1.063 1.063 0 0 1-1.064-1.064V5.706c0-.588.476-1.064 1.064-1.064h15.298c.588 0 1.065.476 1.065 1.064v12.239c0 .587-.477 1.064-1.065 1.064h-11.846a1.065 1.065 0 1 1 0-2.129h10.782v-2.043h-10.782a1.065 1.065 0 1 1 0-2.13h10.782v-1.764h-10.782a1.065 1.065 0 1 1 0-2.129h10.782V6.771h-13.169v14.56h17.619V2.32h-22.069v23.46h23.133a1.065 1.065 0 1 1 0 2.129zM285.833.19c.588 0 1.065.478 1.065 1.065v25.59c0 .587-.477 1.064-1.065 1.064h-24.198a1.066 1.066 0 0 1-1.065-1.064V5.704c0-.587.477-1.064 1.065-1.064h19.748a1.066 1.066 0 0 1 1.065 1.065v16.688c0 .588-.477 1.065-1.065 1.065h-15.298a1.064 1.064 0 0 1-1.064-1.065V10.156c0-.588.476-1.064 1.064-1.064h11.847a1.065 1.065 0 0 1 0 2.129H267.15v2.043h10.782a1.065 1.065 0 0 1 0 2.129H267.15v1.764h10.782a1.065 1.065 0 0 1 0 2.13H267.15v2.043h13.168V6.77h-17.619v19.01h22.07V2.32h-23.134a1.065 1.065 0 1 1 0-2.13zM261.638 33.472a1.065 1.065 0 0 1 0-2.13h57.297a1.065 1.065 0 1 1 0 2.13zM261.638 45.71a1.065 1.065 0 1 1 0-2.129h57.297a1.065 1.065 0 1 1 0 2.13zM309.939 38.527a2.043 2.043 0 1 0 2.043-2.043v-2.13a4.172 4.172 0 1 1 0 8.345 4.172 4.172 0 0 1 0-8.344v2.129a2.043 2.043 0 0 0-2.043 2.043"/><path d="M311.426 38.528a.556.556 0 1 1 1.113 0 .556.556 0 0 1-1.113 0M266.545 38.527a2.043 2.043 0 1 0 2.043-2.043v-2.13a4.172 4.172 0 1 1 0 8.345 4.172 4.172 0 0 1 0-8.344v2.129a2.043 2.043 0 0 0-2.043 2.043"/><path d="M268.032 38.528a.557.557 0 1 1 1.113 0 .557.557 0 0 1-1.113 0M281.011 38.527a2.043 2.043 0 1 0 2.043-2.043v-2.13a4.172 4.172 0 1 1 .001 8.345 4.172 4.172 0 0 1-.001-8.344v2.129a2.043 2.043 0 0 0-2.043 2.043"/><path d="M282.499 38.528a.557.557 0 1 1 1.113 0 .557.557 0 0 1-1.113 0M295.478 38.527a2.043 2.043 0 1 0 2.043-2.043v-2.13a4.172 4.172 0 1 1 0 8.345 4.172 4.172 0 0 1 0-8.344v2.129a2.043 2.043 0 0 0-2.043 2.043"/><path d="M296.961 38.528a.557.557 0 1 1 1.113 0 .557.557 0 0 1-1.113 0M291.346 1.256v25.59a1.065 1.065 0 0 1-2.129 0V1.255a1.064 1.064 0 1 1 2.129 0M90.406 17.994c.587 0 1.064.476 1.064 1.064v25.59c0 .587-.477 1.064-1.064 1.064H66.207a1.064 1.064 0 0 1-1.064-1.065V23.51c0-.588.476-1.065 1.064-1.065h19.748a1.064 1.064 0 0 1 1.065 1.065v16.688c0 .588-.477 1.064-1.065 1.064H70.657a1.065 1.065 0 0 1-1.064-1.064V27.959c0-.588.477-1.065 1.064-1.065h11.847a1.065 1.065 0 1 1 0 2.13H71.722v2.042h10.782a1.065 1.065 0 0 1 0 2.13H71.722v1.764h10.782a1.065 1.065 0 0 1 0 2.13H71.722v2.042h13.169V24.573H67.27v19.01h22.07v-23.46H66.207a1.065 1.065 0 0 1 0-2.13zM99.31 45.711a1.065 1.065 0 0 1-1.065-1.064v-25.59c0-.587.476-1.064 1.064-1.064h24.199a1.06 1.06 0 0 1 1.064 1.065v21.139c0 .587-.476 1.064-1.064 1.064H103.76a1.064 1.064 0 0 1-1.065-1.064V23.508c0-.588.477-1.064 1.065-1.064h15.297c.588 0 1.065.476 1.065 1.064v12.238c0 .588-.477 1.065-1.065 1.065h-11.846a1.065 1.065 0 1 1 0-2.13h10.782V32.64h-10.782a1.065 1.065 0 1 1 0-2.13h10.782v-1.764h-10.782a1.066 1.066 0 0 1 0-2.13h10.782v-2.042h-13.169v14.559h17.619v-19.01h-22.069v23.46h23.134a1.064 1.064 0 0 1 0 2.13zM123.507 12.43a1.065 1.065 0 0 1 0 2.13H66.209a1.065 1.065 0 1 1 0-2.13zM123.507.19a1.065 1.065 0 0 1 0 2.13H66.209a1.065 1.065 0 1 1 0-2.13zM75.205 7.375a2.043 2.043 0 1 0-2.043 2.043v2.13a4.172 4.172 0 1 1 0-8.345 4.172 4.172 0 0 1 0 8.344V9.418a2.043 2.043 0 0 0 2.043-2.043"/><path d="M73.719 7.375a.557.557 0 1 1-1.114 0 .557.557 0 0 1 1.114 0M118.6 7.375a2.043 2.043 0 1 0-2.043 2.043v2.13a4.172 4.172 0 1 1 0-8.345 4.172 4.172 0 0 1 0 8.344V9.418a2.043 2.043 0 0 0 2.043-2.043"/><path d="M117.112 7.375a.556.556 0 1 1-1.113 0 .556.556 0 0 1 1.113 0M104.131 7.375a2.043 2.043 0 1 0-2.043 2.043v2.13a4.172 4.172 0 1 1 0-8.345 4.172 4.172 0 0 1 0 8.344V9.418a2.043 2.043 0 0 0 2.043-2.043"/><path d="M102.646 7.375a.557.557 0 1 1-1.114-.002.557.557 0 0 1 1.114.002M89.668 7.375a2.043 2.043 0 1 0-2.043 2.043v2.13a4.172 4.172 0 1 1 0-8.345 4.172 4.172 0 0 1 0 8.344V9.418a2.043 2.043 0 0 0 2.043-2.043"/><path d="M88.186 7.375a.557.557 0 1 1-1.114 0 .557.557 0 0 1 1.114 0M93.797 44.647V19.058a1.065 1.065 0 0 1 2.129 0v25.59a1.065 1.065 0 0 1-2.13 0M220.687 18.185c.588 0 1.064.477 1.064 1.065v25.589c0 .587-.476 1.064-1.064 1.064h-24.199a1.063 1.063 0 0 1-1.064-1.064v-21.14c0-.587.476-1.064 1.064-1.064h19.749a1.06 1.06 0 0 1 1.064 1.065v16.688c0 .588-.477 1.065-1.064 1.065h-15.298a1.065 1.065 0 0 1-1.065-1.065V28.15c0-.588.477-1.064 1.065-1.064h11.846a1.065 1.065 0 1 1 0 2.129h-10.782v2.043h10.782a1.065 1.065 0 1 1 0 2.129h-10.782v1.765h10.782a1.065 1.065 0 1 1 0 2.129h-10.782v2.043h13.169v-14.56h-17.619v19.01h22.069v-23.46h-23.134a1.064 1.064 0 0 1 0-2.129zM229.591 45.903a1.065 1.065 0 0 1-1.065-1.065V19.25c0-.588.477-1.064 1.065-1.064h24.198a1.066 1.066 0 0 1 1.065 1.064v21.139c0 .588-.477 1.065-1.065 1.065h-19.748a1.067 1.067 0 0 1-1.065-1.065V23.7c0-.588.477-1.065 1.065-1.065h15.298c.588 0 1.064.477 1.064 1.065v12.238c0 .588-.476 1.064-1.064 1.064h-11.847a1.064 1.064 0 0 1 0-2.129h10.782V32.83h-10.782a1.064 1.064 0 0 1 0-2.129h10.782v-1.765h-10.782a1.064 1.064 0 0 1 0-2.129h10.782v-2.043h-13.169v14.56h17.619v-19.01h-22.069v23.46h23.134a1.065 1.065 0 1 1 0 2.129zM253.786 12.621a1.064 1.064 0 0 1 0 2.13h-57.298a1.064 1.064 0 0 1 0-2.13zM253.786.382a1.064 1.064 0 0 1 0 2.129h-57.298a1.064 1.064 0 0 1 0-2.13zM205.489 7.566a2.043 2.043 0 1 0-2.043 2.043v2.129a4.172 4.172 0 1 1-.001-8.345 4.172 4.172 0 0 1 .001 8.345v-2.13a2.043 2.043 0 0 0 2.043-2.042"/><path d="M204.004 7.565a.557.557 0 1 1-1.113 0 .557.557 0 0 1 1.113 0M248.881 7.566a2.043 2.043 0 1 0-2.043 2.043v2.129a4.172 4.172 0 1 1 0-8.344 4.172 4.172 0 0 1 0 8.344v-2.13a2.043 2.043 0 0 0 2.043-2.042"/><path d="M247.397 7.565a.557.557 0 1 1-1.114-.001.557.557 0 0 1 1.114.001M234.416 7.566a2.043 2.043 0 1 0-2.043 2.043v2.129a4.172 4.172 0 1 1 0-8.344 4.172 4.172 0 0 1 0 8.344v-2.13a2.043 2.043 0 0 0 2.043-2.042"/><path d="M232.931 7.565a.557.557 0 1 1-1.113 0 .557.557 0 0 1 1.113 0M219.948 7.566a2.043 2.043 0 1 0-2.043 2.043v2.129a4.172 4.172 0 1 1-.001-8.345 4.172 4.172 0 0 1 .001 8.345v-2.13a2.043 2.043 0 0 0 2.043-2.042"/><path d="M218.464 7.565a.557.557 0 1 1-1.113 0 .557.557 0 0 1 1.113 0M224.078 44.839v-25.59a1.065 1.065 0 0 1 2.129 0v25.59a1.064 1.064 0 1 1-2.129 0"/></g></svg>