<svg xmlns="http://www.w3.org/2000/svg" width="1359" height="56" fill="none" viewBox="0 0 1359 56"><g fill="#fffcee" opacity=".5"><path d="M39.793 32.283a1.24 1.24 0 0 1-1.24-1.24V1.24c0-.685.555-1.24 1.24-1.24h28.183a1.24 1.24 0 0 1 1.24 1.24v24.62a1.24 1.24 0 0 1-1.24 1.24h-23a1.24 1.24 0 0 1-1.24-1.24V6.423c0-.684.555-1.24 1.24-1.24h17.817c.684 0 1.24.556 1.24 1.24v14.254a1.24 1.24 0 0 1-1.24 1.24H48.996a1.24 1.24 0 0 1 0-2.48h12.557v-2.38H48.996a1.24 1.24 0 0 1 0-2.48h12.557v-2.055H48.996a1.24 1.24 0 0 1 0-2.48h12.557V7.664H46.216V24.62h20.52V2.48H41.033v27.323h26.943a1.24 1.24 0 0 1 0 2.48zM29.423 0c.685 0 1.24.555 1.24 1.24v29.803a1.24 1.24 0 0 1-1.24 1.24H1.24A1.24 1.24 0 0 1 0 31.042V6.422c0-.685.555-1.24 1.24-1.24h23a1.24 1.24 0 0 1 1.24 1.24v19.436a1.24 1.24 0 0 1-1.24 1.24H6.423a1.24 1.24 0 0 1-1.24-1.24V11.606c0-.685.555-1.24 1.24-1.24H20.22a1.24 1.24 0 1 1 0 2.48H7.663v2.38H20.22a1.24 1.24 0 1 1 0 2.479H7.663v2.055H20.22a1.24 1.24 0 0 1 0 2.48H7.663v2.38H23V7.662H2.48v22.14h25.703V2.48H1.24a1.24 1.24 0 1 1 0-2.48zM1.244 38.76a1.24 1.24 0 0 1 0-2.479h66.733a1.24 1.24 0 0 1 0 2.48zM1.245 53.016a1.24 1.24 0 0 1 0-2.48h66.732a1.24 1.24 0 1 1 0 2.48zM57.502 44.65a2.38 2.38 0 1 0 2.379-2.38v-2.48a4.86 4.86 0 1 1 0 9.719 4.86 4.86 0 0 1 0-9.718v2.48a2.38 2.38 0 0 0-2.38 2.379"/><path d="M59.228 44.65a.648.648 0 1 1 1.297 0 .648.648 0 0 1-1.297 0M6.963 44.65a2.38 2.38 0 1 0 2.38-2.38v-2.48a4.86 4.86 0 1 1 0 9.719 4.86 4.86 0 0 1 0-9.718v2.48a2.38 2.38 0 0 0-2.38 2.379"/><path d="M8.69 44.65a.648.648 0 1 1 1.296 0 .648.648 0 0 1-1.297 0M23.808 44.65a2.38 2.38 0 1 0 2.38-2.38v-2.48a4.86 4.86 0 1 1 0 9.719 4.86 4.86 0 0 1 0-9.718v2.48a2.38 2.38 0 0 0-2.38 2.379"/><path d="M25.54 44.65a.648.648 0 1 1 1.296 0 .648.648 0 0 1-1.297 0M40.657 44.65a2.38 2.38 0 1 0 2.38-2.38v-2.48a4.86 4.86 0 1 1 0 9.718 4.86 4.86 0 0 1 0-9.718v2.48a2.38 2.38 0 0 0-2.38 2.38"/><path d="M42.388 44.65a.648.648 0 1 1 1.297 0 .648.648 0 0 1-1.297 0M35.842 1.24v29.803a1.24 1.24 0 0 1-2.48 0V1.24a1.24 1.24 0 1 1 2.48 0M495.01 32.505a1.24 1.24 0 0 1-1.24-1.24V1.462c0-.684.555-1.24 1.24-1.24h28.183a1.24 1.24 0 0 1 1.239 1.24v24.62a1.24 1.24 0 0 1-1.239 1.24h-23a1.24 1.24 0 0 1-1.24-1.24V6.646c0-.685.555-1.24 1.24-1.24h17.817a1.24 1.24 0 0 1 1.239 1.24v14.253a1.24 1.24 0 0 1-1.239 1.24h-13.798a1.24 1.24 0 0 1 0-2.48h12.558v-2.38h-12.558a1.24 1.24 0 0 1 0-2.48h12.558v-2.055h-12.558a1.24 1.24 0 0 1 0-2.48h12.558V7.886h-15.338v16.957h20.521V2.702h-25.704v27.323h26.944a1.24 1.24 0 0 1 0 2.48zM484.64.222c.684 0 1.24.555 1.24 1.24v29.803a1.24 1.24 0 0 1-1.24 1.24h-28.183a1.24 1.24 0 0 1-1.24-1.24V6.645c0-.685.555-1.24 1.24-1.24h23a1.24 1.24 0 0 1 1.239 1.24v19.437a1.24 1.24 0 0 1-1.239 1.24H461.64a1.24 1.24 0 0 1-1.24-1.24V11.828c0-.684.555-1.24 1.24-1.24h13.797a1.24 1.24 0 1 1 0 2.48H462.88v2.38h12.557a1.24 1.24 0 1 1 0 2.48H462.88v2.055h12.557a1.24 1.24 0 1 1 0 2.48H462.88v2.379h15.337V7.885h-20.521v22.14H483.4V2.702h-26.943a1.24 1.24 0 1 1 0-2.48zM456.462 38.983a1.24 1.24 0 1 1 0-2.48h66.732a1.24 1.24 0 1 1 0 2.48zM456.462 53.238a1.24 1.24 0 1 1 0-2.48h66.732a1.24 1.24 0 1 1 0 2.48zM512.72 44.87a2.38 2.38 0 1 0 2.379-2.379v-2.48a4.859 4.859 0 1 1 0 9.718 4.859 4.859 0 0 1 0-9.717v2.48a2.38 2.38 0 0 0-2.379 2.379"/><path d="M514.452 44.872a.648.648 0 1 1 1.296 0 .648.648 0 0 1-1.296 0M462.181 44.87a2.38 2.38 0 1 0 2.38-2.379v-2.48a4.859 4.859 0 1 1 0 9.718 4.859 4.859 0 0 1 0-9.717v2.48a2.38 2.38 0 0 0-2.38 2.379"/><path d="M463.913 44.872a.648.648 0 1 1 1.296 0 .648.648 0 0 1-1.296 0M479.033 44.87a2.38 2.38 0 1 0 2.379-2.379v-2.48a4.86 4.86 0 1 1 0 9.72 4.86 4.86 0 0 1 0-9.72v2.48a2.38 2.38 0 0 0-2.379 2.38"/><path d="M480.759 44.872a.649.649 0 1 1 1.298 0 .649.649 0 0 1-1.298 0M495.871 44.87a2.38 2.38 0 1 0 2.38-2.379v-2.48a4.86 4.86 0 1 1 0 9.72 4.86 4.86 0 0 1 0-9.72v2.48a2.38 2.38 0 0 0-2.38 2.38"/><path d="M497.603 44.872a.648.648 0 1 1 1.296 0 .648.648 0 0 1-1.296 0M491.064 1.462v29.803a1.24 1.24 0 1 1-2.479 0V1.462a1.24 1.24 0 1 1 2.479 0M950.229 33.836a1.24 1.24 0 0 1-1.24-1.24V2.793c0-.684.555-1.24 1.24-1.24h28.183a1.24 1.24 0 0 1 1.24 1.24v24.62a1.24 1.24 0 0 1-1.24 1.24h-23a1.238 1.238 0 0 1-1.24-1.24V7.977c0-.685.555-1.24 1.24-1.24h17.817c.685 0 1.24.555 1.24 1.24V22.23a1.24 1.24 0 0 1-1.24 1.24h-13.797a1.24 1.24 0 1 1 0-2.48h12.557v-2.38h-12.557a1.24 1.24 0 1 1 0-2.48h12.557v-2.054h-12.557a1.24 1.24 0 1 1 0-2.48h12.557v-2.38h-15.337v16.957h20.52V4.033h-25.703v27.323h26.943a1.24 1.24 0 1 1 0 2.48zM939.859 1.553c.685 0 1.24.555 1.24 1.24v29.803a1.24 1.24 0 0 1-1.24 1.24h-28.183a1.237 1.237 0 0 1-1.24-1.24V7.976c0-.685.555-1.24 1.24-1.24h23a1.24 1.24 0 0 1 1.24 1.24v19.437a1.24 1.24 0 0 1-1.24 1.24h-17.817a1.24 1.24 0 0 1-1.24-1.24V13.159c0-.684.555-1.24 1.24-1.24h13.797a1.24 1.24 0 1 1 0 2.48h-12.557v2.38h12.557a1.24 1.24 0 1 1 0 2.48h-12.557v2.055h12.557a1.24 1.24 0 1 1 0 2.48h-12.557v2.379h15.337V9.216h-20.52v22.14h25.703V4.033h-26.943a1.24 1.24 0 1 1 0-2.48zM911.68 40.314a1.24 1.24 0 1 1 0-2.48h66.732a1.24 1.24 0 1 1 0 2.48zM911.68 54.569a1.24 1.24 0 1 1 0-2.48h66.732a1.24 1.24 0 1 1 0 2.48zM967.936 46.202a2.38 2.38 0 1 0 2.38-2.38v-2.479a4.86 4.86 0 1 1 0 9.72 4.86 4.86 0 0 1 0-9.72v2.48a2.38 2.38 0 0 0-2.38 2.38"/><path d="M969.663 46.203a.648.648 0 1 1 1.296 0 .648.648 0 0 1-1.296 0M917.398 46.202a2.38 2.38 0 1 0 2.379-2.38v-2.479a4.859 4.859 0 1 1 0 9.718 4.859 4.859 0 0 1 0-9.718v2.48a2.38 2.38 0 0 0-2.379 2.38"/><path d="M919.124 46.203a.648.648 0 1 1 1.297 0 .648.648 0 0 1-1.297 0M934.243 46.202a2.38 2.38 0 1 0 2.379-2.38v-2.479a4.859 4.859 0 1 1 0 9.718 4.859 4.859 0 0 1 0-9.718v2.48a2.38 2.38 0 0 0-2.379 2.38"/><path d="M935.974 46.203a.649.649 0 1 1 1.298.001.649.649 0 0 1-1.298 0M951.091 46.202a2.38 2.38 0 0 0 4.759 0 2.38 2.38 0 0 0-2.379-2.38v-2.479a4.859 4.859 0 1 1 0 9.718 4.859 4.859 0 0 1 0-9.718v2.48a2.38 2.38 0 0 0-2.38 2.38"/><path d="M952.823 46.203a.648.648 0 1 1 1.297 0 .648.648 0 0 1-1.297 0M946.278 2.793v29.803a1.24 1.24 0 1 1-2.479 0V2.793a1.24 1.24 0 1 1 2.479 0M191.535 32.505a1.24 1.24 0 0 1-1.24-1.24V1.462c0-.684.555-1.24 1.24-1.24h28.183a1.24 1.24 0 0 1 1.24 1.24v24.62a1.24 1.24 0 0 1-1.24 1.24h-23a1.24 1.24 0 0 1-1.24-1.24V6.646c0-.685.555-1.24 1.24-1.24h17.817c.685 0 1.24.555 1.24 1.24v14.253a1.24 1.24 0 0 1-1.24 1.24h-13.797a1.24 1.24 0 1 1 0-2.48h12.557v-2.38h-12.557a1.24 1.24 0 1 1 0-2.48h12.557v-2.055h-12.557a1.24 1.24 0 1 1 0-2.48h12.557V7.886h-15.337v16.957h20.52V2.702h-25.703v27.323h26.943a1.24 1.24 0 1 1 0 2.48zM181.165.222c.685 0 1.24.555 1.24 1.24v29.803a1.24 1.24 0 0 1-1.24 1.24h-28.183a1.24 1.24 0 0 1-1.24-1.24V6.645c0-.685.555-1.24 1.24-1.24h23a1.24 1.24 0 0 1 1.24 1.24v19.437a1.24 1.24 0 0 1-1.24 1.24h-17.817a1.24 1.24 0 0 1-1.24-1.24V11.828c0-.684.555-1.24 1.24-1.24h13.797a1.24 1.24 0 1 1 0 2.48h-12.557v2.38h12.557a1.24 1.24 0 1 1 0 2.48h-12.557v2.055h12.557a1.24 1.24 0 1 1 0 2.48h-12.557v2.379h15.337V7.885h-20.52v22.14h25.703V2.702h-26.943a1.24 1.24 0 1 1 0-2.48zM152.986 38.983a1.24 1.24 0 1 1 0-2.48h66.733a1.24 1.24 0 0 1 0 2.48zM152.986 53.238a1.24 1.24 0 1 1 0-2.48h66.733a1.24 1.24 0 0 1 0 2.48zM209.237 44.871a2.38 2.38 0 1 0 2.379-2.38v-2.479a4.859 4.859 0 1 1 0 9.718 4.859 4.859 0 0 1 0-9.718v2.48a2.38 2.38 0 0 0-2.379 2.38"/><path d="M210.968 44.872a.649.649 0 1 1 1.298.001.649.649 0 0 1-1.298 0M158.698 44.871a2.38 2.38 0 1 0 2.379-2.38v-2.479a4.86 4.86 0 1 1 0 9.72 4.86 4.86 0 0 1 0-9.72v2.48a2.38 2.38 0 0 0-2.379 2.38"/><path d="M160.43 44.872a.648.648 0 1 1 1.296 0 .648.648 0 0 1-1.296 0M175.547 44.871a2.38 2.38 0 1 0 2.379-2.38v-2.479a4.859 4.859 0 1 1 0 9.718 4.859 4.859 0 0 1 0-9.718v2.48a2.38 2.38 0 0 0-2.379 2.38"/><path d="M177.278 44.872a.649.649 0 1 1 1.298.001.649.649 0 0 1-1.298 0M192.398 44.871a2.38 2.38 0 1 0 2.38-2.38v-2.479a4.86 4.86 0 1 1 0 9.719 4.86 4.86 0 0 1 0-9.719v2.48a2.38 2.38 0 0 0-2.38 2.38"/><path d="M194.125 44.872a.648.648 0 1 1 1.296 0 .648.648 0 0 1-1.296 0M187.584 1.462v29.803a1.24 1.24 0 1 1-2.479 0V1.462a1.24 1.24 0 1 1 2.479 0M646.752 32.727a1.24 1.24 0 0 1-1.24-1.24V1.684c0-.685.555-1.24 1.24-1.24h28.183a1.24 1.24 0 0 1 1.24 1.24v24.62a1.24 1.24 0 0 1-1.24 1.24h-23a1.24 1.24 0 0 1-1.24-1.24V6.867c0-.685.555-1.24 1.24-1.24h17.817a1.24 1.24 0 0 1 1.239 1.24V21.12a1.24 1.24 0 0 1-1.239 1.24h-13.797a1.24 1.24 0 1 1 0-2.48h12.557v-2.379h-12.557a1.24 1.24 0 1 1 0-2.48h12.557v-2.055h-12.557a1.24 1.24 0 1 1 0-2.48h12.557V8.107h-15.337v16.957h20.52V2.924h-25.704v27.323h26.944a1.24 1.24 0 0 1 0 2.48zM636.382.444c.685 0 1.24.555 1.24 1.24v29.802a1.24 1.24 0 0 1-1.24 1.24h-28.183a1.24 1.24 0 0 1-1.24-1.24V6.866c0-.684.555-1.239 1.24-1.239h23a1.238 1.238 0 0 1 1.24 1.24v19.436a1.24 1.24 0 0 1-1.24 1.24h-17.817a1.24 1.24 0 0 1-1.24-1.24V12.05c0-.685.555-1.24 1.24-1.24h13.797a1.24 1.24 0 1 1 0 2.48h-12.557v2.38h12.557a1.24 1.24 0 1 1 0 2.479h-12.557v2.055h12.557a1.24 1.24 0 1 1 0 2.48h-12.557v2.38h15.337V8.106h-20.52v22.14h25.703V2.924h-26.943a1.24 1.24 0 1 1 0-2.48zM608.204 39.206a1.24 1.24 0 1 1 0-2.48h66.733a1.24 1.24 0 0 1 0 2.48zM608.204 53.46a1.24 1.24 0 1 1 0-2.48h66.733a1.24 1.24 0 0 1 0 2.48zM664.462 45.093a2.38 2.38 0 1 0 2.38-2.38v-2.48a4.86 4.86 0 1 1-.001 9.72 4.86 4.86 0 0 1 .001-9.72v2.48a2.38 2.38 0 0 0-2.38 2.38"/><path d="M666.194 45.094a.648.648 0 1 1 1.296 0 .648.648 0 0 1-1.296 0M613.924 45.094a2.38 2.38 0 1 0 2.379-2.38v-2.48a4.859 4.859 0 1 1 0 9.718 4.859 4.859 0 0 1 0-9.718v2.48a2.38 2.38 0 0 0-2.379 2.38"/><path d="M615.655 45.094a.648.648 0 1 1 1.296 0 .648.648 0 0 1-1.296 0M630.768 45.093a2.38 2.38 0 1 0 2.38-2.38v-2.48a4.86 4.86 0 1 1-.001 9.72 4.86 4.86 0 0 1 .001-9.72v2.48a2.38 2.38 0 0 0-2.38 2.38"/><path d="M632.495 45.094a.648.648 0 1 1 1.296 0 .648.648 0 0 1-1.296 0M647.613 45.093a2.38 2.38 0 1 0 2.38-2.38v-2.48a4.86 4.86 0 1 1-.001 9.72 4.86 4.86 0 0 1 .001-9.72v2.48a2.38 2.38 0 0 0-2.38 2.38"/><path d="M649.345 45.094a.648.648 0 1 1 1.296 0 .648.648 0 0 1-1.296 0M642.806 1.684v29.803a1.24 1.24 0 1 1-2.479 0V1.684a1.24 1.24 0 1 1 2.479 0M1101.97 34.058c-.68 0-1.24-.556-1.24-1.24V3.015c0-.685.56-1.24 1.24-1.24h28.18c.33 0 .65.13.88.363s.36.548.36.877v24.62c0 .684-.55 1.24-1.24 1.24h-23c-.32 0-.64-.131-.87-.364a1.22 1.22 0 0 1-.37-.876V8.198c0-.685.56-1.24 1.24-1.24h17.82c.69 0 1.24.555 1.24 1.24v14.254c0 .684-.55 1.24-1.24 1.24h-13.8c-.68 0-1.24-.556-1.24-1.24 0-.685.56-1.24 1.24-1.24h12.56v-2.38h-12.56c-.68 0-1.24-.555-1.24-1.24s.56-1.24 1.24-1.24h12.56v-2.055h-12.56c-.68 0-1.24-.555-1.24-1.24s.56-1.24 1.24-1.24h12.56V9.439h-15.34v16.957h20.52V4.255h-25.7v27.323h26.94c.69 0 1.24.555 1.24 1.24s-.55 1.24-1.24 1.24zM1091.6 1.775c.69 0 1.24.555 1.24 1.24v29.803c0 .685-.55 1.24-1.24 1.24h-28.18c-.33 0-.65-.13-.88-.363a1.25 1.25 0 0 1-.36-.877V8.198c0-.684.55-1.24 1.24-1.24h23c.33 0 .64.131.87.364.24.232.37.548.37.876v19.437c0 .684-.56 1.24-1.24 1.24h-17.82c-.68 0-1.24-.555-1.24-1.24V13.382c0-.685.56-1.24 1.24-1.24h13.8c.68 0 1.24.555 1.24 1.24s-.56 1.24-1.24 1.24h-12.56V17h12.56c.68 0 1.24.555 1.24 1.24s-.56 1.24-1.24 1.24h-12.56v2.055h12.56c.68 0 1.24.555 1.24 1.24s-.56 1.24-1.24 1.24h-12.56v2.379h15.34V9.438h-20.52v22.14h25.7V4.255h-26.94c-.69 0-1.24-.555-1.24-1.24s.55-1.24 1.24-1.24zM1063.42 40.537c-.68 0-1.24-.556-1.24-1.24 0-.685.56-1.24 1.24-1.24h66.73c.69 0 1.24.555 1.24 1.24s-.55 1.24-1.24 1.24zM1063.42 54.792c-.68 0-1.24-.556-1.24-1.24 0-.685.56-1.24 1.24-1.24h66.73c.69 0 1.24.555 1.24 1.24s-.55 1.24-1.24 1.24zM1119.67 46.425c0 1.314 1.07 2.379 2.38 2.379 1.32 0 2.38-1.065 2.38-2.38s-1.06-2.379-2.38-2.379v-2.48c2.68 0 4.86 2.176 4.86 4.86 0 2.683-2.18 4.859-4.86 4.859a4.86 4.86 0 0 1-4.86-4.86c0-2.683 2.18-4.859 4.86-4.859v2.48a2.383 2.383 0 0 0-2.38 2.38"/><path d="M1121.4 46.425c0-.358.29-.648.65-.648a.649.649 0 1 1 0 1.297c-.36 0-.65-.29-.65-.649M1069.13 46.425c0 1.314 1.07 2.379 2.38 2.379 1.32 0 2.38-1.065 2.38-2.38s-1.06-2.379-2.38-2.379v-2.48c2.69 0 4.86 2.176 4.86 4.86 0 2.683-2.17 4.859-4.86 4.859a4.86 4.86 0 0 1-4.86-4.86c0-2.683 2.18-4.859 4.86-4.859v2.48a2.383 2.383 0 0 0-2.38 2.38"/><path d="M1070.86 46.425c0-.358.29-.648.65-.648a.649.649 0 1 1 0 1.297c-.36 0-.65-.29-.65-.649M1085.98 46.425c0 1.314 1.07 2.379 2.38 2.379 1.32 0 2.38-1.065 2.38-2.38s-1.06-2.379-2.38-2.379v-2.48c2.68 0 4.86 2.176 4.86 4.86 0 2.683-2.18 4.859-4.86 4.859a4.86 4.86 0 0 1-4.86-4.86c0-2.683 2.18-4.859 4.86-4.859v2.48a2.383 2.383 0 0 0-2.38 2.38"/><path d="M1087.71 46.425c0-.358.29-.648.65-.648a.649.649 0 1 1 0 1.297c-.36 0-.65-.29-.65-.649M1102.83 46.425c0 1.314 1.07 2.379 2.38 2.379 1.32 0 2.38-1.065 2.38-2.38s-1.06-2.379-2.38-2.379v-2.48c2.69 0 4.86 2.176 4.86 4.86 0 2.683-2.17 4.859-4.86 4.859a4.86 4.86 0 0 1-4.86-4.86c0-2.683 2.18-4.859 4.86-4.859v2.48a2.383 2.383 0 0 0-2.38 2.38"/><path d="M1104.56 46.425c0-.358.29-.648.65-.648a.649.649 0 1 1 0 1.297c-.36 0-.65-.29-.65-.649M1098.02 3.015v29.803c0 .684-.55 1.24-1.24 1.24-.68 0-1.24-.556-1.24-1.24V3.015c0-.685.56-1.24 1.24-1.24.69 0 1.24.555 1.24 1.24M343.27 32.505a1.24 1.24 0 0 1-1.24-1.24V1.462c0-.684.556-1.24 1.24-1.24h28.183a1.24 1.24 0 0 1 1.24 1.24v24.62a1.24 1.24 0 0 1-1.24 1.24h-23a1.24 1.24 0 0 1-1.239-1.24V6.646c0-.685.555-1.24 1.239-1.24h17.817c.685 0 1.24.555 1.24 1.24v14.253a1.24 1.24 0 0 1-1.24 1.24h-13.797a1.24 1.24 0 1 1 0-2.48h12.557v-2.38h-12.557a1.24 1.24 0 1 1 0-2.48h12.557v-2.055h-12.557a1.24 1.24 0 1 1 0-2.48h12.557V7.886h-15.337v16.957h20.521V2.702H344.51v27.323h26.943a1.24 1.24 0 1 1 0 2.48zM332.9.222c.685 0 1.24.555 1.24 1.24v29.803a1.24 1.24 0 0 1-1.24 1.24h-28.183a1.24 1.24 0 0 1-1.239-1.24V6.645c0-.685.555-1.24 1.239-1.24h23a1.24 1.24 0 0 1 1.24 1.24v19.437a1.24 1.24 0 0 1-1.24 1.24H309.9a1.24 1.24 0 0 1-1.239-1.24V11.828c0-.684.555-1.24 1.239-1.24h13.798a1.24 1.24 0 0 1 0 2.48H311.14v2.38h12.558a1.24 1.24 0 0 1 0 2.48H311.14v2.055h12.558a1.24 1.24 0 0 1 0 2.48H311.14v2.379h15.338V7.885h-20.521v22.14h25.704V2.702h-26.944a1.24 1.24 0 0 1 0-2.48zM304.72 38.983a1.24 1.24 0 0 1 0-2.48h66.733a1.24 1.24 0 1 1 0 2.48zM304.72 53.238a1.24 1.24 0 0 1 0-2.48h66.733a1.24 1.24 0 1 1 0 2.48zM360.976 44.87a2.38 2.38 0 1 0 2.379-2.379v-2.48a4.859 4.859 0 1 1 0 9.718 4.859 4.859 0 0 1 0-9.717v2.48a2.38 2.38 0 0 0-2.379 2.379"/><path d="M362.708 44.872a.648.648 0 1 1 1.296 0 .648.648 0 0 1-1.296 0M310.437 44.87a2.38 2.38 0 1 0 2.38-2.379v-2.48a4.86 4.86 0 1 1 0 9.72 4.86 4.86 0 0 1 0-9.72v2.48a2.38 2.38 0 0 0-2.38 2.38"/><path d="M312.169 44.872a.648.648 0 1 1 1.296 0 .648.648 0 0 1-1.296 0M327.286 44.87a2.38 2.38 0 1 0 2.38-2.379v-2.48a4.86 4.86 0 1 1 0 9.72 4.86 4.86 0 0 1 0-9.72v2.48a2.38 2.38 0 0 0-2.38 2.38"/><path d="M329.018 44.872a.648.648 0 1 1 1.296 0 .648.648 0 0 1-1.296 0M344.131 44.87a2.38 2.38 0 1 0 2.379-2.379v-2.48a4.86 4.86 0 1 1 0 9.72 4.86 4.86 0 0 1 0-9.72v2.48a2.38 2.38 0 0 0-2.379 2.38"/><path d="M345.857 44.872a.649.649 0 1 1 1.298 0 .649.649 0 0 1-1.298 0M339.32 1.462v29.803a1.24 1.24 0 1 1-2.48 0V1.462a1.24 1.24 0 1 1 2.48 0M798.487 32.727a1.24 1.24 0 0 1-1.24-1.24V1.684c0-.685.555-1.24 1.24-1.24h28.183a1.24 1.24 0 0 1 1.24 1.24v24.62a1.24 1.24 0 0 1-1.24 1.24h-23a1.24 1.24 0 0 1-1.24-1.24V6.867c0-.685.555-1.24 1.24-1.24h17.817c.685 0 1.24.555 1.24 1.24V21.12a1.24 1.24 0 0 1-1.24 1.24H807.69a1.24 1.24 0 1 1 0-2.48h12.557v-2.379H807.69a1.24 1.24 0 1 1 0-2.48h12.557v-2.055H807.69a1.24 1.24 0 1 1 0-2.48h12.557V8.107H804.91v16.957h20.52V2.924h-25.703v27.323h26.943a1.24 1.24 0 1 1 0 2.48zM788.117.444c.685 0 1.24.555 1.24 1.24v29.802a1.24 1.24 0 0 1-1.24 1.24h-28.183a1.237 1.237 0 0 1-1.24-1.24V6.866c0-.684.555-1.239 1.24-1.239h23a1.24 1.24 0 0 1 1.24 1.24v19.436a1.24 1.24 0 0 1-1.24 1.24h-17.817a1.24 1.24 0 0 1-1.24-1.24V12.05c0-.685.556-1.24 1.24-1.24h13.797a1.24 1.24 0 1 1 0 2.48h-12.557v2.38h12.557a1.24 1.24 0 1 1 0 2.479h-12.557v2.055h12.557a1.24 1.24 0 1 1 0 2.48h-12.557v2.38h15.337V8.106h-20.52v22.14h25.703V2.924h-26.943a1.24 1.24 0 1 1 0-2.48zM759.938 39.206a1.24 1.24 0 1 1 0-2.48h66.732a1.24 1.24 0 1 1 0 2.48zM759.938 53.46a1.24 1.24 0 1 1 0-2.48h66.732a1.24 1.24 0 1 1 0 2.48zM816.201 45.093a2.38 2.38 0 1 0 2.38-2.38v-2.48a4.86 4.86 0 1 1-.001 9.72 4.86 4.86 0 0 1 .001-9.72v2.48a2.38 2.38 0 0 0-2.38 2.38"/><path d="M817.928 45.094a.648.648 0 1 1 1.296 0 .648.648 0 0 1-1.296 0M765.662 45.093a2.38 2.38 0 1 0 2.38-2.38v-2.48a4.86 4.86 0 1 1-.001 9.72 4.86 4.86 0 0 1 .001-9.72v2.48a2.38 2.38 0 0 0-2.38 2.38"/><path d="M767.389 45.093a.648.648 0 1 1 1.296 0 .648.648 0 0 1-1.296 0M782.501 45.093a2.38 2.38 0 1 0 2.379-2.38v-2.48a4.859 4.859 0 1 1 0 9.719 4.859 4.859 0 0 1 0-9.718v2.48a2.38 2.38 0 0 0-2.379 2.379"/><path d="M784.232 45.094a.649.649 0 1 1 1.298.001.649.649 0 0 1-1.298-.001M799.35 45.093a2.38 2.38 0 1 0 2.379-2.38v-2.48a4.859 4.859 0 1 1 0 9.719 4.859 4.859 0 0 1 0-9.718v2.48a2.38 2.38 0 0 0-2.379 2.379"/><path d="M801.081 45.094a.648.648 0 1 1 1.297 0 .648.648 0 0 1-1.297 0M794.542 1.684v29.803a1.24 1.24 0 1 1-2.48 0V1.684a1.24 1.24 0 1 1 2.48 0M1253.71 34.058c-.69 0-1.24-.556-1.24-1.24V3.015c0-.685.55-1.24 1.24-1.24h28.18c.33 0 .64.13.88.363.23.233.36.548.36.877v24.62c0 .684-.56 1.24-1.24 1.24h-23c-.33 0-.64-.131-.88-.364a1.25 1.25 0 0 1-.36-.876V8.198c0-.685.55-1.24 1.24-1.24h17.82c.68 0 1.24.555 1.24 1.24v14.254c0 .684-.56 1.24-1.24 1.24h-13.8c-.69 0-1.24-.556-1.24-1.24 0-.685.55-1.24 1.24-1.24h12.56v-2.38h-12.56c-.69 0-1.24-.555-1.24-1.24s.55-1.24 1.24-1.24h12.56v-2.055h-12.56c-.69 0-1.24-.555-1.24-1.24s.55-1.24 1.24-1.24h12.56V9.439h-15.34v16.957h20.52V4.255h-25.7v27.323h26.94c.68 0 1.24.555 1.24 1.24s-.56 1.24-1.24 1.24zM1243.34 1.775c.68 0 1.24.555 1.24 1.24v29.802c0 .685-.56 1.24-1.24 1.24h-28.19c-.33 0-.64-.13-.87-.363a1.22 1.22 0 0 1-.37-.877V8.197c0-.684.56-1.239 1.24-1.239h23c.33 0 .65.13.88.363s.36.548.36.877v19.436c0 .685-.55 1.24-1.24 1.24h-17.81c-.69 0-1.24-.555-1.24-1.24V13.381c0-.685.55-1.24 1.24-1.24h13.79c.69 0 1.24.555 1.24 1.24s-.55 1.24-1.24 1.24h-12.55V17h12.55c.69 0 1.24.554 1.24 1.24 0 .684-.55 1.239-1.24 1.239h-12.55v2.055h12.55c.69 0 1.24.555 1.24 1.24s-.55 1.24-1.24 1.24h-12.55v2.38h15.33V9.437h-20.52v22.14h25.71V4.255h-26.95c-.68 0-1.24-.556-1.24-1.24 0-.685.56-1.24 1.24-1.24zM1215.16 40.536c-.69 0-1.24-.555-1.24-1.24s.55-1.24 1.24-1.24h66.73c.68 0 1.24.556 1.24 1.24 0 .685-.56 1.24-1.24 1.24zM1215.16 54.791c-.69 0-1.24-.555-1.24-1.24s.55-1.24 1.24-1.24h66.73c.68 0 1.24.555 1.24 1.24s-.56 1.24-1.24 1.24zM1271.41 46.424c0 1.314 1.07 2.38 2.38 2.38s2.38-1.066 2.38-2.38-1.07-2.38-2.38-2.38v-2.48c2.68 0 4.86 2.176 4.86 4.86s-2.18 4.86-4.86 4.86a4.86 4.86 0 0 1-4.86-4.86c0-2.684 2.18-4.86 4.86-4.86v2.48a2.383 2.383 0 0 0-2.38 2.38"/><path d="M1273.14 46.425c0-.358.29-.648.65-.648a.649.649 0 1 1 0 1.296c-.36 0-.65-.29-.65-.648M1220.87 46.424c0 1.314 1.07 2.38 2.38 2.38 1.32 0 2.38-1.066 2.38-2.38s-1.06-2.38-2.38-2.38v-2.48c2.69 0 4.86 2.176 4.86 4.86s-2.17 4.86-4.86 4.86a4.86 4.86 0 0 1-4.86-4.86c0-2.684 2.18-4.86 4.86-4.86v2.48a2.383 2.383 0 0 0-2.38 2.38"/><path d="M1222.6 46.425c0-.358.29-.648.65-.648a.649.649 0 1 1 0 1.296c-.36 0-.65-.29-.65-.648M1237.72 46.424c0 1.314 1.07 2.38 2.38 2.38s2.38-1.066 2.38-2.38-1.07-2.38-2.38-2.38v-2.48c2.68 0 4.86 2.176 4.86 4.86s-2.18 4.86-4.86 4.86a4.86 4.86 0 0 1-4.86-4.86c0-2.684 2.18-4.86 4.86-4.86v2.48a2.383 2.383 0 0 0-2.38 2.38"/><path d="M1239.45 46.425c0-.358.29-.648.65-.648a.649.649 0 1 1 0 1.296c-.36 0-.65-.29-.65-.648M1254.57 46.424a2.376 2.376 0 1 0 4.75 0c0-1.314-1.06-2.38-2.37-2.38v-2.48c2.68 0 4.85 2.176 4.85 4.86s-2.17 4.86-4.85 4.86a4.856 4.856 0 0 1-4.86-4.86c0-2.684 2.17-4.86 4.86-4.86v2.48a2.376 2.376 0 0 0-2.38 2.38"/><path d="M1256.29 46.425c0-.358.29-.648.65-.648a.649.649 0 1 1 0 1.296c-.36 0-.65-.29-.65-.648M1249.76 3.015v29.803c0 .684-.56 1.24-1.24 1.24-.69 0-1.24-.556-1.24-1.24V3.015c0-.685.55-1.24 1.24-1.24.68 0 1.24.555 1.24 1.24M105.292 20.957c.685 0 1.24.555 1.24 1.24V52a1.24 1.24 0 0 1-1.24 1.24H77.109a1.24 1.24 0 0 1-1.24-1.24V27.38c0-.685.555-1.24 1.24-1.24h23a1.24 1.24 0 0 1 1.24 1.24v19.436a1.24 1.24 0 0 1-1.24 1.24H82.292a1.24 1.24 0 0 1-1.24-1.24V32.563c0-.685.555-1.24 1.24-1.24h13.797a1.24 1.24 0 0 1 0 2.48H83.532v2.38h12.557a1.24 1.24 0 0 1 0 2.479H83.532v2.056h12.557a1.24 1.24 0 0 1 0 2.48H83.532v2.379h15.337V28.62h-20.52v22.14h25.703V23.437H77.109a1.24 1.24 0 1 1 0-2.48zM115.662 53.239a1.24 1.24 0 0 1-1.24-1.24V22.196c0-.684.555-1.24 1.24-1.24h28.183a1.24 1.24 0 0 1 1.239 1.24v24.62a1.24 1.24 0 0 1-1.239 1.24h-23a1.24 1.24 0 0 1-1.24-1.24V27.379c0-.684.555-1.24 1.24-1.24h17.817a1.24 1.24 0 0 1 1.239 1.24v14.254a1.24 1.24 0 0 1-1.239 1.24h-13.798a1.24 1.24 0 0 1 0-2.48h12.558v-2.38h-12.558a1.24 1.24 0 0 1 0-2.48h12.558v-2.055h-12.558a1.24 1.24 0 0 1 0-2.48h12.558V28.62h-15.338v16.957h20.521v-22.14h-25.704V50.76h26.944a1.24 1.24 0 0 1 0 2.48zM143.842 14.477a1.24 1.24 0 1 1 0 2.48H77.11a1.24 1.24 0 0 1 0-2.48zM143.842.222a1.24 1.24 0 1 1 0 2.48H77.11a1.24 1.24 0 0 1 0-2.48zM87.587 8.59a2.38 2.38 0 1 0-2.38 2.38v2.479a4.86 4.86 0 1 1 .001-9.719 4.86 4.86 0 0 1 0 9.719v-2.48a2.38 2.38 0 0 0 2.38-2.38"/><path d="M85.856 8.589a.648.648 0 1 1-1.297 0 .648.648 0 0 1 1.297 0M138.126 8.59a2.38 2.38 0 1 0-2.379 2.38v2.479a4.86 4.86 0 1 1 0-9.72 4.86 4.86 0 0 1 0 9.72v-2.48a2.38 2.38 0 0 0 2.379-2.38"/><path d="M136.394 8.589a.648.648 0 1 1-1.296 0 .648.648 0 0 1 1.296 0M121.277 8.59a2.38 2.38 0 1 0-2.379 2.38v2.479a4.859 4.859 0 1 1 0-9.718 4.859 4.859 0 0 1 0 9.718v-2.48a2.38 2.38 0 0 0 2.379-2.38"/><path d="M119.546 8.589a.649.649 0 1 1-1.298-.001.649.649 0 0 1 1.298 0M104.432 8.59a2.38 2.38 0 1 0-2.379 2.38v2.479a4.86 4.86 0 1 1 0-9.719 4.86 4.86 0 0 1 0 9.719v-2.48a2.38 2.38 0 0 0 2.379-2.38"/><path d="M102.706 8.589a.648.648 0 1 1-1.296 0 .648.648 0 0 1 1.296 0M109.242 52V22.196a1.24 1.24 0 1 1 2.48 0V52a1.24 1.24 0 1 1-2.48 0M560.511 21.18c.685 0 1.24.554 1.24 1.239v29.803a1.24 1.24 0 0 1-1.24 1.24h-28.183a1.24 1.24 0 0 1-1.24-1.24v-24.62c0-.685.555-1.24 1.24-1.24h23a1.24 1.24 0 0 1 1.24 1.24V47.04a1.24 1.24 0 0 1-1.24 1.24h-17.817a1.24 1.24 0 0 1-1.24-1.24V32.785c0-.684.555-1.24 1.24-1.24h13.797a1.24 1.24 0 1 1 0 2.48h-12.557v2.38h12.557a1.24 1.24 0 1 1 0 2.48h-12.557v2.055h12.557a1.24 1.24 0 1 1 0 2.48h-12.557v2.379h15.337V28.842h-20.52v22.14h25.703V23.659h-26.943a1.24 1.24 0 1 1 0-2.48zM570.881 53.462a1.24 1.24 0 0 1-1.24-1.24V22.42c0-.684.555-1.24 1.24-1.24h28.183a1.24 1.24 0 0 1 1.24 1.24v24.62a1.24 1.24 0 0 1-1.24 1.24h-23a1.239 1.239 0 0 1-1.24-1.24V27.603c0-.685.555-1.24 1.24-1.24h17.817c.685 0 1.24.555 1.24 1.24v14.253a1.24 1.24 0 0 1-1.24 1.24h-13.797a1.24 1.24 0 1 1 0-2.48h12.557v-2.38h-12.557a1.24 1.24 0 1 1 0-2.48h12.557v-2.054h-12.557a1.24 1.24 0 1 1 0-2.48h12.557v-2.38h-15.337V45.8h20.52V23.66h-25.703v27.323h26.943a1.24 1.24 0 1 1 0 2.48zM599.06 14.7a1.24 1.24 0 1 1 0 2.48h-66.732a1.24 1.24 0 1 1 0-2.48zM599.061.444a1.24 1.24 0 0 1 0 2.48h-66.733a1.24 1.24 0 1 1 0-2.48zM542.797 8.811a2.38 2.38 0 1 0-2.379 2.38v2.48a4.859 4.859 0 1 1 0-9.718 4.859 4.859 0 0 1 0 9.718v-2.48a2.38 2.38 0 0 0 2.379-2.38"/><path d="M541.071 8.81a.649.649 0 1 1-1.298 0 .649.649 0 0 1 1.298 0M593.336 8.811a2.38 2.38 0 1 0-2.38 2.38v2.48a4.86 4.86 0 1 1 .001-9.72 4.86 4.86 0 0 1-.001 9.72v-2.48a2.38 2.38 0 0 0 2.38-2.38"/><path d="M591.609 8.811a.648.648 0 1 1-1.296 0 .648.648 0 0 1 1.296 0M576.498 8.811a2.38 2.38 0 0 0-4.759 0 2.38 2.38 0 0 0 2.379 2.38v2.48a4.859 4.859 0 1 1 0-9.718 4.859 4.859 0 0 1 0 9.718v-2.48a2.38 2.38 0 0 0 2.38-2.38"/><path d="M574.766 8.81a.648.648 0 1 1-1.297 0 .648.648 0 0 1 1.297 0M559.649 8.811a2.38 2.38 0 1 0-2.38 2.38v2.48a4.86 4.86 0 1 1 .001-9.72 4.86 4.86 0 0 1-.001 9.72v-2.48a2.38 2.38 0 0 0 2.38-2.38"/><path d="M557.917 8.81a.648.648 0 1 1-1.296.001.648.648 0 0 1 1.296 0M564.457 52.222V22.419a1.24 1.24 0 1 1 2.479 0v29.803a1.24 1.24 0 0 1-2.479 0M1015.73 22.51c.68 0 1.24.555 1.24 1.24v29.803c0 .684-.56 1.24-1.24 1.24h-28.185a1.24 1.24 0 0 1-1.24-1.24v-24.62c0-.684.555-1.24 1.24-1.24h22.995c.33 0 .65.131.88.364s.36.547.36.876V48.37c0 .684-.55 1.24-1.24 1.24h-17.812a1.24 1.24 0 0 1-1.24-1.24V34.116c0-.684.555-1.24 1.24-1.24h13.802c.68 0 1.23.556 1.23 1.24 0 .685-.55 1.24-1.23 1.24h-12.562v2.38h12.562c.68 0 1.23.555 1.23 1.24s-.55 1.24-1.23 1.24h-12.562v2.055h12.562c.68 0 1.23.555 1.23 1.24s-.55 1.24-1.23 1.24h-12.562v2.379h15.342V30.173h-20.525v22.14h25.705V24.99h-26.945a1.24 1.24 0 1 1 0-2.48zM1026.1 54.793c-.69 0-1.24-.555-1.24-1.24V23.751c0-.685.55-1.24 1.24-1.24h28.18c.33 0 .65.13.88.362.23.233.36.549.36.877v24.62c0 .685-.55 1.24-1.24 1.24h-23c-.33 0-.64-.13-.88-.363a1.25 1.25 0 0 1-.36-.877V28.934c0-.685.56-1.24 1.24-1.24h17.82c.68 0 1.24.555 1.24 1.24v14.253c0 .685-.56 1.24-1.24 1.24h-13.8c-.68 0-1.24-.555-1.24-1.24s.56-1.24 1.24-1.24h12.56v-2.38h-12.56c-.68 0-1.24-.554-1.24-1.24 0-.684.56-1.24 1.24-1.24l12.56.001v-2.056h-12.56c-.68 0-1.24-.555-1.24-1.24s.56-1.24 1.24-1.24h12.56v-2.379h-15.34V47.13h20.52V24.99h-25.7v27.323h26.94c.69 0 1.24.555 1.24 1.24s-.55 1.24-1.24 1.24zM1054.28 16.03c.68 0 1.24.555 1.24 1.24s-.56 1.24-1.24 1.24h-66.734a1.24 1.24 0 1 1 0-2.48zM1054.28 1.775c.68 0 1.24.556 1.24 1.24 0 .685-.56 1.24-1.24 1.24h-66.734a1.24 1.24 0 1 1 0-2.48zM998.022 10.142a2.38 2.38 0 1 0-2.379 2.38v2.48a4.859 4.859 0 1 1 0-9.718 4.859 4.859 0 0 1 0 9.718v-2.48a2.38 2.38 0 0 0 2.379-2.38"/><path d="M996.291 10.142a.649.649 0 1 1-1.298-.002.649.649 0 0 1 1.298.002M1048.56 10.142c0-1.314-1.06-2.38-2.38-2.38a2.383 2.383 0 0 0-2.38 2.38c0 1.315 1.07 2.38 2.38 2.38v2.48a4.86 4.86 0 0 1-4.86-4.86c0-2.683 2.18-4.859 4.86-4.859 2.69 0 4.86 2.176 4.86 4.86 0 2.683-2.17 4.858-4.86 4.858v-2.48c1.32 0 2.38-1.065 2.38-2.379"/><path d="M1046.83 10.142c0 .358-.29.648-.65.648a.649.649 0 1 1 0-1.297c.36 0 .65.29.65.649M1031.71 10.142c0-1.314-1.06-2.38-2.38-2.38a2.383 2.383 0 0 0-2.38 2.38c0 1.315 1.07 2.38 2.38 2.38v2.48a4.86 4.86 0 0 1-4.86-4.86c0-2.683 2.18-4.859 4.86-4.859 2.69 0 4.86 2.176 4.86 4.86 0 2.683-2.17 4.858-4.86 4.858v-2.48c1.32 0 2.38-1.065 2.38-2.379"/><path d="M1029.98 10.142c0 .358-.29.648-.65.648a.649.649 0 1 1 0-1.297c.36 0 .65.29.65.649M1014.87 10.142c0-1.314-1.07-2.38-2.38-2.38a2.376 2.376 0 0 0-2.38 2.38c0 1.315 1.06 2.38 2.38 2.38v2.48a4.856 4.856 0 0 1-4.86-4.86c0-2.683 2.17-4.859 4.86-4.859 2.68 0 4.86 2.176 4.86 4.86 0 2.683-2.18 4.858-4.86 4.858v-2.48c1.31 0 2.38-1.065 2.38-2.379"/><path d="M1013.14 10.142c0 .358-.29.648-.65.648a.649.649 0 1 1 0-1.297c.36 0 .65.29.65.649M1019.68 53.553V23.75c0-.685.55-1.24 1.24-1.24.68 0 1.24.555 1.24 1.24v29.803c0 .684-.56 1.24-1.24 1.24-.69 0-1.24-.556-1.24-1.24M257.027 21.18c.685 0 1.24.554 1.24 1.239v29.803a1.24 1.24 0 0 1-1.24 1.24h-28.183a1.237 1.237 0 0 1-1.24-1.24v-24.62c0-.685.555-1.24 1.24-1.24h23a1.24 1.24 0 0 1 1.24 1.24V47.04a1.24 1.24 0 0 1-1.24 1.24h-17.817a1.24 1.24 0 0 1-1.24-1.24V32.785c0-.684.556-1.24 1.24-1.24h13.797a1.24 1.24 0 1 1 0 2.48h-12.557v2.38h12.557a1.24 1.24 0 1 1 0 2.48h-12.557v2.055h12.557a1.24 1.24 0 1 1 0 2.48h-12.557v2.379h15.337V28.842h-20.52v22.14h25.703V23.659h-26.943a1.24 1.24 0 1 1 0-2.48zM267.397 53.462a1.24 1.24 0 0 1-1.24-1.24V22.42c0-.684.555-1.24 1.24-1.24h28.183a1.24 1.24 0 0 1 1.24 1.24v24.62a1.24 1.24 0 0 1-1.24 1.24h-23a1.239 1.239 0 0 1-1.24-1.24V27.603c0-.685.555-1.24 1.24-1.24h17.817c.685 0 1.24.555 1.24 1.24v14.253a1.24 1.24 0 0 1-1.24 1.24H276.6a1.24 1.24 0 1 1 0-2.48h12.557v-2.38H276.6a1.24 1.24 0 1 1 0-2.48h12.557v-2.054H276.6a1.24 1.24 0 1 1 0-2.48h12.557v-2.38H273.82V45.8h20.52V23.66h-25.703v27.323h26.943a1.24 1.24 0 1 1 0 2.48zM295.577 14.7a1.24 1.24 0 0 1 0 2.48h-66.733a1.24 1.24 0 1 1 0-2.48zM295.577.444a1.24 1.24 0 0 1 0 2.48h-66.733a1.24 1.24 0 1 1 0-2.48zM239.327 8.811a2.38 2.38 0 1 0-2.38 2.38v2.48a4.86 4.86 0 1 1 .001-9.72 4.86 4.86 0 0 1-.001 9.72v-2.48a2.38 2.38 0 0 0 2.38-2.38"/><path d="M237.595 8.81a.648.648 0 1 1-1.296.001.648.648 0 0 1 1.296 0M289.865 8.811a2.38 2.38 0 1 0-2.379 2.38v2.48a4.859 4.859 0 1 1 0-9.718 4.859 4.859 0 0 1 0 9.718v-2.48a2.38 2.38 0 0 0 2.379-2.38"/><path d="M288.134 8.81a.649.649 0 1 1-1.298 0 .649.649 0 0 1 1.298 0M273.016 8.811a2.38 2.38 0 1 0-2.379 2.38v2.48a4.859 4.859 0 1 1 0-9.718 4.859 4.859 0 0 1 0 9.718v-2.48a2.38 2.38 0 0 0 2.379-2.38"/><path d="M271.285 8.81a.649.649 0 1 1-1.298 0 .649.649 0 0 1 1.298 0M256.165 8.811a2.38 2.38 0 1 0-2.379 2.38v2.48a4.86 4.86 0 1 1 0-9.72 4.86 4.86 0 0 1 0 9.72v-2.48a2.38 2.38 0 0 0 2.379-2.38"/><path d="M254.439 8.81a.649.649 0 1 1-1.298 0 .649.649 0 0 1 1.298 0M260.978 52.222V22.419a1.24 1.24 0 0 1 2.48 0v29.803a1.24 1.24 0 0 1-2.48 0M712.247 21.4c.684 0 1.24.556 1.24 1.24v29.803a1.24 1.24 0 0 1-1.24 1.24h-28.183a1.24 1.24 0 0 1-1.24-1.24v-24.62c0-.684.555-1.239 1.24-1.239h23a1.24 1.24 0 0 1 1.239 1.24V47.26a1.24 1.24 0 0 1-1.239 1.24h-17.817a1.24 1.24 0 0 1-1.24-1.24V33.007c0-.685.555-1.24 1.24-1.24h13.797a1.24 1.24 0 1 1 0 2.48h-12.557v2.38h12.557a1.24 1.24 0 1 1 0 2.479h-12.557v2.055h12.557a1.24 1.24 0 0 1 0 2.48h-12.557v2.38h15.337V29.063h-20.521v22.14h25.704V23.88h-26.943a1.24 1.24 0 1 1 0-2.48zM722.616 53.684a1.24 1.24 0 0 1-1.239-1.24V22.64c0-.685.555-1.24 1.239-1.24H750.8a1.24 1.24 0 0 1 1.239 1.24v24.62a1.24 1.24 0 0 1-1.239 1.24h-23a1.24 1.24 0 0 1-1.24-1.24V27.824c0-.684.555-1.24 1.24-1.24h17.816c.685 0 1.24.556 1.24 1.24v14.253a1.24 1.24 0 0 1-1.24 1.24h-13.797a1.24 1.24 0 0 1 0-2.48h12.558v-2.379h-12.558a1.24 1.24 0 0 1 0-2.48h12.558v-2.055h-12.558a1.24 1.24 0 0 1 0-2.48h12.558v-2.379h-15.338v16.957h20.521V23.88h-25.704v27.323H750.8a1.24 1.24 0 0 1 0 2.48zM750.794 14.921a1.24 1.24 0 1 1 0 2.48h-66.732a1.24 1.24 0 1 1 0-2.48zM750.794.667a1.24 1.24 0 1 1 0 2.48h-66.732a1.24 1.24 0 1 1 0-2.48zM694.536 9.033a2.38 2.38 0 1 0-2.379 2.38v2.48a4.859 4.859 0 1 1 0-9.718 4.859 4.859 0 0 1 0 9.718v-2.48a2.38 2.38 0 0 0 2.379-2.38"/><path d="M692.805 9.033a.649.649 0 1 1-1.298-.001.649.649 0 0 1 1.298.001M745.075 9.033a2.38 2.38 0 1 0-2.38 2.38v2.48a4.86 4.86 0 1 1 0-9.72 4.86 4.86 0 0 1 0 9.72v-2.48a2.38 2.38 0 0 0 2.38-2.38"/><path d="M743.343 9.033a.648.648 0 1 1-1.296 0 .648.648 0 0 1 1.296 0M728.23 9.033a2.38 2.38 0 1 0-2.38 2.38v2.48a4.86 4.86 0 1 1 0-9.72 4.86 4.86 0 0 1 0 9.72v-2.48a2.38 2.38 0 0 0 2.38-2.38"/><path d="M726.504 9.033a.649.649 0 1 1-1.298-.001.649.649 0 0 1 1.298.001M711.385 9.033a2.38 2.38 0 1 0-2.379 2.38v2.48a4.86 4.86 0 1 1 0-9.72 4.86 4.86 0 0 1 0 9.72v-2.48a2.38 2.38 0 0 0 2.379-2.38"/><path d="M709.653 9.033a.648.648 0 1 1-1.296 0 .648.648 0 0 1 1.296 0M716.192 52.443V22.641a1.24 1.24 0 0 1 2.48 0v29.802a1.24 1.24 0 0 1-2.48 0M1167.46 22.732c.69 0 1.24.555 1.24 1.24v29.802c0 .685-.55 1.24-1.24 1.24h-28.18c-.33 0-.64-.13-.88-.363a1.25 1.25 0 0 1-.36-.877v-24.62c0-.684.56-1.239 1.24-1.239h23c.33 0 .64.13.88.363.23.233.36.548.36.877V48.59c0 .685-.55 1.24-1.24 1.24h-17.82c-.68 0-1.24-.555-1.24-1.24V34.338c0-.685.56-1.24 1.24-1.24h13.8c.69 0 1.24.555 1.24 1.24s-.55 1.24-1.24 1.24h-12.56v2.38h12.56c.69 0 1.24.554 1.24 1.24 0 .684-.55 1.239-1.24 1.239h-12.56v2.055h12.56c.69 0 1.24.556 1.24 1.24 0 .685-.55 1.24-1.24 1.24h-12.56v2.38h15.34V30.395h-20.52v22.14h25.7V25.212h-26.94c-.68 0-1.24-.555-1.24-1.24s.56-1.24 1.24-1.24zM1177.83 55.015c-.68 0-1.24-.556-1.24-1.24V23.972c0-.685.56-1.24 1.24-1.24h28.19c.33 0 .64.13.87.363.24.233.37.548.37.877v24.62c0 .684-.56 1.24-1.24 1.24h-23c-.33 0-.65-.131-.88-.364a1.25 1.25 0 0 1-.36-.876V29.155c0-.684.55-1.24 1.24-1.24h17.81c.69 0 1.24.556 1.24 1.24V43.41c0 .684-.55 1.24-1.24 1.24h-13.79c-.69 0-1.24-.556-1.24-1.24 0-.685.55-1.24 1.24-1.24h12.55v-2.38h-12.55c-.69 0-1.24-.555-1.24-1.24s.55-1.24 1.24-1.24h12.55v-2.055h-12.55c-.69 0-1.24-.555-1.24-1.24s.55-1.24 1.24-1.24h12.55v-2.379h-15.33v16.957h20.52v-22.14h-25.71v27.323h26.95c.68 0 1.24.555 1.24 1.24s-.56 1.24-1.24 1.24zM1206.01 16.253c.69 0 1.24.555 1.24 1.24s-.55 1.24-1.24 1.24h-66.73c-.68 0-1.24-.556-1.24-1.24 0-.685.56-1.24 1.24-1.24zM1206.01 1.998c.69 0 1.24.555 1.24 1.24s-.55 1.24-1.24 1.24h-66.73c-.68 0-1.24-.556-1.24-1.24 0-.685.56-1.24 1.24-1.24zM1149.76 10.365c0-1.315-1.06-2.38-2.38-2.38a2.383 2.383 0 0 0-2.38 2.38c0 1.314 1.07 2.379 2.38 2.379v2.48a4.86 4.86 0 0 1-4.86-4.86c0-2.683 2.18-4.859 4.86-4.859 2.69 0 4.86 2.176 4.86 4.86 0 2.683-2.17 4.859-4.86 4.859v-2.48c1.32 0 2.38-1.065 2.38-2.38"/><path d="M1148.03 10.364c0 .358-.29.648-.65.648a.648.648 0 1 1 0-1.296c.36 0 .65.29.65.648M1200.3 10.365c0-1.315-1.06-2.38-2.38-2.38a2.383 2.383 0 0 0-2.38 2.38c0 1.314 1.07 2.379 2.38 2.379v2.48a4.86 4.86 0 0 1-4.86-4.86c0-2.683 2.18-4.859 4.86-4.859s4.86 2.176 4.86 4.86c0 2.683-2.18 4.859-4.86 4.859v-2.48c1.32 0 2.38-1.065 2.38-2.38"/><path d="M1198.57 10.364c0 .358-.29.648-.65.648a.648.648 0 1 1 0-1.296c.36 0 .65.29.65.648M1183.45 10.365c0-1.315-1.06-2.38-2.38-2.38a2.383 2.383 0 0 0-2.38 2.38c0 1.314 1.07 2.379 2.38 2.379v2.48a4.86 4.86 0 0 1-4.86-4.86c0-2.683 2.18-4.859 4.86-4.859 2.69 0 4.86 2.176 4.86 4.86 0 2.683-2.17 4.859-4.86 4.859v-2.48c1.32 0 2.38-1.065 2.38-2.38"/><path d="M1181.72 10.364c0 .358-.29.648-.65.648a.648.648 0 1 1 0-1.296c.36 0 .65.29.65.648M1166.6 10.365c0-1.315-1.07-2.38-2.38-2.38a2.383 2.383 0 0 0-2.38 2.38c0 1.314 1.07 2.379 2.38 2.379v2.48a4.86 4.86 0 0 1-4.86-4.86c0-2.683 2.18-4.859 4.86-4.859s4.86 2.176 4.86 4.86c0 2.683-2.18 4.859-4.86 4.859v-2.48c1.31 0 2.38-1.065 2.38-2.38"/><path d="M1164.87 10.364c0 .358-.29.648-.64.648a.648.648 0 1 1 0-1.296c.35 0 .64.29.64.648M1171.41 53.774V23.972c0-.685.56-1.24 1.24-1.24.69 0 1.24.555 1.24 1.24v29.802c0 .685-.55 1.24-1.24 1.24-.68 0-1.24-.555-1.24-1.24M408.769 21.18c.685 0 1.24.554 1.24 1.239v29.803a1.24 1.24 0 0 1-1.24 1.24h-28.183a1.237 1.237 0 0 1-1.24-1.24v-24.62c0-.685.555-1.24 1.24-1.24h23a1.24 1.24 0 0 1 1.24 1.24V47.04a1.24 1.24 0 0 1-1.24 1.24h-17.817a1.24 1.24 0 0 1-1.24-1.24V32.785c0-.684.556-1.24 1.24-1.24h13.797a1.24 1.24 0 1 1 0 2.48h-12.557v2.38h12.557a1.24 1.24 0 1 1 0 2.48h-12.557v2.055h12.557a1.24 1.24 0 1 1 0 2.48h-12.557v2.379h15.337V28.842h-20.52v22.14h25.703V23.659h-26.943a1.24 1.24 0 1 1 0-2.48zM419.139 53.462a1.24 1.24 0 0 1-1.24-1.24V22.42c0-.684.555-1.24 1.24-1.24h28.183a1.24 1.24 0 0 1 1.24 1.24v24.62a1.24 1.24 0 0 1-1.24 1.24h-23a1.239 1.239 0 0 1-1.24-1.24V27.603c0-.685.555-1.24 1.24-1.24h17.817c.685 0 1.24.555 1.24 1.24v14.253a1.24 1.24 0 0 1-1.24 1.24h-13.797a1.24 1.24 0 1 1 0-2.48h12.557v-2.38h-12.557a1.24 1.24 0 1 1 0-2.48h12.557v-2.054h-12.557a1.24 1.24 0 1 1 0-2.48h12.557v-2.38h-15.337V45.8h20.52V23.66h-25.703v27.323h26.943a1.24 1.24 0 1 1 0 2.48zM447.318 14.7a1.24 1.24 0 1 1 0 2.48h-66.732a1.24 1.24 0 1 1 0-2.48zM447.318.444a1.24 1.24 0 1 1 0 2.48h-66.732a1.24 1.24 0 1 1 0-2.48zM391.062 8.811a2.38 2.38 0 1 0-2.379 2.38v2.48a4.86 4.86 0 1 1 0-9.72 4.86 4.86 0 0 1 0 9.72v-2.48a2.38 2.38 0 0 0 2.379-2.38"/><path d="M389.336 8.81a.649.649 0 1 1-1.298 0 .649.649 0 0 1 1.298 0M441.601 8.811a2.38 2.38 0 1 0-2.38 2.38v2.48a4.859 4.859 0 1 1 0-9.718 4.859 4.859 0 0 1 0 9.718v-2.48a2.38 2.38 0 0 0 2.38-2.38"/><path d="M439.874 8.81a.648.648 0 1 1-1.296.001.648.648 0 0 1 1.296 0M424.756 8.811a2.38 2.38 0 1 0-2.38 2.38v2.48a4.859 4.859 0 1 1 0-9.718 4.859 4.859 0 0 1 0 9.718v-2.48a2.38 2.38 0 0 0 2.38-2.38"/><path d="M423.024 8.81a.648.648 0 1 1-1.296.001.648.648 0 0 1 1.296 0M407.907 8.811a2.38 2.38 0 1 0-2.38 2.38v2.48a4.86 4.86 0 1 1 .001-9.72 4.86 4.86 0 0 1-.001 9.72v-2.48a2.38 2.38 0 0 0 2.38-2.38"/><path d="M406.175 8.81a.648.648 0 1 1-1.296.001.648.648 0 0 1 1.296 0M412.72 52.222V22.419a1.24 1.24 0 0 1 2.48 0v29.803a1.24 1.24 0 0 1-2.48 0M863.989 21.4c.684 0 1.24.556 1.24 1.24v29.803a1.24 1.24 0 0 1-1.24 1.24h-28.183a1.24 1.24 0 0 1-1.24-1.24v-24.62c0-.684.555-1.239 1.24-1.239h23a1.24 1.24 0 0 1 1.239 1.24V47.26a1.24 1.24 0 0 1-1.239 1.24h-17.817a1.24 1.24 0 0 1-1.24-1.24V33.007c0-.685.555-1.24 1.24-1.24h13.797a1.24 1.24 0 1 1 0 2.48h-12.557v2.38h12.557a1.24 1.24 0 1 1 0 2.479h-12.557v2.055h12.557a1.24 1.24 0 1 1 0 2.48h-12.557v2.38h15.337V29.063h-20.521v22.14h25.704V23.88h-26.943a1.24 1.24 0 1 1 0-2.48zM874.359 53.684a1.24 1.24 0 0 1-1.24-1.24V22.64c0-.685.555-1.24 1.24-1.24h28.183a1.24 1.24 0 0 1 1.24 1.24l-.001 24.62a1.24 1.24 0 0 1-1.239 1.24h-23a1.24 1.24 0 0 1-1.24-1.24V27.824c0-.684.555-1.24 1.24-1.24h17.817a1.24 1.24 0 0 1 1.239 1.24v14.253a1.24 1.24 0 0 1-1.239 1.24h-13.798a1.24 1.24 0 0 1 0-2.48h12.558v-2.379h-12.558a1.24 1.24 0 0 1 0-2.48h12.558v-2.055h-12.558a1.24 1.24 0 0 1 0-2.48h12.558v-2.379h-15.338v16.957h20.521V23.88h-25.704v27.323h26.944a1.24 1.24 0 0 1 0 2.48zM902.536 14.921a1.24 1.24 0 1 1 0 2.48h-66.732a1.24 1.24 0 1 1 0-2.48zM902.536.667a1.24 1.24 0 1 1 0 2.48h-66.732a1.24 1.24 0 1 1 0-2.48zM846.278 9.033a2.38 2.38 0 1 0-2.379 2.38v2.48a4.859 4.859 0 1 1 0-9.718 4.859 4.859 0 0 1 0 9.718v-2.48a2.38 2.38 0 0 0 2.379-2.38"/><path d="M844.546 9.033a.648.648 0 1 1-1.296 0 .648.648 0 0 1 1.296 0M896.817 9.033a2.38 2.38 0 1 0-2.38 2.38v2.48a4.86 4.86 0 1 1 0-9.72 4.86 4.86 0 0 1 0 9.72v-2.48a2.38 2.38 0 0 0 2.38-2.38"/><path d="M895.085 9.033a.648.648 0 1 1-1.296 0 .648.648 0 0 1 1.296 0M879.965 9.033a2.38 2.38 0 1 0-2.379 2.38v2.48a4.859 4.859 0 1 1 0-9.718 4.859 4.859 0 0 1 0 9.718v-2.48a2.38 2.38 0 0 0 2.379-2.38"/><path d="M878.239 9.033a.648.648 0 1 1-1.296 0 .648.648 0 0 1 1.296 0M863.127 9.033a2.38 2.38 0 1 0-2.379 2.38v2.48a4.86 4.86 0 1 1 0-9.72 4.86 4.86 0 0 1 0 9.72v-2.48a2.38 2.38 0 0 0 2.379-2.38"/><path d="M861.395 9.033a.648.648 0 1 1-1.296 0 .648.648 0 0 1 1.296 0M867.934 52.443V22.641a1.24 1.24 0 0 1 2.48 0v29.802a1.24 1.24 0 0 1-2.48 0M1319.21 22.732c.68 0 1.24.555 1.24 1.24v29.802c0 .685-.56 1.24-1.24 1.24h-28.19c-.33 0-.64-.13-.87-.363a1.22 1.22 0 0 1-.37-.877v-24.62c0-.684.56-1.239 1.24-1.239h23c.33 0 .65.13.88.363s.36.548.36.877V48.59c0 .685-.55 1.24-1.24 1.24h-17.81c-.69 0-1.24-.555-1.24-1.24V34.338c0-.685.55-1.24 1.24-1.24H1310c.69 0 1.24.555 1.24 1.24s-.55 1.24-1.24 1.24h-12.55v2.38H1310c.69 0 1.24.554 1.24 1.24 0 .684-.55 1.239-1.24 1.239h-12.55v2.055H1310c.69 0 1.24.556 1.24 1.24 0 .685-.55 1.24-1.24 1.24h-12.55v2.38h15.33V30.395h-20.52v22.14h25.71V25.212h-26.95c-.68 0-1.24-.555-1.24-1.24s.56-1.24 1.24-1.24zM1329.58 55.015c-.69 0-1.24-.556-1.24-1.24V23.972c0-.685.55-1.24 1.24-1.24h28.18c.33 0 .64.13.88.363.23.233.36.548.36.877v24.62c0 .684-.56 1.24-1.24 1.24h-23c-.33 0-.65-.131-.88-.364a1.25 1.25 0 0 1-.36-.876V29.155c0-.684.55-1.24 1.24-1.24h17.82c.68 0 1.24.556 1.24 1.24V43.41c0 .684-.56 1.24-1.24 1.24h-13.8c-.69 0-1.24-.556-1.24-1.24 0-.685.55-1.24 1.24-1.24h12.56v-2.38h-12.56c-.69 0-1.24-.555-1.24-1.24s.55-1.24 1.24-1.24h12.56v-2.055h-12.56c-.69 0-1.24-.555-1.24-1.24s.55-1.24 1.24-1.24h12.56v-2.379H1336v16.957h20.52v-22.14h-25.7v27.323h26.94c.68 0 1.24.555 1.24 1.24s-.56 1.24-1.24 1.24zM1357.75 16.253c.69 0 1.24.555 1.24 1.24s-.55 1.24-1.24 1.24h-66.73c-.68 0-1.24-.556-1.24-1.24 0-.685.56-1.24 1.24-1.24zM1357.75 1.998c.69 0 1.24.555 1.24 1.24s-.55 1.24-1.24 1.24h-66.73c-.68 0-1.24-.556-1.24-1.24 0-.685.56-1.24 1.24-1.24zM1301.5 10.365c0-1.315-1.07-2.38-2.38-2.38a2.376 2.376 0 0 0-2.38 2.38c0 1.314 1.06 2.379 2.38 2.379v2.48a4.856 4.856 0 0 1-4.86-4.86c0-2.683 2.17-4.859 4.86-4.859 2.68 0 4.86 2.176 4.86 4.86 0 2.683-2.18 4.859-4.86 4.859v-2.48c1.31 0 2.38-1.065 2.38-2.38"/><path d="M1299.77 10.364c0 .358-.29.648-.65.648a.648.648 0 1 1 0-1.296c.36 0 .65.29.65.648M1352.04 10.365c0-1.315-1.07-2.38-2.38-2.38a2.376 2.376 0 0 0-2.38 2.38c0 1.314 1.06 2.379 2.38 2.379v2.48a4.856 4.856 0 0 1-4.86-4.86c0-2.683 2.17-4.859 4.86-4.859 2.68 0 4.86 2.176 4.86 4.86 0 2.683-2.18 4.859-4.86 4.859v-2.48c1.31 0 2.38-1.065 2.38-2.38"/><path d="M1350.31 10.364c0 .358-.29.648-.65.648a.648.648 0 1 1 0-1.296c.36 0 .65.29.65.648M1335.19 10.365c0-1.315-1.06-2.38-2.38-2.38a2.383 2.383 0 0 0-2.38 2.38c0 1.314 1.07 2.379 2.38 2.379v2.48a4.86 4.86 0 0 1-4.86-4.86c0-2.683 2.18-4.859 4.86-4.859 2.69 0 4.86 2.176 4.86 4.86 0 2.683-2.17 4.859-4.86 4.859v-2.48c1.32 0 2.38-1.065 2.38-2.38"/><path d="M1333.46 10.364c0 .358-.29.648-.65.648a.648.648 0 1 1 0-1.296c.36 0 .65.29.65.648M1318.34 10.365c0-1.315-1.06-2.38-2.38-2.38a2.383 2.383 0 0 0-2.38 2.38c0 1.314 1.07 2.379 2.38 2.379v2.48a4.86 4.86 0 0 1-4.86-4.86c0-2.683 2.18-4.859 4.86-4.859 2.69 0 4.86 2.176 4.86 4.86 0 2.683-2.17 4.859-4.86 4.859v-2.48c1.32 0 2.38-1.065 2.38-2.38"/><path d="M1316.61 10.364c0 .358-.29.648-.65.648a.648.648 0 1 1 0-1.296c.36 0 .65.29.65.648M1323.16 53.774V23.972c0-.685.55-1.24 1.24-1.24.68 0 1.24.555 1.24 1.24v29.802c0 .685-.56 1.24-1.24 1.24-.69 0-1.24-.555-1.24-1.24"/></g></svg>