<svg xmlns="http://www.w3.org/2000/svg" width="1015" height="42" fill="none" viewBox="0 0 1015 42"><g fill="#fffcee" opacity=".5"><path d="M29.72 24.111a.926.926 0 0 1-.926-.926V.926c0-.511.414-.926.925-.926h21.05a.926.926 0 0 1 .926.926v18.388a.926.926 0 0 1-.926.926H33.59a.926.926 0 0 1-.926-.926V4.797c0-.511.414-.926.926-.926h13.307c.511 0 .926.415.926.926v10.646a.926.926 0 0 1-.926.926H36.593a.926.926 0 0 1 0-1.852h9.379V12.74h-9.38a.926.926 0 0 1 0-1.852h9.38V9.353h-9.38a.926.926 0 0 1 0-1.852h9.38V5.723H34.517v12.665h15.326V1.852H30.645V22.26H50.77a.926.926 0 0 1 0 1.852zM21.975 0c.512 0 .926.415.926.926v22.259a.926.926 0 0 1-.926.926H.926A.926.926 0 0 1 0 23.185V4.797c0-.511.415-.926.926-.926h17.178a.926.926 0 0 1 .926.926v14.517a.926.926 0 0 1-.926.926H4.797a.926.926 0 0 1-.926-.926V8.668c0-.511.415-.926.926-.926h10.305a.926.926 0 0 1 0 1.852H5.723v1.777h9.379a.926.926 0 0 1 0 1.852H5.723v1.535h9.379a.926.926 0 0 1 0 1.852H5.723v1.778h11.455V5.723H1.852V22.26h19.197V1.852H.926A.926.926 0 0 1 .926 0zM.927 28.95a.926.926 0 0 1 0-1.853h49.841a.926.926 0 1 1 0 1.852zM.927 39.596a.926.926 0 0 1 0-1.852h49.841a.926.926 0 0 1 0 1.852zM42.946 33.347a1.777 1.777 0 1 0 1.778-1.777v-1.852a3.63 3.63 0 1 1 0 7.258 3.63 3.63 0 0 1 0-7.258v1.852c-.982 0-1.778.796-1.778 1.777"/><path d="M44.237 33.348a.484.484 0 1 1 .968 0 .484.484 0 0 1-.968 0M5.2 33.347a1.777 1.777 0 1 0 1.778-1.777v-1.852a3.63 3.63 0 1 1 0 7.258 3.63 3.63 0 0 1 0-7.258v1.852c-.981 0-1.777.796-1.777 1.777"/><path d="M6.492 33.348a.484.484 0 1 1 .967 0 .484.484 0 0 1-.967 0M17.778 33.347a1.777 1.777 0 1 0 1.777-1.777v-1.852a3.63 3.63 0 1 1 0 7.258 3.63 3.63 0 0 1 0-7.258v1.852c-.982 0-1.777.796-1.777 1.777"/><path d="M19.072 33.348a.484.484 0 1 1 .968 0 .484.484 0 0 1-.968 0M30.362 33.347a1.777 1.777 0 1 0 1.777-1.777v-1.852a3.63 3.63 0 1 1 0 7.258 3.63 3.63 0 0 1 0-7.258v1.852c-.982 0-1.777.796-1.777 1.777"/><path d="M31.657 33.348a.484.484 0 1 1 .967 0 .484.484 0 0 1-.967 0M26.77.926v22.26a.926.926 0 0 1-1.852 0V.925a.926.926 0 0 1 1.852 0M369.708 24.277a.926.926 0 0 1-.926-.926V1.092c0-.511.414-.926.926-.926h21.049a.926.926 0 0 1 .926.926V19.48a.926.926 0 0 1-.926.926h-17.178a.926.926 0 0 1-.926-.926V4.963c0-.511.414-.926.926-.926h13.307c.511 0 .926.415.926.926V15.61a.926.926 0 0 1-.926.926h-10.305a.926.926 0 0 1 0-1.852h9.379v-1.777h-9.379a.926.926 0 0 1 0-1.853h9.379V9.519h-9.379a.926.926 0 0 1 0-1.852h9.379V5.89h-11.455v12.665h15.326V2.018h-19.197v20.407h20.123a.926.926 0 0 1 0 1.852zM361.963.166c.512 0 .926.415.926.926v22.259a.926.926 0 0 1-.926.926h-21.049a.924.924 0 0 1-.926-.926V4.963c0-.511.415-.926.926-.926h17.178a.927.927 0 0 1 .926.926V19.48a.926.926 0 0 1-.926.926h-13.307a.926.926 0 0 1-.926-.926V8.834c0-.511.415-.926.926-.926h10.305a.926.926 0 1 1 0 1.852h-9.379v1.777h9.379a.926.926 0 0 1 0 1.852h-9.379v1.536h9.379a.926.926 0 0 1 0 1.852h-9.379v1.777h11.455V5.889H341.84v16.536h19.197V2.018h-20.123a.926.926 0 0 1 0-1.852zM340.916 29.115a.926.926 0 1 1 0-1.852h49.84a.926.926 0 1 1 0 1.852zM340.916 39.762a.926.926 0 0 1 0-1.852h49.841a.926.926 0 0 1 0 1.852zM382.935 33.513a1.777 1.777 0 1 0 1.777-1.777v-1.852a3.63 3.63 0 1 1 0 7.258 3.63 3.63 0 0 1 0-7.258v1.852c-.982 0-1.777.795-1.777 1.777"/><path d="M384.229 33.514a.484.484 0 1 1 .968 0 .484.484 0 0 1-.968 0M345.189 33.513a1.777 1.777 0 1 0 1.777-1.777v-1.852a3.629 3.629 0 1 1 0 7.257 3.629 3.629 0 0 1 0-7.257v1.852c-.981 0-1.777.795-1.777 1.777"/><path d="M346.484 33.514a.483.483 0 1 1 .967-.001.483.483 0 0 1-.967 0M357.77 33.513a1.777 1.777 0 1 0 1.777-1.777v-1.852a3.63 3.63 0 1 1 0 7.258 3.63 3.63 0 0 1 0-7.259v1.852c-.982 0-1.777.796-1.777 1.778"/><path d="M359.06 33.514a.484.484 0 1 1 .968 0 .484.484 0 0 1-.968 0M370.35 33.513a1.777 1.777 0 1 0 1.777-1.777v-1.852a3.629 3.629 0 1 1 0 7.257 3.629 3.629 0 0 1 0-7.257v1.852c-.981 0-1.777.795-1.777 1.777"/><path d="M371.645 33.514a.484.484 0 1 1 .968 0 .484.484 0 0 1-.968 0M366.762 1.092v22.259a.926.926 0 0 1-1.852 0V1.092a.926.926 0 1 1 1.852 0M709.7 25.271a.926.926 0 0 1-.926-.926V2.086c0-.511.415-.926.926-.926h21.049a.926.926 0 0 1 .926.926v18.388a.926.926 0 0 1-.926.926h-17.178a.93.93 0 0 1-.926-.926V5.957c0-.511.415-.926.926-.926h13.307c.511 0 .926.415.926.926v10.646a.926.926 0 0 1-.926.926h-10.305a.926.926 0 0 1 0-1.852h9.379V13.9h-9.379a.926.926 0 0 1 0-1.852h9.379v-1.536h-9.379a.926.926 0 0 1 0-1.852h9.379V6.883h-11.455v12.665h15.326V3.012h-19.197V23.42h20.123a.926.926 0 1 1 0 1.852zM701.956 1.16c.511 0 .926.415.926.926v22.259a.926.926 0 0 1-.926.926h-21.05a.924.924 0 0 1-.926-.926V5.957c0-.511.415-.926.926-.926h17.179a.924.924 0 0 1 .926.926v14.517a.926.926 0 0 1-.926.926h-13.307a.926.926 0 0 1-.926-.926V9.828c0-.511.414-.926.926-.926h10.304a.926.926 0 1 1 0 1.852h-9.378v1.777h9.378a.926.926 0 1 1 0 1.852h-9.378v1.536h9.378a.926.926 0 1 1 0 1.852h-9.378v1.777h11.455V6.883h-15.327V23.42h19.198V3.012h-20.124a.926.926 0 0 1 0-1.852zM680.908 30.11a.926.926 0 0 1 0-1.853h49.841a.926.926 0 0 1 0 1.852zM680.908 40.756a.926.926 0 0 1 0-1.852h49.841a.926.926 0 0 1 0 1.852zM722.927 34.507a1.777 1.777 0 1 0 1.777-1.777v-1.852a3.63 3.63 0 1 1 0 7.258 3.63 3.63 0 0 1 0-7.258v1.852c-.982 0-1.777.796-1.777 1.777"/><path d="M724.218 34.508a.483.483 0 1 1 .967-.001.483.483 0 0 1-.967 0M685.181 34.507a1.777 1.777 0 1 0 1.777-1.777v-1.852a3.63 3.63 0 1 1 .001 7.259 3.63 3.63 0 0 1-.001-7.26v1.853c-.981 0-1.777.796-1.777 1.777"/><path d="M686.472 34.508a.484.484 0 1 1 .968 0 .484.484 0 0 1-.968 0M697.758 34.507a1.777 1.777 0 1 0 1.777-1.777v-1.852a3.63 3.63 0 1 1 0 7.258 3.63 3.63 0 0 1 0-7.258v1.852c-.981 0-1.777.796-1.777 1.777"/><path d="M699.053 34.508a.483.483 0 1 1 .967-.001.483.483 0 0 1-.967 0M710.342 34.507a1.777 1.777 0 1 0 1.777-1.777v-1.852a3.63 3.63 0 1 1 .001 7.259 3.63 3.63 0 0 1-.001-7.26v1.853c-.981 0-1.777.796-1.777 1.777"/><path d="M711.637 34.508a.484.484 0 1 1 .968 0 .484.484 0 0 1-.968 0M706.75 2.086v22.259a.926.926 0 0 1-1.852 0V2.086a.926.926 0 1 1 1.852 0M143.05 24.277a.926.926 0 0 1-.926-.926V1.092c0-.511.415-.926.926-.926h21.049a.926.926 0 0 1 .926.926V19.48a.926.926 0 0 1-.926.926h-17.178a.924.924 0 0 1-.926-.926V4.963c0-.511.415-.926.926-.926h13.307c.512 0 .926.415.926.926V15.61a.926.926 0 0 1-.926.926h-10.304a.926.926 0 1 1 0-1.852h9.378v-1.777h-9.378a.926.926 0 1 1 0-1.853h9.378V9.519h-9.378a.926.926 0 1 1 0-1.852h9.378V5.89h-11.455v12.665h15.326V2.018h-19.197v20.407h20.123a.926.926 0 1 1 0 1.852zM135.306.166c.511 0 .926.415.926.926v22.259a.926.926 0 0 1-.926.926h-21.049a.926.926 0 0 1-.926-.926V4.963c0-.511.414-.926.926-.926h17.178a.924.924 0 0 1 .926.926V19.48a.926.926 0 0 1-.926.926h-13.307a.926.926 0 0 1-.926-.926V8.834c0-.511.414-.926.926-.926h10.304a.926.926 0 1 1 0 1.852h-9.378v1.777h9.378a.926.926 0 1 1 0 1.852h-9.378v1.536h9.378a.926.926 0 1 1 0 1.852h-9.378v1.777h11.455V5.889h-15.326v16.536h19.197V2.018h-20.123a.926.926 0 1 1 0-1.852zM114.257 29.115a.926.926 0 0 1 0-1.852h49.841a.926.926 0 0 1 0 1.852zM114.257 39.762a.926.926 0 0 1 0-1.852h49.841a.926.926 0 0 1 0 1.852zM156.271 33.513a1.777 1.777 0 1 0 1.777-1.777v-1.852a3.63 3.63 0 1 1 0 7.258 3.63 3.63 0 0 1 0-7.258v1.852c-.982 0-1.777.795-1.777 1.777"/><path d="M157.565 33.514a.484.484 0 1 1 .968 0 .484.484 0 0 1-.968 0M118.525 33.513a1.777 1.777 0 1 0 1.777-1.777v-1.852a3.629 3.629 0 1 1 0 7.257 3.629 3.629 0 0 1 0-7.257v1.852c-.981 0-1.777.795-1.777 1.777"/><path d="M119.82 33.514a.483.483 0 1 1 .967-.001.483.483 0 0 1-.967 0M131.11 33.513a1.777 1.777 0 1 0 1.777-1.777v-1.852a3.63 3.63 0 1 1 0 7.258 3.63 3.63 0 0 1 0-7.258v1.852c-.982 0-1.777.795-1.777 1.777"/><path d="M132.404 33.514a.484.484 0 1 1 .968 0 .484.484 0 0 1-.968 0M143.69 33.513a1.777 1.777 0 1 0 1.777-1.777v-1.852a3.63 3.63 0 1 1 0 7.258 3.63 3.63 0 0 1 0-7.259v1.852c-.981 0-1.777.796-1.777 1.778"/><path d="M144.981 33.514a.483.483 0 1 1 .967-.001.483.483 0 0 1-.967 0M140.1 1.092v22.259a.926.926 0 1 1-1.852 0V1.092a.926.926 0 0 1 1.852 0M483.038 24.443a.926.926 0 0 1-.926-.926V1.258c0-.511.415-.926.926-.926h21.05a.924.924 0 0 1 .926.926v18.388a.926.926 0 0 1-.926.926H486.91a.927.927 0 0 1-.926-.926V5.129c0-.511.414-.926.926-.926h13.307c.511 0 .926.415.926.926v10.646a.926.926 0 0 1-.926.926h-10.305a.926.926 0 1 1 0-1.852h9.379v-1.777h-9.379a.926.926 0 1 1 0-1.852h9.379V9.684h-9.379a.926.926 0 1 1 0-1.852h9.379V6.055h-11.455V18.72h15.326V2.184h-19.198v20.407h20.124a.926.926 0 0 1 0 1.852zM475.294.332c.512 0 .926.414.926.926v22.259a.926.926 0 0 1-.926.926h-21.049a.927.927 0 0 1-.926-.926V5.129c0-.511.415-.926.926-.926h17.178a.927.927 0 0 1 .926.926v14.516a.926.926 0 0 1-.926.927h-13.307a.926.926 0 0 1-.926-.927V9c0-.511.415-.926.926-.926h10.305a.926.926 0 0 1 0 1.852h-9.379v1.777h9.379a.926.926 0 0 1 0 1.852h-9.379v1.535h9.379a.926.926 0 0 1 0 1.852h-9.379v1.777h11.455V6.056h-15.326V22.59h19.197V2.184h-20.123a.926.926 0 0 1 0-1.852zM454.245 29.282a.926.926 0 0 1 0-1.852h49.841a.926.926 0 0 1 0 1.852zM454.245 39.929a.926.926 0 0 1 0-1.852h49.841a.926.926 0 0 1 0 1.852zM496.263 33.679a1.777 1.777 0 1 0 1.777-1.777V30.05a3.63 3.63 0 1 1 0 7.258 3.63 3.63 0 0 1 0-7.258v1.852c-.982 0-1.777.795-1.777 1.777"/><path d="M497.557 33.68a.484.484 0 1 1 .968 0 .484.484 0 0 1-.968 0M458.517 33.679a1.777 1.777 0 1 0 1.777-1.777V30.05a3.63 3.63 0 1 1 0 7.258 3.63 3.63 0 0 1 0-7.258v1.852c-.981 0-1.777.795-1.777 1.777"/><path d="M459.812 33.68a.484.484 0 1 1 .967 0 .484.484 0 0 1-.967 0M471.102 33.679a1.777 1.777 0 1 0 1.777-1.777V30.05a3.63 3.63 0 1 1 0 7.258 3.63 3.63 0 0 1 0-7.258v1.852c-.982 0-1.777.795-1.777 1.777"/><path d="M472.392 33.68a.484.484 0 1 1 .968 0 .484.484 0 0 1-.968 0M483.678 33.679a1.777 1.777 0 1 0 1.777-1.777V30.05a3.629 3.629 0 1 1 0 7.257 3.629 3.629 0 0 1 0-7.257v1.852c-.981 0-1.777.795-1.777 1.777"/><path d="M484.973 33.68a.484.484 0 1 1 .967 0 .484.484 0 0 1-.967 0M480.092 1.258v22.259a.926.926 0 1 1-1.852 0V1.258a.926.926 0 0 1 1.852 0M823.031 25.437a.926.926 0 0 1-.926-.926V2.252c0-.511.414-.926.926-.926h21.049a.93.93 0 0 1 .926.926V20.64a.926.926 0 0 1-.926.926h-17.178a.926.926 0 0 1-.926-.926V6.123c0-.511.414-.926.926-.926h13.307c.511 0 .926.415.926.926V16.77a.926.926 0 0 1-.926.926h-10.305a.926.926 0 0 1 0-1.852h9.379v-1.777h-9.379a.926.926 0 0 1 0-1.852h9.379v-1.536h-9.379a.926.926 0 0 1 0-1.852h9.379V7.05h-11.455v12.665h15.326V3.178h-19.197v20.407h20.123a.926.926 0 0 1 0 1.852zM815.286 1.326c.512 0 .926.415.926.926V24.51a.926.926 0 0 1-.926.926h-21.049a.93.93 0 0 1-.926-.926V6.123c0-.511.415-.926.926-.926h17.178a.927.927 0 0 1 .926.926V20.64a.926.926 0 0 1-.926.926h-13.307a.926.926 0 0 1-.926-.926V9.994c0-.511.415-.926.926-.926h10.305a.926.926 0 0 1 0 1.852h-9.379v1.777h9.379a.926.926 0 0 1 0 1.852h-9.379v1.535h9.379a.926.926 0 0 1 0 1.852h-9.379v1.778h11.455V7.049h-15.326v16.536h19.197V3.178h-20.123a.926.926 0 0 1 0-1.852zM794.237 30.276a.926.926 0 0 1 0-1.852h49.841a.926.926 0 0 1 0 1.852zM794.237 40.923a.926.926 0 0 1 0-1.852h49.841a.926.926 0 0 1 0 1.852zM836.251 34.674a1.777 1.777 0 1 0 1.777-1.778v-1.852a3.63 3.63 0 1 1 0 7.259 3.63 3.63 0 0 1 0-7.259v1.852c-.981 0-1.777.796-1.777 1.778"/><path d="M837.546 34.675a.483.483 0 1 1 .967-.001.483.483 0 0 1-.967 0M798.505 34.674a1.777 1.777 0 1 0 1.777-1.777v-1.852a3.63 3.63 0 1 1 0 7.259 3.63 3.63 0 0 1 0-7.26v1.853c-.981 0-1.777.795-1.777 1.777"/><path d="M799.8 34.675a.484.484 0 1 1 .968 0 .484.484 0 0 1-.968 0M811.09 34.674a1.777 1.777 0 1 0 1.777-1.778v-1.852a3.63 3.63 0 1 1 0 7.259 3.63 3.63 0 0 1 0-7.259v1.852c-.982 0-1.777.796-1.777 1.778"/><path d="M812.385 34.675a.483.483 0 1 1 .967-.002.483.483 0 0 1-.967.002M823.67 34.674a1.777 1.777 0 1 0 1.777-1.778v-1.852a3.63 3.63 0 1 1 .001 7.26 3.63 3.63 0 0 1-.001-7.26v1.852c-.981 0-1.777.796-1.777 1.778"/><path d="M824.961 34.675a.484.484 0 1 1 .968 0 .484.484 0 0 1-.968 0M820.081 2.252v22.259a.926.926 0 0 1-1.852 0V2.252a.926.926 0 1 1 1.852 0M256.381 24.277a.926.926 0 0 1-.926-.926V1.092c0-.511.415-.926.926-.926h21.049a.926.926 0 0 1 .926.926V19.48a.926.926 0 0 1-.926.926h-17.178a.93.93 0 0 1-.926-.926V4.963c0-.511.415-.926.926-.926h13.307c.511 0 .926.415.926.926V15.61a.926.926 0 0 1-.926.926h-10.305a.926.926 0 0 1 0-1.852h9.379v-1.777h-9.379a.926.926 0 0 1 0-1.853h9.379V9.519h-9.379a.926.926 0 0 1 0-1.852h9.379V5.89h-11.455v12.665h15.326V2.018h-19.197v20.407h20.123a.926.926 0 1 1 0 1.852zM248.637.166c.511 0 .926.415.926.926v22.259a.926.926 0 0 1-.926.926h-21.049a.925.925 0 0 1-.927-.926V4.963c0-.511.415-.926.927-.926h17.178a.924.924 0 0 1 .926.926V19.48a.926.926 0 0 1-.926.926h-13.307a.926.926 0 0 1-.926-.926V8.834c0-.511.414-.926.926-.926h10.304a.926.926 0 1 1 0 1.852h-9.378v1.777h9.378a.926.926 0 1 1 0 1.852h-9.378v1.536h9.378a.926.926 0 1 1 0 1.852h-9.378v1.777h11.455V5.889h-15.326v16.536h19.197V2.018h-20.123a.926.926 0 1 1 0-1.852zM227.59 29.115a.926.926 0 0 1 0-1.852h49.841a.926.926 0 0 1 0 1.852zM227.59 39.762a.926.926 0 0 1 0-1.852h49.841a.926.926 0 0 1 0 1.852zM269.603 33.513a1.777 1.777 0 1 0 1.777-1.777v-1.852a3.63 3.63 0 1 1 0 7.258 3.63 3.63 0 0 1 0-7.258v1.852c-.982 0-1.777.795-1.777 1.777"/><path d="M270.897 33.514a.484.484 0 1 1 .968 0 .484.484 0 0 1-.968 0M231.857 33.513a1.777 1.777 0 1 0 1.777-1.777v-1.852a3.63 3.63 0 1 1 .001 7.259 3.63 3.63 0 0 1-.001-7.26v1.853c-.981 0-1.777.795-1.777 1.777"/><path d="M233.152 33.514a.483.483 0 1 1 .967-.001.483.483 0 0 1-.967 0M244.442 33.513a1.777 1.777 0 1 0 1.777-1.777v-1.852a3.63 3.63 0 1 1 0 7.258 3.63 3.63 0 0 1 0-7.258v1.852c-.982 0-1.777.795-1.777 1.777"/><path d="M245.736 33.514a.484.484 0 1 1 .968 0 .484.484 0 0 1-.968 0M257.026 33.513a1.777 1.777 0 1 0 1.777-1.777v-1.852a3.63 3.63 0 1 1 .001 7.258 3.63 3.63 0 0 1-.001-7.259v1.852c-.981 0-1.777.796-1.777 1.778"/><path d="M258.317 33.514a.484.484 0 1 1 .968 0 .484.484 0 0 1-.968 0M253.431 1.092v22.259a.926.926 0 0 1-1.852 0V1.092a.926.926 0 0 1 1.852 0M596.369 24.443a.926.926 0 0 1-.926-.926V1.258c0-.511.415-.926.926-.926h21.049a.925.925 0 0 1 .926.926v18.388a.926.926 0 0 1-.926.926H600.24a.924.924 0 0 1-.926-.926V5.129c0-.511.415-.926.926-.926h13.307c.512 0 .926.415.926.926v10.646a.926.926 0 0 1-.926.926h-10.304a.926.926 0 1 1 0-1.852h9.378v-1.777h-9.378a.926.926 0 1 1 0-1.852h9.378V9.684h-9.378a.926.926 0 1 1 0-1.852h9.378V6.055h-11.455V18.72h15.326V2.184h-19.197v20.407h20.123a.926.926 0 1 1 0 1.852zM588.625.332c.511 0 .926.414.926.926v22.259a.926.926 0 0 1-.926.926h-21.049a.927.927 0 0 1-.926-.926V5.129c0-.511.414-.926.926-.926h17.178a.924.924 0 0 1 .926.926v14.516a.926.926 0 0 1-.926.927h-13.307a.926.926 0 0 1-.926-.927V9c0-.511.414-.926.926-.926h10.304a.926.926 0 1 1 0 1.852h-9.378v1.777h9.378a.926.926 0 1 1 0 1.852h-9.378v1.535h9.378a.926.926 0 1 1 0 1.852h-9.378v1.777h11.455V6.056h-15.326V22.59h19.197V2.184h-20.123a.926.926 0 1 1 0-1.852zM567.578 29.282a.926.926 0 0 1 0-1.852h49.841a.926.926 0 1 1 0 1.852zM567.578 39.929a.926.926 0 0 1 0-1.852h49.841a.926.926 0 1 1 0 1.852zM609.595 33.679a1.777 1.777 0 1 0 1.777-1.777V30.05a3.63 3.63 0 1 1 0 7.258 3.63 3.63 0 0 1 0-7.258v1.852c-.982 0-1.777.795-1.777 1.777"/><path d="M610.885 33.68a.484.484 0 1 1 .968 0 .484.484 0 0 1-.968 0M571.849 33.679a1.778 1.778 0 1 0 1.778-1.777V30.05a3.63 3.63 0 1 1 0 7.258 3.63 3.63 0 0 1 0-7.258v1.852c-.982 0-1.778.795-1.778 1.777"/><path d="M573.14 33.68a.484.484 0 1 1 .968 0 .484.484 0 0 1-.968 0M584.43 33.679a1.777 1.777 0 1 0 1.777-1.777V30.05a3.63 3.63 0 1 1 0 7.258 3.63 3.63 0 0 1 0-7.258v1.852c-.982 0-1.777.795-1.777 1.777"/><path d="M585.724 33.68a.484.484 0 1 1 .968 0 .484.484 0 0 1-.968 0M597.014 33.679a1.777 1.777 0 1 0 1.777-1.777V30.05a3.63 3.63 0 1 1 .001 7.259 3.63 3.63 0 0 1-.001-7.26v1.853c-.981 0-1.777.795-1.777 1.777"/><path d="M598.309 33.68a.484.484 0 1 1 .968 0 .484.484 0 0 1-.968 0M593.423 1.258v22.259a.926.926 0 1 1-1.852 0V1.258a.926.926 0 0 1 1.852 0M936.361 25.437a.926.926 0 0 1-.926-.926V2.252c0-.511.415-.926.926-.926h21.05a.924.924 0 0 1 .926.926V20.64a.926.926 0 0 1-.926.926h-17.179a.924.924 0 0 1-.926-.926V6.123c0-.511.415-.926.926-.926h13.307c.512 0 .926.415.926.926V16.77a.926.926 0 0 1-.926.926h-10.304a.926.926 0 1 1 0-1.852h9.378v-1.777h-9.378a.926.926 0 1 1 0-1.852h9.378v-1.536h-9.378a.926.926 0 1 1 0-1.852h9.378V7.05h-11.455v12.665h15.327V3.178h-19.198v20.407h20.124a.926.926 0 0 1 0 1.852zM928.617 1.326c.511 0 .926.415.926.926V24.51a.926.926 0 0 1-.926.926h-21.049a.926.926 0 0 1-.926-.926V6.123c0-.511.414-.926.926-.926h17.178a.927.927 0 0 1 .926.926V20.64a.926.926 0 0 1-.926.926h-13.307a.926.926 0 0 1-.926-.926V9.994c0-.511.415-.926.926-.926h10.305a.926.926 0 0 1 0 1.852h-9.379v1.777h9.379a.926.926 0 0 1 0 1.852h-9.379v1.535h9.379a.926.926 0 0 1 0 1.852h-9.379v1.778h11.455V7.049h-15.326v16.536h19.197V3.178h-20.123a.926.926 0 1 1 0-1.852zM907.571 30.276a.926.926 0 1 1 0-1.852h49.84a.926.926 0 1 1 0 1.852zM907.571 40.923a.926.926 0 1 1 0-1.852h49.84a.926.926 0 1 1 0 1.852zM949.583 34.674a1.777 1.777 0 1 0 1.777-1.778v-1.852a3.63 3.63 0 1 1 0 7.259 3.63 3.63 0 0 1 0-7.259v1.852c-.982 0-1.777.796-1.777 1.778"/><path d="M950.878 34.675a.483.483 0 1 1 .967-.002.483.483 0 0 1-.967.002M911.837 34.674a1.778 1.778 0 1 0 1.778-1.778v-1.852a3.63 3.63 0 1 1 0 7.259 3.63 3.63 0 0 1 0-7.259v1.852c-.982 0-1.778.796-1.778 1.778"/><path d="M913.132 34.675a.484.484 0 1 1 .968 0 .484.484 0 0 1-.968 0M924.422 34.674a1.777 1.777 0 1 0 1.777-1.778v-1.852a3.63 3.63 0 1 1 0 7.259 3.63 3.63 0 0 1 0-7.259v1.852c-.981 0-1.777.796-1.777 1.778"/><path d="M925.717 34.675a.483.483 0 1 1 .967-.002.483.483 0 0 1-.967.002M937.006 34.674a1.777 1.777 0 1 0 1.777-1.778v-1.852a3.629 3.629 0 1 1 0 7.258 3.629 3.629 0 0 1 0-7.258v1.852c-.981 0-1.777.796-1.777 1.778"/><path d="M938.297 34.675a.484.484 0 1 1 .968 0 .484.484 0 0 1-.968 0M933.411 2.252v22.259a.926.926 0 1 1-1.852 0V2.252a.926.926 0 0 1 1.852 0M78.639 15.652c.511 0 .926.415.926.926v22.26a.926.926 0 0 1-.926.925h-21.05a.926.926 0 0 1-.926-.926V20.45c0-.51.415-.926.927-.926h17.177a.926.926 0 0 1 .927.927v14.516a.926.926 0 0 1-.927.926H61.462a.926.926 0 0 1-.926-.926V24.321c0-.512.414-.926.926-.926h10.304a.926.926 0 0 1 0 1.852h-9.378v1.777h9.378a.926.926 0 0 1 0 1.852h-9.378v1.535h9.378a.926.926 0 0 1 0 1.852h-9.378v1.777H73.84V21.376H58.516V37.91h19.197V17.504H57.59a.926.926 0 1 1 0-1.852zM86.383 39.763a.926.926 0 0 1-.926-.926v-22.26c0-.51.415-.925.926-.925h21.049a.926.926 0 0 1 .926.926v18.388a.926.926 0 0 1-.926.926H90.254a.926.926 0 0 1-.926-.926V20.449c0-.511.415-.926.926-.926h13.307c.511 0 .926.415.926.926v10.645a.926.926 0 0 1-.926.926H93.256a.926.926 0 1 1 0-1.852h9.379v-1.777h-9.379a.926.926 0 1 1 0-1.852h9.379v-1.535h-9.379a.926.926 0 0 1 0-1.852h9.379v-1.777H91.18V34.04h15.326V17.504H87.309V37.91h20.123a.926.926 0 1 1 0 1.852zM107.429 10.813a.926.926 0 1 1 0 1.852h-49.84a.926.926 0 0 1 0-1.852zM107.429.166a.926.926 0 1 1 0 1.852h-49.84a.926.926 0 0 1 0-1.852zM65.417 6.415a1.777 1.777 0 1 0-1.777 1.777v1.852a3.63 3.63 0 1 1 0-7.258 3.63 3.63 0 0 1 0 7.259V8.192c.981 0 1.777-.795 1.777-1.777"/><path d="M64.122 6.415a.484.484 0 1 1-.967 0 .484.484 0 0 1 .967 0M103.163 6.415a1.778 1.778 0 1 0-1.778 1.777v1.852a3.63 3.63 0 1 1 0-7.258 3.63 3.63 0 0 1 0 7.259V8.192c.982 0 1.778-.795 1.778-1.777"/><path d="M101.868 6.415a.484.484 0 1 1-.968 0 .484.484 0 0 1 .968 0M90.578 6.415a1.777 1.777 0 1 0-1.777 1.777v1.852a3.63 3.63 0 1 1 0-7.258 3.63 3.63 0 0 1 0 7.259V8.192c.982 0 1.777-.795 1.777-1.777"/><path d="M89.284 6.415a.484.484 0 1 1-.968 0 .484.484 0 0 1 .968 0M77.994 6.415a1.777 1.777 0 1 0-1.777 1.777v1.852a3.63 3.63 0 1 1 0-7.258 3.63 3.63 0 0 1 0 7.259V8.192c.981 0 1.777-.795 1.777-1.777"/><path d="M76.703 6.415a.484.484 0 1 1-.968 0 .484.484 0 0 1 .968 0M81.589 38.837V16.578a.926.926 0 0 1 1.852 0v22.26a.926.926 0 1 1-1.852 0M418.631 15.818c.511 0 .926.415.926.926v22.259a.926.926 0 0 1-.926.926h-21.049a.925.925 0 0 1-.926-.926V20.615c0-.511.414-.926.926-.926h17.178a.924.924 0 0 1 .926.926v14.517a.926.926 0 0 1-.926.926h-13.307a.926.926 0 0 1-.926-.926V24.486c0-.511.414-.926.926-.926h10.304a.926.926 0 1 1 0 1.852h-9.378v1.777h9.378a.926.926 0 1 1 0 1.852h-9.378v1.536h9.378a.926.926 0 1 1 0 1.852h-9.378v1.777h11.455V21.54h-15.326v16.536h19.197V17.67h-20.123a.926.926 0 1 1 0-1.852zM426.375 39.93a.926.926 0 0 1-.926-.927V16.744c0-.511.415-.926.926-.926h21.049a.926.926 0 0 1 .926.926v18.388a.926.926 0 0 1-.926.926h-17.178a.924.924 0 0 1-.926-.926V20.616c0-.512.415-.927.926-.927h13.307c.512 0 .926.415.926.927V31.26a.926.926 0 0 1-.926.926h-10.304a.926.926 0 1 1 0-1.852h9.378v-1.777h-9.378a.926.926 0 1 1 0-1.852h9.378V25.17h-9.378a.926.926 0 1 1 0-1.852h9.378v-1.777h-11.455v12.664h15.326V17.67h-19.197v20.407h20.123a.926.926 0 1 1 0 1.852zM447.422 10.979a.926.926 0 0 1 0 1.852h-49.841a.926.926 0 1 1 0-1.852zM447.422.332a.926.926 0 0 1 0 1.852h-49.841a.926.926 0 1 1 0-1.852zM405.405 6.581a1.777 1.777 0 1 0-1.777 1.777v1.852a3.63 3.63 0 1 1 0-7.258 3.63 3.63 0 0 1 0 7.258V8.358c.982 0 1.777-.795 1.777-1.777"/><path d="M404.115 6.58a.484.484 0 1 1-.968 0 .484.484 0 0 1 .968 0M443.151 6.58a1.777 1.777 0 1 0-1.777 1.778v1.852a3.63 3.63 0 1 1-.001-7.259 3.63 3.63 0 0 1 .001 7.259V8.358c.981 0 1.777-.796 1.777-1.777"/><path d="M441.86 6.58a.484.484 0 1 1-.968 0 .484.484 0 0 1 .968 0M430.57 6.581a1.777 1.777 0 1 0-1.777 1.777v1.852a3.63 3.63 0 1 1 0-7.258 3.63 3.63 0 0 1 0 7.258V8.358c.982 0 1.777-.795 1.777-1.777"/><path d="M429.276 6.58a.484.484 0 1 1-.968 0 .484.484 0 0 1 .968 0M417.986 6.581a1.777 1.777 0 1 0-1.777 1.777v1.852a3.63 3.63 0 1 1-.001-7.259 3.63 3.63 0 0 1 .001 7.26V8.357c.981 0 1.777-.795 1.777-1.777"/><path d="M416.691 6.58a.484.484 0 1 1-.968 0 .484.484 0 0 1 .968 0M421.577 39.003V16.744a.926.926 0 1 1 1.852 0v22.259a.926.926 0 0 1-1.852 0M758.619 16.812c.511 0 .926.415.926.926v22.26a.926.926 0 0 1-.926.925H737.57a.926.926 0 0 1-.926-.926V21.61c0-.511.414-.926.926-.926h17.178a.93.93 0 0 1 .926.926v14.517a.926.926 0 0 1-.926.926h-13.307a.926.926 0 0 1-.926-.926V25.48c0-.512.415-.927.926-.927h10.305a.926.926 0 0 1 0 1.853h-9.379v1.777h9.379a.926.926 0 0 1 0 1.852h-9.379v1.535h9.379a.926.926 0 0 1 0 1.852h-9.379V35.2h11.455V22.535h-15.326v16.536h19.197V18.664H737.57a.926.926 0 1 1 0-1.852zM766.363 40.923a.926.926 0 0 1-.926-.926V17.74c0-.512.415-.926.926-.927h21.05a.924.924 0 0 1 .926.926v18.388a.926.926 0 0 1-.927.926h-17.178a.924.924 0 0 1-.926-.926V21.61c0-.512.415-.926.926-.926h13.307c.512 0 .926.414.926.926v10.645a.926.926 0 0 1-.926.926h-10.304a.926.926 0 1 1 0-1.852h9.378v-1.777h-9.378a.926.926 0 1 1 0-1.852h9.378v-1.535h-9.378a.926.926 0 1 1 0-1.852h9.378v-1.777H771.16V35.2h15.326l.001-16.536h-19.198v20.407h20.123a.926.926 0 1 1 0 1.852zM787.41 11.972a.926.926 0 0 1 0 1.852h-49.841a.926.926 0 0 1 0-1.852zM787.41 1.326a.926.926 0 0 1 0 1.852h-49.841a.926.926 0 0 1 0-1.852zM745.397 7.575a1.777 1.777 0 1 0-1.777 1.777v1.852a3.63 3.63 0 1 1 0-7.258 3.63 3.63 0 0 1 0 7.258V9.352c.982 0 1.777-.795 1.777-1.777"/><path d="M744.103 7.574a.484.484 0 1 1-.968 0 .484.484 0 0 1 .968 0M783.143 7.575a1.777 1.777 0 1 0-1.777 1.777v1.852a3.629 3.629 0 1 1 0-7.257 3.629 3.629 0 0 1 0 7.257V9.352c.981 0 1.777-.795 1.777-1.777"/><path d="M781.848 7.574a.483.483 0 1 1-.967.001.483.483 0 0 1 .967 0M770.558 7.575a1.777 1.777 0 1 0-1.777 1.777v1.852a3.63 3.63 0 1 1 0-7.258 3.63 3.63 0 0 1 0 7.258V9.352c.982 0 1.777-.795 1.777-1.777"/><path d="M769.264 7.574a.484.484 0 1 1-.968 0 .484.484 0 0 1 .968 0M757.974 7.575a1.777 1.777 0 1 0-1.777 1.777v1.852a3.629 3.629 0 1 1 0-7.257 3.629 3.629 0 0 1 0 7.257V9.352c.981 0 1.777-.796 1.777-1.777"/><path d="M756.683 7.574a.483.483 0 1 1-.967.001.483.483 0 0 1 .967 0M761.569 39.997V17.738a.926.926 0 0 1 1.852 0v22.26a.926.926 0 1 1-1.852 0M191.969 15.818c.512 0 .926.415.926.926v22.259a.926.926 0 0 1-.926.926H170.92a.93.93 0 0 1-.926-.926V20.615c0-.511.415-.926.926-.926h17.178a.927.927 0 0 1 .926.926v14.517a.926.926 0 0 1-.926.926h-13.307a.926.926 0 0 1-.926-.926V24.486c0-.511.415-.926.926-.926h10.305a.926.926 0 0 1 0 1.852h-9.379v1.777h9.379a.926.926 0 0 1 0 1.852h-9.379v1.536h9.379a.926.926 0 0 1 0 1.852h-9.379v1.777h11.455V21.54h-15.326v16.536h19.197V17.67H170.92a.926.926 0 0 1 0-1.852zM199.714 39.93a.926.926 0 0 1-.926-.927V16.744c0-.511.414-.926.926-.926h21.049a.93.93 0 0 1 .926.926v18.388a.926.926 0 0 1-.926.926h-17.178a.927.927 0 0 1-.926-.926V20.616c0-.512.414-.927.926-.927h13.307c.511 0 .926.415.926.927V31.26a.926.926 0 0 1-.926.926h-10.305a.926.926 0 0 1 0-1.852h9.379v-1.777h-9.379a.926.926 0 0 1 0-1.852h9.379V25.17h-9.379a.926.926 0 0 1 0-1.852h9.379v-1.777h-11.455v12.664h15.326V17.67H200.64v20.407h20.123a.926.926 0 0 1 0 1.852zM220.763 10.979a.926.926 0 0 1 0 1.852h-49.841a.926.926 0 0 1 0-1.852zM220.763.332a.926.926 0 0 1 0 1.852h-49.841a.926.926 0 0 1 0-1.852zM178.749 6.581a1.777 1.777 0 1 0-1.777 1.777v1.852a3.63 3.63 0 1 1 0-7.258 3.63 3.63 0 0 1 0 7.258V8.358c.981 0 1.777-.795 1.777-1.777"/><path d="M177.454 6.58a.483.483 0 1 1-.967 0 .483.483 0 0 1 .967 0M216.494 6.581a1.777 1.777 0 1 0-1.777 1.777v1.852a3.63 3.63 0 1 1 0-7.258 3.63 3.63 0 0 1 0 7.258V8.358c.982 0 1.777-.795 1.777-1.777"/><path d="M215.2 6.58a.484.484 0 1 1-.968 0 .484.484 0 0 1 .968 0M203.91 6.581a1.777 1.777 0 1 0-1.777 1.777v1.852a3.63 3.63 0 1 1 0-7.258 3.63 3.63 0 0 1 0 7.258V8.358c.981 0 1.777-.795 1.777-1.777"/><path d="M202.615 6.58a.483.483 0 1 1-.967.001.483.483 0 0 1 .967 0M191.33 6.581a1.777 1.777 0 1 0-1.777 1.777v1.852a3.63 3.63 0 1 1-.001-7.259 3.63 3.63 0 0 1 .001 7.26V8.357c.981 0 1.777-.795 1.777-1.777"/><path d="M190.039 6.58a.484.484 0 1 1-.968 0 .484.484 0 0 1 .968 0M194.919 39.003V16.744a.926.926 0 0 1 1.852 0v22.259a.926.926 0 1 1-1.852 0M531.962 15.984c.511 0 .926.414.926.926v22.259a.926.926 0 0 1-.926.926h-21.05a.924.924 0 0 1-.926-.926V20.78c0-.511.415-.926.926-.926h17.178a.926.926 0 0 1 .926.926v14.517a.926.926 0 0 1-.926.926h-13.307a.926.926 0 0 1-.926-.926V24.652c0-.511.415-.926.926-.926h10.305a.926.926 0 1 1 0 1.852h-9.379v1.777h9.379a.926.926 0 1 1 0 1.852h-9.379v1.535h9.379a.926.926 0 1 1 0 1.852h-9.379v1.778h11.455V21.707h-15.326v16.536h19.198V17.836h-20.124a.926.926 0 0 1 0-1.852zM539.706 40.095a.926.926 0 0 1-.926-.926V16.91c0-.511.414-.926.926-.926h21.049a.926.926 0 0 1 .926.926v18.388a.926.926 0 0 1-.926.926h-17.178a.926.926 0 0 1-.926-.926V20.78c0-.511.415-.926.926-.926h13.307c.511 0 .926.415.926.926v10.646a.926.926 0 0 1-.926.926h-10.305a.926.926 0 0 1 0-1.852h9.379v-1.777h-9.379a.926.926 0 0 1 0-1.852h9.379v-1.536h-9.379a.926.926 0 0 1 0-1.852h9.379v-1.777h-11.455v12.665h15.326V17.836h-19.197v20.407h20.123a.926.926 0 0 1 0 1.852zM560.755 11.144a.926.926 0 0 1 0 1.852h-49.841a.926.926 0 0 1 0-1.852zM560.755.498a.926.926 0 0 1 0 1.852h-49.841a.926.926 0 0 1 0-1.852zM518.737 6.747a1.777 1.777 0 1 0-1.777 1.777v1.852a3.63 3.63 0 1 1 0-7.258 3.63 3.63 0 0 1 0 7.258V8.524c.982 0 1.777-.796 1.777-1.777"/><path d="M517.443 6.746a.484.484 0 1 1-.968 0 .484.484 0 0 1 .968 0M556.483 6.747a1.777 1.777 0 1 0-1.777 1.777v1.852a3.629 3.629 0 1 1 0-7.257 3.629 3.629 0 0 1 0 7.257V8.524c.981 0 1.777-.795 1.777-1.777"/><path d="M555.188 6.746a.484.484 0 1 1-.968 0 .484.484 0 0 1 .968 0M543.898 6.747a1.777 1.777 0 1 0-1.777 1.777v1.852a3.63 3.63 0 1 1 0-7.258 3.63 3.63 0 0 1 0 7.258V8.524c.982 0 1.777-.796 1.777-1.777"/><path d="M542.608 6.746a.484.484 0 1 1-.968 0 .484.484 0 0 1 .968 0M531.322 6.747a1.777 1.777 0 1 0-1.777 1.777v1.852a3.629 3.629 0 1 1 0-7.257 3.629 3.629 0 0 1 0 7.257V8.524c.981 0 1.777-.796 1.777-1.777"/><path d="M530.027 6.746a.484.484 0 1 1-.967.001.484.484 0 0 1 .967 0M534.908 39.169v-22.26a.926.926 0 1 1 1.852 0v22.26a.926.926 0 0 1-1.852 0M871.95 16.978c.511 0 .926.415.926.926v22.259a.926.926 0 0 1-.926.926h-21.049a.926.926 0 0 1-.926-.926V21.775c0-.511.414-.926.926-.926h17.178a.924.924 0 0 1 .926.926v14.517a.926.926 0 0 1-.926.926h-13.307a.926.926 0 0 1-.926-.926V25.646c0-.511.414-.926.926-.926h10.304a.926.926 0 1 1 0 1.852h-9.378v1.777h9.378a.926.926 0 1 1 0 1.852h-9.378v1.536h9.378a.926.926 0 1 1 0 1.852h-9.378v1.777h11.455V22.7h-15.326v16.536h19.197V18.83h-20.123a.926.926 0 1 1 0-1.852zM879.694 41.09a.926.926 0 0 1-.926-.927V17.904c0-.511.415-.926.926-.926h21.049a.927.927 0 0 1 .926.926v18.388a.926.926 0 0 1-.926.926h-17.178a.924.924 0 0 1-.926-.926V21.775c0-.511.415-.926.926-.926h13.307c.512 0 .926.415.926.926v10.646a.926.926 0 0 1-.926.926h-10.304a.926.926 0 1 1 0-1.852h9.378v-1.777h-9.378a.926.926 0 1 1 0-1.852h9.378V26.33h-9.378a.926.926 0 1 1 0-1.852h9.378V22.7h-11.455v12.665h15.326V18.83H880.62v20.407h20.123a.926.926 0 1 1 0 1.852zM900.743 12.138a.926.926 0 1 1 0 1.853h-49.84a.926.926 0 1 1 0-1.853zM900.743 1.492a.926.926 0 1 1 0 1.852h-49.84a.926.926 0 1 1 0-1.852zM858.73 7.741a1.778 1.778 0 1 0-1.778 1.777v1.852a3.63 3.63 0 1 1 0-7.258 3.63 3.63 0 0 1 0 7.258V9.518c.982 0 1.778-.796 1.778-1.777"/><path d="M857.435 7.74a.484.484 0 1 1-.968 0 .484.484 0 0 1 .968 0M896.475 7.741a1.777 1.777 0 1 0-1.777 1.777v1.852a3.63 3.63 0 1 1 0-7.258 3.63 3.63 0 0 1 0 7.258V9.518c.981 0 1.777-.795 1.777-1.777"/><path d="M895.18 7.74a.483.483 0 1 1-.967.001.483.483 0 0 1 .967 0M883.89 7.741a1.777 1.777 0 1 0-1.777 1.777v1.852a3.63 3.63 0 1 1 0-7.258 3.63 3.63 0 0 1 0 7.258V9.518c.982 0 1.777-.796 1.777-1.777"/><path d="M882.596 7.74a.484.484 0 1 1-.968 0 .484.484 0 0 1 .968 0M871.31 7.741a1.777 1.777 0 1 0-1.777 1.777v1.852a3.63 3.63 0 1 1 0-7.258 3.63 3.63 0 0 1 0 7.258V9.518c.981 0 1.777-.796 1.777-1.777"/><path d="M870.019 7.74a.483.483 0 1 1-.967.001.483.483 0 0 1 .967 0M874.9 40.163V17.904a.926.926 0 1 1 1.852 0v22.259a.926.926 0 0 1-1.852 0M305.3 15.818c.511 0 .926.415.926.926v22.259a.926.926 0 0 1-.926.926h-21.049a.926.926 0 0 1-.926-.926V20.615c0-.511.414-.926.926-.926h17.178a.93.93 0 0 1 .926.926v14.517a.926.926 0 0 1-.926.926h-13.307a.926.926 0 0 1-.926-.926V24.486c0-.511.415-.926.926-.926h10.305a.926.926 0 0 1 0 1.852h-9.379v1.777h9.379a.926.926 0 0 1 0 1.852h-9.379v1.536h9.379a.926.926 0 0 1 0 1.852h-9.379v1.777h11.455V21.54h-15.326v16.536h19.197V17.67h-20.123a.926.926 0 1 1 0-1.852zM313.044 39.93a.926.926 0 0 1-.926-.927V16.744c0-.511.415-.926.926-.926h21.05a.924.924 0 0 1 .926.926v18.388a.926.926 0 0 1-.926.926h-17.179a.924.924 0 0 1-.926-.926V20.616c0-.512.415-.927.926-.927h13.307c.512 0 .926.415.926.927V31.26a.926.926 0 0 1-.926.926h-10.304a.926.926 0 1 1 0-1.852h9.378v-1.777h-9.378a.926.926 0 1 1 0-1.852h9.378V25.17h-9.378a.926.926 0 1 1 0-1.852h9.378v-1.777h-11.455v12.664h15.327V17.67H313.97v20.407h20.124a.926.926 0 0 1 0 1.852zM334.092 10.979a.926.926 0 0 1 0 1.852h-49.841a.926.926 0 0 1 0-1.852zM334.092.332a.926.926 0 0 1 0 1.852h-49.841a.926.926 0 0 1 0-1.852zM292.073 6.581a1.777 1.777 0 1 0-1.777 1.777v1.852a3.63 3.63 0 1 1 0-7.258 3.63 3.63 0 0 1 0 7.258V8.358c.982 0 1.777-.795 1.777-1.777"/><path d="M290.782 6.58a.483.483 0 1 1-.967 0 .483.483 0 0 1 .967 0M329.819 6.581a1.777 1.777 0 1 0-1.777 1.777v1.852a3.63 3.63 0 1 1-.001-7.259 3.63 3.63 0 0 1 .001 7.26V8.357c.981 0 1.777-.795 1.777-1.777"/><path d="M328.528 6.58a.484.484 0 1 1-.968 0 .484.484 0 0 1 .968 0M317.242 6.581a1.777 1.777 0 1 0-1.777 1.777v1.852a3.63 3.63 0 1 1 0-7.258 3.63 3.63 0 0 1 0 7.258V8.358c.981 0 1.777-.795 1.777-1.777"/><path d="M315.947 6.58a.483.483 0 1 1-.967.001.483.483 0 0 1 .967 0M304.658 6.581a1.777 1.777 0 1 0-1.777 1.777v1.852a3.63 3.63 0 1 1-.001-7.259 3.63 3.63 0 0 1 .001 7.26V8.357c.981 0 1.777-.795 1.777-1.777"/><path d="M303.363 6.58a.484.484 0 1 1-.968 0 .484.484 0 0 1 .968 0M308.25 39.003V16.744a.926.926 0 0 1 1.852 0v22.259a.926.926 0 0 1-1.852 0M645.292 15.984c.512 0 .926.414.926.926v22.259a.926.926 0 0 1-.926.926h-21.049a.927.927 0 0 1-.926-.926V20.78c0-.511.415-.926.926-.926h17.178a.926.926 0 0 1 .926.926v14.517a.926.926 0 0 1-.926.926h-13.307a.926.926 0 0 1-.926-.926V24.652c0-.511.415-.926.926-.926h10.305a.926.926 0 0 1 0 1.852h-9.379v1.777h9.379a.926.926 0 0 1 0 1.852h-9.379v1.535h9.379a.926.926 0 0 1 0 1.852h-9.379v1.778h11.455V21.707h-15.326v16.536h19.197V17.836h-20.123a.926.926 0 0 1 0-1.852zM653.037 40.095a.926.926 0 0 1-.926-.926V16.91c0-.511.414-.926.926-.926h21.049a.924.924 0 0 1 .926.926v18.388a.926.926 0 0 1-.926.926h-17.178a.926.926 0 0 1-.926-.926V20.78c0-.511.414-.926.926-.926h13.307c.511 0 .926.415.926.926v10.646a.926.926 0 0 1-.926.926H659.91a.926.926 0 0 1 0-1.852h9.379v-1.777h-9.379a.926.926 0 0 1 0-1.852h9.379v-1.536h-9.379a.926.926 0 0 1 0-1.852h9.379v-1.777h-11.455v12.665h15.326V17.836h-19.197v20.407h20.123a.926.926 0 0 1 0 1.852zM674.084 11.144a.926.926 0 1 1 0 1.852h-49.84a.926.926 0 1 1 0-1.852zM674.084.498a.926.926 0 1 1 0 1.852h-49.84a.926.926 0 1 1 0-1.852zM632.065 6.747a1.777 1.777 0 1 0-1.777 1.777v1.852a3.63 3.63 0 1 1 0-7.258 3.63 3.63 0 0 1 0 7.258V8.524c.982 0 1.777-.796 1.777-1.777"/><path d="M630.771 6.746a.484.484 0 1 1-.968 0 .484.484 0 0 1 .968 0M669.811 6.747a1.777 1.777 0 1 0-1.777 1.777v1.852a3.629 3.629 0 1 1 0-7.257 3.629 3.629 0 0 1 0 7.257V8.524c.981 0 1.777-.796 1.777-1.777"/><path d="M668.516 6.746a.484.484 0 1 1-.967.001.484.484 0 0 1 .967 0M657.23 6.747a1.777 1.777 0 1 0-1.777 1.777v1.852a3.63 3.63 0 1 1 0-7.258 3.63 3.63 0 0 1 0 7.258V8.524c.982 0 1.777-.796 1.777-1.777"/><path d="M655.94 6.746a.484.484 0 1 1-.968 0 .484.484 0 0 1 .968 0M644.65 6.747a1.777 1.777 0 1 0-1.777 1.777v1.852a3.629 3.629 0 1 1 0-7.257 3.629 3.629 0 0 1 0 7.257V8.524c.981 0 1.777-.796 1.777-1.777"/><path d="M643.355 6.746a.484.484 0 1 1-.968 0 .484.484 0 0 1 .968 0M648.238 39.169v-22.26a.926.926 0 0 1 1.852 0v22.26a.926.926 0 1 1-1.852 0M985.281 16.978c.511 0 .926.415.926.926l-.001 22.259a.926.926 0 0 1-.926.926h-21.049a.924.924 0 0 1-.926-.926V21.775c0-.511.415-.926.926-.926h17.178a.927.927 0 0 1 .926.926v14.517a.926.926 0 0 1-.926.926h-13.307a.926.926 0 0 1-.926-.926V25.646c0-.511.415-.926.926-.926h10.305a.926.926 0 1 1 0 1.852h-9.379v1.777h9.379a.926.926 0 1 1 0 1.852h-9.379v1.536h9.379a.926.926 0 0 1 0 1.852h-9.379v1.777h11.455V22.7h-15.326v16.536h19.197V18.83h-20.123a.926.926 0 0 1 0-1.852zM993.025 41.09a.926.926 0 0 1-.926-.927V17.904c0-.511.414-.926.926-.926h21.045a.925.925 0 0 1 .93.926v18.388c0 .511-.41.926-.93.926h-17.174a.927.927 0 0 1-.926-.926V21.775c0-.511.415-.926.926-.926h13.304c.51 0 .93.415.93.926v10.646a.93.93 0 0 1-.93.926h-10.302a.926.926 0 0 1 0-1.852h9.382v-1.777h-9.382a.926.926 0 0 1 0-1.852h9.382V26.33h-9.382a.926.926 0 0 1 0-1.852h9.382V22.7h-11.458v12.665h15.328V18.83h-19.199v20.407h20.119c.52 0 .93.415.93.926s-.41.926-.93.926zM1014.07 12.138c.51 0 .93.415.93.927a.93.93 0 0 1-.93.926h-49.838a.926.926 0 1 1 0-1.853zM1014.07 1.492c.51 0 .93.415.93.926a.93.93 0 0 1-.93.926h-49.838a.926.926 0 1 1 0-1.852zM972.054 7.741a1.778 1.778 0 1 0-1.778 1.777v1.852a3.63 3.63 0 1 1 0-7.258 3.63 3.63 0 0 1 0 7.258V9.518c.982 0 1.778-.796 1.778-1.777"/><path d="M970.763 7.74a.484.484 0 1 1-.968 0 .484.484 0 0 1 .968 0M1009.8 7.741a1.78 1.78 0 0 0-3.56 0c0 .981.8 1.777 1.78 1.777v1.852c-2 0-3.63-1.625-3.63-3.629s1.63-3.63 3.63-3.63c2.01 0 3.63 1.626 3.63 3.63s-1.62 3.63-3.63 3.63V9.517c.98 0 1.78-.796 1.78-1.777"/><path d="M1008.51 7.74a.485.485 0 0 1-.97 0 .485.485 0 0 1 .97 0M997.222 7.741a1.777 1.777 0 1 0-1.777 1.777v1.852a3.63 3.63 0 1 1 0-7.258 3.63 3.63 0 0 1 0 7.258V9.518c.982 0 1.777-.796 1.777-1.777"/><path d="M995.928 7.74a.484.484 0 1 1-.968 0 .484.484 0 0 1 .968 0M984.638 7.741a1.777 1.777 0 1 0-1.777 1.777v1.852a3.63 3.63 0 1 1 0-7.258 3.63 3.63 0 0 1 0 7.258V9.518c.981 0 1.777-.796 1.777-1.777"/><path d="M983.343 7.74a.483.483 0 1 1-.967.001.483.483 0 0 1 .967 0M988.23 40.163V17.904a.926.926 0 0 1 1.852 0v22.259a.926.926 0 1 1-1.852 0"/></g></svg>