<svg xmlns="http://www.w3.org/2000/svg" width="71" height="78" fill="none" viewBox="0 0 71 78"><path fill="#aed141" d="M8.362 53.389c-.09-6.205 3.717-9.714 5.632-10.693-10.452.421-3.041-17.094 1.97-25.904C.063 32.093-.985 45.005.48 49.548c.225-.843 1.182-1.506 1.633-1.732 1.126 5.181 4.636 5.874 6.25 5.573M21.765 39.91c1.982-4.157 6.381-6.401 8.334-7.003-6.623-5.603 6.588-20.708 14.021-27.56-17.434 7.168-25.509 21.059-27.367 27.108.63-.663 1.952-.929 2.534-.98-3.154 6.748.338 8.435 2.478 8.435M39.221 33.584c1.712 2.53 5.669-1.405 7.433-3.69.316 1.507.995 1.682 1.295 1.582C51.463 15.813 64.58 3.966 70.7 0c-17.614 5.964-29 20.457-32.491 26.958.585-.723 1.708-.703 2.196-.603-1.108 1.356-2.895 4.7-1.183 7.23M63.322 16.792c.057.377-3.941 25.377-16.668 24.85 1.014 2.46 2.241 8.072-.957 10.843.507 1.757 2.737 3.87 7.602-1.732.178.62.313 2.032-.485 2.947 4.424-4.681 12.515-18.362 10.508-36.908M36.45 39.224c-1.224.37-3.32 2.167-4.216 3.02 1.965-1.218 6.248-3.18 7.657-1.298 1.41 1.882.818 4.756.345 5.957.505-.064 1.573.102 1.801 1.284s-.893 3.31-1.482 4.227l2.794 1.871c3.38 11.98-5.076 20.36-9.727 23.051 2.274-1.585 4.351-11.795-4.638-12.728-8.988-.933-14.742 10.43-15.453 11.411-.71.982-11.08-.299-1.023-17.682C20.552 44.431 31.82 39.801 36.45 39.224m-4.035 13.28c-2.358.609-5.325 3.242-6.656 4.985 3.802-1.217 5.927-.507 6.656 0-.685-1.977-.285-3.812 0-4.985"/></svg>