<svg xmlns="http://www.w3.org/2000/svg" width="48" height="48" fill="none" viewBox="0 0 48 48"><g fill="#fffcee" clip-path="url(#a)"><path d="M9.121 24.59c-.422-.416-7.125 2.123-8.691.523-.507-.52-.557-1.47-.207-2.078 1.014-1.767 7.342-.822 9.23-1.716.945-3.134 2.372-5.96 4.615-8.382L8.865 6.431c-.588-1.489.256-2.854 1.92-2.325 1.262.402 3.666 6.148 5.428 6.877A16.2 16.2 0 0 1 24.83 8.13c.091-1.157.09-2.46.207-3.6.118-1.138.308-5.984 2.472-4.106 1.084.94-.099 6.353.216 7.91 3.27.171 5.97 2.12 8.407 4.088l5.568-5.5c1.684-.874 3.033.65 2.031 2.226-1.18 1.862-4.588 3.507-5.846 5.422 1.278 2.128 2.284 4.44 2.673 6.91 1.514.068 6.103-.132 7.102 1.056.408.486.422 1.246.164 1.796-.677 1.444-5.667.71-7.092.548-.813 2.925-1.577 5.853-3.474 8.294-.139.558 1.498 1.822 1.936 2.312 1.024 1.137 3.584 3.724 4.2 4.871.886 1.644-.172 3.345-2.091 2.908-1.564-.354-4.87-6.252-6.246-7.566-2.702 2.708-6.197 4.19-10.003 4.543l-.275 6.825c-.305 1.376-2.38 1.196-2.63-.38.192-1.776.143-3.552.194-5.333.017-.525.51-.976-.146-1.298-.857-.418-3.017-.636-4.25-1.12s-2.228-1.188-3.36-1.744c-1.324.85-4.524 5.117-5.803 5.286-.91.12-1.798-.605-1.738-1.524.083-1.283 4.535-4.316 5.359-5.597-1.064-1.539-2.125-3.104-2.661-4.92-.149-.505-.631-2.48-.631-2.87v-2.981zm15.455-10.44c-7.171.966-12.865 9.227-9.972 16.196 5.16 12.43 24.957-.29 20.12-11.179-1.749-3.936-6.006-5.575-10.15-5.017z"/><path d="M23.955 18.06c2.952-.4 6.325.52 7.643 3.396 3.361 7.331-7.312 13.946-12.863 8.48-4.228-4.164-.033-11.166 5.22-11.877"/></g><defs><clipPath id="a"><path fill="#fff" d="M0 0h48v48H0z"/></clipPath></defs></svg>