<svg xmlns="http://www.w3.org/2000/svg" width="21" height="21" fill="none" viewBox="0 0 21 21"><path fill="#fffcee" d="M20.815 10.407C20.815 4.66 16.155 0 10.407 0S0 4.66 0 10.407c0 5.748 4.66 10.408 10.407 10.408 5.748 0 10.408-4.66 10.408-10.408"/><path fill="#bb2040" d="M9.303 11.027c0-1.052.527-1.983 1.331-2.543a2.068 2.068 0 0 0-3.257 1.69v3.679h1.926z"/><path fill="#bb2040" d="M12.692 8.595h-.295a2.435 2.435 0 0 0-2.432 2.432v4.867h5.16v-4.867a2.435 2.435 0 0 0-2.433-2.432M7.795 7.997a1.669 1.669 0 0 0-2.592 1.387v2.878h1.508v-2.088c0-.888.426-1.678 1.084-2.177M6.73 7.47a1.058 1.058 0 0 0 0-2.114 1.058 1.058 0 0 0 0 2.114M13.034 7.95a1.74 1.74 0 0 0 1.244-1.663c0-.956-.778-1.733-1.734-1.733s-1.734.777-1.734 1.733a1.737 1.737 0 0 0 2.224 1.663M9.712 7.46c.503-.153.871-.62.871-1.172 0-.675-.549-1.224-1.223-1.224a1.225 1.225 0 0 0-.304 2.409 1.2 1.2 0 0 0 .656-.014"/></svg>