<svg xmlns="http://www.w3.org/2000/svg" width="21" height="21" fill="none" viewBox="0 0 21 21"><path fill="#fffcee" d="M10.407 20.815c5.75 0 10.408-4.658 10.408-10.408S16.157 0 10.407 0 0 4.658 0 10.407c0 5.75 4.658 10.408 10.407 10.408M4.762 10.182l10.035-3.869c.465-.168.872.114.721.818l.001-.001-1.708 8.05c-.127.57-.466.709-.94.44l-2.602-1.918-1.255 1.21c-.139.138-.256.255-.525.255l.185-2.648 4.822-4.356c.21-.185-.047-.289-.324-.105L7.213 11.81l-2.569-.802c-.557-.176-.57-.557.118-.826"/></svg>