<svg xmlns="http://www.w3.org/2000/svg" width="82" height="82" fill="none" viewBox="0 0 82 82"><g filter="url(#a)"><path fill="#2aa048" d="M41 79c20.987 0 38-17.013 38-38S61.987 3 41 3 3 20.013 3 41s17.013 38 38 38"/></g><path fill="#fff" d="M56.82 39.184 42.382 24.682a2.305 2.305 0 0 0-3.268 0L24.676 39.184c-1.447 1.454-.417 3.932 1.634 3.932h5.744v19.317a2.305 2.305 0 0 0 2.305 2.305h12.776a2.305 2.305 0 0 0 2.305-2.305V43.116h5.744c2.052 0 3.08-2.478 1.633-3.932z"/><path fill="#fffcee" d="M52.501 17.05q.24.06.414.028a.53.53 0 0 0 .296-.166.7.7 0 0 0 .172-.328q.073-.296-.063-.51-.136-.216-.502-.305l-1.064-.263-.317 1.281zm2.257-.126a1.8 1.8 0 0 1-.284.614q-.196.29-.507.484a1.8 1.8 0 0 1-.723.258q-.417.053-.937-.075l-1.15-.284-.466 1.887-1.352-.334 1.344-5.436 2.5.618q.677.166 1.058.525.39.352.508.81.126.459.009.933M43.979 13.164l1.383.16-.395 3.432q-.037.318.064.563a.86.86 0 0 0 .318.383q.217.138.528.174.318.036.569-.048a.85.85 0 0 0 .405-.3 1.07 1.07 0 0 0 .198-.532l.395-3.433 1.383.159-.38 3.306q-.067.58-.316.994-.249.406-.632.66-.375.247-.836.34a3 3 0 0 1-.946.035 2.8 2.8 0 0 1-1.163-.391q-.51-.325-.778-.87-.267-.555-.178-1.326zM36.965 18.968a3 3 0 0 1-1.133-.117 2.9 2.9 0 0 1-.964-.508 2.8 2.8 0 0 1-.687-.85 2.9 2.9 0 0 1-.317-1.139q-.05-.63.13-1.166.18-.544.54-.951.369-.415.87-.665.5-.249 1.1-.297.597-.05 1.133.116.542.165.965.516.42.343.687.851.264.5.316 1.13t-.13 1.175q-.18.535-.548.951-.36.407-.862.656a3 3 0 0 1-1.1.298m-.096-1.188q.439-.036.748-.278a1.46 1.46 0 0 0 .463-.631q.153-.39.114-.868a1.9 1.9 0 0 0-.253-.839 1.46 1.46 0 0 0-.558-.548 1.36 1.36 0 0 0-.783-.153q-.447.035-.756.278a1.46 1.46 0 0 0-.462.631 2 2 0 0 0-.107.867q.04.48.245.84.213.36.558.548.344.189.791.153M31.137 15.93a1.3 1.3 0 0 0-.619-.408 1.46 1.46 0 0 0-.748-.01q-.421.097-.7.39-.278.285-.38.703-.095.406.01.867.113.492.375.817.263.326.645.452.39.124.866.015a1.33 1.33 0 0 0 .824-.558q.14-.213.223-.461l-.052-.226-1.31.3-.243-1.061 2.558-.585.366 1.599q-.096.44-.364.887-.269.439-.722.789a2.9 2.9 0 0 1-1.118.493q-.623.144-1.185.058a2.66 2.66 0 0 1-1.792-1.125 3.2 3.2 0 0 1-.452-1.078 3.2 3.2 0 0 1-.06-1.16q.085-.561.366-1.019a2.7 2.7 0 0 1 .75-.779 3.1 3.1 0 0 1 1.084-.461q.6-.138 1.15-.066.558.069 1.004.336.453.258.735.702z"/><defs><filter id="a" width="82" height="82" x="0" y="0" color-interpolation-filters="sRGB" filterUnits="userSpaceOnUse"><feFlood flood-opacity="0" result="BackgroundImageFix"/><feColorMatrix in="SourceAlpha" result="hardAlpha" values="0 0 0 0 0 0 0 0 0 0 0 0 0 0 0 0 0 0 127 0"/><feOffset/><feGaussianBlur stdDeviation="1.5"/><feComposite in2="hardAlpha" operator="out"/><feColorMatrix values="0 0 0 0 0 0 0 0 0 0 0 0 0 0 0 0 0 0 0.5 0"/><feBlend in2="BackgroundImageFix" result="effect1_dropShadow_75_24680"/><feBlend in="SourceGraphic" in2="effect1_dropShadow_75_24680" result="shape"/></filter></defs></svg>