<svg xmlns="http://www.w3.org/2000/svg" width="77" height="77" fill="none" viewBox="0 0 77 77"><path fill="#2aa048" d="M51.457 2.318a38.3 38.3 0 0 1 10.311 5.66c-15.716 1.187-26.01 9.83-29.267 14.143.724-.36 1.9-.181 2.398-.048-4.651 4.647-2.264 7.1-.488 7.746 2.898-2.851 7.227-3.386 9.028-3.297-3.637-6.355 10.39-14.448 18.827-18.156a38.2 38.2 0 0 1 6.242 6.296c-7.746 2.806-13.692 6.82-16.546 9.37.704-.423 1.63-.068 2.005.163-1.328.79-3.82 3.026-3.163 5.642.658 2.615 5.128.543 7.281-.82-.193 1.345.318 1.696.598 1.704 3.296-5.15 7.862-9.17 12.491-12.193a38.6 38.6 0 0 1 3.32 7.008c-3.248 5.14-11.743 16.605-19.953 13.23.099 2.346-.575 7.373-4.065 8.708-.11 1.61 1.103 4.037 6.83.856-.039.568-.354 1.78-1.291 2.298C60.716 48.27 70.342 40.47 74.87 26.657a38.18 38.18 0 0 1-.48 24.8c-7.236 19.902-29.236 30.17-49.139 22.934C5.35 67.155-4.918 45.154 2.32 25.252 9.555 5.35 31.555-4.918 51.457 2.318M46.82 33.685c-4.015-.918-14.762-.475-25.633 8.637-13.588 11.39-5.371 15.58-4.485 14.98s9.088-8.293 16.265-4.807 2.373 11.332.008 11.961c4.672-.83 14.217-5.232 15.026-16.193l-1.754-2.394c.766-.583 2.337-2.011 2.505-3.061s-.668-1.51-1.107-1.61c.755-.854 2.113-3.06 1.51-5.046-.602-1.987-4.746-1.65-6.743-1.234 1-.437 3.281-1.296 4.408-1.233m-7.355 9.802c-.59.887-1.475 2.289-1.503 4.136-.452-.64-2-1.87-5.524-2.008 1.63-1.044 4.887-2.334 7.027-2.128m-2.893-34.6c-17.811 7.898-22.575 18.297-22.73 22.508.44-.632 1.434-.893 1.876-.945-.628 4.639 2.075 6.272 3.506 6.51 1.797-5.175 6.014-6.939 7.898-7.174-8.799-2.803 2.634-15.101 9.45-20.9"/></svg>